# Blender v2.79 (sub 0) OBJ File: ''
# www.blender.org
mtllib modubar_shelving_unit_triple_basic_2.mtl
o bodyModel
v 1.437500 2.000000 -0.500001
v -1.437500 2.000000 -0.500000
v -1.437500 2.000000 -0.437500
v 1.437500 2.000000 -0.437501
v 1.437500 1.937500 -0.437501
v -1.437500 1.937500 -0.437500
v -1.437500 1.937500 -0.500000
v 1.437500 1.937500 -0.500001
v 1.437500 2.000000 -0.062501
v -1.437500 2.000000 -0.062500
v -1.437500 2.000000 -0.000000
v 1.437500 2.000000 -0.000001
v 1.437500 1.937500 -0.000001
v -1.437500 1.937500 -0.000000
v -1.437500 1.937500 -0.062500
v 1.437500 1.937500 -0.062501
v 1.500000 2.000000 -0.500001
v 1.437500 2.000000 -0.500001
v 1.437500 2.000000 -0.437501
v 1.500000 2.000000 -0.437501
v 1.500000 -0.000000 -0.437500
v 1.437500 -0.000000 -0.437500
v 1.437500 -0.000000 -0.500000
v 1.500000 -0.000000 -0.500000
v 1.500000 2.000000 -0.062501
v 1.437500 2.000000 -0.062501
v 1.437500 2.000000 -0.000001
v 1.500000 2.000000 -0.000001
v 1.500000 0.000000 -0.000000
v 1.437500 0.000000 -0.000000
v 1.437500 -0.000000 -0.062500
v 1.500000 -0.000000 -0.062500
v 1.437500 1.000000 -0.062500
v -1.437500 1.000000 -0.062500
v -1.437500 1.000000 0.000000
v 1.437500 1.000000 -0.000000
v 1.437500 0.937500 -0.000000
v -1.437500 0.937500 0.000000
v -1.437500 0.937500 -0.062500
v 1.437500 0.937500 -0.062500
v 1.437500 1.000000 -0.500000
v -1.437500 1.000000 -0.500000
v -1.437500 1.000000 -0.437500
v 1.437500 1.000000 -0.437500
v 1.437500 0.937500 -0.437500
v -1.437500 0.937500 -0.437500
v -1.437500 0.937500 -0.500000
v 1.437500 0.937500 -0.500000
v -1.437500 2.000000 -0.062500
v -1.500000 2.000000 -0.062500
v -1.500000 2.000000 -0.000000
v -1.437500 2.000000 -0.000000
v -1.437500 0.000000 0.000000
v -1.500000 0.000000 0.000000
v -1.500000 -0.000000 -0.062500
v -1.437500 -0.000000 -0.062500
v -1.437500 2.000000 -0.437500
v -1.500000 2.000000 -0.437500
v -1.500000 2.000000 -0.062500
v -1.437500 2.000000 -0.062500
v -1.437500 1.937500 -0.062500
v -1.500000 1.937500 -0.062500
v -1.500000 1.937500 -0.437500
v -1.437500 1.937500 -0.437500
v -1.437500 2.000000 -0.500000
v -1.500000 2.000000 -0.500000
v -1.500000 2.000000 -0.437500
v -1.437500 2.000000 -0.437500
v -1.437500 -0.000000 -0.437500
v -1.500000 -0.000000 -0.437500
v -1.500000 -0.000000 -0.500000
v -1.437500 -0.000000 -0.500000
v -1.437500 1.500000 -0.437500
v -1.500000 1.500000 -0.437500
v -1.500000 1.500000 -0.062500
v -1.437500 1.500000 -0.062500
v -1.437500 1.437500 -0.062500
v -1.500000 1.437500 -0.062500
v -1.500000 1.437500 -0.437500
v -1.437500 1.437500 -0.437500
v -1.437500 0.500000 -0.437500
v -1.500000 0.500000 -0.437500
v -1.500000 0.500000 -0.062500
v -1.437500 0.500000 -0.062500
v -1.437500 0.437500 -0.062500
v -1.500000 0.437500 -0.062500
v -1.500000 0.437500 -0.437500
v -1.437500 0.437500 -0.437500
v -1.437500 1.000000 -0.437500
v -1.500000 1.000000 -0.437500
v -1.500000 1.000000 -0.062500
v -1.437500 1.000000 -0.062500
v -1.437500 0.937500 -0.062500
v -1.500000 0.937500 -0.062500
v -1.500000 0.937500 -0.437500
v -1.437500 0.937500 -0.437500
v 1.500000 0.500000 -0.437500
v 1.437500 0.500000 -0.437500
v 1.437500 0.500000 -0.062500
v 1.500000 0.500000 -0.062500
v 1.500000 0.437500 -0.062500
v 1.437500 0.437500 -0.062500
v 1.437500 0.437500 -0.437500
v 1.500000 0.437500 -0.437500
v 1.500000 1.000000 -0.437500
v 1.437500 1.000000 -0.437500
v 1.437500 1.000000 -0.062500
v 1.500000 1.000000 -0.062500
v 1.500000 0.937500 -0.062500
v 1.437500 0.937500 -0.062500
v 1.437500 0.937500 -0.437500
v 1.500000 0.937500 -0.437500
v 1.500000 1.500000 -0.437500
v 1.437500 1.500000 -0.437500
v 1.437500 1.500000 -0.062500
v 1.500000 1.500000 -0.062500
v 1.500000 1.437500 -0.062500
v 1.437500 1.437500 -0.062500
v 1.437500 1.437500 -0.437500
v 1.500000 1.437500 -0.437500
v 1.500000 2.000000 -0.437501
v 1.437500 2.000000 -0.437501
v 1.437500 2.000000 -0.062501
v 1.500000 2.000000 -0.062501
v 1.500000 1.937500 -0.062501
v 1.437500 1.937500 -0.062501
v 1.437500 1.937500 -0.437501
v 1.500000 1.937500 -0.437501
v 1.437500 1.500000 -0.062500
v -1.437500 1.500000 -0.062500
v -1.437500 1.500000 -0.000000
v 1.437500 1.500000 -0.000000
v 1.437500 1.437500 -0.000000
v -1.437500 1.437500 -0.000000
v -1.437500 1.437500 -0.062500
v 1.437500 1.437500 -0.062500
v 1.437500 1.500000 -0.500000
v -1.437500 1.500000 -0.500000
v -1.437500 1.500000 -0.437500
v 1.437500 1.500000 -0.437500
v 1.437500 1.437500 -0.437500
v -1.437500 1.437500 -0.437500
v -1.437500 1.437500 -0.500000
v 1.437500 1.437500 -0.500000
v 1.437500 0.500000 -0.062500
v -1.437500 0.500000 -0.062500
v -1.437500 0.500000 0.000000
v 1.437500 0.500000 -0.000000
v 1.437500 0.437500 -0.000000
v -1.437500 0.437500 0.000000
v -1.437500 0.437500 -0.062500
v 1.437500 0.437500 -0.062500
v 1.437500 0.500000 -0.500000
v -1.437500 0.500000 -0.500000
v -1.437500 0.500000 -0.437500
v 1.437500 0.500000 -0.437500
v 1.437500 0.437500 -0.437500
v -1.437500 0.437500 -0.437500
v -1.437500 0.437500 -0.500000
v 1.437500 0.437500 -0.500000
vt 1.015625 0.984375
vt 1.375000 0.984375
vt 1.375000 0.992188
vt 1.015625 0.992188
vt 1.375000 0.984375
vt 1.734375 0.984375
vt 1.734375 0.992188
vt 1.375000 0.992188
vt 1.015625 0.976562
vt 1.375000 0.976562
vt 1.742188 0.984375
vt 1.382812 0.984375
vt 1.382812 0.976562
vt 1.742188 0.976562
vt 1.007812 0.984375
vt 1.007812 0.976562
vt 1.015625 0.921875
vt 1.375000 0.921875
vt 1.375000 0.929688
vt 1.015625 0.929688
vt 1.375000 0.921875
vt 1.734375 0.921875
vt 1.734375 0.929688
vt 1.375000 0.929688
vt 1.015625 0.914062
vt 1.375000 0.914062
vt 1.742188 0.921875
vt 1.382812 0.921875
vt 1.382812 0.914062
vt 1.742188 0.914062
vt 1.007812 0.921875
vt 1.007812 0.914062
vt 1.765625 0.984375
vt 1.773438 0.984375
vt 1.773438 0.992188
vt 1.765625 0.992188
vt 1.773438 0.984375
vt 1.781250 0.984375
vt 1.781250 0.992188
vt 1.773438 0.992188
vt 1.765625 0.734375
vt 1.773438 0.734375
vt 1.789062 0.984375
vt 1.781250 0.984375
vt 1.781250 0.734375
vt 1.789062 0.734375
vt 1.757812 0.984375
vt 1.757812 0.734375
vt 1.828125 0.984375
vt 1.835938 0.984375
vt 1.835938 0.992188
vt 1.828125 0.992188
vt 1.835938 0.984375
vt 1.843750 0.984375
vt 1.843750 0.992188
vt 1.835938 0.992188
vt 1.828125 0.734375
vt 1.835938 0.734375
vt 1.851562 0.984375
vt 1.843750 0.984375
vt 1.843750 0.734375
vt 1.851562 0.734375
vt 1.820312 0.984375
vt 1.820312 0.734375
vt 1.015625 0.859375
vt 1.375000 0.859375
vt 1.375000 0.867188
vt 1.015625 0.867188
vt 1.375000 0.859375
vt 1.734375 0.859375
vt 1.734375 0.867188
vt 1.375000 0.867188
vt 1.015625 0.851562
vt 1.375000 0.851562
vt 1.742188 0.859375
vt 1.382812 0.859375
vt 1.382812 0.851562
vt 1.742188 0.851562
vt 1.007812 0.859375
vt 1.007812 0.851562
vt 1.015625 0.796875
vt 1.375000 0.796875
vt 1.375000 0.804688
vt 1.015625 0.804688
vt 1.375000 0.796875
vt 1.734375 0.796875
vt 1.734375 0.804688
vt 1.375000 0.804688
vt 1.015625 0.789062
vt 1.375000 0.789062
vt 1.742188 0.796875
vt 1.382812 0.796875
vt 1.382812 0.789062
vt 1.742188 0.789062
vt 1.007812 0.796875
vt 1.007812 0.789062
vt 1.890625 0.984375
vt 1.898438 0.984375
vt 1.898438 0.992188
vt 1.890625 0.992188
vt 1.898438 0.984375
vt 1.906250 0.984375
vt 1.906250 0.992188
vt 1.898438 0.992188
vt 1.890625 0.734375
vt 1.898438 0.734375
vt 1.914062 0.984375
vt 1.906250 0.984375
vt 1.906250 0.734375
vt 1.914062 0.734375
vt 1.882812 0.984375
vt 1.882812 0.734375
vt 1.054688 0.695312
vt 1.062500 0.695312
vt 1.062500 0.742188
vt 1.054688 0.742188
vt 1.062500 0.695312
vt 1.070312 0.695312
vt 1.070312 0.742188
vt 1.062500 0.742188
vt 1.054688 0.687500
vt 1.062500 0.687500
vt 1.117188 0.695312
vt 1.109375 0.695312
vt 1.109375 0.687500
vt 1.117188 0.687500
vt 1.007812 0.695312
vt 1.007812 0.687500
vt 1.953125 0.984375
vt 1.960938 0.984375
vt 1.960938 0.992188
vt 1.953125 0.992188
vt 1.960938 0.984375
vt 1.968750 0.984375
vt 1.968750 0.992188
vt 1.960938 0.992188
vt 1.953125 0.734375
vt 1.960938 0.734375
vt 1.976562 0.984375
vt 1.968750 0.984375
vt 1.968750 0.734375
vt 1.976562 0.734375
vt 1.945312 0.984375
vt 1.945312 0.734375
vt 1.179688 0.695312
vt 1.187500 0.695312
vt 1.187500 0.742188
vt 1.179688 0.742188
vt 1.187500 0.695312
vt 1.195312 0.695312
vt 1.195312 0.742188
vt 1.187500 0.742188
vt 1.179688 0.687500
vt 1.187500 0.687500
vt 1.242188 0.695312
vt 1.234375 0.695312
vt 1.234375 0.687500
vt 1.242188 0.687500
vt 1.132812 0.695312
vt 1.132812 0.687500
vt 1.304688 0.695312
vt 1.312500 0.695312
vt 1.312500 0.742188
vt 1.304688 0.742188
vt 1.312500 0.695312
vt 1.320312 0.695312
vt 1.320312 0.742188
vt 1.312500 0.742188
vt 1.304688 0.687500
vt 1.312500 0.687500
vt 1.367188 0.695312
vt 1.359375 0.695312
vt 1.359375 0.687500
vt 1.367188 0.687500
vt 1.257812 0.695312
vt 1.257812 0.687500
vt 1.429688 0.695312
vt 1.437500 0.695312
vt 1.437500 0.742188
vt 1.429688 0.742188
vt 1.437500 0.695312
vt 1.445312 0.695312
vt 1.445312 0.742188
vt 1.437500 0.742188
vt 1.429688 0.687500
vt 1.437500 0.687500
vt 1.492188 0.695312
vt 1.484375 0.695312
vt 1.484375 0.687500
vt 1.492188 0.687500
vt 1.382812 0.695312
vt 1.382812 0.687500
vt 1.554688 0.695312
vt 1.562500 0.695312
vt 1.562500 0.742188
vt 1.554688 0.742188
vt 1.562500 0.695312
vt 1.570312 0.695312
vt 1.570312 0.742188
vt 1.562500 0.742188
vt 1.554688 0.687500
vt 1.562500 0.687500
vt 1.617188 0.695312
vt 1.609375 0.695312
vt 1.609375 0.687500
vt 1.617188 0.687500
vt 1.507812 0.695312
vt 1.507812 0.687500
vt 1.679688 0.695312
vt 1.687500 0.695312
vt 1.687500 0.742188
vt 1.679688 0.742188
vt 1.687500 0.695312
vt 1.695312 0.695312
vt 1.695312 0.742188
vt 1.687500 0.742188
vt 1.679688 0.687500
vt 1.687500 0.687500
vt 1.742188 0.695312
vt 1.734375 0.695312
vt 1.734375 0.687500
vt 1.742188 0.687500
vt 1.632812 0.695312
vt 1.632812 0.687500
vt 1.929688 0.632812
vt 1.937500 0.632812
vt 1.937500 0.679688
vt 1.929688 0.679688
vt 1.937500 0.632812
vt 1.945312 0.632812
vt 1.945312 0.679688
vt 1.937500 0.679688
vt 1.929688 0.625000
vt 1.937500 0.625000
vt 1.992188 0.632812
vt 1.984375 0.632812
vt 1.984375 0.625000
vt 1.992188 0.625000
vt 1.882812 0.632812
vt 1.882812 0.625000
vt 1.929688 0.570312
vt 1.937500 0.570312
vt 1.937500 0.617188
vt 1.929688 0.617188
vt 1.937500 0.570312
vt 1.945312 0.570312
vt 1.945312 0.617188
vt 1.937500 0.617188
vt 1.929688 0.562500
vt 1.937500 0.562500
vt 1.992188 0.570312
vt 1.984375 0.570312
vt 1.984375 0.562500
vt 1.992188 0.562500
vt 1.882812 0.570312
vt 1.882812 0.562500
vt 1.015625 0.546875
vt 1.375000 0.546875
vt 1.375000 0.554688
vt 1.015625 0.554688
vt 1.375000 0.546875
vt 1.734375 0.546875
vt 1.734375 0.554688
vt 1.375000 0.554688
vt 1.015625 0.539062
vt 1.375000 0.539062
vt 1.742188 0.546875
vt 1.382812 0.546875
vt 1.382812 0.539062
vt 1.742188 0.539062
vt 1.007812 0.546875
vt 1.007812 0.539062
vt 1.015625 0.421875
vt 1.375000 0.421875
vt 1.375000 0.429688
vt 1.015625 0.429688
vt 1.375000 0.421875
vt 1.734375 0.421875
vt 1.734375 0.429688
vt 1.375000 0.429688
vt 1.015625 0.414062
vt 1.375000 0.414062
vt 1.742188 0.421875
vt 1.382812 0.421875
vt 1.382812 0.414062
vt 1.742188 0.414062
vt 1.007812 0.421875
vt 1.007812 0.414062
vt 1.015625 0.359375
vt 1.375000 0.359375
vt 1.375000 0.367188
vt 1.015625 0.367188
vt 1.375000 0.359375
vt 1.734375 0.359375
vt 1.734375 0.367188
vt 1.375000 0.367188
vt 1.015625 0.351562
vt 1.375000 0.351562
vt 1.742188 0.359375
vt 1.382812 0.359375
vt 1.382812 0.351562
vt 1.742188 0.351562
vt 1.007812 0.359375
vt 1.007812 0.351562
vt 1.015625 0.234375
vt 1.375000 0.234375
vt 1.375000 0.242188
vt 1.015625 0.242188
vt 1.375000 0.234375
vt 1.734375 0.234375
vt 1.734375 0.242188
vt 1.375000 0.242188
vt 1.015625 0.226562
vt 1.375000 0.226562
vt 1.742188 0.234375
vt 1.382812 0.234375
vt 1.382812 0.226562
vt 1.742188 0.226562
vt 1.007812 0.234375
vt 1.007812 0.226562
vn 0.0000 1.0000 0.0000
vn 0.0000 -1.0000 0.0000
vn -0.0000 0.0000 -1.0000
vn 0.0000 0.0000 1.0000
vn -1.0000 0.0000 0.0000
vn 1.0000 0.0000 0.0000
usemtl ModelMaterial.006
s 1
f 1/1/1 2/2/1 3/3/1 4/4/1
f 5/5/2 6/6/2 7/7/2 8/8/2
f 2/2/3 1/1/3 8/9/3 7/10/3
f 4/11/4 3/12/4 6/13/4 5/14/4
f 3/12/5 2/2/5 7/10/5 6/13/5
f 1/1/6 4/15/6 5/16/6 8/9/6
f 9/17/1 10/18/1 11/19/1 12/20/1
f 13/21/2 14/22/2 15/23/2 16/24/2
f 10/18/3 9/17/3 16/25/3 15/26/3
f 12/27/4 11/28/4 14/29/4 13/30/4
f 11/28/5 10/18/5 15/26/5 14/29/5
f 9/17/6 12/31/6 13/32/6 16/25/6
f 17/33/1 18/34/1 19/35/1 20/36/1
f 21/37/2 22/38/2 23/39/2 24/40/2
f 18/34/3 17/33/3 24/41/3 23/42/3
f 20/43/4 19/44/4 22/45/4 21/46/4
f 19/44/5 18/34/5 23/42/5 22/45/5
f 17/33/6 20/47/6 21/48/6 24/41/6
f 25/49/1 26/50/1 27/51/1 28/52/1
f 29/53/2 30/54/2 31/55/2 32/56/2
f 26/50/3 25/49/3 32/57/3 31/58/3
f 28/59/4 27/60/4 30/61/4 29/62/4
f 27/60/5 26/50/5 31/58/5 30/61/5
f 25/49/6 28/63/6 29/64/6 32/57/6
f 33/65/1 34/66/1 35/67/1 36/68/1
f 37/69/2 38/70/2 39/71/2 40/72/2
f 34/66/3 33/65/3 40/73/3 39/74/3
f 36/75/4 35/76/4 38/77/4 37/78/4
f 35/76/5 34/66/5 39/74/5 38/77/5
f 33/65/6 36/79/6 37/80/6 40/73/6
f 41/81/1 42/82/1 43/83/1 44/84/1
f 45/85/2 46/86/2 47/87/2 48/88/2
f 42/82/3 41/81/3 48/89/3 47/90/3
f 44/91/4 43/92/4 46/93/4 45/94/4
f 43/92/5 42/82/5 47/90/5 46/93/5
f 41/81/6 44/95/6 45/96/6 48/89/6
f 49/97/1 50/98/1 51/99/1 52/100/1
f 53/101/2 54/102/2 55/103/2 56/104/2
f 50/98/3 49/97/3 56/105/3 55/106/3
f 52/107/4 51/108/4 54/109/4 53/110/4
f 51/108/5 50/98/5 55/106/5 54/109/5
f 49/97/6 52/111/6 53/112/6 56/105/6
f 57/113/1 58/114/1 59/115/1 60/116/1
f 61/117/2 62/118/2 63/119/2 64/120/2
f 58/114/3 57/113/3 64/121/3 63/122/3
f 60/123/4 59/124/4 62/125/4 61/126/4
f 59/124/5 58/114/5 63/122/5 62/125/5
f 57/113/6 60/127/6 61/128/6 64/121/6
f 65/129/1 66/130/1 67/131/1 68/132/1
f 69/133/2 70/134/2 71/135/2 72/136/2
f 66/130/3 65/129/3 72/137/3 71/138/3
f 68/139/4 67/140/4 70/141/4 69/142/4
f 67/140/5 66/130/5 71/138/5 70/141/5
f 65/129/6 68/143/6 69/144/6 72/137/6
f 73/145/1 74/146/1 75/147/1 76/148/1
f 77/149/2 78/150/2 79/151/2 80/152/2
f 74/146/3 73/145/3 80/153/3 79/154/3
f 76/155/4 75/156/4 78/157/4 77/158/4
f 75/156/5 74/146/5 79/154/5 78/157/5
f 73/145/6 76/159/6 77/160/6 80/153/6
f 81/161/1 82/162/1 83/163/1 84/164/1
f 85/165/2 86/166/2 87/167/2 88/168/2
f 82/162/3 81/161/3 88/169/3 87/170/3
f 84/171/4 83/172/4 86/173/4 85/174/4
f 83/172/5 82/162/5 87/170/5 86/173/5
f 81/161/6 84/175/6 85/176/6 88/169/6
f 89/177/1 90/178/1 91/179/1 92/180/1
f 93/181/2 94/182/2 95/183/2 96/184/2
f 90/178/3 89/177/3 96/185/3 95/186/3
f 92/187/4 91/188/4 94/189/4 93/190/4
f 91/188/5 90/178/5 95/186/5 94/189/5
f 89/177/6 92/191/6 93/192/6 96/185/6
f 97/193/1 98/194/1 99/195/1 100/196/1
f 101/197/2 102/198/2 103/199/2 104/200/2
f 98/194/3 97/193/3 104/201/3 103/202/3
f 100/203/4 99/204/4 102/205/4 101/206/4
f 99/204/5 98/194/5 103/202/5 102/205/5
f 97/193/6 100/207/6 101/208/6 104/201/6
f 105/209/1 106/210/1 107/211/1 108/212/1
f 109/213/2 110/214/2 111/215/2 112/216/2
f 106/210/3 105/209/3 112/217/3 111/218/3
f 108/219/4 107/220/4 110/221/4 109/222/4
f 107/220/5 106/210/5 111/218/5 110/221/5
f 105/209/6 108/223/6 109/224/6 112/217/6
f 113/225/1 114/226/1 115/227/1 116/228/1
f 117/229/2 118/230/2 119/231/2 120/232/2
f 114/226/3 113/225/3 120/233/3 119/234/3
f 116/235/4 115/236/4 118/237/4 117/238/4
f 115/236/5 114/226/5 119/234/5 118/237/5
f 113/225/6 116/239/6 117/240/6 120/233/6
f 121/241/1 122/242/1 123/243/1 124/244/1
f 125/245/2 126/246/2 127/247/2 128/248/2
f 122/242/3 121/241/3 128/249/3 127/250/3
f 124/251/4 123/252/4 126/253/4 125/254/4
f 123/252/5 122/242/5 127/250/5 126/253/5
f 121/241/6 124/255/6 125/256/6 128/249/6
f 129/257/1 130/258/1 131/259/1 132/260/1
f 133/261/2 134/262/2 135/263/2 136/264/2
f 130/258/3 129/257/3 136/265/3 135/266/3
f 132/267/4 131/268/4 134/269/4 133/270/4
f 131/268/5 130/258/5 135/266/5 134/269/5
f 129/257/6 132/271/6 133/272/6 136/265/6
f 137/273/1 138/274/1 139/275/1 140/276/1
f 141/277/2 142/278/2 143/279/2 144/280/2
f 138/274/3 137/273/3 144/281/3 143/282/3
f 140/283/4 139/284/4 142/285/4 141/286/4
f 139/284/5 138/274/5 143/282/5 142/285/5
f 137/273/6 140/287/6 141/288/6 144/281/6
f 145/289/1 146/290/1 147/291/1 148/292/1
f 149/293/2 150/294/2 151/295/2 152/296/2
f 146/290/3 145/289/3 152/297/3 151/298/3
f 148/299/4 147/300/4 150/301/4 149/302/4
f 147/300/5 146/290/5 151/298/5 150/301/5
f 145/289/6 148/303/6 149/304/6 152/297/6
f 153/305/1 154/306/1 155/307/1 156/308/1
f 157/309/2 158/310/2 159/311/2 160/312/2
f 154/306/3 153/305/3 160/313/3 159/314/3
f 156/315/4 155/316/4 158/317/4 157/318/4
f 155/316/5 154/306/5 159/314/5 158/317/5
f 153/305/6 156/319/6 157/320/6 160/313/6
o shelf_translucent
v 1.437500 2.000000 -0.437501
v -1.437500 2.000000 -0.437500
v -1.437500 2.000000 -0.062500
v 1.437500 2.000000 -0.062501
v 1.437500 1.953125 -0.062501
v -1.437500 1.953125 -0.062500
v -1.437500 1.953125 -0.437500
v 1.437500 1.953125 -0.437501
v 1.437500 1.000000 -0.437500
v -1.437500 1.000000 -0.437500
v -1.437500 1.000000 -0.062500
v 1.437500 1.000000 -0.062500
v 1.437500 0.953125 -0.062500
v -1.437500 0.953125 -0.062500
v -1.437500 0.953125 -0.437500
v 1.437500 0.953125 -0.437500
v 1.437500 1.500000 -0.437500
v -1.437500 1.500000 -0.437500
v -1.437500 1.500000 -0.062500
v 1.437500 1.500000 -0.062500
v 1.437500 1.453125 -0.062500
v -1.437500 1.453125 -0.062500
v -1.437500 1.453125 -0.437500
v 1.437500 1.453125 -0.437500
v 1.437500 0.500000 -0.437500
v -1.437500 0.500000 -0.437500
v -1.437500 0.500000 -0.062500
v 1.437500 0.500000 -0.062500
v 1.437500 0.453125 -0.062500
v -1.437500 0.453125 -0.062500
v -1.437500 0.453125 -0.437500
v 1.437500 0.453125 -0.437500
vt 1.054688 0.632812
vt 1.414062 0.632812
vt 1.414062 0.679688
vt 1.054688 0.679688
vt 1.414062 0.632812
vt 1.773438 0.632812
vt 1.773438 0.679688
vt 1.414062 0.679688
vt 1.054688 0.625000
vt 1.414062 0.625000
vt 1.820312 0.632812
vt 1.460938 0.632812
vt 1.460938 0.625000
vt 1.820312 0.625000
vt 1.007812 0.632812
vt 1.007812 0.625000
vt 1.054688 0.570312
vt 1.414062 0.570312
vt 1.414062 0.617188
vt 1.054688 0.617188
vt 1.414062 0.570312
vt 1.773438 0.570312
vt 1.773438 0.617188
vt 1.414062 0.617188
vt 1.054688 0.562500
vt 1.414062 0.562500
vt 1.820312 0.570312
vt 1.460938 0.570312
vt 1.460938 0.562500
vt 1.820312 0.562500
vt 1.007812 0.570312
vt 1.007812 0.562500
vt 1.054688 0.445312
vt 1.414062 0.445312
vt 1.414062 0.492188
vt 1.054688 0.492188
vt 1.414062 0.445312
vt 1.773438 0.445312
vt 1.773438 0.492188
vt 1.414062 0.492188
vt 1.054688 0.437500
vt 1.414062 0.437500
vt 1.820312 0.445312
vt 1.460938 0.445312
vt 1.460938 0.437500
vt 1.820312 0.437500
vt 1.007812 0.445312
vt 1.007812 0.437500
vt 1.054688 0.257812
vt 1.414062 0.257812
vt 1.414062 0.304688
vt 1.054688 0.304688
vt 1.414062 0.257812
vt 1.773438 0.257812
vt 1.773438 0.304688
vt 1.414062 0.304688
vt 1.054688 0.250000
vt 1.414062 0.250000
vt 1.820312 0.257812
vt 1.460938 0.257812
vt 1.460938 0.250000
vt 1.820312 0.250000
vt 1.007812 0.257812
vt 1.007812 0.250000
vn -0.0000 1.0000 0.0000
vn 0.0000 -1.0000 0.0000
vn -0.0000 -0.0000 -1.0000
vn 0.0000 0.0000 1.0000
vn -1.0000 0.0000 0.0000
vn 1.0000 0.0000 -0.0000
usemtl ModelMaterial.007
s 1
f 161/321/7 162/322/7 163/323/7 164/324/7
f 165/325/8 166/326/8 167/327/8 168/328/8
f 162/322/9 161/321/9 168/329/9 167/330/9
f 164/331/10 163/332/10 166/333/10 165/334/10
f 163/332/11 162/322/11 167/330/11 166/333/11
f 161/321/12 164/335/12 165/336/12 168/329/12
f 169/337/7 170/338/7 171/339/7 172/340/7
f 173/341/8 174/342/8 175/343/8 176/344/8
f 170/338/9 169/337/9 176/345/9 175/346/9
f 172/347/10 171/348/10 174/349/10 173/350/10
f 171/348/11 170/338/11 175/346/11 174/349/11
f 169/337/12 172/351/12 173/352/12 176/345/12
f 177/353/7 178/354/7 179/355/7 180/356/7
f 181/357/8 182/358/8 183/359/8 184/360/8
f 178/354/9 177/353/9 184/361/9 183/362/9
f 180/363/10 179/364/10 182/365/10 181/366/10
f 179/364/11 178/354/11 183/362/11 182/365/11
f 177/353/12 180/367/12 181/368/12 184/361/12
f 185/369/7 186/370/7 187/371/7 188/372/7
f 189/373/8 190/374/8 191/375/8 192/376/8
f 186/370/9 185/369/9 192/377/9 191/378/9
f 188/379/10 187/380/10 190/381/10 189/382/10
f 187/380/11 186/370/11 191/378/11 190/381/11
f 185/369/12 188/383/12 189/384/12 192/377/12
