# Blender v2.79 (sub 0) OBJ File: ''
# www.blender.org
mtllib trin_modubar_back_counter_fridge_simple.mtl
o bodyModel
v -0.437500 1.812500 -0.500000
v -0.500000 1.812500 -0.500000
v -0.500000 1.812500 0.437500
v -0.437500 1.812500 0.437500
v -0.437500 0.125000 0.437500
v -0.500000 0.125000 0.437500
v -0.500000 0.125000 -0.500000
v -0.437500 0.125000 -0.500000
v 0.500000 2.000000 -0.500000
v -0.500000 2.000000 -0.500000
v -0.500000 2.000000 0.500000
v 0.500000 2.000000 0.500000
v 0.500000 1.812500 0.500000
v -0.500000 1.812500 0.500000
v -0.500000 1.812500 -0.500000
v 0.500000 1.812500 -0.500000
v 0.500000 1.812500 -0.500000
v 0.437500 1.812500 -0.500000
v 0.437500 1.812500 0.437500
v 0.500000 1.812500 0.437500
v 0.500000 0.125000 0.437500
v 0.437500 0.125000 0.437500
v 0.437500 0.125000 -0.500000
v 0.500000 0.125000 -0.500000
v 0.500000 0.125000 -0.500000
v -0.500000 0.125000 -0.500000
v -0.500000 0.125000 0.500000
v 0.500000 0.125000 0.500000
v 0.500000 0.000000 0.500000
v -0.500000 0.000000 0.500000
v -0.500000 -0.000000 -0.500000
v 0.500000 -0.000000 -0.500000
v 0.437500 1.812500 -0.500000
v -0.437500 1.812500 -0.500000
v -0.437500 1.812500 -0.437500
v 0.437500 1.812500 -0.437500
v 0.437500 0.125000 -0.437500
v -0.437500 0.125000 -0.437500
v -0.437500 0.125000 -0.500000
v 0.437500 0.125000 -0.500000
v 0.437500 1.000000 -0.437500
v -0.437500 1.000000 -0.437500
v -0.437500 1.000000 0.312500
v 0.437500 1.000000 0.312500
v 0.437500 0.937500 0.312500
v -0.437500 0.937500 0.312500
v -0.437500 0.937500 -0.437500
v 0.437500 0.937500 -0.437500
v 0.437500 0.500000 -0.437500
v -0.437500 0.500000 -0.437500
v -0.437500 0.500000 0.312500
v 0.437500 0.500000 0.312500
v 0.437500 0.437500 0.312500
v -0.437500 0.437500 0.312500
v -0.437500 0.437500 -0.437500
v 0.437500 0.437500 -0.437500
v 0.437500 1.500000 -0.437500
v -0.437500 1.500000 -0.437500
v -0.437500 1.500000 0.312500
v 0.437500 1.500000 0.312500
v 0.437500 1.437500 0.312500
v -0.437500 1.437500 0.312500
v -0.437500 1.437500 -0.437500
v 0.437500 1.437500 -0.437500
vt 1.312500 0.875000
vt 1.320312 0.875000
vt 1.320312 0.992188
vt 1.312500 0.992188
vt 1.320312 0.875000
vt 1.328125 0.875000
vt 1.328125 0.992188
vt 1.320312 0.992188
vt 1.312500 0.664062
vt 1.320312 0.664062
vt 1.445312 0.875000
vt 1.437500 0.875000
vt 1.437500 0.664062
vt 1.445312 0.664062
vt 1.195312 0.875000
vt 1.195312 0.664062
vt 1.507812 0.617188
vt 1.632812 0.617188
vt 1.632812 0.742188
vt 1.507812 0.742188
vt 1.632812 0.617188
vt 1.757812 0.617188
vt 1.757812 0.742188
vt 1.632812 0.742188
vt 1.507812 0.593750
vt 1.632812 0.593750
vt 1.882812 0.617188
vt 1.757812 0.617188
vt 1.757812 0.593750
vt 1.882812 0.593750
vt 1.382812 0.617188
vt 1.382812 0.593750
vt 1.125000 0.625000
vt 1.132812 0.625000
vt 1.132812 0.742188
vt 1.125000 0.742188
vt 1.132812 0.625000
vt 1.140625 0.625000
vt 1.140625 0.742188
vt 1.132812 0.742188
vt 1.125000 0.414062
vt 1.132812 0.414062
vt 1.257812 0.625000
vt 1.250000 0.625000
vt 1.250000 0.414062
vt 1.257812 0.414062
vt 1.007812 0.625000
vt 1.007812 0.414062
vt 1.445312 0.429688
vt 1.570312 0.429688
vt 1.570312 0.554688
vt 1.445312 0.554688
vt 1.570312 0.429688
vt 1.695312 0.429688
vt 1.695312 0.554688
vt 1.570312 0.554688
vt 1.445312 0.414062
vt 1.570312 0.414062
vt 1.820312 0.429688
vt 1.695312 0.429688
vt 1.695312 0.414062
vt 1.820312 0.414062
vt 1.320312 0.429688
vt 1.320312 0.414062
vt 1.515625 0.984375
vt 1.625000 0.984375
vt 1.625000 0.992188
vt 1.515625 0.992188
vt 1.625000 0.984375
vt 1.734375 0.984375
vt 1.734375 0.992188
vt 1.625000 0.992188
vt 1.515625 0.773438
vt 1.625000 0.773438
vt 1.742188 0.984375
vt 1.632812 0.984375
vt 1.632812 0.773438
vt 1.742188 0.773438
vt 1.507812 0.984375
vt 1.507812 0.773438
vt 1.351562 0.273438
vt 1.460938 0.273438
vt 1.460938 0.367188
vt 1.351562 0.367188
vt 1.460938 0.273438
vt 1.570312 0.273438
vt 1.570312 0.367188
vt 1.460938 0.367188
vt 1.351562 0.265625
vt 1.460938 0.265625
vt 1.664062 0.273438
vt 1.554688 0.273438
vt 1.554688 0.265625
vt 1.664062 0.265625
vt 1.257812 0.273438
vt 1.257812 0.265625
vt 1.289062 0.148438
vt 1.398438 0.148438
vt 1.398438 0.242188
vt 1.289062 0.242188
vt 1.398438 0.148438
vt 1.507812 0.148438
vt 1.507812 0.242188
vt 1.398438 0.242188
vt 1.289062 0.140625
vt 1.398438 0.140625
vt 1.601562 0.148438
vt 1.492188 0.148438
vt 1.492188 0.140625
vt 1.601562 0.140625
vt 1.195312 0.148438
vt 1.195312 0.140625
vt 1.664062 0.085938
vt 1.773438 0.085938
vt 1.773438 0.179688
vt 1.664062 0.179688
vt 1.773438 0.085938
vt 1.882812 0.085938
vt 1.882812 0.179688
vt 1.773438 0.179688
vt 1.664062 0.078125
vt 1.773438 0.078125
vt 1.976562 0.085938
vt 1.867188 0.085938
vt 1.867188 0.078125
vt 1.976562 0.078125
vt 1.570312 0.085938
vt 1.570312 0.078125
vn -0.0000 1.0000 -0.0000
vn 0.0000 -1.0000 0.0000
vn 0.0000 -0.0000 -1.0000
vn 0.0000 0.0000 1.0000
vn -1.0000 0.0000 0.0000
vn 1.0000 0.0000 -0.0000
usemtl ModelMaterial
s off
f 1/1/1 2/2/1 3/3/1 4/4/1
f 5/5/2 6/6/2 7/7/2 8/8/2
f 2/2/3 1/1/3 8/9/3 7/10/3
f 4/11/4 3/12/4 6/13/4 5/14/4
f 3/12/5 2/2/5 7/10/5 6/13/5
f 1/1/6 4/15/6 5/16/6 8/9/6
f 9/17/1 10/18/1 11/19/1 12/20/1
f 13/21/2 14/22/2 15/23/2 16/24/2
f 10/18/3 9/17/3 16/25/3 15/26/3
f 12/27/4 11/28/4 14/29/4 13/30/4
f 11/28/5 10/18/5 15/26/5 14/29/5
f 9/17/6 12/31/6 13/32/6 16/25/6
f 17/33/1 18/34/1 19/35/1 20/36/1
f 21/37/2 22/38/2 23/39/2 24/40/2
f 18/34/3 17/33/3 24/41/3 23/42/3
f 20/43/4 19/44/4 22/45/4 21/46/4
f 19/44/5 18/34/5 23/42/5 22/45/5
f 17/33/6 20/47/6 21/48/6 24/41/6
f 25/49/1 26/50/1 27/51/1 28/52/1
f 29/53/2 30/54/2 31/55/2 32/56/2
f 26/50/3 25/49/3 32/57/3 31/58/3
f 28/59/4 27/60/4 30/61/4 29/62/4
f 27/60/5 26/50/5 31/58/5 30/61/5
f 25/49/6 28/63/6 29/64/6 32/57/6
f 33/65/1 34/66/1 35/67/1 36/68/1
f 37/69/2 38/70/2 39/71/2 40/72/2
f 34/66/3 33/65/3 40/73/3 39/74/3
f 36/75/4 35/76/4 38/77/4 37/78/4
f 35/76/5 34/66/5 39/74/5 38/77/5
f 33/65/6 36/79/6 37/80/6 40/73/6
f 41/81/1 42/82/1 43/83/1 44/84/1
f 45/85/2 46/86/2 47/87/2 48/88/2
f 42/82/3 41/81/3 48/89/3 47/90/3
f 44/91/4 43/92/4 46/93/4 45/94/4
f 43/92/5 42/82/5 47/90/5 46/93/5
f 41/81/6 44/95/6 45/96/6 48/89/6
f 49/97/1 50/98/1 51/99/1 52/100/1
f 53/101/2 54/102/2 55/103/2 56/104/2
f 50/98/3 49/97/3 56/105/3 55/106/3
f 52/107/4 51/108/4 54/109/4 53/110/4
f 51/108/5 50/98/5 55/106/5 54/109/5
f 49/97/6 52/111/6 53/112/6 56/105/6
f 57/113/1 58/114/1 59/115/1 60/116/1
f 61/117/2 62/118/2 63/119/2 64/120/2
f 58/114/3 57/113/3 64/121/3 63/122/3
f 60/123/4 59/124/4 62/125/4 61/126/4
f 59/124/5 58/114/5 63/122/5 62/125/5
f 57/113/6 60/127/6 61/128/6 64/121/6
o GlassDoor_translucent
v 0.500000 1.812500 0.437500
v -0.500000 1.812500 0.437500
v -0.500000 1.812500 0.500000
v 0.500000 1.812500 0.500000
v 0.500000 1.750000 0.500000
v -0.500000 1.750000 0.500000
v -0.500000 1.750000 0.437500
v 0.500000 1.750000 0.437500
v 0.500000 0.187500 0.437500
v -0.500000 0.187500 0.437500
v -0.500000 0.187500 0.500000
v 0.500000 0.187500 0.500000
v 0.500000 0.125000 0.500000
v -0.500000 0.125000 0.500000
v -0.500000 0.125000 0.437500
v 0.500000 0.125000 0.437500
v 0.500000 1.750000 0.437500
v 0.437500 1.750000 0.437500
v 0.437500 1.750000 0.500000
v 0.500000 1.750000 0.500000
v 0.500000 0.187500 0.500000
v 0.437500 0.187500 0.500000
v 0.437500 0.187500 0.437500
v 0.500000 0.187500 0.437500
v -0.437500 1.750000 0.437500
v -0.500000 1.750000 0.437500
v -0.500000 1.750000 0.500000
v -0.437500 1.750000 0.500000
v -0.437500 0.187500 0.500000
v -0.500000 0.187500 0.500000
v -0.500000 0.187500 0.437500
v -0.437500 0.187500 0.437500
v 0.437500 1.750000 0.496875
v -0.437500 1.750000 0.496875
v -0.437500 1.750000 0.496875
v 0.437500 1.750000 0.496875
v 0.437500 0.187500 0.496875
v -0.437500 0.187500 0.496875
v -0.437500 0.187500 0.496875
v 0.437500 0.187500 0.496875
v 0.375000 1.187500 0.496875
v 0.312500 1.187500 0.496875
v 0.312500 1.187500 0.512500
v 0.375000 1.187500 0.512500
v 0.375000 0.750000 0.512500
v 0.312500 0.750000 0.512500
v 0.312500 0.750000 0.496875
v 0.375000 0.750000 0.496875
vt 1.015625 0.984375
vt 1.140625 0.984375
vt 1.140625 0.992188
vt 1.015625 0.992188
vt 1.140625 0.984375
vt 1.265625 0.984375
vt 1.265625 0.992188
vt 1.140625 0.992188
vt 1.015625 0.976562
vt 1.140625 0.976562
vt 1.273438 0.984375
vt 1.148438 0.984375
vt 1.148438 0.976562
vt 1.273438 0.976562
vt 1.007812 0.984375
vt 1.007812 0.976562
vt 1.015625 0.921875
vt 1.140625 0.921875
vt 1.140625 0.929688
vt 1.015625 0.929688
vt 1.140625 0.921875
vt 1.265625 0.921875
vt 1.265625 0.929688
vt 1.140625 0.929688
vt 1.015625 0.914062
vt 1.140625 0.914062
vt 1.273438 0.921875
vt 1.148438 0.921875
vt 1.148438 0.914062
vt 1.273438 0.914062
vt 1.007812 0.921875
vt 1.007812 0.914062
vt 1.765625 0.984375
vt 1.773438 0.984375
vt 1.773438 0.992188
vt 1.765625 0.992188
vt 1.773438 0.984375
vt 1.781250 0.984375
vt 1.781250 0.992188
vt 1.773438 0.992188
vt 1.765625 0.789062
vt 1.773438 0.789062
vt 1.789062 0.984375
vt 1.781250 0.984375
vt 1.781250 0.789062
vt 1.789062 0.789062
vt 1.757812 0.984375
vt 1.757812 0.789062
vt 1.828125 0.984375
vt 1.835938 0.984375
vt 1.835938 0.992188
vt 1.828125 0.992188
vt 1.835938 0.984375
vt 1.843750 0.984375
vt 1.843750 0.992188
vt 1.835938 0.992188
vt 1.828125 0.789062
vt 1.835938 0.789062
vt 1.851562 0.984375
vt 1.843750 0.984375
vt 1.843750 0.789062
vt 1.851562 0.789062
vt 1.820312 0.984375
vt 1.820312 0.789062
vt 1.007812 0.367188
vt 1.117188 0.367188
vt 1.117188 0.367188
vt 1.007812 0.367188
vt 1.117188 0.367188
vt 1.226562 0.367188
vt 1.226562 0.367188
vt 1.117188 0.367188
vt 1.007812 0.171875
vt 1.117188 0.171875
vt 1.226562 0.367188
vt 1.117188 0.171875
vt 1.226562 0.171875
vt 1.007812 0.171875
vt 1.390625 0.984375
vt 1.398438 0.984375
vt 1.398438 0.992188
vt 1.390625 0.992188
vt 1.398438 0.984375
vt 1.406250 0.984375
vt 1.406250 0.992188
vt 1.398438 0.992188
vt 1.390625 0.929688
vt 1.398438 0.929688
vt 1.414062 0.984375
vt 1.406250 0.984375
vt 1.406250 0.929688
vt 1.414062 0.929688
vt 1.382812 0.984375
vt 1.382812 0.929688
vn 0.0000 1.0000 0.0000
vn 0.0000 -1.0000 0.0000
vn -0.0000 0.0000 -1.0000
vn 0.0000 0.0000 1.0000
vn -1.0000 0.0000 0.0000
vn 1.0000 0.0000 0.0000
usemtl ModelMaterial.001
s off
f 65/129/7 66/130/7 67/131/7 68/132/7
f 69/133/8 70/134/8 71/135/8 72/136/8
f 66/130/9 65/129/9 72/137/9 71/138/9
f 68/139/10 67/140/10 70/141/10 69/142/10
f 67/140/11 66/130/11 71/138/11 70/141/11
f 65/129/12 68/143/12 69/144/12 72/137/12
f 73/145/7 74/146/7 75/147/7 76/148/7
f 77/149/8 78/150/8 79/151/8 80/152/8
f 74/146/9 73/145/9 80/153/9 79/154/9
f 76/155/10 75/156/10 78/157/10 77/158/10
f 75/156/11 74/146/11 79/154/11 78/157/11
f 73/145/12 76/159/12 77/160/12 80/153/12
f 81/161/7 82/162/7 83/163/7 84/164/7
f 85/165/8 86/166/8 87/167/8 88/168/8
f 82/162/9 81/161/9 88/169/9 87/170/9
f 84/171/10 83/172/10 86/173/10 85/174/10
f 83/172/11 82/162/11 87/170/11 86/173/11
f 81/161/12 84/175/12 85/176/12 88/169/12
f 89/177/7 90/178/7 91/179/7 92/180/7
f 93/181/8 94/182/8 95/183/8 96/184/8
f 90/178/9 89/177/9 96/185/9 95/186/9
f 92/187/10 91/188/10 94/189/10 93/190/10
f 91/188/11 90/178/11 95/186/11 94/189/11
f 89/177/12 92/191/12 93/192/12 96/185/12
f 97/193/10 98/194/10 99/195/10 100/196/10
f 101/197/10 102/198/10 103/199/10 104/200/10
f 98/194/9 97/193/9 104/201/9 103/202/9
f 100/203/10 99/195/10 102/204/10 101/205/10
f 99/195/10 98/194/10 103/202/10 102/204/10
f 97/193/10 100/196/10 101/206/10 104/201/10
f 105/207/7 106/208/7 107/209/7 108/210/7
f 109/211/8 110/212/8 111/213/8 112/214/8
f 106/208/9 105/207/9 112/215/9 111/216/9
f 108/217/10 107/218/10 110/219/10 109/220/10
f 107/218/11 106/208/11 111/216/11 110/219/11
f 105/207/12 108/221/12 109/222/12 112/215/12
