# Blender v2.79 (sub 0) OBJ File: ''
# www.blender.org
mtllib modubar_counter_display_open_standard.mtl
o bodyModel
v -1.500000 0.812500 -1.000000
v 1.500000 0.812500 -1.000000
v 1.500000 0.812500 -1.062500
v -1.500000 0.812500 -1.062500
v -1.500000 0.312500 -1.062500
v 1.500000 0.312500 -1.062500
v 1.500000 0.312500 -1.000000
v -1.500000 0.312500 -1.000000
v -1.500000 0.312500 0.437500
v 1.500000 0.312500 0.437500
v 1.500000 0.312500 -0.500000
v -1.500000 0.312500 -0.500000
v -1.500000 0.000000 -0.500000
v 1.500000 0.000000 -0.500000
v 1.500000 -0.000000 0.437500
v -1.500000 -0.000000 0.437500
v -1.500000 1.000000 0.437500
v 1.500000 1.000000 0.437500
v 1.500000 1.000000 -1.000000
v -1.500000 1.000000 -1.000000
v -1.500000 0.312500 -1.000000
v 1.500000 0.312500 -1.000000
v 1.500000 0.312500 0.437500
v -1.500000 0.312500 0.437500
v -1.500000 0.312500 -0.937500
v -1.437500 0.312500 -0.937500
v -1.437500 0.312500 -1.000000
v -1.500000 0.312500 -1.000000
v -1.500000 0.000000 -1.000000
v -1.437500 0.000000 -1.000000
v -1.437500 0.000000 -0.937500
v -1.500000 0.000000 -0.937500
v 1.437500 0.312500 -0.937500
v 1.500000 0.312500 -0.937500
v 1.500000 0.312500 -1.000000
v 1.437500 0.312500 -1.000000
v 1.437500 0.000000 -1.000000
v 1.500000 0.000000 -1.000000
v 1.500000 0.000000 -0.937500
v 1.437500 0.000000 -0.937500
v -1.500000 1.437500 -0.937500
v -1.437500 1.437500 -0.937500
v -1.437500 1.437500 -1.000000
v -1.500000 1.437500 -1.000000
v -1.500000 1.000000 -1.000000
v -1.437500 1.000000 -1.000000
v -1.437500 1.000000 -0.937500
v -1.500000 1.000000 -0.937500
v -1.500000 1.437500 0.437500
v -1.437500 1.437500 0.437500
v -1.437500 1.437500 0.375000
v -1.500000 1.437500 0.375000
v -1.500000 1.000000 0.375000
v -1.437500 1.000000 0.375000
v -1.437500 1.000000 0.437500
v -1.500000 1.000000 0.437500
v 1.437500 1.437500 0.437500
v 1.500000 1.437500 0.437500
v 1.500000 1.437500 0.375000
v 1.437500 1.437500 0.375000
v 1.437500 1.000000 0.375000
v 1.500000 1.000000 0.375000
v 1.500000 1.000000 0.437500
v 1.437500 1.000000 0.437500
v 1.437500 1.437500 -0.937500
v 1.500000 1.437500 -0.937500
v 1.500000 1.437500 -1.000000
v 1.437500 1.437500 -1.000000
v 1.437500 1.000000 -1.000000
v 1.500000 1.000000 -1.000000
v 1.500000 1.000000 -0.937500
v 1.437500 1.000000 -0.937500
v 1.500000 0.812500 0.437500
v 1.559375 0.812500 0.375000
v 1.559375 0.812500 -1.062500
v 1.500000 0.812500 -1.062500
v 1.500000 0.312500 -1.062500
v 1.559375 0.312500 -1.062500
v 1.559375 0.312500 0.375000
v 1.500000 0.312500 0.437500
v -1.559375 0.812500 0.375000
v -1.500000 0.812500 0.437500
v -1.500000 0.812500 -1.062500
v -1.559375 0.812500 -1.062500
v -1.559375 0.312500 -1.062500
v -1.500000 0.312500 -1.062500
v -1.500000 0.312500 0.437500
v -1.559375 0.312500 0.375000
vt 1.007812 0.984375
vt 1.195312 0.984375
vt 1.195312 0.992188
vt 1.007812 0.992188
vt 1.195312 0.984375
vt 1.382812 0.984375
vt 1.382812 0.992188
vt 1.195312 0.992188
vt 1.007812 0.921875
vt 1.195312 0.921875
vt 1.386719 0.984375
vt 1.199219 0.984375
vt 1.199219 0.921875
vt 1.386719 0.921875
vt 1.003906 0.984375
vt 1.003906 0.921875
vt 1.406250 0.875000
vt 1.593750 0.875000
vt 1.593750 0.992188
vt 1.406250 0.992188
vt 1.593750 0.875000
vt 1.781250 0.875000
vt 1.781250 0.992188
vt 1.593750 0.992188
vt 1.406250 0.835938
vt 1.593750 0.835938
vt 1.839844 0.875000
vt 1.652344 0.875000
vt 1.652344 0.835938
vt 1.839844 0.835938
vt 1.347656 0.875000
vt 1.347656 0.835938
vt 1.093750 0.625000
vt 1.281250 0.625000
vt 1.281250 0.804688
vt 1.093750 0.804688
vt 1.281250 0.625000
vt 1.468750 0.625000
vt 1.468750 0.804688
vt 1.281250 0.804688
vt 1.093750 0.539062
vt 1.281250 0.539062
vt 1.558594 0.625000
vt 1.371094 0.625000
vt 1.371094 0.539062
vt 1.558594 0.539062
vt 1.003906 0.625000
vt 1.003906 0.539062
vt 1.789062 0.984375
vt 1.792969 0.984375
vt 1.792969 0.992188
vt 1.789062 0.992188
vt 1.792969 0.984375
vt 1.796875 0.984375
vt 1.796875 0.992188
vt 1.792969 0.992188
vt 1.789062 0.945312
vt 1.792969 0.945312
vt 1.800781 0.984375
vt 1.796875 0.984375
vt 1.796875 0.945312
vt 1.800781 0.945312
vt 1.785156 0.984375
vt 1.785156 0.945312
vt 1.820312 0.984375
vt 1.824219 0.984375
vt 1.824219 0.992188
vt 1.820312 0.992188
vt 1.824219 0.984375
vt 1.828125 0.984375
vt 1.828125 0.992188
vt 1.824219 0.992188
vt 1.820312 0.945312
vt 1.824219 0.945312
vt 1.832031 0.984375
vt 1.828125 0.984375
vt 1.828125 0.945312
vt 1.832031 0.945312
vt 1.816406 0.984375
vt 1.816406 0.945312
vt 1.851562 0.984375
vt 1.855469 0.984375
vt 1.855469 0.992188
vt 1.851562 0.992188
vt 1.855469 0.984375
vt 1.859375 0.984375
vt 1.859375 0.992188
vt 1.855469 0.992188
vt 1.851562 0.929688
vt 1.855469 0.929688
vt 1.863281 0.984375
vt 1.859375 0.984375
vt 1.859375 0.929688
vt 1.863281 0.929688
vt 1.847656 0.984375
vt 1.847656 0.929688
vt 1.882812 0.984375
vt 1.886719 0.984375
vt 1.886719 0.992188
vt 1.882812 0.992188
vt 1.886719 0.984375
vt 1.890625 0.984375
vt 1.890625 0.992188
vt 1.886719 0.992188
vt 1.882812 0.929688
vt 1.886719 0.929688
vt 1.894531 0.984375
vt 1.890625 0.984375
vt 1.890625 0.929688
vt 1.894531 0.929688
vt 1.878906 0.984375
vt 1.878906 0.929688
vt 1.914062 0.984375
vt 1.917969 0.984375
vt 1.917969 0.992188
vt 1.914062 0.992188
vt 1.917969 0.984375
vt 1.921875 0.984375
vt 1.921875 0.992188
vt 1.917969 0.992188
vt 1.914062 0.929688
vt 1.917969 0.929688
vt 1.925781 0.984375
vt 1.921875 0.984375
vt 1.921875 0.929688
vt 1.925781 0.929688
vt 1.910156 0.984375
vt 1.910156 0.929688
vt 1.945312 0.984375
vt 1.949219 0.984375
vt 1.949219 0.992188
vt 1.945312 0.992188
vt 1.949219 0.984375
vt 1.953125 0.984375
vt 1.953125 0.992188
vt 1.949219 0.992188
vt 1.945312 0.929688
vt 1.949219 0.929688
vt 1.957031 0.984375
vt 1.953125 0.984375
vt 1.953125 0.929688
vt 1.957031 0.929688
vt 1.941406 0.984375
vt 1.941406 0.929688
vt 1.687500 0.437500
vt 1.691406 0.437500
vt 1.691406 0.617188
vt 1.687500 0.617188
vt 1.691406 0.437500
vt 1.695312 0.437500
vt 1.695312 0.617188
vt 1.691406 0.617188
vt 1.687500 0.375000
vt 1.691406 0.375000
vt 1.785156 0.437500
vt 1.781250 0.437500
vt 1.781250 0.375000
vt 1.785156 0.375000
vt 1.597656 0.437500
vt 1.597656 0.375000
vt 1.093750 0.312500
vt 1.097656 0.312500
vt 1.097656 0.492188
vt 1.093750 0.492188
vt 1.097656 0.312500
vt 1.101562 0.312500
vt 1.101562 0.492188
vt 1.097656 0.492188
vt 1.093750 0.250000
vt 1.097656 0.250000
vt 1.191406 0.312500
vt 1.187500 0.312500
vt 1.187500 0.250000
vt 1.191406 0.250000
vt 1.003906 0.312500
vt 1.003906 0.250000
vn 0.0000 1.0000 0.0000
vn 0.0000 -1.0000 -0.0000
vn 0.0000 -0.0000 1.0000
vn 0.0000 0.0000 -1.0000
vn 1.0000 0.0000 0.0000
vn -1.0000 0.0000 0.0000
vn 0.7250 0.0000 0.6887
vn -0.7250 0.0000 0.6887
usemtl ModelMaterial.002
s off
f 1/1/1 2/2/1 3/3/1 4/4/1
f 5/5/2 6/6/2 7/7/2 8/8/2
f 2/2/3 1/1/3 8/9/3 7/10/3
f 4/11/4 3/12/4 6/13/4 5/14/4
f 3/12/5 2/2/5 7/10/5 6/13/5
f 1/1/6 4/15/6 5/16/6 8/9/6
f 9/17/1 10/18/1 11/19/1 12/20/1
f 13/21/2 14/22/2 15/23/2 16/24/2
f 10/18/3 9/17/3 16/25/3 15/26/3
f 12/27/4 11/28/4 14/29/4 13/30/4
f 11/28/5 10/18/5 15/26/5 14/29/5
f 9/17/6 12/31/6 13/32/6 16/25/6
f 17/33/1 18/34/1 19/35/1 20/36/1
f 21/37/2 22/38/2 23/39/2 24/40/2
f 18/34/3 17/33/3 24/41/3 23/42/3
f 20/43/4 19/44/4 22/45/4 21/46/4
f 19/44/5 18/34/5 23/42/5 22/45/5
f 17/33/6 20/47/6 21/48/6 24/41/6
f 25/49/1 26/50/1 27/51/1 28/52/1
f 29/53/2 30/54/2 31/55/2 32/56/2
f 26/50/3 25/49/3 32/57/3 31/58/3
f 28/59/4 27/60/4 30/61/4 29/62/4
f 27/60/5 26/50/5 31/58/5 30/61/5
f 25/49/6 28/63/6 29/64/6 32/57/6
f 33/65/1 34/66/1 35/67/1 36/68/1
f 37/69/2 38/70/2 39/71/2 40/72/2
f 34/66/3 33/65/3 40/73/3 39/74/3
f 36/75/4 35/76/4 38/77/4 37/78/4
f 35/76/5 34/66/5 39/74/5 38/77/5
f 33/65/6 36/79/6 37/80/6 40/73/6
f 41/81/1 42/82/1 43/83/1 44/84/1
f 45/85/2 46/86/2 47/87/2 48/88/2
f 42/82/3 41/81/3 48/89/3 47/90/3
f 44/91/4 43/92/4 46/93/4 45/94/4
f 43/92/5 42/82/5 47/90/5 46/93/5
f 41/81/6 44/95/6 45/96/6 48/89/6
f 49/97/1 50/98/1 51/99/1 52/100/1
f 53/101/2 54/102/2 55/103/2 56/104/2
f 50/98/3 49/97/3 56/105/3 55/106/3
f 52/107/4 51/108/4 54/109/4 53/110/4
f 51/108/5 50/98/5 55/106/5 54/109/5
f 49/97/6 52/111/6 53/112/6 56/105/6
f 57/113/1 58/114/1 59/115/1 60/116/1
f 61/117/2 62/118/2 63/119/2 64/120/2
f 58/114/3 57/113/3 64/121/3 63/122/3
f 60/123/4 59/124/4 62/125/4 61/126/4
f 59/124/5 58/114/5 63/122/5 62/125/5
f 57/113/6 60/127/6 61/128/6 64/121/6
f 65/129/1 66/130/1 67/131/1 68/132/1
f 69/133/2 70/134/2 71/135/2 72/136/2
f 66/130/3 65/129/3 72/137/3 71/138/3
f 68/139/4 67/140/4 70/141/4 69/142/4
f 67/140/5 66/130/5 71/138/5 70/141/5
f 65/129/6 68/143/6 69/144/6 72/137/6
f 73/145/1 74/146/1 75/147/1 76/148/1
f 77/149/2 78/150/2 79/151/2 80/152/2
f 74/146/7 73/145/7 80/153/7 79/154/7
f 76/155/4 75/156/4 78/157/4 77/158/4
f 75/156/5 74/146/5 79/154/5 78/157/5
f 73/145/6 76/159/6 77/160/6 80/153/6
f 81/161/1 82/162/1 83/163/1 84/164/1
f 85/165/2 86/166/2 87/167/2 88/168/2
f 82/162/8 81/161/8 88/169/8 87/170/8
f 84/171/4 83/172/4 86/173/4 85/174/4
f 83/172/5 82/162/5 87/170/5 86/173/5
f 81/161/6 84/175/6 85/176/6 88/169/6
o bodyGlass_translucent
v -1.434375 1.437500 0.434375
v 1.434375 1.437500 0.434375
v 1.437500 1.437500 0.434375
v -1.437500 1.437500 0.434375
v -1.437500 1.000000 0.434375
v 1.437500 1.000000 0.434375
v 1.434375 1.000000 0.434375
v -1.434375 1.000000 0.434375
v -1.434375 1.437500 -0.996875
v 1.434375 1.437500 -0.996875
v 1.437500 1.437500 -0.996875
v -1.437500 1.437500 -0.996875
v -1.437500 1.000000 -0.996875
v 1.437500 1.000000 -0.996875
v 1.434375 1.000000 -0.996875
v -1.434375 1.000000 -0.996875
v -1.496875 1.437500 0.375000
v -1.496875 1.437500 0.375000
v -1.496875 1.437500 -0.937500
v -1.496875 1.437500 -0.937500
v -1.496875 1.000000 -0.937500
v -1.496875 1.000000 -0.937500
v -1.496875 1.000000 0.375000
v -1.496875 1.000000 0.375000
v 1.496875 1.437500 0.375000
v 1.496875 1.437500 0.375000
v 1.496875 1.437500 -0.937500
v 1.496875 1.437500 -0.937500
v 1.496875 1.000000 -0.937500
v 1.496875 1.000000 -0.937500
v 1.496875 1.000000 0.375000
v 1.496875 1.000000 0.375000
vt 1.472656 0.804688
vt 1.652344 0.804688
vt 1.652344 0.804688
vt 1.472656 0.804688
vt 1.652344 0.804688
vt 1.832031 0.804688
vt 1.832031 0.804688
vt 1.652344 0.804688
vt 1.472656 0.750000
vt 1.652344 0.750000
vt 1.832031 0.804688
vt 1.652344 0.750000
vt 1.832031 0.750000
vt 1.472656 0.750000
vt 1.472656 0.742188
vt 1.652344 0.742188
vt 1.652344 0.742188
vt 1.472656 0.742188
vt 1.652344 0.742188
vt 1.832031 0.742188
vt 1.832031 0.742188
vt 1.652344 0.742188
vt 1.472656 0.687500
vt 1.652344 0.687500
vt 1.832031 0.742188
vt 1.652344 0.687500
vt 1.832031 0.687500
vt 1.472656 0.687500
vt 1.835938 0.640625
vt 1.835938 0.640625
vt 1.835938 0.804688
vt 1.835938 0.804688
vt 1.835938 0.640625
vt 1.835938 0.640625
vt 1.835938 0.804688
vt 1.835938 0.804688
vt 1.835938 0.585938
vt 1.835938 0.585938
vt 1.917969 0.640625
vt 1.917969 0.640625
vt 1.917969 0.585938
vt 1.917969 0.585938
vt 1.753906 0.640625
vt 1.753906 0.585938
vt 1.585938 0.515625
vt 1.585938 0.515625
vt 1.585938 0.679688
vt 1.585938 0.679688
vt 1.585938 0.515625
vt 1.585938 0.515625
vt 1.585938 0.679688
vt 1.585938 0.679688
vt 1.585938 0.460938
vt 1.585938 0.460938
vt 1.667969 0.515625
vt 1.667969 0.515625
vt 1.667969 0.460938
vt 1.667969 0.460938
vt 1.503906 0.515625
vt 1.503906 0.460938
vn 0.0000 0.0000 -1.0000
vn 0.0000 0.0000 1.0000
vn 1.0000 0.0000 0.0000
vn -1.0000 0.0000 0.0000
usemtl ModelMaterial.003
s off
f 89/177/9 90/178/9 91/179/9 92/180/9
f 93/181/10 94/182/10 95/183/10 96/184/10
f 90/178/10 89/177/10 96/185/10 95/186/10
f 92/187/9 91/179/9 94/188/9 93/189/9
f 91/179/10 90/178/10 95/186/10 94/188/10
f 89/177/10 92/180/10 93/190/10 96/185/10
f 97/191/10 98/192/10 99/193/10 100/194/10
f 101/195/10 102/196/10 103/197/10 104/198/10
f 98/192/10 97/191/10 104/199/10 103/200/10
f 100/201/9 99/193/9 102/202/9 101/203/9
f 99/193/10 98/192/10 103/200/10 102/202/10
f 97/191/10 100/194/10 101/204/10 104/199/10
f 105/205/10 106/206/10 107/207/10 108/208/10
f 109/209/10 110/210/10 111/211/10 112/212/10
f 106/206/10 105/205/10 112/213/10 111/214/10
f 108/215/10 107/216/10 110/217/10 109/218/10
f 107/216/11 106/206/11 111/214/11 110/217/11
f 105/205/12 108/219/12 109/220/12 112/213/12
f 113/221/10 114/222/10 115/223/10 116/224/10
f 117/225/10 118/226/10 119/227/10 120/228/10
f 114/222/10 113/221/10 120/229/10 119/230/10
f 116/231/10 115/232/10 118/233/10 117/234/10
f 115/232/11 114/222/11 119/230/11 118/233/11
f 113/221/12 116/235/12 117/236/12 120/229/12
