# Blender v2.79 (sub 0) OBJ File: ''
# www.blender.org
mtllib modubar_freestanding_market_rack_simple.mtl
o modubar_freestanding_market_rack_simple
v 0.500000 0.125000 -0.500000
v -0.500000 0.125000 -0.500000
v -0.500000 0.125000 0.500000
v 0.500000 0.125000 0.500000
v 0.500000 0.000000 0.437500
v -0.500000 0.000000 0.437500
v -0.500000 -0.000000 -0.500000
v 0.500000 -0.000000 -0.500000
v 0.500000 2.000000 -0.500000
v -0.500000 2.000000 -0.500000
v -0.500000 2.000000 -0.437500
v 0.500000 2.000000 -0.437500
v 0.500000 0.125000 -0.437500
v -0.500000 0.125000 -0.437500
v -0.500000 0.125000 -0.500000
v 0.500000 0.125000 -0.500000
v 0.500000 1.500000 -0.437500
v -0.500000 1.500000 -0.437500
v -0.500000 1.500000 0.312500
v 0.500000 1.500000 0.312500
v 0.500000 1.500000 0.312500
v -0.500000 1.500000 0.312500
v -0.500000 1.437500 -0.437500
v 0.500000 1.437500 -0.437500
v 0.500000 1.000000 -0.437500
v -0.500000 1.000000 -0.437500
v -0.500000 1.000000 0.312500
v 0.500000 1.000000 0.312500
v 0.500000 1.000000 0.312500
v -0.500000 1.000000 0.312500
v -0.500000 0.937500 -0.437500
v 0.500000 0.937500 -0.437500
v 0.500000 0.500000 -0.437500
v -0.500000 0.500000 -0.437500
v -0.500000 0.500000 0.312500
v 0.500000 0.500000 0.312500
v 0.500000 0.500000 0.312500
v -0.500000 0.500000 0.312500
v -0.500000 0.437500 -0.437500
v 0.500000 0.437500 -0.437500
v 0.500000 1.437500 -0.437500
v 0.437500 1.437500 -0.437500
v 0.437500 1.500000 0.312500
v 0.500000 1.500000 0.312500
v 0.500000 1.500000 0.312500
v 0.437500 1.500000 0.312500
v 0.437500 1.375000 -0.437500
v 0.500000 1.375000 -0.437500
v -0.437500 1.437500 -0.437500
v -0.500000 1.437500 -0.437500
v -0.500000 1.500000 0.312500
v -0.437500 1.500000 0.312500
v -0.437500 1.500000 0.312500
v -0.500000 1.500000 0.312500
v -0.500000 1.375000 -0.437500
v -0.437500 1.375000 -0.437500
v -0.437500 0.937500 -0.437500
v -0.500000 0.937500 -0.437500
v -0.500000 1.000000 0.312500
v -0.437500 1.000000 0.312500
v -0.437500 1.000000 0.312500
v -0.500000 1.000000 0.312500
v -0.500000 0.875000 -0.437500
v -0.437500 0.875000 -0.437500
v 0.500000 0.937500 -0.437500
v 0.437500 0.937500 -0.437500
v 0.437500 1.000000 0.312500
v 0.500000 1.000000 0.312500
v 0.500000 1.000000 0.312500
v 0.437500 1.000000 0.312500
v 0.437500 0.875000 -0.437500
v 0.500000 0.875000 -0.437500
v -0.437500 0.437500 -0.437500
v -0.500000 0.437500 -0.437500
v -0.500000 0.500000 0.312500
v -0.437500 0.500000 0.312500
v -0.437500 0.500000 0.312500
v -0.500000 0.500000 0.312500
v -0.500000 0.375000 -0.437500
v -0.437500 0.375000 -0.437500
v 0.500000 0.437500 -0.437500
v 0.437500 0.437500 -0.437500
v 0.437500 0.500000 0.312500
v 0.500000 0.500000 0.312500
v 0.500000 0.500000 0.312500
v 0.437500 0.500000 0.312500
v 0.437500 0.375000 -0.437500
v 0.500000 0.375000 -0.437500
vt 1.132812 0.867188
vt 1.257812 0.867188
vt 1.257812 0.992188
vt 1.132812 0.992188
vt 1.257812 0.867188
vt 1.382812 0.867188
vt 1.382812 0.992188
vt 1.257812 0.992188
vt 1.132812 0.851562
vt 1.257812 0.851562
vt 1.507812 0.867188
vt 1.382812 0.867188
vt 1.382812 0.851562
vt 1.507812 0.851562
vt 1.007812 0.867188
vt 1.007812 0.851562
vt 1.578125 0.984375
vt 1.703125 0.984375
vt 1.703125 0.992188
vt 1.578125 0.992188
vt 1.703125 0.984375
vt 1.828125 0.984375
vt 1.828125 0.992188
vt 1.703125 0.992188
vt 1.578125 0.750000
vt 1.703125 0.750000
vt 1.835938 0.984375
vt 1.710938 0.984375
vt 1.710938 0.750000
vt 1.835938 0.750000
vt 1.570312 0.984375
vt 1.570312 0.750000
vt 1.101562 0.710938
vt 1.226562 0.710938
vt 1.226562 0.804688
vt 1.101562 0.804688
vt 1.226562 0.710938
vt 1.351562 0.710938
vt 1.351562 0.804688
vt 1.226562 0.804688
vt 1.101562 0.703125
vt 1.226562 0.703125
vt 1.445312 0.710938
vt 1.320312 0.710938
vt 1.320312 0.703125
vt 1.445312 0.703125
vt 1.007812 0.710938
vt 1.007812 0.703125
vt 1.476562 0.648438
vt 1.601562 0.648438
vt 1.601562 0.742188
vt 1.476562 0.742188
vt 1.601562 0.648438
vt 1.726562 0.648438
vt 1.726562 0.742188
vt 1.601562 0.742188
vt 1.476562 0.640625
vt 1.601562 0.640625
vt 1.820312 0.648438
vt 1.695312 0.648438
vt 1.695312 0.640625
vt 1.820312 0.640625
vt 1.382812 0.648438
vt 1.382812 0.640625
vt 1.101562 0.585938
vt 1.226562 0.585938
vt 1.226562 0.679688
vt 1.101562 0.679688
vt 1.226562 0.585938
vt 1.351562 0.585938
vt 1.351562 0.679688
vt 1.226562 0.679688
vt 1.101562 0.578125
vt 1.226562 0.578125
vt 1.445312 0.585938
vt 1.320312 0.585938
vt 1.320312 0.578125
vt 1.445312 0.578125
vt 1.007812 0.585938
vt 1.007812 0.578125
vt 1.851562 0.710938
vt 1.859375 0.710938
vt 1.859375 0.804688
vt 1.851562 0.804688
vt 1.859375 0.710938
vt 1.867188 0.710938
vt 1.867188 0.804688
vt 1.859375 0.804688
vt 1.851562 0.703125
vt 1.859375 0.703125
vt 1.960938 0.710938
vt 1.953125 0.710938
vt 1.953125 0.703125
vt 1.960938 0.703125
vt 1.757812 0.710938
vt 1.757812 0.703125
vt 1.851562 0.585938
vt 1.859375 0.585938
vt 1.859375 0.679688
vt 1.851562 0.679688
vt 1.859375 0.585938
vt 1.867188 0.585938
vt 1.867188 0.679688
vt 1.859375 0.679688
vt 1.851562 0.578125
vt 1.859375 0.578125
vt 1.960938 0.585938
vt 1.953125 0.585938
vt 1.953125 0.578125
vt 1.960938 0.578125
vt 1.757812 0.585938
vt 1.757812 0.578125
vt 1.476562 0.523438
vt 1.484375 0.523438
vt 1.484375 0.617188
vt 1.476562 0.617188
vt 1.484375 0.523438
vt 1.492188 0.523438
vt 1.492188 0.617188
vt 1.484375 0.617188
vt 1.476562 0.515625
vt 1.484375 0.515625
vt 1.585938 0.523438
vt 1.578125 0.523438
vt 1.578125 0.515625
vt 1.585938 0.515625
vt 1.382812 0.523438
vt 1.382812 0.515625
vt 1.726562 0.523438
vt 1.734375 0.523438
vt 1.734375 0.617188
vt 1.726562 0.617188
vt 1.734375 0.523438
vt 1.742188 0.523438
vt 1.742188 0.617188
vt 1.734375 0.617188
vt 1.726562 0.515625
vt 1.734375 0.515625
vt 1.835938 0.523438
vt 1.828125 0.523438
vt 1.828125 0.515625
vt 1.835938 0.515625
vt 1.632812 0.523438
vt 1.632812 0.515625
vt 1.101562 0.460938
vt 1.109375 0.460938
vt 1.109375 0.554688
vt 1.101562 0.554688
vt 1.109375 0.460938
vt 1.117188 0.460938
vt 1.117188 0.554688
vt 1.109375 0.554688
vt 1.101562 0.453125
vt 1.109375 0.453125
vt 1.210938 0.460938
vt 1.203125 0.460938
vt 1.203125 0.453125
vt 1.210938 0.453125
vt 1.007812 0.460938
vt 1.007812 0.453125
vt 1.351562 0.460938
vt 1.359375 0.460938
vt 1.359375 0.554688
vt 1.351562 0.554688
vt 1.359375 0.460938
vt 1.367188 0.460938
vt 1.367188 0.554688
vt 1.359375 0.554688
vt 1.351562 0.453125
vt 1.359375 0.453125
vt 1.460938 0.460938
vt 1.453125 0.460938
vt 1.453125 0.453125
vt 1.460938 0.453125
vt 1.257812 0.460938
vt 1.257812 0.453125
vn -0.0000 1.0000 -0.0000
vn 0.0000 -1.0000 0.0000
vn -0.0000 -0.0000 -1.0000
vn 0.0000 -0.4472 0.8944
vn -1.0000 0.0000 0.0000
vn 1.0000 0.0000 -0.0000
vn 0.0000 0.0000 1.0000
vn 0.0000 -0.9965 0.0830
vn -0.0000 0.9965 -0.0830
vn 0.0000 -0.9864 0.1644
usemtl ModelMaterial
s off
f 1/1/1 2/2/1 3/3/1 4/4/1
f 5/5/2 6/6/2 7/7/2 8/8/2
f 2/2/3 1/1/3 8/9/3 7/10/3
f 4/11/4 3/12/4 6/13/4 5/14/4
f 3/12/5 2/2/5 7/10/5 6/13/5
f 1/1/6 4/15/6 5/16/6 8/9/6
f 9/17/1 10/18/1 11/19/1 12/20/1
f 13/21/2 14/22/2 15/23/2 16/24/2
f 10/18/3 9/17/3 16/25/3 15/26/3
f 12/27/7 11/28/7 14/29/7 13/30/7
f 11/28/5 10/18/5 15/26/5 14/29/5
f 9/17/6 12/31/6 13/32/6 16/25/6
f 17/33/1 18/34/1 19/35/1 20/36/1
f 21/37/8 22/38/8 23/39/8 24/40/8
f 18/34/3 17/33/3 24/41/3 23/42/3
f 20/43/7 19/44/7 22/45/7 21/46/7
f 19/44/5 18/34/5 23/42/5 22/45/5
f 17/33/6 20/47/6 21/48/6 24/41/6
f 25/49/1 26/50/1 27/51/1 28/52/1
f 29/53/8 30/54/8 31/55/8 32/56/8
f 26/50/3 25/49/3 32/57/3 31/58/3
f 28/59/7 27/60/7 30/61/7 29/62/7
f 27/60/5 26/50/5 31/58/5 30/61/5
f 25/49/6 28/63/6 29/64/6 32/57/6
f 33/65/1 34/66/1 35/67/1 36/68/1
f 37/69/8 38/70/8 39/71/8 40/72/8
f 34/66/3 33/65/3 40/73/3 39/74/3
f 36/75/7 35/76/7 38/77/7 37/78/7
f 35/76/5 34/66/5 39/74/5 38/77/5
f 33/65/6 36/79/6 37/80/6 40/73/6
f 41/81/9 42/82/9 43/83/9 44/84/9
f 45/85/10 46/86/10 47/87/10 48/88/10
f 42/82/3 41/81/3 48/89/3 47/90/3
f 44/91/7 43/92/7 46/93/7 45/94/7
f 43/92/5 42/82/5 47/90/5 46/93/5
f 41/81/6 44/95/6 45/96/6 48/89/6
f 49/97/9 50/98/9 51/99/9 52/100/9
f 53/101/10 54/102/10 55/103/10 56/104/10
f 50/98/3 49/97/3 56/105/3 55/106/3
f 52/107/7 51/108/7 54/109/7 53/110/7
f 51/108/5 50/98/5 55/106/5 54/109/5
f 49/97/6 52/111/6 53/112/6 56/105/6
f 57/113/9 58/114/9 59/115/9 60/116/9
f 61/117/10 62/118/10 63/119/10 64/120/10
f 58/114/3 57/113/3 64/121/3 63/122/3
f 60/123/7 59/124/7 62/125/7 61/126/7
f 59/124/5 58/114/5 63/122/5 62/125/5
f 57/113/6 60/127/6 61/128/6 64/121/6
f 65/129/9 66/130/9 67/131/9 68/132/9
f 69/133/10 70/134/10 71/135/10 72/136/10
f 66/130/3 65/129/3 72/137/3 71/138/3
f 68/139/7 67/140/7 70/141/7 69/142/7
f 67/140/5 66/130/5 71/138/5 70/141/5
f 65/129/6 68/143/6 69/144/6 72/137/6
f 73/145/9 74/146/9 75/147/9 76/148/9
f 77/149/10 78/150/10 79/151/10 80/152/10
f 74/146/3 73/145/3 80/153/3 79/154/3
f 76/155/7 75/156/7 78/157/7 77/158/7
f 75/156/5 74/146/5 79/154/5 78/157/5
f 73/145/6 76/159/6 77/160/6 80/153/6
f 81/161/9 82/162/9 83/163/9 84/164/9
f 85/165/10 86/166/10 87/167/10 88/168/10
f 82/162/3 81/161/3 88/169/3 87/170/3
f 84/171/7 83/172/7 86/173/7 85/174/7
f 83/172/5 82/162/5 87/170/5 86/173/5
f 81/161/6 84/175/6 85/176/6 88/169/6
