# Blender v2.79 (sub 0) OBJ File: ''
# www.blender.org
mtllib trin_modubar_display_promotional.mtl
o couterGlass_translucent
v -0.434375 1.250000 0.496875
v 0.434375 1.250000 0.496875
v 0.437500 1.250000 0.496875
v -0.437500 1.250000 0.496875
v -0.437500 0.875000 0.496875
v 0.437500 0.875000 0.496875
v 0.434375 0.875000 0.496875
v -0.434375 0.875000 0.496875
v -0.496875 1.250000 0.437500
v -0.496875 1.250000 0.437500
v -0.496875 1.250000 -0.437500
v -0.496875 1.250000 -0.437500
v -0.496875 0.875000 -0.437500
v -0.496875 0.875000 -0.437500
v -0.496875 0.875000 0.437500
v -0.496875 0.875000 0.437500
v 0.496875 1.250000 0.437500
v 0.496875 1.250000 0.437500
v 0.496875 1.250000 -0.437500
v 0.496875 1.250000 -0.437500
v 0.496875 0.875000 -0.437500
v 0.496875 0.875000 -0.437500
v 0.496875 0.875000 0.437500
v 0.496875 0.875000 0.437500
v -0.434375 1.250000 -0.496875
v 0.434375 1.250000 -0.496875
v 0.437500 1.250000 -0.496875
v -0.437500 1.250000 -0.496875
v -0.437500 0.875000 -0.496875
v 0.437500 0.875000 -0.496875
v 0.434375 0.875000 -0.496875
v -0.434375 0.875000 -0.496875
vt 1.632812 0.992188
vt 1.742188 0.992188
vt 1.742188 0.992188
vt 1.632812 0.992188
vt 1.742188 0.992188
vt 1.851562 0.992188
vt 1.851562 0.992188
vt 1.742188 0.992188
vt 1.632812 0.945312
vt 1.742188 0.945312
vt 1.851562 0.992188
vt 1.742188 0.945312
vt 1.851562 0.945312
vt 1.632812 0.945312
vt 1.742188 0.757812
vt 1.742188 0.757812
vt 1.742188 0.867188
vt 1.742188 0.867188
vt 1.742188 0.757812
vt 1.742188 0.757812
vt 1.742188 0.867188
vt 1.742188 0.867188
vt 1.742188 0.710938
vt 1.742188 0.710938
vt 1.851562 0.757812
vt 1.851562 0.757812
vt 1.851562 0.710938
vt 1.851562 0.710938
vt 1.632812 0.757812
vt 1.632812 0.710938
vt 1.867188 0.695312
vt 1.867188 0.695312
vt 1.867188 0.804688
vt 1.867188 0.804688
vt 1.867188 0.695312
vt 1.867188 0.695312
vt 1.867188 0.804688
vt 1.867188 0.804688
vt 1.867188 0.648438
vt 1.867188 0.648438
vt 1.976562 0.695312
vt 1.976562 0.695312
vt 1.976562 0.648438
vt 1.976562 0.648438
vt 1.757812 0.695312
vt 1.757812 0.648438
vt 1.695312 0.617188
vt 1.804688 0.617188
vt 1.804688 0.617188
vt 1.695312 0.617188
vt 1.804688 0.617188
vt 1.914062 0.617188
vt 1.914062 0.617188
vt 1.804688 0.617188
vt 1.695312 0.570312
vt 1.804688 0.570312
vt 1.914062 0.617188
vt 1.804688 0.570312
vt 1.914062 0.570312
vt 1.695312 0.570312
vn 0.0000 0.0000 1.0000
vn 0.0000 0.0000 -1.0000
vn 1.0000 0.0000 0.0000
vn -1.0000 0.0000 0.0000
usemtl ModelMaterial
s off
f 1/1/1 2/2/1 3/3/1 4/4/1
f 5/5/2 6/6/2 7/7/2 8/8/2
f 2/2/1 1/1/1 8/9/1 7/10/1
f 4/11/2 3/3/2 6/12/2 5/13/2
f 3/3/1 2/2/1 7/10/1 6/12/1
f 1/1/1 4/4/1 5/14/1 8/9/1
f 9/15/1 10/16/1 11/17/1 12/18/1
f 13/19/1 14/20/1 15/21/1 16/22/1
f 10/16/1 9/15/1 16/23/1 15/24/1
f 12/25/1 11/26/1 14/27/1 13/28/1
f 11/26/3 10/16/3 15/24/3 14/27/3
f 9/15/4 12/29/4 13/30/4 16/23/4
f 17/31/1 18/32/1 19/33/1 20/34/1
f 21/35/1 22/36/1 23/37/1 24/38/1
f 18/32/1 17/31/1 24/39/1 23/40/1
f 20/41/1 19/42/1 22/43/1 21/44/1
f 19/42/3 18/32/3 23/40/3 22/43/3
f 17/31/4 20/45/4 21/46/4 24/39/4
f 25/47/1 26/48/1 27/49/1 28/50/1
f 29/51/2 30/52/2 31/53/2 32/54/2
f 26/48/1 25/47/1 32/55/1 31/56/1
f 28/57/2 27/49/2 30/58/2 29/59/2
f 27/49/1 26/48/1 31/56/1 30/58/1
f 25/47/1 28/50/1 29/60/1 32/55/1
o couterMain
v -0.500000 0.812500 -0.500000
v 0.500000 0.812500 -0.500000
v 0.500000 0.812500 -0.556250
v -0.500000 0.812500 -0.556250
v -0.500000 0.312500 -0.556250
v 0.500000 0.312500 -0.556250
v 0.500000 0.312500 -0.500000
v -0.500000 0.312500 -0.500000
v -0.500000 0.562500 0.500000
v 0.500000 0.562500 0.500000
v 0.500000 0.562500 -0.500000
v -0.500000 0.562500 -0.500000
v -0.500000 0.000000 -0.500000
v 0.500000 0.000000 -0.500000
v 0.500000 -0.000000 0.500000
v -0.500000 -0.000000 0.500000
v -0.500000 0.875000 0.437500
v -0.437500 0.875000 0.437500
v -0.437500 0.875000 -0.437500
v -0.500000 0.875000 -0.437500
v -0.500000 0.562500 -0.437500
v -0.437500 0.562500 -0.437500
v -0.437500 0.562500 0.437500
v -0.500000 0.562500 0.437500
v 0.437500 0.875000 0.437500
v 0.500000 0.875000 0.437500
v 0.500000 0.875000 -0.437500
v 0.437500 0.875000 -0.437500
v 0.437500 0.562500 -0.437500
v 0.500000 0.562500 -0.437500
v 0.500000 0.562500 0.437500
v 0.437500 0.562500 0.437500
v -0.500000 1.250000 0.500000
v -0.437500 1.250000 0.500000
v -0.437500 1.250000 0.437500
v -0.500000 1.250000 0.437500
v -0.500000 0.875000 0.437500
v -0.437500 0.875000 0.437500
v -0.437500 0.875000 0.500000
v -0.500000 0.875000 0.500000
v 0.437500 1.250000 0.500000
v 0.500000 1.250000 0.500000
v 0.500000 1.250000 0.437500
v 0.437500 1.250000 0.437500
v 0.437500 0.875000 0.437500
v 0.500000 0.875000 0.437500
v 0.500000 0.875000 0.500000
v 0.437500 0.875000 0.500000
v -0.500000 0.875000 0.500000
v 0.500000 0.875000 0.500000
v 0.500000 0.875000 0.437500
v -0.500000 0.875000 0.437500
v -0.500000 0.562500 0.437500
v 0.500000 0.562500 0.437500
v 0.500000 0.562500 0.500000
v -0.500000 0.562500 0.500000
v -0.500000 0.875000 -0.437500
v 0.500000 0.875000 -0.437500
v 0.500000 0.875000 -0.500000
v -0.500000 0.875000 -0.500000
v -0.500000 0.562500 -0.500000
v 0.500000 0.562500 -0.500000
v 0.500000 0.562500 -0.437500
v -0.500000 0.562500 -0.437500
v -0.500000 0.812500 0.556250
v 0.500000 0.812500 0.556250
v 0.500000 0.812500 0.500000
v -0.500000 0.812500 0.500000
v -0.500000 0.312500 0.500000
v 0.500000 0.312500 0.500000
v 0.500000 0.312500 0.556250
v -0.500000 0.312500 0.556250
v 0.500000 0.812500 0.556250
v 0.556250 0.812500 0.556250
v 0.556250 0.812500 -0.556250
v 0.500000 0.812500 -0.556250
v 0.500000 0.312500 -0.556250
v 0.556250 0.312500 -0.556250
v 0.556250 0.312500 0.556250
v 0.500000 0.312500 0.556250
v -0.556250 0.812500 0.556250
v -0.500000 0.812500 0.556250
v -0.500000 0.812500 -0.556250
v -0.556250 0.812500 -0.556250
v -0.556250 0.312500 -0.556250
v -0.500000 0.312500 -0.556250
v -0.500000 0.312500 0.556250
v -0.556250 0.312500 0.556250
v -0.500000 1.250000 -0.437500
v -0.437500 1.250000 -0.437500
v -0.437500 1.250000 -0.500000
v -0.500000 1.250000 -0.500000
v -0.500000 0.875000 -0.500000
v -0.437500 0.875000 -0.500000
v -0.437500 0.875000 -0.437500
v -0.500000 0.875000 -0.437500
v 0.437500 1.250000 -0.437500
v 0.500000 1.250000 -0.437500
v 0.500000 1.250000 -0.500000
v 0.437500 1.250000 -0.500000
v 0.437500 0.875000 -0.500000
v 0.500000 0.875000 -0.500000
v 0.500000 0.875000 -0.437500
v 0.437500 0.875000 -0.437500
vt 1.015625 0.984375
vt 1.140625 0.984375
vt 1.140625 0.992188
vt 1.015625 0.992188
vt 1.140625 0.984375
vt 1.265625 0.984375
vt 1.265625 0.992188
vt 1.140625 0.992188
vt 1.015625 0.921875
vt 1.140625 0.921875
vt 1.273438 0.984375
vt 1.148438 0.984375
vt 1.148438 0.921875
vt 1.273438 0.921875
vt 1.007812 0.984375
vt 1.007812 0.921875
vt 1.320312 0.867188
vt 1.445312 0.867188
vt 1.445312 0.992188
vt 1.320312 0.992188
vt 1.445312 0.867188
vt 1.570312 0.867188
vt 1.570312 0.992188
vt 1.445312 0.992188
vt 1.320312 0.796875
vt 1.445312 0.796875
vt 1.695312 0.867188
vt 1.570312 0.867188
vt 1.570312 0.796875
vt 1.695312 0.796875
vt 1.195312 0.867188
vt 1.195312 0.796875
vt 1.867188 0.882812
vt 1.875000 0.882812
vt 1.875000 0.992188
vt 1.867188 0.992188
vt 1.875000 0.882812
vt 1.882812 0.882812
vt 1.882812 0.992188
vt 1.875000 0.992188
vt 1.867188 0.843750
vt 1.875000 0.843750
vt 1.992188 0.882812
vt 1.984375 0.882812
vt 1.984375 0.843750
vt 1.992188 0.843750
vt 1.757812 0.882812
vt 1.757812 0.843750
vt 1.117188 0.757812
vt 1.125000 0.757812
vt 1.125000 0.867188
vt 1.117188 0.867188
vt 1.125000 0.757812
vt 1.132812 0.757812
vt 1.132812 0.867188
vt 1.125000 0.867188
vt 1.117188 0.718750
vt 1.125000 0.718750
vt 1.242188 0.757812
vt 1.234375 0.757812
vt 1.234375 0.718750
vt 1.242188 0.718750
vt 1.007812 0.757812
vt 1.007812 0.718750
vt 1.953125 0.984375
vt 1.960938 0.984375
vt 1.960938 0.992188
vt 1.953125 0.992188
vt 1.960938 0.984375
vt 1.968750 0.984375
vt 1.968750 0.992188
vt 1.960938 0.992188
vt 1.953125 0.937500
vt 1.960938 0.937500
vt 1.976562 0.984375
vt 1.968750 0.984375
vt 1.968750 0.937500
vt 1.976562 0.937500
vt 1.945312 0.984375
vt 1.945312 0.937500
vt 1.640625 0.921875
vt 1.648438 0.921875
vt 1.648438 0.929688
vt 1.640625 0.929688
vt 1.648438 0.921875
vt 1.656250 0.921875
vt 1.656250 0.929688
vt 1.648438 0.929688
vt 1.640625 0.875000
vt 1.648438 0.875000
vt 1.664062 0.921875
vt 1.656250 0.921875
vt 1.656250 0.875000
vt 1.664062 0.875000
vt 1.632812 0.921875
vt 1.632812 0.875000
vt 1.265625 0.734375
vt 1.390625 0.734375
vt 1.390625 0.742188
vt 1.265625 0.742188
vt 1.390625 0.734375
vt 1.515625 0.734375
vt 1.515625 0.742188
vt 1.390625 0.742188
vt 1.265625 0.695312
vt 1.390625 0.695312
vt 1.523438 0.734375
vt 1.398438 0.734375
vt 1.398438 0.695312
vt 1.523438 0.695312
vt 1.257812 0.734375
vt 1.257812 0.695312
vt 1.015625 0.671875
vt 1.140625 0.671875
vt 1.140625 0.679688
vt 1.015625 0.679688
vt 1.140625 0.671875
vt 1.265625 0.671875
vt 1.265625 0.679688
vt 1.140625 0.679688
vt 1.015625 0.632812
vt 1.140625 0.632812
vt 1.273438 0.671875
vt 1.148438 0.671875
vt 1.148438 0.632812
vt 1.273438 0.632812
vt 1.007812 0.671875
vt 1.007812 0.632812
vt 1.328125 0.671875
vt 1.453125 0.671875
vt 1.453125 0.679688
vt 1.328125 0.679688
vt 1.453125 0.671875
vt 1.578125 0.671875
vt 1.578125 0.679688
vt 1.453125 0.679688
vt 1.328125 0.609375
vt 1.453125 0.609375
vt 1.585938 0.671875
vt 1.460938 0.671875
vt 1.460938 0.609375
vt 1.585938 0.609375
vt 1.320312 0.671875
vt 1.320312 0.609375
vt 1.648438 0.539062
vt 1.656250 0.539062
vt 1.656250 0.679688
vt 1.648438 0.679688
vt 1.656250 0.539062
vt 1.664062 0.539062
vt 1.664062 0.679688
vt 1.656250 0.679688
vt 1.648438 0.476562
vt 1.656250 0.476562
vt 1.804688 0.539062
vt 1.796875 0.539062
vt 1.796875 0.476562
vt 1.804688 0.476562
vt 1.507812 0.539062
vt 1.507812 0.476562
vt 1.148438 0.476562
vt 1.156250 0.476562
vt 1.156250 0.617188
vt 1.148438 0.617188
vt 1.156250 0.476562
vt 1.164062 0.476562
vt 1.164062 0.617188
vt 1.156250 0.617188
vt 1.148438 0.414062
vt 1.156250 0.414062
vt 1.304688 0.476562
vt 1.296875 0.476562
vt 1.296875 0.414062
vt 1.304688 0.414062
vt 1.007812 0.476562
vt 1.007812 0.414062
vt 1.703125 0.921875
vt 1.710938 0.921875
vt 1.710938 0.929688
vt 1.703125 0.929688
vt 1.710938 0.921875
vt 1.718750 0.921875
vt 1.718750 0.929688
vt 1.710938 0.929688
vt 1.703125 0.875000
vt 1.710938 0.875000
vt 1.726562 0.921875
vt 1.718750 0.921875
vt 1.718750 0.875000
vt 1.726562 0.875000
vt 1.695312 0.921875
vt 1.695312 0.875000
vt 1.015625 0.859375
vt 1.023438 0.859375
vt 1.023438 0.867188
vt 1.015625 0.867188
vt 1.023438 0.859375
vt 1.031250 0.859375
vt 1.031250 0.867188
vt 1.023438 0.867188
vt 1.015625 0.812500
vt 1.023438 0.812500
vt 1.039062 0.859375
vt 1.031250 0.859375
vt 1.031250 0.812500
vt 1.039062 0.812500
vt 1.007812 0.859375
vt 1.007812 0.812500
vn 0.0000 1.0000 0.0000
vn 0.0000 -1.0000 0.0000
vn 0.0000 -0.0000 1.0000
vn 0.0000 0.0000 -1.0000
vn 1.0000 0.0000 0.0000
vn -1.0000 0.0000 0.0000
usemtl ModelMaterial
s off
f 33/61/5 34/62/5 35/63/5 36/64/5
f 37/65/6 38/66/6 39/67/6 40/68/6
f 34/62/7 33/61/7 40/69/7 39/70/7
f 36/71/8 35/72/8 38/73/8 37/74/8
f 35/72/9 34/62/9 39/70/9 38/73/9
f 33/61/10 36/75/10 37/76/10 40/69/10
f 41/77/5 42/78/5 43/79/5 44/80/5
f 45/81/6 46/82/6 47/83/6 48/84/6
f 42/78/7 41/77/7 48/85/7 47/86/7
f 44/87/8 43/88/8 46/89/8 45/90/8
f 43/88/9 42/78/9 47/86/9 46/89/9
f 41/77/10 44/91/10 45/92/10 48/85/10
f 49/93/5 50/94/5 51/95/5 52/96/5
f 53/97/6 54/98/6 55/99/6 56/100/6
f 50/94/7 49/93/7 56/101/7 55/102/7
f 52/103/8 51/104/8 54/105/8 53/106/8
f 51/104/9 50/94/9 55/102/9 54/105/9
f 49/93/10 52/107/10 53/108/10 56/101/10
f 57/109/5 58/110/5 59/111/5 60/112/5
f 61/113/6 62/114/6 63/115/6 64/116/6
f 58/110/7 57/109/7 64/117/7 63/118/7
f 60/119/8 59/120/8 62/121/8 61/122/8
f 59/120/9 58/110/9 63/118/9 62/121/9
f 57/109/10 60/123/10 61/124/10 64/117/10
f 65/125/5 66/126/5 67/127/5 68/128/5
f 69/129/6 70/130/6 71/131/6 72/132/6
f 66/126/7 65/125/7 72/133/7 71/134/7
f 68/135/8 67/136/8 70/137/8 69/138/8
f 67/136/9 66/126/9 71/134/9 70/137/9
f 65/125/10 68/139/10 69/140/10 72/133/10
f 73/141/5 74/142/5 75/143/5 76/144/5
f 77/145/6 78/146/6 79/147/6 80/148/6
f 74/142/7 73/141/7 80/149/7 79/150/7
f 76/151/8 75/152/8 78/153/8 77/154/8
f 75/152/9 74/142/9 79/150/9 78/153/9
f 73/141/10 76/155/10 77/156/10 80/149/10
f 81/157/5 82/158/5 83/159/5 84/160/5
f 85/161/6 86/162/6 87/163/6 88/164/6
f 82/158/7 81/157/7 88/165/7 87/166/7
f 84/167/8 83/168/8 86/169/8 85/170/8
f 83/168/9 82/158/9 87/166/9 86/169/9
f 81/157/10 84/171/10 85/172/10 88/165/10
f 89/173/5 90/174/5 91/175/5 92/176/5
f 93/177/6 94/178/6 95/179/6 96/180/6
f 90/174/7 89/173/7 96/181/7 95/182/7
f 92/183/8 91/184/8 94/185/8 93/186/8
f 91/184/9 90/174/9 95/182/9 94/185/9
f 89/173/10 92/187/10 93/188/10 96/181/10
f 97/189/5 98/190/5 99/191/5 100/192/5
f 101/193/6 102/194/6 103/195/6 104/196/6
f 98/190/7 97/189/7 104/197/7 103/198/7
f 100/199/8 99/200/8 102/201/8 101/202/8
f 99/200/9 98/190/9 103/198/9 102/201/9
f 97/189/10 100/203/10 101/204/10 104/197/10
f 105/205/5 106/206/5 107/207/5 108/208/5
f 109/209/6 110/210/6 111/211/6 112/212/6
f 106/206/7 105/205/7 112/213/7 111/214/7
f 108/215/8 107/216/8 110/217/8 109/218/8
f 107/216/9 106/206/9 111/214/9 110/217/9
f 105/205/10 108/219/10 109/220/10 112/213/10
f 113/221/5 114/222/5 115/223/5 116/224/5
f 117/225/6 118/226/6 119/227/6 120/228/6
f 114/222/7 113/221/7 120/229/7 119/230/7
f 116/231/8 115/232/8 118/233/8 117/234/8
f 115/232/9 114/222/9 119/230/9 118/233/9
f 113/221/10 116/235/10 117/236/10 120/229/10
f 121/237/5 122/238/5 123/239/5 124/240/5
f 125/241/6 126/242/6 127/243/6 128/244/6
f 122/238/7 121/237/7 128/245/7 127/246/7
f 124/247/8 123/248/8 126/249/8 125/250/8
f 123/248/9 122/238/9 127/246/9 126/249/9
f 121/237/10 124/251/10 125/252/10 128/245/10
f 129/253/5 130/254/5 131/255/5 132/256/5
f 133/257/6 134/258/6 135/259/6 136/260/6
f 130/254/7 129/253/7 136/261/7 135/262/7
f 132/263/8 131/264/8 134/265/8 133/266/8
f 131/264/9 130/254/9 135/262/9 134/265/9
f 129/253/10 132/267/10 133/268/10 136/261/10
