# Blender v2.79 (sub 0) OBJ File: ''
# www.blender.org
mtllib modubar_multideck_open_curved_standard.mtl
o bodyModel
v 0.500000 0.125000 -0.500000
v -0.500000 0.125000 -0.500000
v -0.500000 0.125000 0.500000
v 0.500000 0.125000 0.500000
v 0.500000 0.000000 0.500000
v -0.500000 0.000000 0.500000
v -0.500000 -0.000000 -0.500000
v 0.500000 -0.000000 -0.500000
v 0.500000 2.000000 -0.500000
v -0.500000 2.000000 -0.500000
v -0.500000 2.000000 -0.437500
v 0.500000 2.000000 -0.437500
v 0.500000 0.125000 -0.437500
v -0.500000 0.125000 -0.437500
v -0.500000 0.125000 -0.500000
v 0.500000 0.125000 -0.500000
v 0.500000 0.312500 -0.437500
v 0.437500 0.312500 -0.437500
v 0.437500 0.312500 0.500000
v 0.500000 0.312500 0.500000
v 0.500000 0.125000 0.500000
v 0.437500 0.125000 0.500000
v 0.437500 0.125000 -0.437500
v 0.500000 0.125000 -0.437500
v -0.437500 0.312500 -0.437500
v -0.500000 0.312500 -0.437500
v -0.500000 0.312500 0.500000
v -0.437500 0.312500 0.500000
v -0.437500 0.125000 0.500000
v -0.500000 0.125000 0.500000
v -0.500000 0.125000 -0.437500
v -0.437500 0.125000 -0.437500
vt 1.066406 0.867188
vt 1.128906 0.867188
vt 1.128906 0.992188
vt 1.066406 0.992188
vt 1.128906 0.867188
vt 1.191406 0.867188
vt 1.191406 0.992188
vt 1.128906 0.992188
vt 1.066406 0.851562
vt 1.128906 0.851562
vt 1.253906 0.867188
vt 1.191406 0.867188
vt 1.191406 0.851562
vt 1.253906 0.851562
vt 1.003906 0.867188
vt 1.003906 0.851562
vt 1.289062 0.984375
vt 1.351562 0.984375
vt 1.351562 0.992188
vt 1.289062 0.992188
vt 1.351562 0.984375
vt 1.414062 0.984375
vt 1.414062 0.992188
vt 1.351562 0.992188
vt 1.289062 0.750000
vt 1.351562 0.750000
vt 1.417969 0.984375
vt 1.355469 0.984375
vt 1.355469 0.750000
vt 1.417969 0.750000
vt 1.285156 0.984375
vt 1.285156 0.750000
vt 1.500000 0.875000
vt 1.503906 0.875000
vt 1.503906 0.992188
vt 1.500000 0.992188
vt 1.503906 0.875000
vt 1.507812 0.875000
vt 1.507812 0.992188
vt 1.503906 0.992188
vt 1.500000 0.851562
vt 1.503906 0.851562
vt 1.566406 0.875000
vt 1.562500 0.875000
vt 1.562500 0.851562
vt 1.566406 0.851562
vt 1.441406 0.875000
vt 1.441406 0.851562
vt 1.656250 0.875000
vt 1.660156 0.875000
vt 1.660156 0.992188
vt 1.656250 0.992188
vt 1.660156 0.875000
vt 1.664062 0.875000
vt 1.664062 0.992188
vt 1.660156 0.992188
vt 1.656250 0.851562
vt 1.660156 0.851562
vt 1.722656 0.875000
vt 1.718750 0.875000
vt 1.718750 0.851562
vt 1.722656 0.851562
vt 1.597656 0.875000
vt 1.597656 0.851562
vn -0.0000 1.0000 -0.0000
vn 0.0000 -1.0000 0.0000
vn -0.0000 -0.0000 -1.0000
vn 0.0000 0.0000 1.0000
vn -1.0000 0.0000 0.0000
vn 1.0000 0.0000 -0.0000
usemtl ModelMaterial
s off
f 1/1/1 2/2/1 3/3/1 4/4/1
f 5/5/2 6/6/2 7/7/2 8/8/2
f 2/2/3 1/1/3 8/9/3 7/10/3
f 4/11/4 3/12/4 6/13/4 5/14/4
f 3/12/5 2/2/5 7/10/5 6/13/5
f 1/1/6 4/15/6 5/16/6 8/9/6
f 9/17/1 10/18/1 11/19/1 12/20/1
f 13/21/2 14/22/2 15/23/2 16/24/2
f 10/18/3 9/17/3 16/25/3 15/26/3
f 12/27/4 11/28/4 14/29/4 13/30/4
f 11/28/5 10/18/5 15/26/5 14/29/5
f 9/17/6 12/31/6 13/32/6 16/25/6
f 17/33/1 18/34/1 19/35/1 20/36/1
f 21/37/2 22/38/2 23/39/2 24/40/2
f 18/34/3 17/33/3 24/41/3 23/42/3
f 20/43/4 19/44/4 22/45/4 21/46/4
f 19/44/5 18/34/5 23/42/5 22/45/5
f 17/33/6 20/47/6 21/48/6 24/41/6
f 25/49/1 26/50/1 27/51/1 28/52/1
f 29/53/2 30/54/2 31/55/2 32/56/2
f 26/50/3 25/49/3 32/57/3 31/58/3
f 28/59/4 27/60/4 30/61/4 29/62/4
f 27/60/5 26/50/5 31/58/5 30/61/5
f 25/49/6 28/63/6 29/64/6 32/57/6
o bodyGlass_translucent
v 0.496875 1.437500 -0.437500
v 0.496875 1.437500 -0.437500
v 0.496875 1.437500 0.437500
v 0.496875 1.437500 0.437500
v 0.496875 0.312500 0.500000
v 0.496875 0.312500 0.500000
v 0.496875 0.312500 -0.437500
v 0.496875 0.312500 -0.437500
v 0.437500 0.312500 0.496875
v -0.437500 0.312500 0.496875
v -0.437500 0.312500 0.496875
v 0.437500 0.312500 0.496875
v 0.437500 0.125000 0.496875
v -0.437500 0.125000 0.496875
v -0.437500 0.125000 0.496875
v 0.437500 0.125000 0.496875
v 0.496875 1.625000 -0.437500
v 0.496875 1.625000 -0.437500
v 0.496875 1.625000 0.375000
v 0.496875 1.625000 0.375000
v 0.496875 1.437500 0.437500
v 0.496875 1.437500 0.437500
v 0.496875 1.437500 -0.437500
v 0.496875 1.437500 -0.437500
v 0.496875 2.000000 -0.437500
v 0.496875 2.000000 -0.437500
v 0.496875 2.000000 -0.125000
v 0.496875 2.000000 -0.125000
v 0.496875 1.937500 0.062500
v 0.496875 1.937500 0.062500
v 0.496875 1.937500 -0.437500
v 0.496875 1.937500 -0.437500
v 0.496875 1.937500 -0.437500
v 0.496875 1.937500 -0.437500
v 0.496875 1.937500 0.062500
v 0.496875 1.937500 0.062500
v 0.496875 1.875000 0.187500
v 0.496875 1.875000 0.187500
v 0.496875 1.875000 -0.437500
v 0.496875 1.875000 -0.437500
v 0.496875 1.750000 -0.437500
v 0.496875 1.750000 -0.437500
v 0.496875 1.750000 0.312500
v 0.496875 1.750000 0.312500
v 0.496875 1.625000 0.375000
v 0.496875 1.625000 0.375000
v 0.496875 1.625000 -0.437500
v 0.496875 1.625000 -0.437500
v 0.496875 1.875000 -0.437500
v 0.496875 1.875000 -0.437500
v 0.496875 1.875000 0.187500
v 0.496875 1.875000 0.187500
v 0.496875 1.750000 0.312500
v 0.496875 1.750000 0.312500
v 0.496875 1.750000 -0.437500
v 0.496875 1.750000 -0.437500
v -0.496875 1.437500 -0.437500
v -0.496875 1.437500 -0.437500
v -0.496875 1.437500 0.437500
v -0.496875 1.437500 0.437500
v -0.496875 0.312500 0.500000
v -0.496875 0.312500 0.500000
v -0.496875 0.312500 -0.437500
v -0.496875 0.312500 -0.437500
v -0.496875 1.625000 -0.437500
v -0.496875 1.625000 -0.437500
v -0.496875 1.625000 0.375000
v -0.496875 1.625000 0.375000
v -0.496875 1.437500 0.437500
v -0.496875 1.437500 0.437500
v -0.496875 1.437500 -0.437500
v -0.496875 1.437500 -0.437500
v -0.496875 1.750000 -0.437500
v -0.496875 1.750000 -0.437500
v -0.496875 1.750000 0.312500
v -0.496875 1.750000 0.312500
v -0.496875 1.625000 0.375000
v -0.496875 1.625000 0.375000
v -0.496875 1.625000 -0.437500
v -0.496875 1.625000 -0.437500
v -0.496875 1.875000 -0.437500
v -0.496875 1.875000 -0.437500
v -0.496875 1.875000 0.187500
v -0.496875 1.875000 0.187500
v -0.496875 1.750000 0.312500
v -0.496875 1.750000 0.312500
v -0.496875 1.750000 -0.437500
v -0.496875 1.750000 -0.437500
v -0.496875 2.000000 -0.437500
v -0.496875 2.000000 -0.437500
v -0.496875 2.000000 -0.125000
v -0.496875 2.000000 -0.125000
v -0.496875 1.937500 0.062500
v -0.496875 1.937500 0.062500
v -0.496875 1.937500 -0.437500
v -0.496875 1.937500 -0.437500
v -0.496875 1.937500 -0.437500
v -0.496875 1.937500 -0.437500
v -0.496875 1.937500 0.062500
v -0.496875 1.937500 0.062500
v -0.496875 1.875000 0.187500
v -0.496875 1.875000 0.187500
v -0.496875 1.875000 -0.437500
v -0.496875 1.875000 -0.437500
vt 1.937500 0.875000
vt 1.937500 0.875000
vt 1.937500 0.992188
vt 1.937500 0.992188
vt 1.937500 0.875000
vt 1.937500 0.875000
vt 1.937500 0.992188
vt 1.937500 0.992188
vt 1.937500 0.734375
vt 1.937500 0.734375
vt 1.996094 0.875000
vt 1.996094 0.875000
vt 1.996094 0.734375
vt 1.996094 0.734375
vt 1.878906 0.875000
vt 1.878906 0.734375
vt 1.535156 0.992188
vt 1.589844 0.992188
vt 1.589844 0.992188
vt 1.535156 0.992188
vt 1.589844 0.992188
vt 1.644531 0.992188
vt 1.644531 0.992188
vt 1.589844 0.992188
vt 1.535156 0.968750
vt 1.589844 0.968750
vt 1.644531 0.992188
vt 1.589844 0.968750
vt 1.644531 0.968750
vt 1.535156 0.968750
vt 1.746094 0.757812
vt 1.746094 0.757812
vt 1.746094 0.867188
vt 1.746094 0.867188
vt 1.746094 0.757812
vt 1.746094 0.757812
vt 1.746094 0.867188
vt 1.746094 0.867188
vt 1.746094 0.734375
vt 1.746094 0.734375
vt 1.800781 0.757812
vt 1.800781 0.757812
vt 1.800781 0.734375
vt 1.800781 0.734375
vt 1.691406 0.757812
vt 1.691406 0.734375
vt 1.910156 0.929688
vt 1.910156 0.929688
vt 1.910156 0.992188
vt 1.910156 0.992188
vt 1.910156 0.929688
vt 1.910156 0.929688
vt 1.910156 0.992188
vt 1.910156 0.992188
vt 1.910156 0.921875
vt 1.910156 0.921875
vt 1.941406 0.929688
vt 1.941406 0.929688
vt 1.941406 0.921875
vt 1.941406 0.921875
vt 1.878906 0.929688
vt 1.878906 0.921875
vt 1.949219 0.914062
vt 1.949219 0.914062
vt 1.949219 0.992188
vt 1.949219 0.992188
vt 1.949219 0.914062
vt 1.949219 0.914062
vt 1.949219 0.992188
vt 1.949219 0.992188
vt 1.949219 0.906250
vt 1.949219 0.906250
vt 1.988281 0.914062
vt 1.988281 0.914062
vt 1.988281 0.906250
vt 1.988281 0.906250
vt 1.910156 0.914062
vt 1.910156 0.906250
vt 1.585938 0.828125
vt 1.585938 0.828125
vt 1.585938 0.929688
vt 1.585938 0.929688
vt 1.585938 0.828125
vt 1.585938 0.828125
vt 1.585938 0.929688
vt 1.585938 0.929688
vt 1.585938 0.812500
vt 1.585938 0.812500
vt 1.636719 0.828125
vt 1.636719 0.828125
vt 1.636719 0.812500
vt 1.636719 0.812500
vt 1.535156 0.828125
vt 1.535156 0.812500
vt 1.675781 0.710938
vt 1.675781 0.710938
vt 1.675781 0.804688
vt 1.675781 0.804688
vt 1.675781 0.710938
vt 1.675781 0.710938
vt 1.675781 0.804688
vt 1.675781 0.804688
vt 1.675781 0.695312
vt 1.675781 0.695312
vt 1.722656 0.710938
vt 1.722656 0.710938
vt 1.722656 0.695312
vt 1.722656 0.695312
vt 1.628906 0.710938
vt 1.628906 0.695312
vt 1.250000 0.687500
vt 1.250000 0.687500
vt 1.250000 0.804688
vt 1.250000 0.804688
vt 1.250000 0.687500
vt 1.250000 0.687500
vt 1.250000 0.804688
vt 1.250000 0.804688
vt 1.250000 0.546875
vt 1.250000 0.546875
vt 1.308594 0.687500
vt 1.308594 0.687500
vt 1.308594 0.546875
vt 1.308594 0.546875
vt 1.191406 0.687500
vt 1.191406 0.546875
vt 1.808594 0.695312
vt 1.808594 0.695312
vt 1.808594 0.804688
vt 1.808594 0.804688
vt 1.808594 0.695312
vt 1.808594 0.695312
vt 1.808594 0.804688
vt 1.808594 0.804688
vt 1.808594 0.671875
vt 1.808594 0.671875
vt 1.863281 0.695312
vt 1.863281 0.695312
vt 1.863281 0.671875
vt 1.863281 0.671875
vt 1.753906 0.695312
vt 1.753906 0.671875
vt 1.367188 0.640625
vt 1.367188 0.640625
vt 1.367188 0.742188
vt 1.367188 0.742188
vt 1.367188 0.640625
vt 1.367188 0.640625
vt 1.367188 0.742188
vt 1.367188 0.742188
vt 1.367188 0.625000
vt 1.367188 0.625000
vt 1.417969 0.640625
vt 1.417969 0.640625
vt 1.417969 0.625000
vt 1.417969 0.625000
vt 1.316406 0.640625
vt 1.316406 0.625000
vt 1.613281 0.648438
vt 1.613281 0.648438
vt 1.613281 0.742188
vt 1.613281 0.742188
vt 1.613281 0.648438
vt 1.613281 0.648438
vt 1.613281 0.742188
vt 1.613281 0.742188
vt 1.613281 0.632812
vt 1.613281 0.632812
vt 1.660156 0.648438
vt 1.660156 0.648438
vt 1.660156 0.632812
vt 1.660156 0.632812
vt 1.566406 0.648438
vt 1.566406 0.632812
vt 1.753906 0.804688
vt 1.753906 0.804688
vt 1.753906 0.867188
vt 1.753906 0.867188
vt 1.753906 0.804688
vt 1.753906 0.804688
vt 1.753906 0.867188
vt 1.753906 0.867188
vt 1.753906 0.796875
vt 1.753906 0.796875
vt 1.785156 0.804688
vt 1.785156 0.804688
vt 1.785156 0.796875
vt 1.785156 0.796875
vt 1.722656 0.804688
vt 1.722656 0.796875
vt 1.792969 0.789062
vt 1.792969 0.789062
vt 1.792969 0.867188
vt 1.792969 0.867188
vt 1.792969 0.789062
vt 1.792969 0.789062
vt 1.792969 0.867188
vt 1.792969 0.867188
vt 1.792969 0.781250
vt 1.792969 0.781250
vt 1.832031 0.789062
vt 1.832031 0.789062
vt 1.832031 0.781250
vt 1.832031 0.781250
vt 1.753906 0.789062
vt 1.753906 0.781250
vn 0.0000 0.0000 1.0000
vn -1.0000 -0.0000 0.0000
vn 1.0000 0.0000 -0.0000
vn -0.0000 -0.0000 -1.0000
usemtl ModelMaterial.001
s off
f 33/65/7 34/66/7 35/67/7 36/68/7
f 37/69/7 38/70/7 39/71/7 40/72/7
f 34/66/7 33/65/7 40/73/7 39/74/7
f 36/75/7 35/76/7 38/77/7 37/78/7
f 35/76/8 34/66/8 39/74/8 38/77/8
f 33/65/9 36/79/9 37/80/9 40/73/9
f 41/81/7 42/82/7 43/83/7 44/84/7
f 45/85/7 46/86/7 47/87/7 48/88/7
f 42/82/10 41/81/10 48/89/10 47/90/10
f 44/91/7 43/83/7 46/92/7 45/93/7
f 43/83/7 42/82/7 47/90/7 46/92/7
f 41/81/7 44/84/7 45/94/7 48/89/7
f 49/95/7 50/96/7 51/97/7 52/98/7
f 53/99/7 54/100/7 55/101/7 56/102/7
f 50/96/7 49/95/7 56/103/7 55/104/7
f 52/105/7 51/106/7 54/107/7 53/108/7
f 51/106/8 50/96/8 55/104/8 54/107/8
f 49/95/9 52/109/9 53/110/9 56/103/9
f 57/111/7 58/112/7 59/113/7 60/114/7
f 61/115/7 62/116/7 63/117/7 64/118/7
f 58/112/7 57/111/7 64/119/7 63/120/7
f 60/121/7 59/122/7 62/123/7 61/124/7
f 59/122/8 58/112/8 63/120/8 62/123/8
f 57/111/9 60/125/9 61/126/9 64/119/9
f 65/127/7 66/128/7 67/129/7 68/130/7
f 69/131/7 70/132/7 71/133/7 72/134/7
f 66/128/7 65/127/7 72/135/7 71/136/7
f 68/137/7 67/138/7 70/139/7 69/140/7
f 67/138/8 66/128/8 71/136/8 70/139/8
f 65/127/9 68/141/9 69/142/9 72/135/9
f 73/143/7 74/144/7 75/145/7 76/146/7
f 77/147/7 78/148/7 79/149/7 80/150/7
f 74/144/7 73/143/7 80/151/7 79/152/7
f 76/153/7 75/154/7 78/155/7 77/156/7
f 75/154/8 74/144/8 79/152/8 78/155/8
f 73/143/9 76/157/9 77/158/9 80/151/9
f 81/159/7 82/160/7 83/161/7 84/162/7
f 85/163/7 86/164/7 87/165/7 88/166/7
f 82/160/7 81/159/7 88/167/7 87/168/7
f 84/169/7 83/170/7 86/171/7 85/172/7
f 83/170/8 82/160/8 87/168/8 86/171/8
f 81/159/9 84/173/9 85/174/9 88/167/9
f 89/175/7 90/176/7 91/177/7 92/178/7
f 93/179/7 94/180/7 95/181/7 96/182/7
f 90/176/7 89/175/7 96/183/7 95/184/7
f 92/185/7 91/186/7 94/187/7 93/188/7
f 91/186/8 90/176/8 95/184/8 94/187/8
f 89/175/9 92/189/9 93/190/9 96/183/9
f 97/191/7 98/192/7 99/193/7 100/194/7
f 101/195/7 102/196/7 103/197/7 104/198/7
f 98/192/7 97/191/7 104/199/7 103/200/7
f 100/201/7 99/202/7 102/203/7 101/204/7
f 99/202/8 98/192/8 103/200/8 102/203/8
f 97/191/9 100/205/9 101/206/9 104/199/9
f 105/207/7 106/208/7 107/209/7 108/210/7
f 109/211/7 110/212/7 111/213/7 112/214/7
f 106/208/7 105/207/7 112/215/7 111/216/7
f 108/217/7 107/218/7 110/219/7 109/220/7
f 107/218/8 106/208/8 111/216/8 110/219/8
f 105/207/9 108/221/9 109/222/9 112/215/9
f 113/223/7 114/224/7 115/225/7 116/226/7
f 117/227/7 118/228/7 119/229/7 120/230/7
f 114/224/7 113/223/7 120/231/7 119/232/7
f 116/233/7 115/234/7 118/235/7 117/236/7
f 115/234/8 114/224/8 119/232/8 118/235/8
f 113/223/9 116/237/9 117/238/9 120/231/9
f 121/239/7 122/240/7 123/241/7 124/242/7
f 125/243/7 126/244/7 127/245/7 128/246/7
f 122/240/7 121/239/7 128/247/7 127/248/7
f 124/249/7 123/250/7 126/251/7 125/252/7
f 123/250/8 122/240/8 127/248/8 126/251/8
f 121/239/9 124/253/9 125/254/9 128/247/9
f 129/255/7 130/256/7 131/257/7 132/258/7
f 133/259/7 134/260/7 135/261/7 136/262/7
f 130/256/7 129/255/7 136/263/7 135/264/7
f 132/265/7 131/266/7 134/267/7 133/268/7
f 131/266/8 130/256/8 135/264/8 134/267/8
f 129/255/9 132/269/9 133/270/9 136/263/9
o interiorTrays_translucent
v 0.500000 1.500000 -0.437500
v -0.500000 1.500000 -0.437500
v -0.500000 1.500000 0.312500
v 0.500000 1.500000 0.312500
v 0.500000 1.484375 0.312500
v -0.500000 1.484375 0.312500
v -0.500000 1.437500 -0.437500
v 0.500000 1.437500 -0.437500
v 0.500000 1.000000 -0.437500
v -0.500000 1.000000 -0.437500
v -0.500000 1.000000 0.312500
v 0.500000 1.000000 0.312500
v 0.500000 0.984375 0.312500
v -0.500000 0.984375 0.312500
v -0.500000 0.937500 -0.437500
v 0.500000 0.937500 -0.437500
v 0.500000 0.500000 -0.437500
v -0.500000 0.500000 -0.437500
v -0.500000 0.500000 0.312500
v 0.500000 0.500000 0.312500
v 0.500000 0.484375 0.312500
v -0.500000 0.484375 0.312500
v -0.500000 0.437500 -0.437500
v 0.500000 0.437500 -0.437500
vt 1.738281 0.898438
vt 1.800781 0.898438
vt 1.800781 0.992188
vt 1.738281 0.992188
vt 1.800781 0.898438
vt 1.863281 0.898438
vt 1.863281 0.992188
vt 1.800781 0.992188
vt 1.738281 0.890625
vt 1.800781 0.890625
vt 1.910156 0.898438
vt 1.847656 0.898438
vt 1.847656 0.890625
vt 1.910156 0.890625
vt 1.691406 0.898438
vt 1.691406 0.890625
vt 1.050781 0.710938
vt 1.113281 0.710938
vt 1.113281 0.804688
vt 1.050781 0.804688
vt 1.113281 0.710938
vt 1.175781 0.710938
vt 1.175781 0.804688
vt 1.113281 0.804688
vt 1.050781 0.703125
vt 1.113281 0.703125
vt 1.222656 0.710938
vt 1.160156 0.710938
vt 1.160156 0.703125
vt 1.222656 0.703125
vt 1.003906 0.710938
vt 1.003906 0.703125
vt 1.425781 0.710938
vt 1.488281 0.710938
vt 1.488281 0.804688
vt 1.425781 0.804688
vt 1.488281 0.710938
vt 1.550781 0.710938
vt 1.550781 0.804688
vt 1.488281 0.804688
vt 1.425781 0.703125
vt 1.488281 0.703125
vt 1.597656 0.710938
vt 1.535156 0.710938
vt 1.535156 0.703125
vt 1.597656 0.703125
vt 1.378906 0.710938
vt 1.378906 0.703125
vn -0.0000 1.0000 -0.0000
vn 0.0000 -0.9981 0.0624
vn -0.0000 -0.0000 -1.0000
vn 0.0000 0.0000 1.0000
vn -1.0000 0.0000 0.0000
vn 1.0000 0.0000 -0.0000
usemtl ModelMaterial.002
s off
f 137/271/11 138/272/11 139/273/11 140/274/11
f 141/275/12 142/276/12 143/277/12 144/278/12
f 138/272/13 137/271/13 144/279/13 143/280/13
f 140/281/14 139/282/14 142/283/14 141/284/14
f 139/282/15 138/272/15 143/280/15 142/283/15
f 137/271/16 140/285/16 141/286/16 144/279/16
f 145/287/11 146/288/11 147/289/11 148/290/11
f 149/291/12 150/292/12 151/293/12 152/294/12
f 146/288/13 145/287/13 152/295/13 151/296/13
f 148/297/14 147/298/14 150/299/14 149/300/14
f 147/298/15 146/288/15 151/296/15 150/299/15
f 145/287/16 148/301/16 149/302/16 152/295/16
f 153/303/11 154/304/11 155/305/11 156/306/11
f 157/307/12 158/308/12 159/309/12 160/310/12
f 154/304/13 153/303/13 160/311/13 159/312/13
f 156/313/14 155/314/14 158/315/14 157/316/14
f 155/314/15 154/304/15 159/312/15 158/315/15
f 153/303/16 156/317/16 157/318/16 160/311/16
