# Blender v2.79 (sub 0) OBJ File: ''
# www.blender.org
mtllib modubar_multideck_open_straight_standard.mtl
o bodyModel
v 0.500000 2.000000 -0.500000
v -0.500000 2.000000 -0.500000
v -0.500000 2.000000 0.500000
v 0.500000 2.000000 0.500000
v 0.500000 1.812500 0.500000
v -0.500000 1.812500 0.500000
v -0.500000 1.812500 -0.500000
v 0.500000 1.812500 -0.500000
v 0.500000 1.750000 -0.500000
v 0.437500 1.750000 -0.500000
v 0.437500 1.750000 -0.250000
v 0.500000 1.750000 -0.250000
v 0.500000 0.312500 -0.250000
v 0.437500 0.312500 -0.250000
v 0.437500 0.312500 -0.500000
v 0.500000 0.312500 -0.500000
v 0.500000 0.125000 -0.500000
v -0.500000 0.125000 -0.500000
v -0.500000 0.125000 0.500000
v 0.500000 0.125000 0.500000
v 0.500000 0.000000 0.500000
v -0.500000 0.000000 0.500000
v -0.500000 -0.000000 -0.500000
v 0.500000 -0.000000 -0.500000
v 0.437500 1.812500 -0.500000
v -0.437500 1.812500 -0.500000
v -0.437500 1.812500 -0.437500
v 0.437500 1.812500 -0.437500
v 0.437500 0.125000 -0.437500
v -0.437500 0.125000 -0.437500
v -0.437500 0.125000 -0.500000
v 0.437500 0.125000 -0.500000
v 0.500000 1.812500 0.437500
v 0.437500 1.812500 0.437500
v 0.437500 1.812500 0.500000
v 0.500000 1.812500 0.500000
v 0.500000 0.125000 0.500000
v 0.437500 0.125000 0.500000
v 0.437500 0.125000 0.437500
v 0.500000 0.125000 0.437500
v 0.500000 1.812500 -0.500000
v 0.437500 1.812500 -0.500000
v 0.437500 1.812500 0.437500
v 0.500000 1.812500 0.437500
v 0.500000 1.750000 0.437500
v 0.437500 1.750000 0.437500
v 0.437500 1.750000 -0.500000
v 0.500000 1.750000 -0.500000
v 0.500000 0.312500 -0.500000
v 0.437500 0.312500 -0.500000
v 0.437500 0.312500 0.437500
v 0.500000 0.312500 0.437500
v 0.500000 0.125000 0.437500
v 0.437500 0.125000 0.437500
v 0.437500 0.125000 -0.500000
v 0.500000 0.125000 -0.500000
v -0.437500 0.312500 -0.500000
v -0.500000 0.312500 -0.500000
v -0.500000 0.312500 0.437500
v -0.437500 0.312500 0.437500
v -0.437500 0.125000 0.437500
v -0.500000 0.125000 0.437500
v -0.500000 0.125000 -0.500000
v -0.437500 0.125000 -0.500000
v -0.437500 1.750000 -0.500000
v -0.500000 1.750000 -0.500000
v -0.500000 1.750000 -0.250000
v -0.437500 1.750000 -0.250000
v -0.437500 0.312500 -0.250000
v -0.500000 0.312500 -0.250000
v -0.500000 0.312500 -0.500000
v -0.437500 0.312500 -0.500000
v -0.437500 1.812500 0.437500
v -0.500000 1.812500 0.437500
v -0.500000 1.812500 0.500000
v -0.437500 1.812500 0.500000
v -0.437500 0.125000 0.500000
v -0.500000 0.125000 0.500000
v -0.500000 0.125000 0.437500
v -0.437500 0.125000 0.437500
v -0.437500 1.812500 -0.500000
v -0.500000 1.812500 -0.500000
v -0.500000 1.812500 0.437500
v -0.437500 1.812500 0.437500
v -0.437500 1.750000 0.437500
v -0.500000 1.750000 0.437500
v -0.500000 1.750000 -0.500000
v -0.437500 1.750000 -0.500000
vt 1.066406 0.867188
vt 1.128906 0.867188
vt 1.128906 0.992188
vt 1.066406 0.992188
vt 1.128906 0.867188
vt 1.191406 0.867188
vt 1.191406 0.992188
vt 1.128906 0.992188
vt 1.066406 0.843750
vt 1.128906 0.843750
vt 1.253906 0.867188
vt 1.191406 0.867188
vt 1.191406 0.843750
vt 1.253906 0.843750
vt 1.003906 0.867188
vt 1.003906 0.843750
vt 1.300781 0.960938
vt 1.304688 0.960938
vt 1.304688 0.992188
vt 1.300781 0.992188
vt 1.304688 0.960938
vt 1.308594 0.960938
vt 1.308594 0.992188
vt 1.304688 0.992188
vt 1.300781 0.781250
vt 1.304688 0.781250
vt 1.324219 0.960938
vt 1.320312 0.960938
vt 1.320312 0.781250
vt 1.324219 0.781250
vt 1.285156 0.960938
vt 1.285156 0.781250
vt 1.410156 0.867188
vt 1.472656 0.867188
vt 1.472656 0.992188
vt 1.410156 0.992188
vt 1.472656 0.867188
vt 1.535156 0.867188
vt 1.535156 0.992188
vt 1.472656 0.992188
vt 1.410156 0.851562
vt 1.472656 0.851562
vt 1.597656 0.867188
vt 1.535156 0.867188
vt 1.535156 0.851562
vt 1.597656 0.851562
vt 1.347656 0.867188
vt 1.347656 0.851562
vt 1.632812 0.984375
vt 1.687500 0.984375
vt 1.687500 0.992188
vt 1.632812 0.992188
vt 1.687500 0.984375
vt 1.742188 0.984375
vt 1.742188 0.992188
vt 1.687500 0.992188
vt 1.632812 0.773438
vt 1.687500 0.773438
vt 1.746094 0.984375
vt 1.691406 0.984375
vt 1.691406 0.773438
vt 1.746094 0.773438
vt 1.628906 0.984375
vt 1.628906 0.773438
vt 1.757812 0.984375
vt 1.761719 0.984375
vt 1.761719 0.992188
vt 1.757812 0.992188
vt 1.761719 0.984375
vt 1.765625 0.984375
vt 1.765625 0.992188
vt 1.761719 0.992188
vt 1.757812 0.773438
vt 1.761719 0.773438
vt 1.769531 0.984375
vt 1.765625 0.984375
vt 1.765625 0.773438
vt 1.769531 0.773438
vt 1.753906 0.984375
vt 1.753906 0.773438
vt 1.843750 0.875000
vt 1.847656 0.875000
vt 1.847656 0.992188
vt 1.843750 0.992188
vt 1.847656 0.875000
vt 1.851562 0.875000
vt 1.851562 0.992188
vt 1.847656 0.992188
vt 1.843750 0.867188
vt 1.847656 0.867188
vt 1.910156 0.875000
vt 1.906250 0.875000
vt 1.906250 0.867188
vt 1.910156 0.867188
vt 1.785156 0.875000
vt 1.785156 0.867188
vt 1.062500 0.687500
vt 1.066406 0.687500
vt 1.066406 0.804688
vt 1.062500 0.804688
vt 1.066406 0.687500
vt 1.070312 0.687500
vt 1.070312 0.804688
vt 1.066406 0.804688
vt 1.062500 0.664062
vt 1.066406 0.664062
vt 1.128906 0.687500
vt 1.125000 0.687500
vt 1.125000 0.664062
vt 1.128906 0.664062
vt 1.003906 0.687500
vt 1.003906 0.664062
vt 1.218750 0.687500
vt 1.222656 0.687500
vt 1.222656 0.804688
vt 1.218750 0.804688
vt 1.222656 0.687500
vt 1.226562 0.687500
vt 1.226562 0.804688
vt 1.222656 0.804688
vt 1.218750 0.664062
vt 1.222656 0.664062
vt 1.285156 0.687500
vt 1.281250 0.687500
vt 1.281250 0.664062
vt 1.285156 0.664062
vt 1.160156 0.687500
vt 1.160156 0.664062
vt 1.957031 0.960938
vt 1.960938 0.960938
vt 1.960938 0.992188
vt 1.957031 0.992188
vt 1.960938 0.960938
vt 1.964844 0.960938
vt 1.964844 0.992188
vt 1.960938 0.992188
vt 1.957031 0.781250
vt 1.960938 0.781250
vt 1.980469 0.960938
vt 1.976562 0.960938
vt 1.976562 0.781250
vt 1.980469 0.781250
vt 1.941406 0.960938
vt 1.941406 0.781250
vt 1.914062 0.859375
vt 1.917969 0.859375
vt 1.917969 0.867188
vt 1.914062 0.867188
vt 1.917969 0.859375
vt 1.921875 0.859375
vt 1.921875 0.867188
vt 1.917969 0.867188
vt 1.914062 0.648438
vt 1.917969 0.648438
vt 1.925781 0.859375
vt 1.921875 0.859375
vt 1.921875 0.648438
vt 1.925781 0.648438
vt 1.910156 0.859375
vt 1.910156 0.648438
vt 1.375000 0.687500
vt 1.378906 0.687500
vt 1.378906 0.804688
vt 1.375000 0.804688
vt 1.378906 0.687500
vt 1.382812 0.687500
vt 1.382812 0.804688
vt 1.378906 0.804688
vt 1.375000 0.679688
vt 1.378906 0.679688
vt 1.441406 0.687500
vt 1.437500 0.687500
vt 1.437500 0.679688
vt 1.441406 0.679688
vt 1.316406 0.687500
vt 1.316406 0.679688
vn -0.0000 1.0000 0.0000
vn 0.0000 -1.0000 0.0000
vn -0.0000 -0.0000 -1.0000
vn 0.0000 0.0000 1.0000
vn -1.0000 0.0000 0.0000
vn 1.0000 0.0000 -0.0000
usemtl ModelMaterial
s off
f 1/1/1 2/2/1 3/3/1 4/4/1
f 5/5/2 6/6/2 7/7/2 8/8/2
f 2/2/3 1/1/3 8/9/3 7/10/3
f 4/11/4 3/12/4 6/13/4 5/14/4
f 3/12/5 2/2/5 7/10/5 6/13/5
f 1/1/6 4/15/6 5/16/6 8/9/6
f 9/17/1 10/18/1 11/19/1 12/20/1
f 13/21/2 14/22/2 15/23/2 16/24/2
f 10/18/3 9/17/3 16/25/3 15/26/3
f 12/27/4 11/28/4 14/29/4 13/30/4
f 11/28/5 10/18/5 15/26/5 14/29/5
f 9/17/6 12/31/6 13/32/6 16/25/6
f 17/33/1 18/34/1 19/35/1 20/36/1
f 21/37/2 22/38/2 23/39/2 24/40/2
f 18/34/3 17/33/3 24/41/3 23/42/3
f 20/43/4 19/44/4 22/45/4 21/46/4
f 19/44/5 18/34/5 23/42/5 22/45/5
f 17/33/6 20/47/6 21/48/6 24/41/6
f 25/49/1 26/50/1 27/51/1 28/52/1
f 29/53/2 30/54/2 31/55/2 32/56/2
f 26/50/3 25/49/3 32/57/3 31/58/3
f 28/59/4 27/60/4 30/61/4 29/62/4
f 27/60/5 26/50/5 31/58/5 30/61/5
f 25/49/6 28/63/6 29/64/6 32/57/6
f 33/65/1 34/66/1 35/67/1 36/68/1
f 37/69/2 38/70/2 39/71/2 40/72/2
f 34/66/3 33/65/3 40/73/3 39/74/3
f 36/75/4 35/76/4 38/77/4 37/78/4
f 35/76/5 34/66/5 39/74/5 38/77/5
f 33/65/6 36/79/6 37/80/6 40/73/6
f 41/81/1 42/82/1 43/83/1 44/84/1
f 45/85/2 46/86/2 47/87/2 48/88/2
f 42/82/3 41/81/3 48/89/3 47/90/3
f 44/91/4 43/92/4 46/93/4 45/94/4
f 43/92/5 42/82/5 47/90/5 46/93/5
f 41/81/6 44/95/6 45/96/6 48/89/6
f 49/97/1 50/98/1 51/99/1 52/100/1
f 53/101/2 54/102/2 55/103/2 56/104/2
f 50/98/3 49/97/3 56/105/3 55/106/3
f 52/107/4 51/108/4 54/109/4 53/110/4
f 51/108/5 50/98/5 55/106/5 54/109/5
f 49/97/6 52/111/6 53/112/6 56/105/6
f 57/113/1 58/114/1 59/115/1 60/116/1
f 61/117/2 62/118/2 63/119/2 64/120/2
f 58/114/3 57/113/3 64/121/3 63/122/3
f 60/123/4 59/124/4 62/125/4 61/126/4
f 59/124/5 58/114/5 63/122/5 62/125/5
f 57/113/6 60/127/6 61/128/6 64/121/6
f 65/129/1 66/130/1 67/131/1 68/132/1
f 69/133/2 70/134/2 71/135/2 72/136/2
f 66/130/3 65/129/3 72/137/3 71/138/3
f 68/139/4 67/140/4 70/141/4 69/142/4
f 67/140/5 66/130/5 71/138/5 70/141/5
f 65/129/6 68/143/6 69/144/6 72/137/6
f 73/145/1 74/146/1 75/147/1 76/148/1
f 77/149/2 78/150/2 79/151/2 80/152/2
f 74/146/3 73/145/3 80/153/3 79/154/3
f 76/155/4 75/156/4 78/157/4 77/158/4
f 75/156/5 74/146/5 79/154/5 78/157/5
f 73/145/6 76/159/6 77/160/6 80/153/6
f 81/161/1 82/162/1 83/163/1 84/164/1
f 85/165/2 86/166/2 87/167/2 88/168/2
f 82/162/3 81/161/3 88/169/3 87/170/3
f 84/171/4 83/172/4 86/173/4 85/174/4
f 83/172/5 82/162/5 87/170/5 86/173/5
f 81/161/6 84/175/6 85/176/6 88/169/6
o bodyGlass_translucent
v 0.496875 1.750000 -0.250000
v 0.496875 1.750000 -0.250000
v 0.496875 1.750000 0.437500
v 0.496875 1.750000 0.437500
v 0.496875 0.312500 0.437500
v 0.496875 0.312500 0.437500
v 0.496875 0.312500 -0.250000
v 0.496875 0.312500 -0.250000
v -0.496875 1.750000 -0.250000
v -0.496875 1.750000 -0.250000
v -0.496875 1.750000 0.437500
v -0.496875 1.750000 0.437500
v -0.496875 0.312500 0.437500
v -0.496875 0.312500 0.437500
v -0.496875 0.312500 -0.250000
v -0.496875 0.312500 -0.250000
v 0.437500 0.312500 0.496875
v -0.437500 0.312500 0.496875
v -0.437500 0.312500 0.496875
v 0.437500 0.312500 0.496875
v 0.437500 0.125000 0.496875
v -0.437500 0.125000 0.496875
v -0.437500 0.125000 0.496875
v 0.437500 0.125000 0.496875
vt 1.140625 0.656250
vt 1.140625 0.656250
vt 1.140625 0.742188
vt 1.140625 0.742188
vt 1.140625 0.656250
vt 1.140625 0.656250
vt 1.140625 0.742188
vt 1.140625 0.742188
vt 1.140625 0.476562
vt 1.140625 0.476562
vt 1.183594 0.656250
vt 1.183594 0.656250
vt 1.183594 0.476562
vt 1.183594 0.476562
vt 1.097656 0.656250
vt 1.097656 0.476562
vt 1.296875 0.656250
vt 1.296875 0.656250
vt 1.296875 0.742188
vt 1.296875 0.742188
vt 1.296875 0.656250
vt 1.296875 0.656250
vt 1.296875 0.742188
vt 1.296875 0.742188
vt 1.296875 0.476562
vt 1.296875 0.476562
vt 1.339844 0.656250
vt 1.339844 0.656250
vt 1.339844 0.476562
vt 1.339844 0.476562
vt 1.253906 0.656250
vt 1.253906 0.476562
vt 1.097656 0.804688
vt 1.152344 0.804688
vt 1.152344 0.804688
vt 1.097656 0.804688
vt 1.152344 0.804688
vt 1.207031 0.804688
vt 1.207031 0.804688
vt 1.152344 0.804688
vt 1.097656 0.781250
vt 1.152344 0.781250
vt 1.207031 0.804688
vt 1.152344 0.781250
vt 1.207031 0.781250
vt 1.097656 0.781250
vn 0.0000 0.0000 1.0000
vn -1.0000 0.0000 0.0000
vn 1.0000 0.0000 -0.0000
vn -0.0000 -0.0000 -1.0000
usemtl ModelMaterial.001
s off
f 89/177/7 90/178/7 91/179/7 92/180/7
f 93/181/7 94/182/7 95/183/7 96/184/7
f 90/178/7 89/177/7 96/185/7 95/186/7
f 92/187/7 91/188/7 94/189/7 93/190/7
f 91/188/8 90/178/8 95/186/8 94/189/8
f 89/177/9 92/191/9 93/192/9 96/185/9
f 97/193/7 98/194/7 99/195/7 100/196/7
f 101/197/7 102/198/7 103/199/7 104/200/7
f 98/194/7 97/193/7 104/201/7 103/202/7
f 100/203/7 99/204/7 102/205/7 101/206/7
f 99/204/8 98/194/8 103/202/8 102/205/8
f 97/193/9 100/207/9 101/208/9 104/201/9
f 105/209/7 106/210/7 107/211/7 108/212/7
f 109/213/7 110/214/7 111/215/7 112/216/7
f 106/210/10 105/209/10 112/217/10 111/218/10
f 108/219/7 107/211/7 110/220/7 109/221/7
f 107/211/7 106/210/7 111/218/7 110/220/7
f 105/209/7 108/212/7 109/222/7 112/217/7
o interiorTrays_translucent
v 0.437500 0.500000 -0.437500
v -0.437500 0.500000 -0.437500
v -0.437500 0.500000 -0.250000
v 0.437500 0.500000 -0.250000
v 0.437500 0.437500 -0.250000
v -0.437500 0.437500 -0.250000
v -0.437500 0.437500 -0.437500
v 0.437500 0.437500 -0.437500
v 0.437500 1.000000 -0.437500
v -0.437500 1.000000 -0.437500
v -0.437500 1.000000 -0.250000
v 0.437500 1.000000 -0.250000
v 0.437500 0.937500 -0.250000
v -0.437500 0.937500 -0.250000
v -0.437500 0.937500 -0.437500
v 0.437500 0.937500 -0.437500
v 0.500000 1.500000 -0.250000
v -0.500000 1.500000 -0.250000
v -0.500000 1.500000 0.312500
v 0.500000 1.500000 0.312500
v 0.500000 1.484375 0.312500
v -0.500000 1.484375 0.312500
v -0.500000 1.437500 -0.250000
v 0.500000 1.437500 -0.250000
v 0.437500 1.500000 -0.437500
v -0.437500 1.500000 -0.437500
v -0.437500 1.500000 -0.250000
v 0.437500 1.500000 -0.250000
v 0.437500 1.437500 -0.250000
v -0.437500 1.437500 -0.250000
v -0.437500 1.437500 -0.437500
v 0.437500 1.437500 -0.437500
v 0.500000 1.000000 -0.250000
v -0.500000 1.000000 -0.250000
v -0.500000 1.000000 0.312500
v 0.500000 1.000000 0.312500
v 0.500000 0.984375 0.312500
v -0.500000 0.984375 0.312500
v -0.500000 0.937500 -0.250000
v 0.500000 0.937500 -0.250000
v 0.500000 0.500000 -0.250000
v -0.500000 0.500000 -0.250000
v -0.500000 0.500000 0.312500
v 0.500000 0.500000 0.312500
v 0.500000 0.484375 0.312500
v -0.500000 0.484375 0.312500
v -0.500000 0.437500 -0.250000
v 0.500000 0.437500 -0.250000
vt 1.421875 0.781250
vt 1.476562 0.781250
vt 1.476562 0.804688
vt 1.421875 0.804688
vt 1.476562 0.781250
vt 1.531250 0.781250
vt 1.531250 0.804688
vt 1.476562 0.804688
vt 1.421875 0.773438
vt 1.476562 0.773438
vt 1.542969 0.781250
vt 1.488281 0.781250
vt 1.488281 0.773438
vt 1.542969 0.773438
vt 1.410156 0.781250
vt 1.410156 0.773438
vt 1.421875 0.718750
vt 1.476562 0.718750
vt 1.476562 0.742188
vt 1.421875 0.742188
vt 1.476562 0.718750
vt 1.531250 0.718750
vt 1.531250 0.742188
vt 1.476562 0.742188
vt 1.421875 0.710938
vt 1.476562 0.710938
vt 1.542969 0.718750
vt 1.488281 0.718750
vt 1.488281 0.710938
vt 1.542969 0.710938
vt 1.410156 0.718750
vt 1.410156 0.710938
vt 1.570312 0.671875
vt 1.632812 0.671875
vt 1.632812 0.742188
vt 1.570312 0.742188
vt 1.632812 0.671875
vt 1.695312 0.671875
vt 1.695312 0.742188
vt 1.632812 0.742188
vt 1.570312 0.664062
vt 1.632812 0.664062
vt 1.730469 0.671875
vt 1.667969 0.671875
vt 1.667969 0.664062
vt 1.730469 0.664062
vt 1.535156 0.671875
vt 1.535156 0.664062
vt 1.734375 0.718750
vt 1.789062 0.718750
vt 1.789062 0.742188
vt 1.734375 0.742188
vt 1.789062 0.718750
vt 1.843750 0.718750
vt 1.843750 0.742188
vt 1.789062 0.742188
vt 1.734375 0.710938
vt 1.789062 0.710938
vt 1.855469 0.718750
vt 1.800781 0.718750
vt 1.800781 0.710938
vt 1.855469 0.710938
vt 1.722656 0.718750
vt 1.722656 0.710938
vt 1.757812 0.609375
vt 1.820312 0.609375
vt 1.820312 0.679688
vt 1.757812 0.679688
vt 1.820312 0.609375
vt 1.882812 0.609375
vt 1.882812 0.679688
vt 1.820312 0.679688
vt 1.757812 0.601562
vt 1.820312 0.601562
vt 1.917969 0.609375
vt 1.855469 0.609375
vt 1.855469 0.601562
vt 1.917969 0.601562
vt 1.722656 0.609375
vt 1.722656 0.601562
vt 1.382812 0.546875
vt 1.445312 0.546875
vt 1.445312 0.617188
vt 1.382812 0.617188
vt 1.445312 0.546875
vt 1.507812 0.546875
vt 1.507812 0.617188
vt 1.445312 0.617188
vt 1.382812 0.539062
vt 1.445312 0.539062
vt 1.542969 0.546875
vt 1.480469 0.546875
vt 1.480469 0.539062
vt 1.542969 0.539062
vt 1.347656 0.546875
vt 1.347656 0.539062
vn -0.0000 1.0000 -0.0000
vn 0.0000 -1.0000 0.0000
vn -0.0000 -0.0000 -1.0000
vn 0.0000 0.0000 1.0000
vn -1.0000 0.0000 0.0000
vn 1.0000 0.0000 -0.0000
vn 0.0000 -0.9965 0.0830
usemtl ModelMaterial.002
s off
f 113/223/11 114/224/11 115/225/11 116/226/11
f 117/227/12 118/228/12 119/229/12 120/230/12
f 114/224/13 113/223/13 120/231/13 119/232/13
f 116/233/14 115/234/14 118/235/14 117/236/14
f 115/234/15 114/224/15 119/232/15 118/235/15
f 113/223/16 116/237/16 117/238/16 120/231/16
f 121/239/11 122/240/11 123/241/11 124/242/11
f 125/243/12 126/244/12 127/245/12 128/246/12
f 122/240/13 121/239/13 128/247/13 127/248/13
f 124/249/14 123/250/14 126/251/14 125/252/14
f 123/250/15 122/240/15 127/248/15 126/251/15
f 121/239/16 124/253/16 125/254/16 128/247/16
f 129/255/11 130/256/11 131/257/11 132/258/11
f 133/259/17 134/260/17 135/261/17 136/262/17
f 130/256/13 129/255/13 136/263/13 135/264/13
f 132/265/14 131/266/14 134/267/14 133/268/14
f 131/266/15 130/256/15 135/264/15 134/267/15
f 129/255/16 132/269/16 133/270/16 136/263/16
f 137/271/11 138/272/11 139/273/11 140/274/11
f 141/275/12 142/276/12 143/277/12 144/278/12
f 138/272/13 137/271/13 144/279/13 143/280/13
f 140/281/14 139/282/14 142/283/14 141/284/14
f 139/282/15 138/272/15 143/280/15 142/283/15
f 137/271/16 140/285/16 141/286/16 144/279/16
f 145/287/11 146/288/11 147/289/11 148/290/11
f 149/291/17 150/292/17 151/293/17 152/294/17
f 146/288/13 145/287/13 152/295/13 151/296/13
f 148/297/14 147/298/14 150/299/14 149/300/14
f 147/298/15 146/288/15 151/296/15 150/299/15
f 145/287/16 148/301/16 149/302/16 152/295/16
f 153/303/11 154/304/11 155/305/11 156/306/11
f 157/307/17 158/308/17 159/309/17 160/310/17
f 154/304/13 153/303/13 160/311/13 159/312/13
f 156/313/14 155/314/14 158/315/14 157/316/14
f 155/314/15 154/304/15 159/312/15 158/315/15
f 153/303/16 156/317/16 157/318/16 160/311/16
