# Blender v2.79 (sub 0) OBJ File: ''
# www.blender.org
mtllib trin_modubar_display_island_compact.mtl
o counterMain
v -0.500000 0.500000 1.000000
v 0.500000 0.500000 1.000000
v 0.500000 0.500000 -0.500000
v -0.500000 0.500000 -0.500000
v -0.500000 0.000000 -0.500000
v 0.500000 0.000000 -0.500000
v 0.500000 -0.000000 1.000000
v -0.500000 -0.000000 1.000000
v -0.500000 0.812500 -0.500000
v 0.500000 0.812500 -0.500000
v 0.500000 0.812500 -0.556250
v -0.500000 0.812500 -0.556250
v -0.500000 0.312500 -0.556250
v 0.500000 0.312500 -0.556250
v 0.500000 0.312500 -0.500000
v -0.500000 0.312500 -0.500000
v -0.500000 0.812500 1.056250
v 0.500000 0.812500 1.056250
v 0.500000 0.812500 1.000000
v -0.500000 0.812500 1.000000
v -0.500000 0.312500 1.000000
v 0.500000 0.312500 1.000000
v 0.500000 0.312500 1.056250
v -0.500000 0.312500 1.056250
v 0.500000 0.812500 1.056250
v 0.556250 0.812500 1.056250
v 0.556250 0.812500 -0.556250
v 0.500000 0.812500 -0.556250
v 0.500000 0.312500 -0.556250
v 0.556250 0.312500 -0.556250
v 0.556250 0.312500 1.056250
v 0.500000 0.312500 1.056250
v -0.556250 0.812500 1.056250
v -0.500000 0.812500 1.056250
v -0.500000 0.812500 -0.556250
v -0.556250 0.812500 -0.556250
v -0.556250 0.312500 -0.556250
v -0.500000 0.312500 -0.556250
v -0.500000 0.312500 1.056250
v -0.556250 0.312500 1.056250
v -0.437500 0.875000 -0.437500
v 0.437500 0.875000 -0.437500
v 0.437500 0.875000 -0.500000
v -0.437500 0.875000 -0.500000
v -0.437500 0.500000 -0.500000
v 0.437500 0.500000 -0.500000
v 0.437500 0.500000 -0.437500
v -0.437500 0.500000 -0.437500
v -0.500000 1.000000 1.000000
v -0.437500 1.000000 1.000000
v -0.437500 1.000000 -0.500000
v -0.500000 1.000000 -0.500000
v -0.500000 0.500000 -0.500000
v -0.437500 0.500000 -0.500000
v -0.437500 0.500000 1.000000
v -0.500000 0.500000 1.000000
v -0.437500 0.875000 1.000000
v 0.437500 0.875000 1.000000
v 0.437500 0.875000 0.937500
v -0.437500 0.875000 0.937500
v -0.437500 0.500000 0.937500
v 0.437500 0.500000 0.937500
v 0.437500 0.500000 1.000000
v -0.437500 0.500000 1.000000
v 0.437500 1.000000 1.000000
v 0.500000 1.000000 1.000000
v 0.500000 1.000000 -0.500000
v 0.437500 1.000000 -0.500000
v 0.437500 0.500000 -0.500000
v 0.500000 0.500000 -0.500000
v 0.500000 0.500000 1.000000
v 0.437500 0.500000 1.000000
v -0.437500 0.987500 0.281250
v 0.437500 0.987500 0.281250
v 0.437500 0.987500 0.218750
v -0.437500 0.987500 0.218750
v -0.437500 0.937500 0.218750
v 0.437500 0.937500 0.218750
v 0.437500 0.937500 0.281250
v -0.437500 0.937500 0.281250
vt 1.097656 0.804688
vt 1.160156 0.804688
vt 1.160156 0.992188
vt 1.097656 0.992188
vt 1.160156 0.804688
vt 1.222656 0.804688
vt 1.222656 0.992188
vt 1.160156 0.992188
vt 1.097656 0.742188
vt 1.160156 0.742188
vt 1.316406 0.804688
vt 1.253906 0.804688
vt 1.253906 0.742188
vt 1.316406 0.742188
vt 1.003906 0.804688
vt 1.003906 0.742188
vt 1.257812 0.984375
vt 1.320312 0.984375
vt 1.320312 0.992188
vt 1.257812 0.992188
vt 1.320312 0.984375
vt 1.382812 0.984375
vt 1.382812 0.992188
vt 1.320312 0.992188
vt 1.257812 0.921875
vt 1.320312 0.921875
vt 1.386719 0.984375
vt 1.324219 0.984375
vt 1.324219 0.921875
vt 1.386719 0.921875
vt 1.253906 0.984375
vt 1.253906 0.921875
vt 1.414062 0.984375
vt 1.476562 0.984375
vt 1.476562 0.992188
vt 1.414062 0.992188
vt 1.476562 0.984375
vt 1.539062 0.984375
vt 1.539062 0.992188
vt 1.476562 0.992188
vt 1.414062 0.921875
vt 1.476562 0.921875
vt 1.542969 0.984375
vt 1.480469 0.984375
vt 1.480469 0.921875
vt 1.542969 0.921875
vt 1.410156 0.984375
vt 1.410156 0.921875
vt 1.574219 0.789062
vt 1.578125 0.789062
vt 1.578125 0.992188
vt 1.574219 0.992188
vt 1.578125 0.789062
vt 1.582031 0.789062
vt 1.582031 0.992188
vt 1.578125 0.992188
vt 1.574219 0.726562
vt 1.578125 0.726562
vt 1.683594 0.789062
vt 1.679688 0.789062
vt 1.679688 0.726562
vt 1.683594 0.726562
vt 1.472656 0.789062
vt 1.472656 0.726562
vt 1.792969 0.789062
vt 1.796875 0.789062
vt 1.796875 0.992188
vt 1.792969 0.992188
vt 1.796875 0.789062
vt 1.800781 0.789062
vt 1.800781 0.992188
vt 1.796875 0.992188
vt 1.792969 0.726562
vt 1.796875 0.726562
vt 1.902344 0.789062
vt 1.898438 0.789062
vt 1.898438 0.726562
vt 1.902344 0.726562
vt 1.691406 0.789062
vt 1.691406 0.726562
vt 1.601562 0.984375
vt 1.656250 0.984375
vt 1.656250 0.992188
vt 1.601562 0.992188
vt 1.656250 0.984375
vt 1.710938 0.984375
vt 1.710938 0.992188
vt 1.656250 0.992188
vt 1.601562 0.937500
vt 1.656250 0.937500
vt 1.714844 0.984375
vt 1.660156 0.984375
vt 1.660156 0.937500
vt 1.714844 0.937500
vt 1.597656 0.984375
vt 1.597656 0.937500
vt 1.347656 0.679688
vt 1.351562 0.679688
vt 1.351562 0.867188
vt 1.347656 0.867188
vt 1.351562 0.679688
vt 1.355469 0.679688
vt 1.355469 0.867188
vt 1.351562 0.867188
vt 1.347656 0.617188
vt 1.351562 0.617188
vt 1.449219 0.679688
vt 1.445312 0.679688
vt 1.445312 0.617188
vt 1.449219 0.617188
vt 1.253906 0.679688
vt 1.253906 0.617188
vt 1.820312 0.984375
vt 1.875000 0.984375
vt 1.875000 0.992188
vt 1.820312 0.992188
vt 1.875000 0.984375
vt 1.929688 0.984375
vt 1.929688 0.992188
vt 1.875000 0.992188
vt 1.820312 0.937500
vt 1.875000 0.937500
vt 1.933594 0.984375
vt 1.878906 0.984375
vt 1.878906 0.937500
vt 1.933594 0.937500
vt 1.816406 0.984375
vt 1.816406 0.937500
vt 1.097656 0.492188
vt 1.101562 0.492188
vt 1.101562 0.679688
vt 1.097656 0.679688
vt 1.101562 0.492188
vt 1.105469 0.492188
vt 1.105469 0.679688
vt 1.101562 0.679688
vt 1.097656 0.429688
vt 1.101562 0.429688
vt 1.199219 0.492188
vt 1.195312 0.492188
vt 1.195312 0.429688
vt 1.199219 0.429688
vt 1.003906 0.492188
vt 1.003906 0.429688
vt 1.382812 0.859375
vt 1.437500 0.859375
vt 1.437500 0.867188
vt 1.382812 0.867188
vt 1.437500 0.859375
vt 1.492188 0.859375
vt 1.492188 0.867188
vt 1.437500 0.867188
vt 1.382812 0.851562
vt 1.437500 0.851562
vt 1.496094 0.859375
vt 1.441406 0.859375
vt 1.441406 0.851562
vt 1.496094 0.851562
vt 1.378906 0.859375
vt 1.378906 0.851562
vn 0.0000 1.0000 0.0000
vn 0.0000 -1.0000 -0.0000
vn 0.0000 -0.0000 1.0000
vn 0.0000 0.0000 -1.0000
vn 1.0000 0.0000 0.0000
vn -1.0000 0.0000 0.0000
usemtl ModelMaterial
s off
f 1/1/1 2/2/1 3/3/1 4/4/1
f 5/5/2 6/6/2 7/7/2 8/8/2
f 2/2/3 1/1/3 8/9/3 7/10/3
f 4/11/4 3/12/4 6/13/4 5/14/4
f 3/12/5 2/2/5 7/10/5 6/13/5
f 1/1/6 4/15/6 5/16/6 8/9/6
f 9/17/1 10/18/1 11/19/1 12/20/1
f 13/21/2 14/22/2 15/23/2 16/24/2
f 10/18/3 9/17/3 16/25/3 15/26/3
f 12/27/4 11/28/4 14/29/4 13/30/4
f 11/28/5 10/18/5 15/26/5 14/29/5
f 9/17/6 12/31/6 13/32/6 16/25/6
f 17/33/1 18/34/1 19/35/1 20/36/1
f 21/37/2 22/38/2 23/39/2 24/40/2
f 18/34/3 17/33/3 24/41/3 23/42/3
f 20/43/4 19/44/4 22/45/4 21/46/4
f 19/44/5 18/34/5 23/42/5 22/45/5
f 17/33/6 20/47/6 21/48/6 24/41/6
f 25/49/1 26/50/1 27/51/1 28/52/1
f 29/53/2 30/54/2 31/55/2 32/56/2
f 26/50/3 25/49/3 32/57/3 31/58/3
f 28/59/4 27/60/4 30/61/4 29/62/4
f 27/60/5 26/50/5 31/58/5 30/61/5
f 25/49/6 28/63/6 29/64/6 32/57/6
f 33/65/1 34/66/1 35/67/1 36/68/1
f 37/69/2 38/70/2 39/71/2 40/72/2
f 34/66/3 33/65/3 40/73/3 39/74/3
f 36/75/4 35/76/4 38/77/4 37/78/4
f 35/76/5 34/66/5 39/74/5 38/77/5
f 33/65/6 36/79/6 37/80/6 40/73/6
f 41/81/1 42/82/1 43/83/1 44/84/1
f 45/85/2 46/86/2 47/87/2 48/88/2
f 42/82/3 41/81/3 48/89/3 47/90/3
f 44/91/4 43/92/4 46/93/4 45/94/4
f 43/92/5 42/82/5 47/90/5 46/93/5
f 41/81/6 44/95/6 45/96/6 48/89/6
f 49/97/1 50/98/1 51/99/1 52/100/1
f 53/101/2 54/102/2 55/103/2 56/104/2
f 50/98/3 49/97/3 56/105/3 55/106/3
f 52/107/4 51/108/4 54/109/4 53/110/4
f 51/108/5 50/98/5 55/106/5 54/109/5
f 49/97/6 52/111/6 53/112/6 56/105/6
f 57/113/1 58/114/1 59/115/1 60/116/1
f 61/117/2 62/118/2 63/119/2 64/120/2
f 58/114/3 57/113/3 64/121/3 63/122/3
f 60/123/4 59/124/4 62/125/4 61/126/4
f 59/124/5 58/114/5 63/122/5 62/125/5
f 57/113/6 60/127/6 61/128/6 64/121/6
f 65/129/1 66/130/1 67/131/1 68/132/1
f 69/133/2 70/134/2 71/135/2 72/136/2
f 66/130/3 65/129/3 72/137/3 71/138/3
f 68/139/4 67/140/4 70/141/4 69/142/4
f 67/140/5 66/130/5 71/138/5 70/141/5
f 65/129/6 68/143/6 69/144/6 72/137/6
f 73/145/1 74/146/1 75/147/1 76/148/1
f 77/149/2 78/150/2 79/151/2 80/152/2
f 74/146/3 73/145/3 80/153/3 79/154/3
f 76/155/4 75/156/4 78/157/4 77/158/4
f 75/156/5 74/146/5 79/154/5 78/157/5
f 73/145/6 76/159/6 77/160/6 80/153/6
o counterGlass_translucent
v -0.434375 0.993750 0.996875
v 0.434375 0.993750 0.996875
v 0.437500 0.993750 0.996875
v -0.437500 0.993750 0.996875
v -0.437500 0.875000 0.996875
v 0.437500 0.875000 0.996875
v 0.434375 0.875000 0.996875
v -0.434375 0.875000 0.996875
v -0.434375 0.987500 -0.496875
v 0.434375 0.987500 -0.496875
v 0.437500 0.987500 -0.496875
v -0.437500 0.987500 -0.496875
v -0.437500 0.875000 -0.496875
v 0.437500 0.875000 -0.496875
v 0.434375 0.875000 -0.496875
v -0.434375 0.875000 -0.496875
v -0.434375 0.987500 0.218750
v 0.434375 0.987500 0.218750
v 0.437500 0.987500 -0.500000
v -0.437500 0.987500 -0.500000
v -0.437500 0.987500 -0.500000
v 0.437500 0.987500 -0.500000
v 0.434375 0.987500 0.218750
v -0.434375 0.987500 0.218750
vt 1.597656 0.929688
vt 1.652344 0.929688
vt 1.652344 0.929688
vt 1.597656 0.929688
vt 1.652344 0.929688
vt 1.707031 0.929688
vt 1.707031 0.929688
vt 1.652344 0.929688
vt 1.597656 0.914062
vt 1.652344 0.914062
vt 1.707031 0.929688
vt 1.652344 0.914062
vt 1.707031 0.914062
vt 1.597656 0.914062
vt 1.816406 0.929688
vt 1.871094 0.929688
vt 1.871094 0.929688
vt 1.816406 0.929688
vt 1.871094 0.929688
vt 1.925781 0.929688
vt 1.925781 0.929688
vt 1.871094 0.929688
vt 1.816406 0.914062
vt 1.871094 0.914062
vt 1.925781 0.929688
vt 1.871094 0.914062
vt 1.925781 0.914062
vt 1.816406 0.914062
vt 1.453125 0.593750
vt 1.507812 0.593750
vt 1.507812 0.679688
vt 1.453125 0.679688
vt 1.507812 0.593750
vt 1.562500 0.593750
vt 1.562500 0.679688
vt 1.507812 0.679688
vt 1.453125 0.593750
vt 1.507812 0.593750
vt 1.605469 0.593750
vt 1.550781 0.593750
vt 1.550781 0.593750
vt 1.605469 0.593750
vt 1.410156 0.593750
vt 1.410156 0.593750
vn 0.0000 0.0000 1.0000
vn 0.0000 0.0000 -1.0000
vn 0.0000 1.0000 0.0000
vn 0.0000 -1.0000 -0.0000
usemtl ModelMaterial.001
s off
f 81/161/7 82/162/7 83/163/7 84/164/7
f 85/165/7 86/166/7 87/167/7 88/168/7
f 82/162/7 81/161/7 88/169/7 87/170/7
f 84/171/8 83/163/8 86/172/8 85/173/8
f 83/163/7 82/162/7 87/170/7 86/172/7
f 81/161/7 84/164/7 85/174/7 88/169/7
f 89/175/8 90/176/8 91/177/8 92/178/8
f 93/179/8 94/180/8 95/181/8 96/182/8
f 90/176/7 89/175/7 96/183/7 95/184/7
f 92/185/8 91/177/8 94/186/8 93/187/8
f 91/177/7 90/176/7 95/184/7 94/186/7
f 89/175/7 92/178/7 93/188/7 96/183/7
f 97/189/9 98/190/9 99/191/9 100/192/9
f 101/193/10 102/194/10 103/195/10 104/196/10
f 98/190/7 97/189/7 104/197/7 103/198/7
f 100/199/7 99/200/7 102/201/7 101/202/7
f 99/200/7 98/190/7 103/198/7 102/201/7
f 97/189/7 100/203/7 101/204/7 104/197/7
o counterGlassDoor_translucent
v -0.437500 0.993750 1.000000
v 0.437500 0.993750 1.000000
v 0.434375 0.993750 0.281250
v -0.434375 0.993750 0.281250
v -0.434375 0.993750 0.281250
v 0.434375 0.993750 0.281250
v 0.437500 0.993750 1.000000
v -0.437500 0.993750 1.000000
v -0.187500 1.009375 0.937500
v 0.187500 1.009375 0.937500
v 0.187500 1.009375 0.875000
v -0.187500 1.009375 0.875000
v -0.187500 0.993750 0.875000
v 0.187500 0.993750 0.875000
v 0.187500 0.993750 0.937500
v -0.187500 0.993750 0.937500
vt 1.609375 0.593750
vt 1.664062 0.593750
vt 1.664062 0.679688
vt 1.609375 0.679688
vt 1.664062 0.593750
vt 1.718750 0.593750
vt 1.718750 0.679688
vt 1.664062 0.679688
vt 1.609375 0.593750
vt 1.664062 0.593750
vt 1.761719 0.593750
vt 1.707031 0.593750
vt 1.707031 0.593750
vt 1.761719 0.593750
vt 1.566406 0.593750
vt 1.566406 0.593750
vt 1.007812 0.984375
vt 1.031250 0.984375
vt 1.031250 0.992188
vt 1.007812 0.992188
vt 1.031250 0.984375
vt 1.054688 0.984375
vt 1.054688 0.992188
vt 1.031250 0.992188
vt 1.007812 0.976562
vt 1.031250 0.976562
vt 1.058594 0.984375
vt 1.035156 0.984375
vt 1.035156 0.976562
vt 1.058594 0.976562
vt 1.003906 0.984375
vt 1.003906 0.976562
vn 0.0000 1.0000 0.0000
vn 0.0000 -1.0000 -0.0000
vn 0.0000 0.0000 1.0000
vn 0.0000 0.0000 -1.0000
vn 1.0000 0.0000 0.0000
vn -1.0000 0.0000 0.0000
usemtl ModelMaterial.002
s off
f 105/205/11 106/206/11 107/207/11 108/208/11
f 109/209/12 110/210/12 111/211/12 112/212/12
f 106/206/13 105/205/13 112/213/13 111/214/13
f 108/215/13 107/216/13 110/217/13 109/218/13
f 107/216/13 106/206/13 111/214/13 110/217/13
f 105/205/13 108/219/13 109/220/13 112/213/13
f 113/221/11 114/222/11 115/223/11 116/224/11
f 117/225/12 118/226/12 119/227/12 120/228/12
f 114/222/13 113/221/13 120/229/13 119/230/13
f 116/231/14 115/232/14 118/233/14 117/234/14
f 115/232/15 114/222/15 119/230/15 118/233/15
f 113/221/16 116/235/16 117/236/16 120/229/16
