# Blender v2.79 (sub 0) OBJ File: ''
# www.blender.org
mtllib modubar_multideck_open_curved_triple.mtl
o bodyModel
v 1.500000 2.000000 -0.500001
v -1.500000 2.000000 -0.500000
v -1.500000 2.000000 -0.437500
v 1.500000 2.000000 -0.437501
v 1.500000 0.125000 -0.437500
v -1.500000 0.125000 -0.437500
v -1.500000 0.125000 -0.500000
v 1.500000 0.125000 -0.500000
v 1.500000 0.312500 -0.437500
v 1.437500 0.312500 -0.437500
v 1.437500 0.312500 0.500000
v 1.500000 0.312500 0.500000
v 1.500000 0.125000 0.500000
v 1.437500 0.125000 0.500000
v 1.437500 0.125000 -0.437500
v 1.500000 0.125000 -0.437500
v -1.437500 0.312500 -0.437500
v -1.500000 0.312500 -0.437500
v -1.500000 0.312500 0.500000
v -1.437500 0.312500 0.500000
v -1.437500 0.125000 0.500000
v -1.500000 0.125000 0.500000
v -1.500000 0.125000 -0.437500
v -1.437500 0.125000 -0.437500
v 1.500000 0.125000 -0.500000
v -1.500000 0.125000 -0.500000
v -1.500000 0.125000 0.500000
v 1.500000 0.125000 0.500000
v 1.500000 0.000000 0.500000
v -1.500000 0.000000 0.500000
v -1.500000 -0.000000 -0.500000
v 1.500000 -0.000000 -0.500000
vt 1.007812 0.984375
vt 1.195312 0.984375
vt 1.195312 0.992188
vt 1.007812 0.992188
vt 1.195312 0.984375
vt 1.382812 0.984375
vt 1.382812 0.992188
vt 1.195312 0.992188
vt 1.007812 0.750000
vt 1.195312 0.750000
vt 1.386719 0.984375
vt 1.199219 0.984375
vt 1.199219 0.750000
vt 1.386719 0.750000
vt 1.003906 0.984375
vt 1.003906 0.750000
vt 1.468750 0.875000
vt 1.472656 0.875000
vt 1.472656 0.992188
vt 1.468750 0.992188
vt 1.472656 0.875000
vt 1.476562 0.875000
vt 1.476562 0.992188
vt 1.472656 0.992188
vt 1.468750 0.851562
vt 1.472656 0.851562
vt 1.535156 0.875000
vt 1.531250 0.875000
vt 1.531250 0.851562
vt 1.535156 0.851562
vt 1.410156 0.875000
vt 1.410156 0.851562
vt 1.625000 0.875000
vt 1.628906 0.875000
vt 1.628906 0.992188
vt 1.625000 0.992188
vt 1.628906 0.875000
vt 1.632812 0.875000
vt 1.632812 0.992188
vt 1.628906 0.992188
vt 1.625000 0.851562
vt 1.628906 0.851562
vt 1.691406 0.875000
vt 1.687500 0.875000
vt 1.687500 0.851562
vt 1.691406 0.851562
vt 1.566406 0.875000
vt 1.566406 0.851562
vt 1.253906 0.367188
vt 1.441406 0.367188
vt 1.441406 0.492188
vt 1.253906 0.492188
vt 1.441406 0.367188
vt 1.628906 0.367188
vt 1.628906 0.492188
vt 1.441406 0.492188
vt 1.253906 0.351562
vt 1.441406 0.351562
vt 1.691406 0.367188
vt 1.503906 0.367188
vt 1.503906 0.351562
vt 1.691406 0.351562
vt 1.191406 0.367188
vt 1.191406 0.351562
vn 0.0000 1.0000 0.0000
vn 0.0000 -1.0000 0.0000
vn -0.0000 -0.0000 -1.0000
vn 0.0000 0.0000 1.0000
vn -1.0000 0.0000 0.0000
vn 1.0000 0.0000 0.0000
usemtl ModelMaterial
s off
f 1/1/1 2/2/1 3/3/1 4/4/1
f 5/5/2 6/6/2 7/7/2 8/8/2
f 2/2/3 1/1/3 8/9/3 7/10/3
f 4/11/4 3/12/4 6/13/4 5/14/4
f 3/12/5 2/2/5 7/10/5 6/13/5
f 1/1/6 4/15/6 5/16/6 8/9/6
f 9/17/1 10/18/1 11/19/1 12/20/1
f 13/21/2 14/22/2 15/23/2 16/24/2
f 10/18/3 9/17/3 16/25/3 15/26/3
f 12/27/4 11/28/4 14/29/4 13/30/4
f 11/28/5 10/18/5 15/26/5 14/29/5
f 9/17/6 12/31/6 13/32/6 16/25/6
f 17/33/1 18/34/1 19/35/1 20/36/1
f 21/37/2 22/38/2 23/39/2 24/40/2
f 18/34/3 17/33/3 24/41/3 23/42/3
f 20/43/4 19/44/4 22/45/4 21/46/4
f 19/44/5 18/34/5 23/42/5 22/45/5
f 17/33/6 20/47/6 21/48/6 24/41/6
f 25/49/1 26/50/1 27/51/1 28/52/1
f 29/53/2 30/54/2 31/55/2 32/56/2
f 26/50/3 25/49/3 32/57/3 31/58/3
f 28/59/4 27/60/4 30/61/4 29/62/4
f 27/60/5 26/50/5 31/58/5 30/61/5
f 25/49/6 28/63/6 29/64/6 32/57/6
o bodyGlass_translucent
v 1.496875 1.437500 -0.437500
v 1.496875 1.437500 -0.437500
v 1.496875 1.437500 0.437500
v 1.496875 1.437500 0.437500
v 1.496875 0.312500 0.500000
v 1.496875 0.312500 0.500000
v 1.496875 0.312500 -0.437500
v 1.496875 0.312500 -0.437500
v 1.496875 1.625000 -0.437500
v 1.496875 1.625000 -0.437500
v 1.496875 1.625000 0.375000
v 1.496875 1.625000 0.375000
v 1.496875 1.437500 0.437500
v 1.496875 1.437500 0.437500
v 1.496875 1.437500 -0.437500
v 1.496875 1.437500 -0.437500
v 1.496875 2.000000 -0.437501
v 1.496875 2.000000 -0.437501
v 1.496875 2.000000 -0.125001
v 1.496875 2.000000 -0.125001
v 1.496875 1.937500 0.062499
v 1.496875 1.937500 0.062499
v 1.496875 1.937500 -0.437501
v 1.496875 1.937500 -0.437501
v 1.496875 1.937500 -0.437501
v 1.496875 1.937500 -0.437501
v 1.496875 1.937500 0.062499
v 1.496875 1.937500 0.062499
v 1.496875 1.875000 0.187499
v 1.496875 1.875000 0.187499
v 1.496875 1.875000 -0.437501
v 1.496875 1.875000 -0.437501
v 1.496875 1.750000 -0.437501
v 1.496875 1.750000 -0.437501
v 1.496875 1.750000 0.312499
v 1.496875 1.750000 0.312499
v 1.496875 1.625000 0.375000
v 1.496875 1.625000 0.375000
v 1.496875 1.625000 -0.437500
v 1.496875 1.625000 -0.437500
v 1.496875 1.875000 -0.437501
v 1.496875 1.875000 -0.437501
v 1.496875 1.875000 0.187499
v 1.496875 1.875000 0.187499
v 1.496875 1.750000 0.312499
v 1.496875 1.750000 0.312499
v 1.496875 1.750000 -0.437501
v 1.496875 1.750000 -0.437501
v -1.496875 1.437500 -0.437500
v -1.496875 1.437500 -0.437500
v -1.496875 1.437500 0.437500
v -1.496875 1.437500 0.437500
v -1.496875 0.312500 0.500000
v -1.496875 0.312500 0.500000
v -1.496875 0.312500 -0.437500
v -1.496875 0.312500 -0.437500
v -1.496875 1.625000 -0.437500
v -1.496875 1.625000 -0.437500
v -1.496875 1.625000 0.375000
v -1.496875 1.625000 0.375000
v -1.496875 1.437500 0.437500
v -1.496875 1.437500 0.437500
v -1.496875 1.437500 -0.437500
v -1.496875 1.437500 -0.437500
v -1.496875 1.750000 -0.437500
v -1.496875 1.750000 -0.437500
v -1.496875 1.750000 0.312500
v -1.496875 1.750000 0.312500
v -1.496875 1.625000 0.375000
v -1.496875 1.625000 0.375000
v -1.496875 1.625000 -0.437500
v -1.496875 1.625000 -0.437500
v -1.496875 1.875000 -0.437500
v -1.496875 1.875000 -0.437500
v -1.496875 1.875000 0.187500
v -1.496875 1.875000 0.187500
v -1.496875 1.750000 0.312500
v -1.496875 1.750000 0.312500
v -1.496875 1.750000 -0.437500
v -1.496875 1.750000 -0.437500
v -1.496875 2.000000 -0.437500
v -1.496875 2.000000 -0.437500
v -1.496875 2.000000 -0.125000
v -1.496875 2.000000 -0.125000
v -1.496875 1.937500 0.062500
v -1.496875 1.937500 0.062500
v -1.496875 1.937500 -0.437500
v -1.496875 1.937500 -0.437500
v -1.496875 1.937500 -0.437500
v -1.496875 1.937500 -0.437500
v -1.496875 1.937500 0.062500
v -1.496875 1.937500 0.062500
v -1.496875 1.875000 0.187500
v -1.496875 1.875000 0.187500
v -1.496875 1.875000 -0.437500
v -1.496875 1.875000 -0.437500
v 1.437500 0.312500 0.496875
v -1.437500 0.312500 0.496875
v -1.437500 0.312500 0.496875
v 1.437500 0.312500 0.496875
v 1.437500 0.125000 0.496875
v -1.437500 0.125000 0.496875
v -1.437500 0.125000 0.496875
v 1.437500 0.125000 0.496875
vt 1.843750 0.875000
vt 1.843750 0.875000
vt 1.843750 0.992188
vt 1.843750 0.992188
vt 1.843750 0.875000
vt 1.843750 0.875000
vt 1.843750 0.992188
vt 1.843750 0.992188
vt 1.843750 0.734375
vt 1.843750 0.734375
vt 1.902344 0.875000
vt 1.902344 0.875000
vt 1.902344 0.734375
vt 1.902344 0.734375
vt 1.785156 0.875000
vt 1.785156 0.734375
vt 1.496094 0.570312
vt 1.496094 0.570312
vt 1.496094 0.679688
vt 1.496094 0.679688
vt 1.496094 0.570312
vt 1.496094 0.570312
vt 1.496094 0.679688
vt 1.496094 0.679688
vt 1.496094 0.546875
vt 1.496094 0.546875
vt 1.550781 0.570312
vt 1.550781 0.570312
vt 1.550781 0.546875
vt 1.550781 0.546875
vt 1.441406 0.570312
vt 1.441406 0.546875
vt 1.535156 0.929688
vt 1.535156 0.929688
vt 1.535156 0.992188
vt 1.535156 0.992188
vt 1.535156 0.929688
vt 1.535156 0.929688
vt 1.535156 0.992188
vt 1.535156 0.992188
vt 1.535156 0.921875
vt 1.535156 0.921875
vt 1.566406 0.929688
vt 1.566406 0.929688
vt 1.566406 0.921875
vt 1.566406 0.921875
vt 1.503906 0.929688
vt 1.503906 0.921875
vt 1.574219 0.914062
vt 1.574219 0.914062
vt 1.574219 0.992188
vt 1.574219 0.992188
vt 1.574219 0.914062
vt 1.574219 0.914062
vt 1.574219 0.992188
vt 1.574219 0.992188
vt 1.574219 0.906250
vt 1.574219 0.906250
vt 1.613281 0.914062
vt 1.613281 0.914062
vt 1.613281 0.906250
vt 1.613281 0.906250
vt 1.535156 0.914062
vt 1.535156 0.906250
vt 1.710938 0.828125
vt 1.710938 0.828125
vt 1.710938 0.929688
vt 1.710938 0.929688
vt 1.710938 0.828125
vt 1.710938 0.828125
vt 1.710938 0.929688
vt 1.710938 0.929688
vt 1.710938 0.812500
vt 1.710938 0.812500
vt 1.761719 0.828125
vt 1.761719 0.828125
vt 1.761719 0.812500
vt 1.761719 0.812500
vt 1.660156 0.828125
vt 1.660156 0.812500
vt 1.707031 0.898438
vt 1.707031 0.898438
vt 1.707031 0.992188
vt 1.707031 0.992188
vt 1.707031 0.898438
vt 1.707031 0.898438
vt 1.707031 0.992188
vt 1.707031 0.992188
vt 1.707031 0.882812
vt 1.707031 0.882812
vt 1.753906 0.898438
vt 1.753906 0.898438
vt 1.753906 0.882812
vt 1.753906 0.882812
vt 1.660156 0.898438
vt 1.660156 0.882812
vt 1.062500 0.437500
vt 1.062500 0.437500
vt 1.062500 0.554688
vt 1.062500 0.554688
vt 1.062500 0.437500
vt 1.062500 0.437500
vt 1.062500 0.554688
vt 1.062500 0.554688
vt 1.062500 0.296875
vt 1.062500 0.296875
vt 1.121094 0.437500
vt 1.121094 0.437500
vt 1.121094 0.296875
vt 1.121094 0.296875
vt 1.003906 0.437500
vt 1.003906 0.296875
vt 1.183594 0.445312
vt 1.183594 0.445312
vt 1.183594 0.554688
vt 1.183594 0.554688
vt 1.183594 0.445312
vt 1.183594 0.445312
vt 1.183594 0.554688
vt 1.183594 0.554688
vt 1.183594 0.421875
vt 1.183594 0.421875
vt 1.238281 0.445312
vt 1.238281 0.445312
vt 1.238281 0.421875
vt 1.238281 0.421875
vt 1.128906 0.445312
vt 1.128906 0.421875
vt 1.929688 0.703125
vt 1.929688 0.703125
vt 1.929688 0.804688
vt 1.929688 0.804688
vt 1.929688 0.703125
vt 1.929688 0.703125
vt 1.929688 0.804688
vt 1.929688 0.804688
vt 1.929688 0.687500
vt 1.929688 0.687500
vt 1.980469 0.703125
vt 1.980469 0.703125
vt 1.980469 0.687500
vt 1.980469 0.687500
vt 1.878906 0.703125
vt 1.878906 0.687500
vt 1.832031 0.898438
vt 1.832031 0.898438
vt 1.832031 0.992188
vt 1.832031 0.992188
vt 1.832031 0.898438
vt 1.832031 0.898438
vt 1.832031 0.992188
vt 1.832031 0.992188
vt 1.832031 0.882812
vt 1.832031 0.882812
vt 1.878906 0.898438
vt 1.878906 0.898438
vt 1.878906 0.882812
vt 1.878906 0.882812
vt 1.785156 0.898438
vt 1.785156 0.882812
vt 1.691406 0.929688
vt 1.691406 0.929688
vt 1.691406 0.992188
vt 1.691406 0.992188
vt 1.691406 0.929688
vt 1.691406 0.929688
vt 1.691406 0.992188
vt 1.691406 0.992188
vt 1.691406 0.921875
vt 1.691406 0.921875
vt 1.722656 0.929688
vt 1.722656 0.929688
vt 1.722656 0.921875
vt 1.722656 0.921875
vt 1.660156 0.929688
vt 1.660156 0.921875
vt 1.730469 0.914062
vt 1.730469 0.914062
vt 1.730469 0.992188
vt 1.730469 0.992188
vt 1.730469 0.914062
vt 1.730469 0.914062
vt 1.730469 0.992188
vt 1.730469 0.992188
vt 1.730469 0.906250
vt 1.730469 0.906250
vt 1.769531 0.914062
vt 1.769531 0.914062
vt 1.769531 0.906250
vt 1.769531 0.906250
vt 1.691406 0.914062
vt 1.691406 0.906250
vt 1.003906 0.742188
vt 1.183594 0.742188
vt 1.183594 0.742188
vt 1.003906 0.742188
vt 1.183594 0.742188
vt 1.363281 0.742188
vt 1.363281 0.742188
vt 1.183594 0.742188
vt 1.003906 0.718750
vt 1.183594 0.718750
vt 1.363281 0.742188
vt 1.183594 0.718750
vt 1.363281 0.718750
vt 1.003906 0.718750
vn 0.0000 0.0000 1.0000
vn -1.0000 0.0000 0.0000
vn 1.0000 -0.0000 -0.0000
vn -0.0000 -0.0000 -1.0000
usemtl ModelMaterial.001
s off
f 33/65/7 34/66/7 35/67/7 36/68/7
f 37/69/7 38/70/7 39/71/7 40/72/7
f 34/66/7 33/65/7 40/73/7 39/74/7
f 36/75/7 35/76/7 38/77/7 37/78/7
f 35/76/8 34/66/8 39/74/8 38/77/8
f 33/65/9 36/79/9 37/80/9 40/73/9
f 41/81/7 42/82/7 43/83/7 44/84/7
f 45/85/7 46/86/7 47/87/7 48/88/7
f 42/82/7 41/81/7 48/89/7 47/90/7
f 44/91/7 43/92/7 46/93/7 45/94/7
f 43/92/8 42/82/8 47/90/8 46/93/8
f 41/81/9 44/95/9 45/96/9 48/89/9
f 49/97/7 50/98/7 51/99/7 52/100/7
f 53/101/7 54/102/7 55/103/7 56/104/7
f 50/98/7 49/97/7 56/105/7 55/106/7
f 52/107/7 51/108/7 54/109/7 53/110/7
f 51/108/8 50/98/8 55/106/8 54/109/8
f 49/97/9 52/111/9 53/112/9 56/105/9
f 57/113/7 58/114/7 59/115/7 60/116/7
f 61/117/7 62/118/7 63/119/7 64/120/7
f 58/114/7 57/113/7 64/121/7 63/122/7
f 60/123/7 59/124/7 62/125/7 61/126/7
f 59/124/8 58/114/8 63/122/8 62/125/8
f 57/113/9 60/127/9 61/128/9 64/121/9
f 65/129/7 66/130/7 67/131/7 68/132/7
f 69/133/7 70/134/7 71/135/7 72/136/7
f 66/130/7 65/129/7 72/137/7 71/138/7
f 68/139/7 67/140/7 70/141/7 69/142/7
f 67/140/8 66/130/8 71/138/8 70/141/8
f 65/129/9 68/143/9 69/144/9 72/137/9
f 73/145/7 74/146/7 75/147/7 76/148/7
f 77/149/7 78/150/7 79/151/7 80/152/7
f 74/146/7 73/145/7 80/153/7 79/154/7
f 76/155/7 75/156/7 78/157/7 77/158/7
f 75/156/8 74/146/8 79/154/8 78/157/8
f 73/145/9 76/159/9 77/160/9 80/153/9
f 81/161/7 82/162/7 83/163/7 84/164/7
f 85/165/7 86/166/7 87/167/7 88/168/7
f 82/162/7 81/161/7 88/169/7 87/170/7
f 84/171/7 83/172/7 86/173/7 85/174/7
f 83/172/8 82/162/8 87/170/8 86/173/8
f 81/161/9 84/175/9 85/176/9 88/169/9
f 89/177/7 90/178/7 91/179/7 92/180/7
f 93/181/7 94/182/7 95/183/7 96/184/7
f 90/178/7 89/177/7 96/185/7 95/186/7
f 92/187/7 91/188/7 94/189/7 93/190/7
f 91/188/8 90/178/8 95/186/8 94/189/8
f 89/177/9 92/191/9 93/192/9 96/185/9
f 97/193/7 98/194/7 99/195/7 100/196/7
f 101/197/7 102/198/7 103/199/7 104/200/7
f 98/194/7 97/193/7 104/201/7 103/202/7
f 100/203/7 99/204/7 102/205/7 101/206/7
f 99/204/8 98/194/8 103/202/8 102/205/8
f 97/193/9 100/207/9 101/208/9 104/201/9
f 105/209/7 106/210/7 107/211/7 108/212/7
f 109/213/7 110/214/7 111/215/7 112/216/7
f 106/210/7 105/209/7 112/217/7 111/218/7
f 108/219/7 107/220/7 110/221/7 109/222/7
f 107/220/8 106/210/8 111/218/8 110/221/8
f 105/209/9 108/223/9 109/224/9 112/217/9
f 113/225/7 114/226/7 115/227/7 116/228/7
f 117/229/7 118/230/7 119/231/7 120/232/7
f 114/226/7 113/225/7 120/233/7 119/234/7
f 116/235/7 115/236/7 118/237/7 117/238/7
f 115/236/8 114/226/8 119/234/8 118/237/8
f 113/225/9 116/239/9 117/240/9 120/233/9
f 121/241/7 122/242/7 123/243/7 124/244/7
f 125/245/7 126/246/7 127/247/7 128/248/7
f 122/242/7 121/241/7 128/249/7 127/250/7
f 124/251/7 123/252/7 126/253/7 125/254/7
f 123/252/8 122/242/8 127/250/8 126/253/8
f 121/241/9 124/255/9 125/256/9 128/249/9
f 129/257/7 130/258/7 131/259/7 132/260/7
f 133/261/7 134/262/7 135/263/7 136/264/7
f 130/258/10 129/257/10 136/265/10 135/266/10
f 132/267/7 131/259/7 134/268/7 133/269/7
f 131/259/7 130/258/7 135/266/7 134/268/7
f 129/257/7 132/260/7 133/270/7 136/265/7
o interiorTrays_translucent
v 1.500000 1.500000 -0.437500
v -1.500000 1.500000 -0.437500
v -1.500000 1.500000 0.312500
v 1.500000 1.500000 0.312500
v 1.500000 1.484375 0.312500
v -1.500000 1.484375 0.312500
v -1.500000 1.437500 -0.437500
v 1.500000 1.437500 -0.437500
v 1.500000 1.000000 -0.437500
v -1.500000 1.000000 -0.437500
v -1.500000 1.000000 0.312500
v 1.500000 1.000000 0.312500
v 1.500000 0.984375 0.312500
v -1.500000 0.984375 0.312500
v -1.500000 0.937500 -0.437500
v 1.500000 0.937500 -0.437500
v 1.500000 0.500000 -0.437500
v -1.500000 0.500000 -0.437500
v -1.500000 0.500000 0.312500
v 1.500000 0.500000 0.312500
v 1.500000 0.484375 0.312500
v -1.500000 0.484375 0.312500
v -1.500000 0.437500 -0.437500
v 1.500000 0.437500 -0.437500
vt 1.394531 0.710938
vt 1.582031 0.710938
vt 1.582031 0.804688
vt 1.394531 0.804688
vt 1.582031 0.710938
vt 1.769531 0.710938
vt 1.769531 0.804688
vt 1.582031 0.804688
vt 1.394531 0.703125
vt 1.582031 0.703125
vt 1.816406 0.710938
vt 1.628906 0.710938
vt 1.628906 0.703125
vt 1.816406 0.703125
vt 1.347656 0.710938
vt 1.347656 0.703125
vt 1.050781 0.585938
vt 1.238281 0.585938
vt 1.238281 0.679688
vt 1.050781 0.679688
vt 1.238281 0.585938
vt 1.425781 0.585938
vt 1.425781 0.679688
vt 1.238281 0.679688
vt 1.050781 0.578125
vt 1.238281 0.578125
vt 1.472656 0.585938
vt 1.285156 0.585938
vt 1.285156 0.578125
vt 1.472656 0.578125
vt 1.003906 0.585938
vt 1.003906 0.578125
vt 1.550781 0.585938
vt 1.738281 0.585938
vt 1.738281 0.679688
vt 1.550781 0.679688
vt 1.738281 0.585938
vt 1.925781 0.585938
vt 1.925781 0.679688
vt 1.738281 0.679688
vt 1.550781 0.578125
vt 1.738281 0.578125
vt 1.972656 0.585938
vt 1.785156 0.585938
vt 1.785156 0.578125
vt 1.972656 0.578125
vt 1.503906 0.585938
vt 1.503906 0.578125
vn -0.0000 1.0000 -0.0000
vn 0.0000 -0.9981 0.0624
vn -0.0000 -0.0000 -1.0000
vn 0.0000 0.0000 1.0000
vn -1.0000 0.0000 0.0000
vn 1.0000 0.0000 -0.0000
usemtl ModelMaterial.002
s off
f 137/271/11 138/272/11 139/273/11 140/274/11
f 141/275/12 142/276/12 143/277/12 144/278/12
f 138/272/13 137/271/13 144/279/13 143/280/13
f 140/281/14 139/282/14 142/283/14 141/284/14
f 139/282/15 138/272/15 143/280/15 142/283/15
f 137/271/16 140/285/16 141/286/16 144/279/16
f 145/287/11 146/288/11 147/289/11 148/290/11
f 149/291/12 150/292/12 151/293/12 152/294/12
f 146/288/13 145/287/13 152/295/13 151/296/13
f 148/297/14 147/298/14 150/299/14 149/300/14
f 147/298/15 146/288/15 151/296/15 150/299/15
f 145/287/16 148/301/16 149/302/16 152/295/16
f 153/303/11 154/304/11 155/305/11 156/306/11
f 157/307/12 158/308/12 159/309/12 160/310/12
f 154/304/13 153/303/13 160/311/13 159/312/13
f 156/313/14 155/314/14 158/315/14 157/316/14
f 155/314/15 154/304/15 159/312/15 158/315/15
f 153/303/16 156/317/16 157/318/16 160/311/16
