# Blender v2.79 (sub 0) OBJ File: ''
# www.blender.org
mtllib modubar_display_table_covered_small.mtl
o bodyModel
v -0.500000 1.000000 0.500000
v 0.500000 1.000000 0.500000
v 0.500000 1.000000 -0.500000
v -0.500000 1.000000 -0.500000
v -0.500000 0.000000 -0.500000
v 0.500000 0.000000 -0.500000
v 0.500000 -0.000000 0.500000
v -0.500000 -0.000000 0.500000
v -0.500000 0.812500 -0.500000
v 0.500000 0.812500 -0.500000
v 0.500000 0.812500 -0.556250
v -0.500000 0.812500 -0.556250
v -0.500000 0.312500 -0.556250
v 0.500000 0.312500 -0.556250
v 0.500000 0.312500 -0.500000
v -0.500000 0.312500 -0.500000
v -0.500000 0.812500 0.556250
v 0.500000 0.812500 0.556250
v 0.500000 0.812500 0.500000
v -0.500000 0.812500 0.500000
v -0.500000 0.312500 0.500000
v 0.500000 0.312500 0.500000
v 0.500000 0.312500 0.556250
v -0.500000 0.312500 0.556250
v 0.500000 0.812500 0.556250
v 0.556250 0.812500 0.556250
v 0.556250 0.812500 -0.556250
v 0.500000 0.812500 -0.556250
v 0.500000 0.312500 -0.556250
v 0.556250 0.312500 -0.556250
v 0.556250 0.312500 0.556250
v 0.500000 0.312500 0.556250
v -0.556250 0.812500 0.556250
v -0.500000 0.812500 0.556250
v -0.500000 0.812500 -0.556250
v -0.556250 0.812500 -0.556250
v -0.556250 0.312500 -0.556250
v -0.500000 0.312500 -0.556250
v -0.500000 0.312500 0.556250
v -0.556250 0.312500 0.556250
v -0.500000 1.437500 -0.437500
v -0.437500 1.437500 -0.437500
v -0.437500 1.437500 -0.500000
v -0.500000 1.437500 -0.500000
v -0.500000 1.000000 -0.500000
v -0.437500 1.000000 -0.500000
v -0.437500 1.000000 -0.437500
v -0.500000 1.000000 -0.437500
v -0.500000 1.437500 0.500000
v -0.437500 1.437500 0.500000
v -0.437500 1.437500 0.437500
v -0.500000 1.437500 0.437500
v -0.500000 1.000000 0.437500
v -0.437500 1.000000 0.437500
v -0.437500 1.000000 0.500000
v -0.500000 1.000000 0.500000
v 0.437500 1.437500 0.500000
v 0.500000 1.437500 0.500000
v 0.500000 1.437500 0.437500
v 0.437500 1.437500 0.437500
v 0.437500 1.000000 0.437500
v 0.500000 1.000000 0.437500
v 0.500000 1.000000 0.500000
v 0.437500 1.000000 0.500000
v 0.437500 1.437500 -0.437500
v 0.500000 1.437500 -0.437500
v 0.500000 1.437500 -0.500000
v 0.437500 1.437500 -0.500000
v 0.437500 1.000000 -0.500000
v 0.500000 1.000000 -0.500000
v 0.500000 1.000000 -0.437500
v 0.437500 1.000000 -0.437500
vt 1.132812 0.734375
vt 1.257812 0.734375
vt 1.257812 0.984375
vt 1.132812 0.984375
vt 1.257812 0.734375
vt 1.382812 0.734375
vt 1.382812 0.984375
vt 1.257812 0.984375
vt 1.132812 0.484375
vt 1.257812 0.484375
vt 1.507812 0.734375
vt 1.382812 0.734375
vt 1.382812 0.484375
vt 1.507812 0.484375
vt 1.007812 0.734375
vt 1.007812 0.484375
vt 1.453125 0.968750
vt 1.578125 0.968750
vt 1.578125 0.984375
vt 1.453125 0.984375
vt 1.578125 0.968750
vt 1.703125 0.968750
vt 1.703125 0.984375
vt 1.578125 0.984375
vt 1.453125 0.843750
vt 1.578125 0.843750
vt 1.710938 0.968750
vt 1.585938 0.968750
vt 1.585938 0.843750
vt 1.710938 0.843750
vt 1.445312 0.968750
vt 1.445312 0.843750
vt 1.578125 0.718750
vt 1.703125 0.718750
vt 1.703125 0.734375
vt 1.578125 0.734375
vt 1.703125 0.718750
vt 1.828125 0.718750
vt 1.828125 0.734375
vt 1.703125 0.734375
vt 1.578125 0.593750
vt 1.703125 0.593750
vt 1.835938 0.718750
vt 1.710938 0.718750
vt 1.710938 0.593750
vt 1.835938 0.593750
vt 1.570312 0.718750
vt 1.570312 0.593750
vt 1.523438 0.453125
vt 1.531250 0.453125
vt 1.531250 0.734375
vt 1.523438 0.734375
vt 1.531250 0.453125
vt 1.539062 0.453125
vt 1.539062 0.734375
vt 1.531250 0.734375
vt 1.523438 0.328125
vt 1.531250 0.328125
vt 1.679688 0.453125
vt 1.671875 0.453125
vt 1.671875 0.328125
vt 1.679688 0.328125
vt 1.382812 0.453125
vt 1.382812 0.328125
vt 1.710938 0.203125
vt 1.718750 0.203125
vt 1.718750 0.484375
vt 1.710938 0.484375
vt 1.718750 0.203125
vt 1.726562 0.203125
vt 1.726562 0.484375
vt 1.718750 0.484375
vt 1.710938 0.078125
vt 1.718750 0.078125
vt 1.867188 0.203125
vt 1.859375 0.203125
vt 1.859375 0.078125
vt 1.867188 0.078125
vt 1.570312 0.203125
vt 1.570312 0.078125
vt 1.015625 0.968750
vt 1.023438 0.968750
vt 1.023438 0.984375
vt 1.015625 0.984375
vt 1.023438 0.968750
vt 1.031250 0.968750
vt 1.031250 0.984375
vt 1.023438 0.984375
vt 1.015625 0.859375
vt 1.023438 0.859375
vt 1.039062 0.968750
vt 1.031250 0.968750
vt 1.031250 0.859375
vt 1.039062 0.859375
vt 1.007812 0.968750
vt 1.007812 0.859375
vt 1.078125 0.968750
vt 1.085938 0.968750
vt 1.085938 0.984375
vt 1.078125 0.984375
vt 1.085938 0.968750
vt 1.093750 0.968750
vt 1.093750 0.984375
vt 1.085938 0.984375
vt 1.078125 0.859375
vt 1.085938 0.859375
vt 1.101562 0.968750
vt 1.093750 0.968750
vt 1.093750 0.859375
vt 1.101562 0.859375
vt 1.070312 0.968750
vt 1.070312 0.859375
vt 1.890625 0.718750
vt 1.898438 0.718750
vt 1.898438 0.734375
vt 1.890625 0.734375
vt 1.898438 0.718750
vt 1.906250 0.718750
vt 1.906250 0.734375
vt 1.898438 0.734375
vt 1.890625 0.609375
vt 1.898438 0.609375
vt 1.914062 0.718750
vt 1.906250 0.718750
vt 1.906250 0.609375
vt 1.914062 0.609375
vt 1.882812 0.718750
vt 1.882812 0.609375
vt 1.953125 0.718750
vt 1.960938 0.718750
vt 1.960938 0.734375
vt 1.953125 0.734375
vt 1.960938 0.718750
vt 1.968750 0.718750
vt 1.968750 0.734375
vt 1.960938 0.734375
vt 1.953125 0.609375
vt 1.960938 0.609375
vt 1.976562 0.718750
vt 1.968750 0.718750
vt 1.968750 0.609375
vt 1.976562 0.609375
vt 1.945312 0.718750
vt 1.945312 0.609375
vn 0.0000 1.0000 0.0000
vn 0.0000 -1.0000 -0.0000
vn 0.0000 -0.0000 1.0000
vn 0.0000 0.0000 -1.0000
vn 1.0000 0.0000 0.0000
vn -1.0000 0.0000 0.0000
usemtl ModelMaterial
s off
f 1/1/1 2/2/1 3/3/1 4/4/1
f 5/5/2 6/6/2 7/7/2 8/8/2
f 2/2/3 1/1/3 8/9/3 7/10/3
f 4/11/4 3/12/4 6/13/4 5/14/4
f 3/12/5 2/2/5 7/10/5 6/13/5
f 1/1/6 4/15/6 5/16/6 8/9/6
f 9/17/1 10/18/1 11/19/1 12/20/1
f 13/21/2 14/22/2 15/23/2 16/24/2
f 10/18/3 9/17/3 16/25/3 15/26/3
f 12/27/4 11/28/4 14/29/4 13/30/4
f 11/28/5 10/18/5 15/26/5 14/29/5
f 9/17/6 12/31/6 13/32/6 16/25/6
f 17/33/1 18/34/1 19/35/1 20/36/1
f 21/37/2 22/38/2 23/39/2 24/40/2
f 18/34/3 17/33/3 24/41/3 23/42/3
f 20/43/4 19/44/4 22/45/4 21/46/4
f 19/44/5 18/34/5 23/42/5 22/45/5
f 17/33/6 20/47/6 21/48/6 24/41/6
f 25/49/1 26/50/1 27/51/1 28/52/1
f 29/53/2 30/54/2 31/55/2 32/56/2
f 26/50/3 25/49/3 32/57/3 31/58/3
f 28/59/4 27/60/4 30/61/4 29/62/4
f 27/60/5 26/50/5 31/58/5 30/61/5
f 25/49/6 28/63/6 29/64/6 32/57/6
f 33/65/1 34/66/1 35/67/1 36/68/1
f 37/69/2 38/70/2 39/71/2 40/72/2
f 34/66/3 33/65/3 40/73/3 39/74/3
f 36/75/4 35/76/4 38/77/4 37/78/4
f 35/76/5 34/66/5 39/74/5 38/77/5
f 33/65/6 36/79/6 37/80/6 40/73/6
f 41/81/1 42/82/1 43/83/1 44/84/1
f 45/85/2 46/86/2 47/87/2 48/88/2
f 42/82/3 41/81/3 48/89/3 47/90/3
f 44/91/4 43/92/4 46/93/4 45/94/4
f 43/92/5 42/82/5 47/90/5 46/93/5
f 41/81/6 44/95/6 45/96/6 48/89/6
f 49/97/1 50/98/1 51/99/1 52/100/1
f 53/101/2 54/102/2 55/103/2 56/104/2
f 50/98/3 49/97/3 56/105/3 55/106/3
f 52/107/4 51/108/4 54/109/4 53/110/4
f 51/108/5 50/98/5 55/106/5 54/109/5
f 49/97/6 52/111/6 53/112/6 56/105/6
f 57/113/1 58/114/1 59/115/1 60/116/1
f 61/117/2 62/118/2 63/119/2 64/120/2
f 58/114/3 57/113/3 64/121/3 63/122/3
f 60/123/4 59/124/4 62/125/4 61/126/4
f 59/124/5 58/114/5 63/122/5 62/125/5
f 57/113/6 60/127/6 61/128/6 64/121/6
f 65/129/1 66/130/1 67/131/1 68/132/1
f 69/133/2 70/134/2 71/135/2 72/136/2
f 66/130/3 65/129/3 72/137/3 71/138/3
f 68/139/4 67/140/4 70/141/4 69/142/4
f 67/140/5 66/130/5 71/138/5 70/141/5
f 65/129/6 68/143/6 69/144/6 72/137/6
o bodyGlass_translucent
v -0.434375 1.437500 0.496875
v 0.434375 1.437500 0.496875
v 0.437500 1.437500 0.496875
v -0.437500 1.437500 0.496875
v -0.437500 1.000000 0.496875
v 0.437500 1.000000 0.496875
v 0.434375 1.000000 0.496875
v -0.434375 1.000000 0.496875
v -0.434375 1.437500 -0.496875
v 0.434375 1.437500 -0.496875
v 0.437500 1.437500 -0.496875
v -0.437500 1.437500 -0.496875
v -0.437500 1.000000 -0.496875
v 0.437500 1.000000 -0.496875
v 0.434375 1.000000 -0.496875
v -0.434375 1.000000 -0.496875
v -0.496875 1.437500 0.437500
v -0.496875 1.437500 0.437500
v -0.496875 1.437500 -0.437500
v -0.496875 1.437500 -0.437500
v -0.496875 1.000000 -0.437500
v -0.496875 1.000000 -0.437500
v -0.496875 1.000000 0.437500
v -0.496875 1.000000 0.437500
v 0.496875 1.437500 0.437500
v 0.496875 1.437500 0.437500
v 0.496875 1.437500 -0.437500
v 0.496875 1.437500 -0.437500
v 0.496875 1.000000 -0.437500
v 0.496875 1.000000 -0.437500
v 0.496875 1.000000 0.437500
v 0.496875 1.000000 0.437500
vt 1.757812 0.984375
vt 1.867188 0.984375
vt 1.867188 0.984375
vt 1.757812 0.984375
vt 1.867188 0.984375
vt 1.976562 0.984375
vt 1.976562 0.984375
vt 1.867188 0.984375
vt 1.757812 0.875000
vt 1.867188 0.875000
vt 1.976562 0.984375
vt 1.867188 0.875000
vt 1.976562 0.875000
vt 1.757812 0.875000
vt 1.757812 0.859375
vt 1.867188 0.859375
vt 1.867188 0.859375
vt 1.757812 0.859375
vt 1.867188 0.859375
vt 1.976562 0.859375
vt 1.976562 0.859375
vt 1.867188 0.859375
vt 1.757812 0.750000
vt 1.867188 0.750000
vt 1.976562 0.859375
vt 1.867188 0.750000
vt 1.976562 0.750000
vt 1.757812 0.750000
vt 1.867188 0.515625
vt 1.867188 0.515625
vt 1.867188 0.734375
vt 1.867188 0.734375
vt 1.867188 0.515625
vt 1.867188 0.515625
vt 1.867188 0.734375
vt 1.867188 0.734375
vt 1.867188 0.406250
vt 1.867188 0.406250
vt 1.976562 0.515625
vt 1.976562 0.515625
vt 1.976562 0.406250
vt 1.976562 0.406250
vt 1.757812 0.515625
vt 1.757812 0.406250
vt 1.117188 0.140625
vt 1.117188 0.140625
vt 1.117188 0.359375
vt 1.117188 0.359375
vt 1.117188 0.140625
vt 1.117188 0.140625
vt 1.117188 0.359375
vt 1.117188 0.359375
vt 1.117188 0.031250
vt 1.117188 0.031250
vt 1.226562 0.140625
vt 1.226562 0.140625
vt 1.226562 0.031250
vt 1.226562 0.031250
vt 1.007812 0.140625
vt 1.007812 0.031250
vn 0.0000 0.0000 1.0000
vn 0.0000 0.0000 -1.0000
vn 1.0000 0.0000 0.0000
vn -1.0000 0.0000 0.0000
usemtl ModelMaterial.001
s off
f 73/145/7 74/146/7 75/147/7 76/148/7
f 77/149/7 78/150/7 79/151/7 80/152/7
f 74/146/7 73/145/7 80/153/7 79/154/7
f 76/155/8 75/147/8 78/156/8 77/157/8
f 75/147/7 74/146/7 79/154/7 78/156/7
f 73/145/7 76/148/7 77/158/7 80/153/7
f 81/159/7 82/160/7 83/161/7 84/162/7
f 85/163/7 86/164/7 87/165/7 88/166/7
f 82/160/7 81/159/7 88/167/7 87/168/7
f 84/169/8 83/161/8 86/170/8 85/171/8
f 83/161/7 82/160/7 87/168/7 86/170/7
f 81/159/7 84/162/7 85/172/7 88/167/7
f 89/173/7 90/174/7 91/175/7 92/176/7
f 93/177/7 94/178/7 95/179/7 96/180/7
f 90/174/7 89/173/7 96/181/7 95/182/7
f 92/183/7 91/184/7 94/185/7 93/186/7
f 91/184/9 90/174/9 95/182/9 94/185/9
f 89/173/10 92/187/10 93/188/10 96/181/10
f 97/189/7 98/190/7 99/191/7 100/192/7
f 101/193/7 102/194/7 103/195/7 104/196/7
f 98/190/7 97/189/7 104/197/7 103/198/7
f 100/199/7 99/200/7 102/201/7 101/202/7
f 99/200/9 98/190/9 103/198/9 102/201/9
f 97/189/10 100/203/10 101/204/10 104/197/10
