# Blender v2.79 (sub 0) OBJ File: ''
# www.blender.org
mtllib modubar_cash_register_modern.mtl
o modubar_cash_register_modern
v -0.375000 0.250000 0.375000
v 0.375000 0.250000 0.375000
v 0.375000 0.250000 -0.375000
v -0.375000 0.000000 -0.375000
v 0.375000 0.000000 -0.375000
v 0.375000 -0.000000 0.375000
v -0.375000 -0.000000 0.375000
v 0.156250 0.312500 0.281250
v 0.343750 0.312500 0.281250
v 0.343750 0.312500 0.031250
v 0.156250 0.312500 0.031250
v 0.156250 0.250000 0.031250
v 0.343750 0.250000 0.031250
v 0.343750 0.250000 0.281250
v 0.156250 0.250000 0.281250
v 0.187500 0.338489 0.065232
v 0.312500 0.338489 0.065232
v 0.312500 0.312500 0.187500
v 0.187500 0.312500 0.187500
v -0.375000 0.731694 -0.018306
v 0.125000 0.731694 -0.018306
v 0.125000 0.687500 -0.062500
v -0.375000 0.687500 -0.062500
v -0.375000 0.333947 0.291053
v 0.125000 0.333947 0.291053
v 0.125000 0.378141 0.335248
v -0.375000 0.378141 0.335248
v -0.187500 0.500000 0.125000
v -0.062500 0.500000 0.125000
v -0.062500 0.562500 0.062500
v -0.187500 0.562500 0.062500
v -0.187500 0.250000 0.062500
v -0.062500 0.250000 0.062500
v -0.062500 0.250000 0.125000
v -0.187500 0.250000 0.125000
v -0.375000 0.312500 -0.187500
v 0.375000 0.312500 -0.187500
v 0.375000 0.312500 -0.312500
v -0.375000 0.312500 -0.312500
v -0.375000 0.250000 -0.375000
v 0.375000 0.250000 -0.125000
v -0.375000 0.250000 -0.125000
vt 1.203125 0.796875
vt 1.390625 0.796875
vt 1.390625 0.984375
vt 1.203125 0.984375
vt 1.390625 0.796875
vt 1.578125 0.796875
vt 1.578125 0.984375
vt 1.390625 0.984375
vt 1.203125 0.734375
vt 1.390625 0.734375
vt 1.765625 0.796875
vt 1.578125 0.796875
vt 1.578125 0.734375
vt 1.765625 0.734375
vt 1.015625 0.796875
vt 1.015625 0.734375
vt 1.703125 0.921875
vt 1.750000 0.921875
vt 1.750000 0.984375
vt 1.703125 0.984375
vt 1.750000 0.921875
vt 1.796875 0.921875
vt 1.796875 0.984375
vt 1.750000 0.984375
vt 1.703125 0.906250
vt 1.750000 0.906250
vt 1.859375 0.921875
vt 1.812500 0.921875
vt 1.812500 0.906250
vt 1.859375 0.906250
vt 1.640625 0.921875
vt 1.640625 0.906250
vt 1.078125 0.953125
vt 1.109375 0.953125
vt 1.109375 0.984375
vt 1.078125 0.984375
vt 1.031250 0.593750
vt 1.156250 0.593750
vt 1.156250 0.609375
vt 1.031250 0.609375
vt 1.156250 0.593750
vt 1.281250 0.593750
vt 1.281250 0.609375
vt 1.156250 0.609375
vt 1.031250 0.468750
vt 1.156250 0.468750
vt 1.296875 0.593750
vt 1.171875 0.593750
vt 1.171875 0.468750
vt 1.296875 0.468750
vt 1.015625 0.593750
vt 1.015625 0.468750
vt 1.906250 0.968750
vt 1.937500 0.968750
vt 1.937500 0.984375
vt 1.906250 0.984375
vt 1.937500 0.968750
vt 1.968750 0.968750
vt 1.968750 0.984375
vt 1.937500 0.984375
vt 1.906250 0.906250
vt 1.937500 0.906250
vt 1.984375 0.968750
vt 1.953125 0.968750
vt 1.953125 0.906250
vt 1.984375 0.906250
vt 1.890625 0.968750
vt 1.890625 0.906250
vt 1.421875 0.578125
vt 1.609375 0.578125
vt 1.609375 0.609375
vt 1.421875 0.609375
vt 1.609375 0.578125
vt 1.796875 0.578125
vt 1.796875 0.609375
vt 1.609375 0.609375
vt 1.421875 0.562500
vt 1.609375 0.562500
vt 1.828125 0.578125
vt 1.640625 0.578125
vt 1.640625 0.562500
vt 1.828125 0.562500
vt 1.390625 0.578125
vt 1.390625 0.562500
vn 0.0000 1.0000 0.0000
vn 0.0000 -1.0000 -0.0000
vn 0.0000 -0.0000 1.0000
vn 0.0000 0.0000 -1.0000
vn 1.0000 0.0000 0.0000
vn -1.0000 0.0000 0.0000
vn 0.0000 -0.9781 -0.2079
vn 0.0000 0.7071 -0.7071
vn 0.0000 -0.7071 0.7071
vn 0.0000 0.7071 0.7071
vn 0.0000 -0.7071 -0.7071
usemtl ModelMaterial
s off
f 1/1/1 2/2/1 3/3/1 40/4/1
f 4/5/2 5/6/2 6/7/2 7/8/2
f 2/2/3 1/1/3 7/9/3 6/10/3
f 40/11/4 3/12/4 5/13/4 4/14/4
f 3/12/5 2/2/5 6/10/5 5/13/5
f 1/1/6 40/15/6 4/16/6 7/9/6
f 8/17/1 9/18/1 10/19/1 11/20/1
f 12/21/2 13/22/2 14/23/2 15/24/2
f 9/18/3 8/17/3 15/25/3 14/26/3
f 11/27/4 10/28/4 13/29/4 12/30/4
f 10/28/5 9/18/5 14/26/5 13/29/5
f 8/17/6 11/31/6 12/32/6 15/25/6
f 16/33/7 17/34/7 18/35/7 19/36/7
f 20/37/8 21/38/8 22/39/8 23/40/8
f 24/41/9 25/42/9 26/43/9 27/44/9
f 21/38/10 20/37/10 27/45/10 26/46/10
f 23/47/11 22/48/11 25/49/11 24/50/11
f 22/48/5 21/38/5 26/46/5 25/49/5
f 20/37/6 23/51/6 24/52/6 27/45/6
f 28/53/10 29/54/10 30/55/10 31/56/10
f 32/57/2 33/58/2 34/59/2 35/60/2
f 29/54/3 28/53/3 35/61/3 34/62/3
f 31/63/4 30/64/4 33/65/4 32/66/4
f 30/64/5 29/54/5 34/62/5 33/65/5
f 28/53/6 31/67/6 32/68/6 35/61/6
f 36/69/1 37/70/1 38/71/1 39/72/1
f 40/73/2 3/74/2 41/75/2 42/76/2
f 37/70/10 36/69/10 42/77/10 41/78/10
f 39/79/8 38/80/8 3/81/8 40/82/8
f 38/80/5 37/70/5 41/78/5 3/81/5
f 36/69/6 39/83/6 40/84/6 42/77/6
