# Blender v2.79 (sub 0) OBJ File: ''
# www.blender.org
mtllib modubar_island_fronttoback_standard.mtl
o bodyModel
v -1.500000 0.500000 1.000000
v 1.500000 0.500000 1.000000
v 1.500000 0.500000 -0.500000
v -1.500000 0.500000 -0.500000
v -1.500000 0.000000 -0.500000
v 1.500000 0.000000 -0.500000
v 1.500000 -0.000000 1.000000
v -1.500000 -0.000000 1.000000
v -1.500000 0.812500 -0.500000
v 1.500000 0.812500 -0.500000
v 1.500000 0.812500 -0.556250
v -1.500000 0.812500 -0.556250
v -1.500000 0.312500 -0.556250
v 1.500000 0.312500 -0.556250
v 1.500000 0.312500 -0.500000
v -1.500000 0.312500 -0.500000
v -1.500000 0.812500 1.056250
v 1.500000 0.812500 1.056250
v 1.500000 0.812500 1.000000
v -1.500000 0.812500 1.000000
v -1.500000 0.312500 1.000000
v 1.500000 0.312500 1.000000
v 1.500000 0.312500 1.056250
v -1.500000 0.312500 1.056250
v 1.500000 0.812500 1.056250
v 1.556250 0.812500 1.056250
v 1.556250 0.812500 -0.556250
v 1.500000 0.812500 -0.556250
v 1.500000 0.312500 -0.556250
v 1.556250 0.312500 -0.556250
v 1.556250 0.312500 1.056250
v 1.500000 0.312500 1.056250
v -1.556250 0.812500 1.056250
v -1.500000 0.812500 1.056250
v -1.500000 0.812500 -0.556250
v -1.556250 0.812500 -0.556250
v -1.556250 0.312500 -0.556250
v -1.500000 0.312500 -0.556250
v -1.500000 0.312500 1.056250
v -1.556250 0.312500 1.056250
v -1.437500 0.875000 -0.437500
v 1.437500 0.875000 -0.437500
v 1.437500 0.875000 -0.500000
v -1.437500 0.875000 -0.500000
v -1.437500 0.500000 -0.500000
v 1.437500 0.500000 -0.500000
v 1.437500 0.500000 -0.437500
v -1.437500 0.500000 -0.437500
v -1.500000 1.000000 1.000000
v -1.437500 1.000000 1.000000
v -1.437500 1.000000 -0.500000
v -1.500000 1.000000 -0.500000
v -1.500000 0.500000 -0.500000
v -1.437500 0.500000 -0.500000
v -1.437500 0.500000 1.000000
v -1.500000 0.500000 1.000000
v -1.437500 0.875000 1.000000
v 1.437500 0.875000 1.000000
v 1.437500 0.875000 0.937500
v -1.437500 0.875000 0.937500
v -1.437500 0.500000 0.937500
v 1.437500 0.500000 0.937500
v 1.437500 0.500000 1.000000
v -1.437500 0.500000 1.000000
v 1.437500 1.000000 1.000000
v 1.500000 1.000000 1.000000
v 1.500000 1.000000 -0.500000
v 1.437500 1.000000 -0.500000
v 1.437500 0.500000 -0.500000
v 1.500000 0.500000 -0.500000
v 1.500000 0.500000 1.000000
v 1.437500 0.500000 1.000000
v -0.062500 1.000000 -0.437500
v 0.062500 1.000000 -0.437500
v 0.062500 1.000000 -0.500000
v -0.062500 1.000000 -0.500000
v -0.062500 0.875000 -0.500000
v 0.062500 0.875000 -0.500000
v 0.062500 0.875000 -0.437500
v -0.062500 0.875000 -0.437500
v -0.062500 1.000000 1.000000
v 0.062500 1.000000 1.000000
v 0.062500 1.000000 0.937500
v -0.062500 1.000000 0.937500
v -0.062500 0.875000 0.937500
v 0.062500 0.875000 0.937500
v 0.062500 0.875000 1.000000
v -0.062500 0.875000 1.000000
v -0.062500 1.000000 0.937500
v 0.062500 1.000000 0.937500
v 0.062500 1.000000 -0.437500
v -0.062500 1.000000 -0.437500
v -0.062500 0.937500 -0.437500
v 0.062500 0.937500 -0.437500
v 0.062500 0.937500 0.937500
v -0.062500 0.937500 0.937500
v -1.437500 0.987500 0.281250
v -0.062500 0.987500 0.281250
v -0.062500 0.987500 0.218750
v -1.437500 0.987500 0.218750
v -1.437500 0.937500 0.218750
v -0.062500 0.937500 0.218750
v -0.062500 0.937500 0.281250
v -1.437500 0.937500 0.281250
v 0.062500 0.987500 0.281250
v 1.437500 0.987500 0.281250
v 1.437500 0.987500 0.218750
v 0.062500 0.987500 0.218750
v 0.062500 0.937500 0.218750
v 1.437500 0.937500 0.218750
v 1.437500 0.937500 0.281250
v 0.062500 0.937500 0.281250
vt 1.097656 0.804688
vt 1.285156 0.804688
vt 1.285156 0.992188
vt 1.097656 0.992188
vt 1.285156 0.804688
vt 1.472656 0.804688
vt 1.472656 0.992188
vt 1.285156 0.992188
vt 1.097656 0.742188
vt 1.285156 0.742188
vt 1.566406 0.804688
vt 1.378906 0.804688
vt 1.378906 0.742188
vt 1.566406 0.742188
vt 1.003906 0.804688
vt 1.003906 0.742188
vt 1.507812 0.984375
vt 1.695312 0.984375
vt 1.695312 0.992188
vt 1.507812 0.992188
vt 1.695312 0.984375
vt 1.882812 0.984375
vt 1.882812 0.992188
vt 1.695312 0.992188
vt 1.507812 0.921875
vt 1.695312 0.921875
vt 1.886719 0.984375
vt 1.699219 0.984375
vt 1.699219 0.921875
vt 1.886719 0.921875
vt 1.503906 0.984375
vt 1.503906 0.921875
vt 1.601562 0.859375
vt 1.789062 0.859375
vt 1.789062 0.867188
vt 1.601562 0.867188
vt 1.789062 0.859375
vt 1.976562 0.859375
vt 1.976562 0.867188
vt 1.789062 0.867188
vt 1.601562 0.796875
vt 1.789062 0.796875
vt 1.980469 0.859375
vt 1.792969 0.859375
vt 1.792969 0.796875
vt 1.980469 0.796875
vt 1.597656 0.859375
vt 1.597656 0.796875
vt 1.574219 0.664062
vt 1.578125 0.664062
vt 1.578125 0.867188
vt 1.574219 0.867188
vt 1.578125 0.664062
vt 1.582031 0.664062
vt 1.582031 0.867188
vt 1.578125 0.867188
vt 1.574219 0.601562
vt 1.578125 0.601562
vt 1.683594 0.664062
vt 1.679688 0.664062
vt 1.679688 0.601562
vt 1.683594 0.601562
vt 1.472656 0.664062
vt 1.472656 0.601562
vt 1.699219 0.539062
vt 1.703125 0.539062
vt 1.703125 0.742188
vt 1.699219 0.742188
vt 1.703125 0.539062
vt 1.707031 0.539062
vt 1.707031 0.742188
vt 1.703125 0.742188
vt 1.699219 0.476562
vt 1.703125 0.476562
vt 1.808594 0.539062
vt 1.804688 0.539062
vt 1.804688 0.476562
vt 1.808594 0.476562
vt 1.597656 0.539062
vt 1.597656 0.476562
vt 1.007812 0.671875
vt 1.187500 0.671875
vt 1.187500 0.679688
vt 1.007812 0.679688
vt 1.187500 0.671875
vt 1.367188 0.671875
vt 1.367188 0.679688
vt 1.187500 0.679688
vt 1.007812 0.625000
vt 1.187500 0.625000
vt 1.371094 0.671875
vt 1.191406 0.671875
vt 1.191406 0.625000
vt 1.371094 0.625000
vt 1.003906 0.671875
vt 1.003906 0.625000
vt 1.378906 0.492188
vt 1.382812 0.492188
vt 1.382812 0.679688
vt 1.378906 0.679688
vt 1.382812 0.492188
vt 1.386719 0.492188
vt 1.386719 0.679688
vt 1.382812 0.679688
vt 1.378906 0.429688
vt 1.382812 0.429688
vt 1.480469 0.492188
vt 1.476562 0.492188
vt 1.476562 0.429688
vt 1.480469 0.429688
vt 1.285156 0.492188
vt 1.285156 0.429688
vt 1.007812 0.609375
vt 1.187500 0.609375
vt 1.187500 0.617188
vt 1.007812 0.617188
vt 1.187500 0.609375
vt 1.367188 0.609375
vt 1.367188 0.617188
vt 1.187500 0.617188
vt 1.007812 0.562500
vt 1.187500 0.562500
vt 1.371094 0.609375
vt 1.191406 0.609375
vt 1.191406 0.562500
vt 1.371094 0.562500
vt 1.003906 0.609375
vt 1.003906 0.562500
vt 1.816406 0.429688
vt 1.820312 0.429688
vt 1.820312 0.617188
vt 1.816406 0.617188
vt 1.820312 0.429688
vt 1.824219 0.429688
vt 1.824219 0.617188
vt 1.820312 0.617188
vt 1.816406 0.367188
vt 1.820312 0.367188
vt 1.917969 0.429688
vt 1.914062 0.429688
vt 1.914062 0.367188
vt 1.917969 0.367188
vt 1.722656 0.429688
vt 1.722656 0.367188
vt 1.007812 0.984375
vt 1.015625 0.984375
vt 1.015625 0.992188
vt 1.007812 0.992188
vt 1.015625 0.984375
vt 1.023438 0.984375
vt 1.023438 0.992188
vt 1.015625 0.992188
vt 1.007812 0.968750
vt 1.015625 0.968750
vt 1.027344 0.984375
vt 1.019531 0.984375
vt 1.019531 0.968750
vt 1.027344 0.968750
vt 1.003906 0.984375
vt 1.003906 0.968750
vt 1.039062 0.984375
vt 1.046875 0.984375
vt 1.046875 0.992188
vt 1.039062 0.992188
vt 1.046875 0.984375
vt 1.054688 0.984375
vt 1.054688 0.992188
vt 1.046875 0.992188
vt 1.039062 0.968750
vt 1.046875 0.968750
vt 1.058594 0.984375
vt 1.050781 0.984375
vt 1.050781 0.968750
vt 1.058594 0.968750
vt 1.035156 0.984375
vt 1.035156 0.968750
vt 1.246094 0.382812
vt 1.253906 0.382812
vt 1.253906 0.554688
vt 1.246094 0.554688
vt 1.253906 0.382812
vt 1.261719 0.382812
vt 1.261719 0.554688
vt 1.253906 0.554688
vt 1.246094 0.375000
vt 1.253906 0.375000
vt 1.347656 0.382812
vt 1.339844 0.382812
vt 1.339844 0.375000
vt 1.347656 0.375000
vt 1.160156 0.382812
vt 1.160156 0.375000
vt 1.414062 0.546875
vt 1.500000 0.546875
vt 1.500000 0.554688
vt 1.414062 0.554688
vt 1.500000 0.546875
vt 1.585938 0.546875
vt 1.585938 0.554688
vt 1.500000 0.554688
vt 1.414062 0.539062
vt 1.500000 0.539062
vt 1.589844 0.546875
vt 1.503906 0.546875
vt 1.503906 0.539062
vt 1.589844 0.539062
vt 1.410156 0.546875
vt 1.410156 0.539062
vt 1.007812 0.421875
vt 1.093750 0.421875
vt 1.093750 0.429688
vt 1.007812 0.429688
vt 1.093750 0.421875
vt 1.179688 0.421875
vt 1.179688 0.429688
vt 1.093750 0.429688
vt 1.007812 0.414062
vt 1.093750 0.414062
vt 1.183594 0.421875
vt 1.097656 0.421875
vt 1.097656 0.414062
vt 1.183594 0.414062
vt 1.003906 0.421875
vt 1.003906 0.414062
vn 0.0000 1.0000 0.0000
vn 0.0000 -1.0000 -0.0000
vn 0.0000 -0.0000 1.0000
vn 0.0000 0.0000 -1.0000
vn 1.0000 0.0000 0.0000
vn -1.0000 0.0000 0.0000
usemtl ModelMaterial
s off
f 1/1/1 2/2/1 3/3/1 4/4/1
f 5/5/2 6/6/2 7/7/2 8/8/2
f 2/2/3 1/1/3 8/9/3 7/10/3
f 4/11/4 3/12/4 6/13/4 5/14/4
f 3/12/5 2/2/5 7/10/5 6/13/5
f 1/1/6 4/15/6 5/16/6 8/9/6
f 9/17/1 10/18/1 11/19/1 12/20/1
f 13/21/2 14/22/2 15/23/2 16/24/2
f 10/18/3 9/17/3 16/25/3 15/26/3
f 12/27/4 11/28/4 14/29/4 13/30/4
f 11/28/5 10/18/5 15/26/5 14/29/5
f 9/17/6 12/31/6 13/32/6 16/25/6
f 17/33/1 18/34/1 19/35/1 20/36/1
f 21/37/2 22/38/2 23/39/2 24/40/2
f 18/34/3 17/33/3 24/41/3 23/42/3
f 20/43/4 19/44/4 22/45/4 21/46/4
f 19/44/5 18/34/5 23/42/5 22/45/5
f 17/33/6 20/47/6 21/48/6 24/41/6
f 25/49/1 26/50/1 27/51/1 28/52/1
f 29/53/2 30/54/2 31/55/2 32/56/2
f 26/50/3 25/49/3 32/57/3 31/58/3
f 28/59/4 27/60/4 30/61/4 29/62/4
f 27/60/5 26/50/5 31/58/5 30/61/5
f 25/49/6 28/63/6 29/64/6 32/57/6
f 33/65/1 34/66/1 35/67/1 36/68/1
f 37/69/2 38/70/2 39/71/2 40/72/2
f 34/66/3 33/65/3 40/73/3 39/74/3
f 36/75/4 35/76/4 38/77/4 37/78/4
f 35/76/5 34/66/5 39/74/5 38/77/5
f 33/65/6 36/79/6 37/80/6 40/73/6
f 41/81/1 42/82/1 43/83/1 44/84/1
f 45/85/2 46/86/2 47/87/2 48/88/2
f 42/82/3 41/81/3 48/89/3 47/90/3
f 44/91/4 43/92/4 46/93/4 45/94/4
f 43/92/5 42/82/5 47/90/5 46/93/5
f 41/81/6 44/95/6 45/96/6 48/89/6
f 49/97/1 50/98/1 51/99/1 52/100/1
f 53/101/2 54/102/2 55/103/2 56/104/2
f 50/98/3 49/97/3 56/105/3 55/106/3
f 52/107/4 51/108/4 54/109/4 53/110/4
f 51/108/5 50/98/5 55/106/5 54/109/5
f 49/97/6 52/111/6 53/112/6 56/105/6
f 57/113/1 58/114/1 59/115/1 60/116/1
f 61/117/2 62/118/2 63/119/2 64/120/2
f 58/114/3 57/113/3 64/121/3 63/122/3
f 60/123/4 59/124/4 62/125/4 61/126/4
f 59/124/5 58/114/5 63/122/5 62/125/5
f 57/113/6 60/127/6 61/128/6 64/121/6
f 65/129/1 66/130/1 67/131/1 68/132/1
f 69/133/2 70/134/2 71/135/2 72/136/2
f 66/130/3 65/129/3 72/137/3 71/138/3
f 68/139/4 67/140/4 70/141/4 69/142/4
f 67/140/5 66/130/5 71/138/5 70/141/5
f 65/129/6 68/143/6 69/144/6 72/137/6
f 73/145/1 74/146/1 75/147/1 76/148/1
f 77/149/2 78/150/2 79/151/2 80/152/2
f 74/146/3 73/145/3 80/153/3 79/154/3
f 76/155/4 75/156/4 78/157/4 77/158/4
f 75/156/5 74/146/5 79/154/5 78/157/5
f 73/145/6 76/159/6 77/160/6 80/153/6
f 81/161/1 82/162/1 83/163/1 84/164/1
f 85/165/2 86/166/2 87/167/2 88/168/2
f 82/162/3 81/161/3 88/169/3 87/170/3
f 84/171/4 83/172/4 86/173/4 85/174/4
f 83/172/5 82/162/5 87/170/5 86/173/5
f 81/161/6 84/175/6 85/176/6 88/169/6
f 89/177/1 90/178/1 91/179/1 92/180/1
f 93/181/2 94/182/2 95/183/2 96/184/2
f 90/178/3 89/177/3 96/185/3 95/186/3
f 92/187/4 91/188/4 94/189/4 93/190/4
f 91/188/5 90/178/5 95/186/5 94/189/5
f 89/177/6 92/191/6 93/192/6 96/185/6
f 97/193/1 98/194/1 99/195/1 100/196/1
f 101/197/2 102/198/2 103/199/2 104/200/2
f 98/194/3 97/193/3 104/201/3 103/202/3
f 100/203/4 99/204/4 102/205/4 101/206/4
f 99/204/5 98/194/5 103/202/5 102/205/5
f 97/193/6 100/207/6 101/208/6 104/201/6
f 105/209/1 106/210/1 107/211/1 108/212/1
f 109/213/2 110/214/2 111/215/2 112/216/2
f 106/210/3 105/209/3 112/217/3 111/218/3
f 108/219/4 107/220/4 110/221/4 109/222/4
f 107/220/5 106/210/5 111/218/5 110/221/5
f 105/209/6 108/223/6 109/224/6 112/217/6
o counterGlass_translucent
v -1.434375 0.993750 0.996875
v -0.065625 0.993750 0.996875
v -0.062500 0.993750 0.996875
v -1.437500 0.993750 0.996875
v -1.437500 0.875000 0.996875
v -0.062500 0.875000 0.996875
v -0.065625 0.875000 0.996875
v -1.434375 0.875000 0.996875
v -1.434375 0.987500 -0.496875
v -0.065625 0.987500 -0.496875
v -0.062500 0.987500 -0.496875
v -1.437500 0.987500 -0.496875
v -1.437500 0.875000 -0.496875
v -0.062500 0.875000 -0.496875
v -0.065625 0.875000 -0.496875
v -1.434375 0.875000 -0.496875
v -1.434375 0.987500 0.218750
v -0.065625 0.987500 0.218750
v -0.062500 0.987500 -0.500000
v -1.437500 0.987500 -0.500000
v -1.437500 0.987500 -0.500000
v -0.062500 0.987500 -0.500000
v -0.065625 0.987500 0.218750
v -1.434375 0.987500 0.218750
v 0.065625 0.987500 0.218750
v 1.434375 0.987500 0.218750
v 1.437500 0.987500 -0.500000
v 0.062500 0.987500 -0.500000
v 0.062500 0.987500 -0.500000
v 1.437500 0.987500 -0.500000
v 1.434375 0.987500 0.218750
v 0.065625 0.987500 0.218750
v 0.065625 0.987500 -0.496875
v 1.434375 0.987500 -0.496875
v 1.437500 0.987500 -0.496875
v 0.062500 0.987500 -0.496875
v 0.062500 0.875000 -0.496875
v 1.437500 0.875000 -0.496875
v 1.434375 0.875000 -0.496875
v 0.065625 0.875000 -0.496875
v 0.065625 0.993750 0.996875
v 1.434375 0.993750 0.996875
v 1.437500 0.993750 0.996875
v 0.062500 0.993750 0.996875
v 0.062500 0.875000 0.996875
v 1.437500 0.875000 0.996875
v 1.434375 0.875000 0.996875
v 0.065625 0.875000 0.996875
vt 1.722656 0.742188
vt 1.808594 0.742188
vt 1.808594 0.742188
vt 1.722656 0.742188
vt 1.808594 0.742188
vt 1.894531 0.742188
vt 1.894531 0.742188
vt 1.808594 0.742188
vt 1.722656 0.726562
vt 1.808594 0.726562
vt 1.894531 0.742188
vt 1.808594 0.726562
vt 1.894531 0.726562
vt 1.722656 0.726562
vt 1.722656 0.679688
vt 1.808594 0.679688
vt 1.808594 0.679688
vt 1.722656 0.679688
vt 1.808594 0.679688
vt 1.894531 0.679688
vt 1.894531 0.679688
vt 1.808594 0.679688
vt 1.722656 0.664062
vt 1.808594 0.664062
vt 1.894531 0.679688
vt 1.808594 0.664062
vt 1.894531 0.664062
vt 1.722656 0.664062
vt 1.046875 0.468750
vt 1.132812 0.468750
vt 1.132812 0.554688
vt 1.046875 0.554688
vt 1.132812 0.468750
vt 1.218750 0.468750
vt 1.218750 0.554688
vt 1.132812 0.554688
vt 1.046875 0.468750
vt 1.132812 0.468750
vt 1.261719 0.468750
vt 1.175781 0.468750
vt 1.175781 0.468750
vt 1.261719 0.468750
vt 1.003906 0.468750
vt 1.003906 0.468750
vt 1.484375 0.343750
vt 1.570312 0.343750
vt 1.570312 0.429688
vt 1.484375 0.429688
vt 1.570312 0.343750
vt 1.656250 0.343750
vt 1.656250 0.429688
vt 1.570312 0.429688
vt 1.484375 0.343750
vt 1.570312 0.343750
vt 1.699219 0.343750
vt 1.613281 0.343750
vt 1.613281 0.343750
vt 1.699219 0.343750
vt 1.441406 0.343750
vt 1.441406 0.343750
vt 1.003906 0.367188
vt 1.089844 0.367188
vt 1.089844 0.367188
vt 1.003906 0.367188
vt 1.089844 0.367188
vt 1.175781 0.367188
vt 1.175781 0.367188
vt 1.089844 0.367188
vt 1.003906 0.351562
vt 1.089844 0.351562
vt 1.175781 0.367188
vt 1.089844 0.351562
vt 1.175781 0.351562
vt 1.003906 0.351562
vt 1.003906 0.304688
vt 1.089844 0.304688
vt 1.089844 0.304688
vt 1.003906 0.304688
vt 1.089844 0.304688
vt 1.175781 0.304688
vt 1.175781 0.304688
vt 1.089844 0.304688
vt 1.003906 0.289062
vt 1.089844 0.289062
vt 1.175781 0.304688
vt 1.089844 0.289062
vt 1.175781 0.289062
vt 1.003906 0.289062
vn 0.0000 0.0000 -1.0000
vn 0.0000 0.0000 1.0000
vn 0.0000 1.0000 0.0000
vn 0.0000 -1.0000 -0.0000
usemtl ModelMaterial.001
s off
f 113/225/7 114/226/7 115/227/7 116/228/7
f 117/229/8 118/230/8 119/231/8 120/232/8
f 114/226/8 113/225/8 120/233/8 119/234/8
f 116/235/7 115/227/7 118/236/7 117/237/7
f 115/227/8 114/226/8 119/234/8 118/236/8
f 113/225/8 116/228/8 117/238/8 120/233/8
f 121/239/8 122/240/8 123/241/8 124/242/8
f 125/243/8 126/244/8 127/245/8 128/246/8
f 122/240/8 121/239/8 128/247/8 127/248/8
f 124/249/7 123/241/7 126/250/7 125/251/7
f 123/241/8 122/240/8 127/248/8 126/250/8
f 121/239/8 124/242/8 125/252/8 128/247/8
f 129/253/9 130/254/9 131/255/9 132/256/9
f 133/257/10 134/258/10 135/259/10 136/260/10
f 130/254/8 129/253/8 136/261/8 135/262/8
f 132/263/8 131/264/8 134/265/8 133/266/8
f 131/264/8 130/254/8 135/262/8 134/265/8
f 129/253/8 132/267/8 133/268/8 136/261/8
f 137/269/9 138/270/9 139/271/9 140/272/9
f 141/273/10 142/274/10 143/275/10 144/276/10
f 138/270/8 137/269/8 144/277/8 143/278/8
f 140/279/8 139/280/8 142/281/8 141/282/8
f 139/280/8 138/270/8 143/278/8 142/281/8
f 137/269/8 140/283/8 141/284/8 144/277/8
f 145/285/8 146/286/8 147/287/8 148/288/8
f 149/289/8 150/290/8 151/291/8 152/292/8
f 146/286/8 145/285/8 152/293/8 151/294/8
f 148/295/7 147/287/7 150/296/7 149/297/7
f 147/287/8 146/286/8 151/294/8 150/296/8
f 145/285/8 148/288/8 149/298/8 152/293/8
f 153/299/7 154/300/7 155/301/7 156/302/7
f 157/303/8 158/304/8 159/305/8 160/306/8
f 154/300/8 153/299/8 160/307/8 159/308/8
f 156/309/7 155/301/7 158/310/7 157/311/7
f 155/301/8 154/300/8 159/308/8 158/310/8
f 153/299/8 156/302/8 157/312/8 160/307/8
o counterGlassDoorLeft_translucent
v -1.437500 0.993750 1.000000
v -0.062500 0.993750 1.000000
v -0.065625 0.993750 0.281250
v -1.434375 0.993750 0.281250
v -1.434375 0.993750 0.281250
v -0.065625 0.993750 0.281250
v -0.062500 0.993750 1.000000
v -1.437500 0.993750 1.000000
v -0.937500 1.009375 0.937500
v -0.562500 1.009375 0.937500
v -0.562500 1.009375 0.875000
v -0.937500 1.009375 0.875000
v -0.937500 0.993750 0.875000
v -0.562500 0.993750 0.875000
v -0.562500 0.993750 0.937500
v -0.937500 0.993750 0.937500
vt 1.203125 0.281250
vt 1.289062 0.281250
vt 1.289062 0.367188
vt 1.203125 0.367188
vt 1.289062 0.281250
vt 1.375000 0.281250
vt 1.375000 0.367188
vt 1.289062 0.367188
vt 1.203125 0.281250
vt 1.289062 0.281250
vt 1.417969 0.281250
vt 1.332031 0.281250
vt 1.332031 0.281250
vt 1.417969 0.281250
vt 1.160156 0.281250
vt 1.160156 0.281250
vt 1.914062 0.984375
vt 1.937500 0.984375
vt 1.937500 0.992188
vt 1.914062 0.992188
vt 1.937500 0.984375
vt 1.960938 0.984375
vt 1.960938 0.992188
vt 1.937500 0.992188
vt 1.914062 0.976562
vt 1.937500 0.976562
vt 1.964844 0.984375
vt 1.941406 0.984375
vt 1.941406 0.976562
vt 1.964844 0.976562
vt 1.910156 0.984375
vt 1.910156 0.976562
vn 0.0000 1.0000 0.0000
vn 0.0000 -1.0000 -0.0000
vn 0.0000 0.0000 1.0000
vn 0.0000 0.0000 -1.0000
vn 1.0000 0.0000 0.0000
vn -1.0000 0.0000 0.0000
usemtl ModelMaterial.002
s off
f 161/313/11 162/314/11 163/315/11 164/316/11
f 165/317/12 166/318/12 167/319/12 168/320/12
f 162/314/13 161/313/13 168/321/13 167/322/13
f 164/323/13 163/324/13 166/325/13 165/326/13
f 163/324/13 162/314/13 167/322/13 166/325/13
f 161/313/13 164/327/13 165/328/13 168/321/13
f 169/329/11 170/330/11 171/331/11 172/332/11
f 173/333/12 174/334/12 175/335/12 176/336/12
f 170/330/13 169/329/13 176/337/13 175/338/13
f 172/339/14 171/340/14 174/341/14 173/342/14
f 171/340/15 170/330/15 175/338/15 174/341/15
f 169/329/16 172/343/16 173/344/16 176/337/16
o counterGlassDoorRight_translucent
v 0.062500 0.993750 1.000000
v 1.437500 0.993750 1.000000
v 1.434375 0.993750 0.281250
v 0.065625 0.993750 0.281250
v 0.065625 0.993750 0.281250
v 1.434375 0.993750 0.281250
v 1.437500 0.993750 1.000000
v 0.062500 0.993750 1.000000
v 0.562500 1.009375 0.937500
v 0.937500 1.009375 0.937500
v 0.937500 1.009375 0.875000
v 0.562500 1.009375 0.875000
v 0.562500 0.993750 0.875000
v 0.937500 0.993750 0.875000
v 0.937500 0.993750 0.937500
v 0.562500 0.993750 0.937500
vt 1.390625 0.218750
vt 1.476562 0.218750
vt 1.476562 0.304688
vt 1.390625 0.304688
vt 1.476562 0.218750
vt 1.562500 0.218750
vt 1.562500 0.304688
vt 1.476562 0.304688
vt 1.390625 0.218750
vt 1.476562 0.218750
vt 1.605469 0.218750
vt 1.519531 0.218750
vt 1.519531 0.218750
vt 1.605469 0.218750
vt 1.347656 0.218750
vt 1.347656 0.218750
vt 1.007812 0.921875
vt 1.031250 0.921875
vt 1.031250 0.929688
vt 1.007812 0.929688
vt 1.031250 0.921875
vt 1.054688 0.921875
vt 1.054688 0.929688
vt 1.031250 0.929688
vt 1.007812 0.914062
vt 1.031250 0.914062
vt 1.058594 0.921875
vt 1.035156 0.921875
vt 1.035156 0.914062
vt 1.058594 0.914062
vt 1.003906 0.921875
vt 1.003906 0.914062
vn 0.0000 1.0000 0.0000
vn 0.0000 -1.0000 -0.0000
vn 0.0000 0.0000 1.0000
vn 0.0000 0.0000 -1.0000
vn 1.0000 0.0000 0.0000
vn -1.0000 0.0000 0.0000
usemtl ModelMaterial.003
s off
f 177/345/17 178/346/17 179/347/17 180/348/17
f 181/349/18 182/350/18 183/351/18 184/352/18
f 178/346/19 177/345/19 184/353/19 183/354/19
f 180/355/19 179/356/19 182/357/19 181/358/19
f 179/356/19 178/346/19 183/354/19 182/357/19
f 177/345/19 180/359/19 181/360/19 184/353/19
f 185/361/17 186/362/17 187/363/17 188/364/17
f 189/365/18 190/366/18 191/367/18 192/368/18
f 186/362/19 185/361/19 192/369/19 191/370/19
f 188/371/20 187/372/20 190/373/20 189/374/20
f 187/372/21 186/362/21 191/370/21 190/373/21
f 185/361/22 188/375/22 189/376/22 192/369/22
