# Blender v2.79 (sub 0) OBJ File: ''
# www.blender.org
mtllib produce_bin_filler_large_items.mtl
o produce_bin_filler_large_items
v -0.437500 -0.250000 0.437500
v 0.437500 -0.250000 0.437500
v 0.437500 -0.250000 -0.437500
v -0.437500 -0.250000 -0.437500
v -0.437500 -0.875000 -0.437500
v 0.437500 -0.875000 -0.437500
v 0.437500 -0.875000 0.437500
v -0.437500 -0.875000 0.437500
v 0.092800 0.062500 0.405246
v 0.405300 0.062500 0.405246
v 0.405300 0.062500 0.092746
v 0.092800 0.062500 0.092746
v 0.092800 -0.250000 0.092746
v 0.405300 -0.250000 0.092746
v 0.405300 -0.250000 0.405246
v 0.092800 -0.250000 0.405246
v 0.083614 0.020915 0.096146
v 0.385545 0.010659 0.016218
v 0.311092 0.093721 -0.275695
v 0.009160 0.103978 -0.195768
v -0.021666 -0.197106 -0.273578
v 0.280266 -0.207363 -0.353505
v 0.354720 -0.290425 -0.061591
v 0.052788 -0.280169 0.018336
v -0.292841 0.013868 0.026834
v -0.185980 0.161928 0.280438
v 0.107647 0.103937 0.190569
v 0.000786 -0.044124 -0.063035
v -0.003697 -0.313143 0.095914
v 0.103164 -0.165083 0.349518
v -0.190463 -0.107092 0.439387
v -0.297324 -0.255152 0.185782
v -0.407533 0.062500 -0.136860
v -0.112458 0.062500 -0.033967
v -0.009564 0.062500 -0.329042
v -0.304639 0.062500 -0.431935
v -0.304639 -0.250000 -0.431935
v -0.009564 -0.250000 -0.329042
v -0.112458 -0.250000 -0.033967
v -0.407533 -0.250000 -0.136860
v -0.345614 0.392424 0.130253
v -0.037684 0.416305 0.082664
v -0.079090 0.348110 -0.219481
v -0.387020 0.324229 -0.171892
v -0.353546 0.020198 -0.107858
v -0.045616 0.044078 -0.155447
v -0.004209 0.112273 0.146697
v -0.312140 0.088392 0.194286
v 0.019651 0.356256 0.200735
v 0.332030 0.355553 0.192072
v 0.323403 0.368306 -0.120049
v 0.011024 0.369009 -0.111386
v 0.009968 0.056770 -0.124115
v 0.322347 0.056067 -0.132778
v 0.330974 0.043314 0.179343
v 0.018595 0.044017 0.188006
v -0.032786 0.379980 -0.013226
v 0.254019 0.379980 -0.137320
v 0.129926 0.379980 -0.424125
v -0.156879 0.379980 -0.300031
v -0.156879 0.067480 -0.300031
v 0.129926 0.067480 -0.424125
v 0.254019 0.067480 -0.137320
v -0.032786 0.067480 -0.013227
vt 1.234375 0.765625
vt 1.453125 0.765625
vt 1.453125 0.984375
vt 1.234375 0.984375
vt 1.453125 0.765625
vt 1.671875 0.765625
vt 1.671875 0.984375
vt 1.453125 0.984375
vt 1.234375 0.609375
vt 1.453125 0.609375
vt 1.890625 0.765625
vt 1.671875 0.765625
vt 1.671875 0.609375
vt 1.890625 0.609375
vt 1.015625 0.765625
vt 1.015625 0.609375
vt 1.093750 0.406250
vt 1.171875 0.406250
vt 1.171875 0.484375
vt 1.093750 0.484375
vt 1.171875 0.406250
vt 1.250000 0.406250
vt 1.250000 0.484375
vt 1.171875 0.484375
vt 1.093750 0.328125
vt 1.171875 0.328125
vt 1.328125 0.406250
vt 1.250000 0.406250
vt 1.250000 0.328125
vt 1.328125 0.328125
vt 1.015625 0.406250
vt 1.015625 0.328125
vt 1.093750 0.406250
vt 1.171875 0.406250
vt 1.171875 0.484375
vt 1.093750 0.484375
vt 1.171875 0.406250
vt 1.250000 0.406250
vt 1.250000 0.484375
vt 1.171875 0.484375
vt 1.093750 0.328125
vt 1.171875 0.328125
vt 1.328125 0.406250
vt 1.250000 0.406250
vt 1.250000 0.328125
vt 1.328125 0.328125
vt 1.015625 0.406250
vt 1.015625 0.328125
vt 1.093750 0.406250
vt 1.171875 0.406250
vt 1.171875 0.484375
vt 1.093750 0.484375
vt 1.171875 0.406250
vt 1.250000 0.406250
vt 1.250000 0.484375
vt 1.171875 0.484375
vt 1.093750 0.328125
vt 1.171875 0.328125
vt 1.328125 0.406250
vt 1.250000 0.406250
vt 1.250000 0.328125
vt 1.328125 0.328125
vt 1.015625 0.406250
vt 1.015625 0.328125
vt 1.093750 0.406250
vt 1.171875 0.406250
vt 1.171875 0.484375
vt 1.093750 0.484375
vt 1.171875 0.406250
vt 1.250000 0.406250
vt 1.250000 0.484375
vt 1.171875 0.484375
vt 1.093750 0.328125
vt 1.171875 0.328125
vt 1.328125 0.406250
vt 1.250000 0.406250
vt 1.250000 0.328125
vt 1.328125 0.328125
vt 1.015625 0.406250
vt 1.015625 0.328125
vt 1.093750 0.406250
vt 1.171875 0.406250
vt 1.171875 0.484375
vt 1.093750 0.484375
vt 1.171875 0.406250
vt 1.250000 0.406250
vt 1.250000 0.484375
vt 1.171875 0.484375
vt 1.093750 0.328125
vt 1.171875 0.328125
vt 1.328125 0.406250
vt 1.250000 0.406250
vt 1.250000 0.328125
vt 1.328125 0.328125
vt 1.015625 0.406250
vt 1.015625 0.328125
vt 1.093750 0.406250
vt 1.171875 0.406250
vt 1.171875 0.484375
vt 1.093750 0.484375
vt 1.171875 0.406250
vt 1.250000 0.406250
vt 1.250000 0.484375
vt 1.171875 0.484375
vt 1.093750 0.328125
vt 1.171875 0.328125
vt 1.328125 0.406250
vt 1.250000 0.406250
vt 1.250000 0.328125
vt 1.328125 0.328125
vt 1.015625 0.406250
vt 1.015625 0.328125
vt 1.093750 0.406250
vt 1.171875 0.406250
vt 1.171875 0.484375
vt 1.093750 0.484375
vt 1.171875 0.406250
vt 1.250000 0.406250
vt 1.250000 0.484375
vt 1.171875 0.484375
vt 1.093750 0.328125
vt 1.171875 0.328125
vt 1.328125 0.406250
vt 1.250000 0.406250
vt 1.250000 0.328125
vt 1.328125 0.328125
vt 1.015625 0.406250
vt 1.015625 0.328125
vn 0.0000 1.0000 0.0000
vn 0.0000 -1.0000 -0.0000
vn 0.0000 -0.0000 1.0000
vn 0.0000 0.0000 -1.0000
vn 1.0000 0.0000 0.0000
vn -1.0000 0.0000 0.0000
vn 0.0986 0.9635 0.2490
vn -0.0986 -0.9635 -0.2490
vn 0.2383 -0.2658 0.9341
vn -0.2383 0.2658 -0.9341
vn 0.9662 -0.0328 -0.2558
vn -0.9662 0.0328 0.2558
vn 0.0143 0.8609 -0.5086
vn -0.0143 -0.8609 0.5086
vn -0.9396 0.1856 0.2876
vn 0.9396 -0.1856 -0.2876
vn 0.3420 0.4738 0.8115
vn -0.3420 -0.4738 -0.8115
vn -0.3293 -0.0000 0.9442
vn 0.3293 0.0000 -0.9442
vn 0.9442 0.0000 0.3293
vn -0.9442 0.0000 -0.3293
vn -0.1071 0.9729 -0.2049
vn 0.1071 -0.9729 0.2049
vn 0.1325 0.2182 0.9669
vn -0.1325 -0.2182 -0.9669
vn 0.9854 0.0764 -0.1523
vn -0.9854 -0.0764 0.1523
vn 0.0034 0.9992 0.0407
vn -0.0034 -0.9992 -0.0407
vn 0.0276 -0.0408 0.9988
vn -0.0276 0.0408 -0.9988
vn 0.9996 -0.0023 -0.0277
vn -0.9996 0.0023 0.0277
vn 0.3971 -0.0000 0.9178
vn -0.3971 0.0000 -0.9178
vn 0.9178 0.0000 -0.3971
vn -0.9178 -0.0000 0.3971
usemtl ModelMaterial
s off
f 1/1/1 2/2/1 3/3/1 4/4/1
f 5/5/2 6/6/2 7/7/2 8/8/2
f 2/2/3 1/1/3 8/9/3 7/10/3
f 4/11/4 3/12/4 6/13/4 5/14/4
f 3/12/5 2/2/5 7/10/5 6/13/5
f 1/1/6 4/15/6 5/16/6 8/9/6
f 9/17/1 10/18/1 11/19/1 12/20/1
f 13/21/2 14/22/2 15/23/2 16/24/2
f 10/18/3 9/17/3 16/25/3 15/26/3
f 12/27/4 11/28/4 14/29/4 13/30/4
f 11/28/5 10/18/5 15/26/5 14/29/5
f 9/17/6 12/31/6 13/32/6 16/25/6
usemtl ModelMaterial.001
f 17/33/7 18/34/7 19/35/7 20/36/7
f 21/37/8 22/38/8 23/39/8 24/40/8
f 18/34/9 17/33/9 24/41/9 23/42/9
f 20/43/10 19/44/10 22/45/10 21/46/10
f 19/44/11 18/34/11 23/42/11 22/45/11
f 17/33/12 20/47/12 21/48/12 24/41/12
usemtl ModelMaterial.002
f 25/49/13 26/50/13 27/51/13 28/52/13
f 29/53/14 30/54/14 31/55/14 32/56/14
f 26/50/15 25/49/15 32/57/15 31/58/15
f 28/59/16 27/60/16 30/61/16 29/62/16
f 27/60/17 26/50/17 31/58/17 30/61/17
f 25/49/18 28/63/18 29/64/18 32/57/18
usemtl ModelMaterial.003
f 33/65/1 34/66/1 35/67/1 36/68/1
f 37/69/2 38/70/2 39/71/2 40/72/2
f 34/66/19 33/65/19 40/73/19 39/74/19
f 36/75/20 35/76/20 38/77/20 37/78/20
f 35/76/21 34/66/21 39/74/21 38/77/21
f 33/65/22 36/79/22 37/80/22 40/73/22
usemtl ModelMaterial.004
f 41/81/23 42/82/23 43/83/23 44/84/23
f 45/85/24 46/86/24 47/87/24 48/88/24
f 42/82/25 41/81/25 48/89/25 47/90/25
f 44/91/26 43/92/26 46/93/26 45/94/26
f 43/92/27 42/82/27 47/90/27 46/93/27
f 41/81/28 44/95/28 45/96/28 48/89/28
usemtl ModelMaterial.005
f 49/97/29 50/98/29 51/99/29 52/100/29
f 53/101/30 54/102/30 55/103/30 56/104/30
f 50/98/31 49/97/31 56/105/31 55/106/31
f 52/107/32 51/108/32 54/109/32 53/110/32
f 51/108/33 50/98/33 55/106/33 54/109/33
f 49/97/34 52/111/34 53/112/34 56/105/34
usemtl ModelMaterial.006
f 57/113/1 58/114/1 59/115/1 60/116/1
f 61/117/2 62/118/2 63/119/2 64/120/2
f 58/114/35 57/113/35 64/121/35 63/122/35
f 60/123/36 59/124/36 62/125/36 61/126/36
f 59/124/37 58/114/37 63/122/37 62/125/37
f 57/113/38 60/127/38 61/128/38 64/121/38
