# Blender v2.79 (sub 0) OBJ File: ''
# www.blender.org
mtllib produce_bin_filler_medium_items.mtl
o produce_bin_filler_medium_items
v -0.437500 -0.125000 0.437500
v 0.437500 -0.125000 0.437500
v 0.437500 -0.125000 -0.437500
v -0.437500 -0.125000 -0.437500
v -0.437500 -0.875000 -0.437500
v 0.437500 -0.875000 -0.437500
v 0.437500 -0.875000 0.437500
v -0.437500 -0.875000 0.437500
v 0.187500 0.062500 0.375000
v 0.375000 0.062500 0.375000
v 0.375000 0.062500 0.187500
v 0.187500 0.062500 0.187500
v 0.187500 -0.125000 0.187500
v 0.375000 -0.125000 0.187500
v 0.375000 -0.125000 0.375000
v 0.187500 -0.125000 0.375000
v 0.140360 0.059159 0.132303
v 0.327088 0.062852 0.148893
v 0.343937 0.046720 -0.037150
v 0.157208 0.043028 -0.053741
v 0.159444 -0.143740 -0.037344
v 0.346173 -0.140048 -0.020753
v 0.329324 -0.123917 0.165290
v 0.142596 -0.127609 0.148700
v -0.058229 0.062500 0.375000
v 0.129271 0.062500 0.375000
v 0.129271 0.062500 0.187500
v -0.058229 0.062500 0.187500
v -0.058229 -0.125000 0.187500
v 0.129271 -0.125000 0.187500
v 0.129271 -0.125000 0.375000
v -0.058229 -0.125000 0.375000
v -0.357277 0.038775 0.419473
v -0.169972 0.042074 0.427350
v -0.162227 0.049301 0.240150
v -0.349532 0.046002 0.232273
v -0.345935 -0.141329 0.225190
v -0.158629 -0.138030 0.233066
v -0.166375 -0.145258 0.420267
v -0.353680 -0.148556 0.412390
v -0.058229 0.062500 0.126115
v 0.129271 0.062500 0.126115
v 0.129271 0.062500 -0.061385
v -0.058229 0.062500 -0.061385
v -0.058229 -0.125000 -0.061385
v 0.129271 -0.125000 -0.061385
v 0.129271 -0.125000 0.126115
v -0.058229 -0.125000 0.126115
v -0.255961 0.062500 0.039338
v -0.071606 0.062500 0.005143
v -0.105801 0.062500 -0.179213
v -0.290157 0.062500 -0.145017
v -0.290157 -0.125000 -0.145017
v -0.105801 -0.125000 -0.179213
v -0.071606 -0.125000 0.005142
v -0.255961 -0.125000 0.039338
v -0.058229 0.062500 -0.228279
v 0.129271 0.062500 -0.228279
v 0.129271 0.062500 -0.415779
v -0.058229 0.062500 -0.415779
v -0.058229 -0.125000 -0.415779
v 0.129271 -0.125000 -0.415779
v 0.129271 -0.125000 -0.228279
v -0.058229 -0.125000 -0.228279
v -0.454950 0.076272 -0.219482
v -0.267663 0.081537 -0.212259
v -0.260310 0.076913 -0.399558
v -0.447597 0.071648 -0.406780
v -0.442515 -0.115721 -0.401955
v -0.255228 -0.110456 -0.394733
v -0.262581 -0.105831 -0.207434
v -0.449868 -0.111097 -0.214656
v 0.147365 0.075750 -0.209534
v 0.334669 0.080801 -0.202599
v 0.341723 0.076359 -0.389914
v 0.154420 0.071308 -0.396848
v 0.159301 -0.116071 -0.392221
v 0.346604 -0.111020 -0.385287
v 0.339550 -0.106579 -0.197972
v 0.152246 -0.111629 -0.204906
v 0.161682 0.243240 0.440829
v 0.348752 0.243240 0.453523
v 0.361446 0.243240 0.266453
v 0.174376 0.243240 0.253759
v 0.174376 0.055740 0.253759
v 0.361446 0.055740 0.266453
v 0.348752 0.055740 0.453523
v 0.161682 0.055740 0.440829
v 0.140360 0.239899 0.039364
v 0.327088 0.243591 0.055955
v 0.343937 0.227460 -0.130089
v 0.157208 0.223768 -0.146679
v 0.159444 0.036999 -0.130283
v 0.346173 0.040691 -0.113692
v 0.329324 0.056823 0.072352
v 0.142596 0.053131 0.055761
v -0.017353 0.243240 0.375000
v 0.170147 0.243240 0.375000
v 0.170147 0.243240 0.187500
v -0.017353 0.243240 0.187500
v -0.017353 0.055740 0.187500
v 0.170147 0.055740 0.187500
v 0.170147 0.055740 0.375000
v -0.017353 0.055740 0.375000
v -0.088129 0.243240 0.139629
v 0.098797 0.243240 0.154292
v 0.113460 0.243240 -0.032634
v -0.073466 0.243240 -0.047297
v -0.073466 0.055740 -0.047297
v 0.113460 0.055740 -0.032634
v 0.098797 0.055740 0.154291
v -0.088129 0.055740 0.139629
v -0.281278 0.114009 -0.189592
v -0.122793 0.131017 -0.090852
v -0.043692 0.223191 -0.233692
v -0.202176 0.206182 -0.332432
v -0.140679 0.043791 -0.403166
v 0.017805 0.060799 -0.304426
v -0.061296 -0.031374 -0.161586
v -0.219781 -0.048383 -0.260326
v 0.096911 0.255631 -0.103188
v 0.283070 0.246356 -0.123561
v 0.263092 0.254515 -0.309815
v 0.076933 0.263790 -0.289442
v 0.066833 0.076698 -0.296555
v 0.252992 0.067423 -0.316928
v 0.272970 0.059263 -0.130674
v 0.086811 0.068538 -0.110301
v 0.187500 0.422237 0.143769
v 0.375000 0.422237 0.143769
v 0.375000 0.300311 0.001325
v 0.187500 0.300311 0.001325
v 0.187500 0.157867 0.123251
v 0.375000 0.157867 0.123251
v 0.375000 0.279793 0.265695
v 0.187500 0.279793 0.265695
v -0.058229 0.433702 0.066576
v 0.129271 0.433702 0.066576
v 0.129271 0.433702 -0.120924
v -0.058229 0.433702 -0.120924
v -0.058229 0.246202 -0.120924
v 0.129271 0.246202 -0.120924
v 0.129271 0.246202 0.066576
v -0.058229 0.246202 0.066576
v -0.321208 0.328727 -0.062489
v -0.133708 0.328727 -0.062489
v -0.133708 0.358535 -0.247604
v -0.321208 0.358535 -0.247604
v -0.321208 0.173420 -0.277413
v -0.133708 0.173420 -0.277413
v -0.133708 0.143611 -0.092298
v -0.321208 0.143611 -0.092298
v -0.300370 0.246003 0.377053
v -0.118451 0.219930 0.414229
v -0.081282 0.217261 0.230469
v -0.263200 0.243334 0.193294
v -0.289282 0.057675 0.190714
v -0.107364 0.031602 0.227890
v -0.144533 0.034271 0.411650
v -0.326451 0.060344 0.374474
v -0.433766 0.097252 0.211439
v -0.247964 0.113128 0.191900
v -0.266754 0.103728 0.005581
v -0.452556 0.087852 0.025120
v -0.435801 -0.098738 0.032844
v -0.249999 -0.082862 0.013305
v -0.231209 -0.073462 0.199624
v -0.417011 -0.089338 0.219163
v -0.321208 0.243240 0.126115
v -0.133708 0.243240 0.126115
v -0.133708 0.243240 -0.061385
v -0.321208 0.243240 -0.061385
v -0.321208 0.055740 -0.061385
v -0.133708 0.055740 -0.061385
v -0.133708 0.055740 0.126115
v -0.321208 0.055740 0.126115
v -0.269552 0.455080 0.248022
v -0.083855 0.429139 0.248022
v -0.083855 0.429139 0.060522
v -0.269552 0.455080 0.060522
v -0.295493 0.269383 0.060522
v -0.109796 0.243442 0.060522
v -0.109796 0.243442 0.248022
v -0.295493 0.269383 0.248022
v -0.120770 0.247898 -0.175689
v -0.069919 0.428366 -0.177016
v -0.070279 0.427089 -0.364511
v -0.121130 0.246621 -0.363184
v 0.059342 0.195769 -0.363184
v 0.110193 0.376237 -0.364511
v 0.110553 0.377514 -0.177016
v 0.059702 0.197046 -0.175689
vt 1.234375 0.765625
vt 1.453125 0.765625
vt 1.453125 0.984375
vt 1.234375 0.984375
vt 1.453125 0.765625
vt 1.671875 0.765625
vt 1.671875 0.984375
vt 1.453125 0.984375
vt 1.234375 0.578125
vt 1.453125 0.578125
vt 1.890625 0.765625
vt 1.671875 0.765625
vt 1.671875 0.578125
vt 1.890625 0.578125
vt 1.015625 0.765625
vt 1.015625 0.578125
vt 1.062500 0.937500
vt 1.109375 0.937500
vt 1.109375 0.984375
vt 1.062500 0.984375
vt 1.109375 0.937500
vt 1.156250 0.937500
vt 1.156250 0.984375
vt 1.109375 0.984375
vt 1.062500 0.890625
vt 1.109375 0.890625
vt 1.203125 0.937500
vt 1.156250 0.937500
vt 1.156250 0.890625
vt 1.203125 0.890625
vt 1.015625 0.937500
vt 1.015625 0.890625
vt 1.062500 0.937500
vt 1.109375 0.937500
vt 1.109375 0.984375
vt 1.062500 0.984375
vt 1.109375 0.937500
vt 1.156250 0.937500
vt 1.156250 0.984375
vt 1.109375 0.984375
vt 1.062500 0.890625
vt 1.109375 0.890625
vt 1.203125 0.937500
vt 1.156250 0.937500
vt 1.156250 0.890625
vt 1.203125 0.890625
vt 1.015625 0.937500
vt 1.015625 0.890625
vt 1.062500 0.937500
vt 1.109375 0.937500
vt 1.109375 0.984375
vt 1.062500 0.984375
vt 1.109375 0.937500
vt 1.156250 0.937500
vt 1.156250 0.984375
vt 1.109375 0.984375
vt 1.062500 0.890625
vt 1.109375 0.890625
vt 1.203125 0.937500
vt 1.156250 0.937500
vt 1.156250 0.890625
vt 1.203125 0.890625
vt 1.015625 0.937500
vt 1.015625 0.890625
vt 1.062500 0.937500
vt 1.109375 0.937500
vt 1.109375 0.984375
vt 1.062500 0.984375
vt 1.109375 0.937500
vt 1.156250 0.937500
vt 1.156250 0.984375
vt 1.109375 0.984375
vt 1.062500 0.890625
vt 1.109375 0.890625
vt 1.203125 0.937500
vt 1.156250 0.937500
vt 1.156250 0.890625
vt 1.203125 0.890625
vt 1.015625 0.937500
vt 1.015625 0.890625
vt 1.062500 0.937500
vt 1.109375 0.937500
vt 1.109375 0.984375
vt 1.062500 0.984375
vt 1.109375 0.937500
vt 1.156250 0.937500
vt 1.156250 0.984375
vt 1.109375 0.984375
vt 1.062500 0.890625
vt 1.109375 0.890625
vt 1.203125 0.937500
vt 1.156250 0.937500
vt 1.156250 0.890625
vt 1.203125 0.890625
vt 1.015625 0.937500
vt 1.015625 0.890625
vt 1.062500 0.937500
vt 1.109375 0.937500
vt 1.109375 0.984375
vt 1.062500 0.984375
vt 1.109375 0.937500
vt 1.156250 0.937500
vt 1.156250 0.984375
vt 1.109375 0.984375
vt 1.062500 0.890625
vt 1.109375 0.890625
vt 1.203125 0.937500
vt 1.156250 0.937500
vt 1.156250 0.890625
vt 1.203125 0.890625
vt 1.015625 0.937500
vt 1.015625 0.890625
vt 1.062500 0.937500
vt 1.109375 0.937500
vt 1.109375 0.984375
vt 1.062500 0.984375
vt 1.109375 0.937500
vt 1.156250 0.937500
vt 1.156250 0.984375
vt 1.109375 0.984375
vt 1.062500 0.890625
vt 1.109375 0.890625
vt 1.203125 0.937500
vt 1.156250 0.937500
vt 1.156250 0.890625
vt 1.203125 0.890625
vt 1.015625 0.937500
vt 1.015625 0.890625
vt 1.062500 0.937500
vt 1.109375 0.937500
vt 1.109375 0.984375
vt 1.062500 0.984375
vt 1.109375 0.937500
vt 1.156250 0.937500
vt 1.156250 0.984375
vt 1.109375 0.984375
vt 1.062500 0.890625
vt 1.109375 0.890625
vt 1.203125 0.937500
vt 1.156250 0.937500
vt 1.156250 0.890625
vt 1.203125 0.890625
vt 1.015625 0.937500
vt 1.015625 0.890625
vt 1.062500 0.937500
vt 1.109375 0.937500
vt 1.109375 0.984375
vt 1.062500 0.984375
vt 1.109375 0.937500
vt 1.156250 0.937500
vt 1.156250 0.984375
vt 1.109375 0.984375
vt 1.062500 0.890625
vt 1.109375 0.890625
vt 1.203125 0.937500
vt 1.156250 0.937500
vt 1.156250 0.890625
vt 1.203125 0.890625
vt 1.015625 0.937500
vt 1.015625 0.890625
vt 1.062500 0.937500
vt 1.109375 0.937500
vt 1.109375 0.984375
vt 1.062500 0.984375
vt 1.109375 0.937500
vt 1.156250 0.937500
vt 1.156250 0.984375
vt 1.109375 0.984375
vt 1.062500 0.890625
vt 1.109375 0.890625
vt 1.203125 0.937500
vt 1.156250 0.937500
vt 1.156250 0.890625
vt 1.203125 0.890625
vt 1.015625 0.937500
vt 1.015625 0.890625
vt 1.062500 0.937500
vt 1.109375 0.937500
vt 1.109375 0.984375
vt 1.062500 0.984375
vt 1.109375 0.937500
vt 1.156250 0.937500
vt 1.156250 0.984375
vt 1.109375 0.984375
vt 1.062500 0.890625
vt 1.109375 0.890625
vt 1.203125 0.937500
vt 1.156250 0.937500
vt 1.156250 0.890625
vt 1.203125 0.890625
vt 1.015625 0.937500
vt 1.015625 0.890625
vt 1.062500 0.937500
vt 1.109375 0.937500
vt 1.109375 0.984375
vt 1.062500 0.984375
vt 1.109375 0.937500
vt 1.156250 0.937500
vt 1.156250 0.984375
vt 1.109375 0.984375
vt 1.062500 0.890625
vt 1.109375 0.890625
vt 1.203125 0.937500
vt 1.156250 0.937500
vt 1.156250 0.890625
vt 1.203125 0.890625
vt 1.015625 0.937500
vt 1.015625 0.890625
vt 1.062500 0.937500
vt 1.109375 0.937500
vt 1.109375 0.984375
vt 1.062500 0.984375
vt 1.109375 0.937500
vt 1.156250 0.937500
vt 1.156250 0.984375
vt 1.109375 0.984375
vt 1.062500 0.890625
vt 1.109375 0.890625
vt 1.203125 0.937500
vt 1.156250 0.937500
vt 1.156250 0.890625
vt 1.203125 0.890625
vt 1.015625 0.937500
vt 1.015625 0.890625
vt 1.062500 0.937500
vt 1.109375 0.937500
vt 1.109375 0.984375
vt 1.062500 0.984375
vt 1.109375 0.937500
vt 1.156250 0.937500
vt 1.156250 0.984375
vt 1.109375 0.984375
vt 1.062500 0.890625
vt 1.109375 0.890625
vt 1.203125 0.937500
vt 1.156250 0.937500
vt 1.156250 0.890625
vt 1.203125 0.890625
vt 1.015625 0.937500
vt 1.015625 0.890625
vt 1.062500 0.937500
vt 1.109375 0.937500
vt 1.109375 0.984375
vt 1.062500 0.984375
vt 1.109375 0.937500
vt 1.156250 0.937500
vt 1.156250 0.984375
vt 1.109375 0.984375
vt 1.062500 0.890625
vt 1.109375 0.890625
vt 1.203125 0.937500
vt 1.156250 0.937500
vt 1.156250 0.890625
vt 1.203125 0.890625
vt 1.015625 0.937500
vt 1.015625 0.890625
vt 1.062500 0.937500
vt 1.109375 0.937500
vt 1.109375 0.984375
vt 1.062500 0.984375
vt 1.109375 0.937500
vt 1.156250 0.937500
vt 1.156250 0.984375
vt 1.109375 0.984375
vt 1.062500 0.890625
vt 1.109375 0.890625
vt 1.203125 0.937500
vt 1.156250 0.937500
vt 1.156250 0.890625
vt 1.203125 0.890625
vt 1.015625 0.937500
vt 1.015625 0.890625
vt 1.062500 0.937500
vt 1.109375 0.937500
vt 1.109375 0.984375
vt 1.062500 0.984375
vt 1.109375 0.937500
vt 1.156250 0.937500
vt 1.156250 0.984375
vt 1.109375 0.984375
vt 1.062500 0.890625
vt 1.109375 0.890625
vt 1.203125 0.937500
vt 1.156250 0.937500
vt 1.156250 0.890625
vt 1.203125 0.890625
vt 1.015625 0.937500
vt 1.015625 0.890625
vt 1.062500 0.937500
vt 1.109375 0.937500
vt 1.109375 0.984375
vt 1.062500 0.984375
vt 1.109375 0.937500
vt 1.156250 0.937500
vt 1.156250 0.984375
vt 1.109375 0.984375
vt 1.062500 0.890625
vt 1.109375 0.890625
vt 1.203125 0.937500
vt 1.156250 0.937500
vt 1.156250 0.890625
vt 1.203125 0.890625
vt 1.015625 0.937500
vt 1.015625 0.890625
vt 1.062500 0.937500
vt 1.109375 0.937500
vt 1.109375 0.984375
vt 1.062500 0.984375
vt 1.109375 0.937500
vt 1.156250 0.937500
vt 1.156250 0.984375
vt 1.109375 0.984375
vt 1.062500 0.890625
vt 1.109375 0.890625
vt 1.203125 0.937500
vt 1.156250 0.937500
vt 1.156250 0.890625
vt 1.203125 0.890625
vt 1.015625 0.937500
vt 1.015625 0.890625
vt 1.062500 0.937500
vt 1.109375 0.937500
vt 1.109375 0.984375
vt 1.062500 0.984375
vt 1.109375 0.937500
vt 1.156250 0.937500
vt 1.156250 0.984375
vt 1.109375 0.984375
vt 1.062500 0.890625
vt 1.109375 0.890625
vt 1.203125 0.937500
vt 1.156250 0.937500
vt 1.156250 0.890625
vt 1.203125 0.890625
vt 1.015625 0.937500
vt 1.015625 0.890625
vt 1.062500 0.937500
vt 1.109375 0.937500
vt 1.109375 0.984375
vt 1.062500 0.984375
vt 1.109375 0.937500
vt 1.156250 0.937500
vt 1.156250 0.984375
vt 1.109375 0.984375
vt 1.062500 0.890625
vt 1.109375 0.890625
vt 1.203125 0.937500
vt 1.156250 0.937500
vt 1.156250 0.890625
vt 1.203125 0.890625
vt 1.015625 0.937500
vt 1.015625 0.890625
vt 1.062500 0.937500
vt 1.109375 0.937500
vt 1.109375 0.984375
vt 1.062500 0.984375
vt 1.109375 0.937500
vt 1.156250 0.937500
vt 1.156250 0.984375
vt 1.109375 0.984375
vt 1.062500 0.890625
vt 1.109375 0.890625
vt 1.203125 0.937500
vt 1.156250 0.937500
vt 1.156250 0.890625
vt 1.203125 0.890625
vt 1.015625 0.937500
vt 1.015625 0.890625
vt 1.062500 0.937500
vt 1.109375 0.937500
vt 1.109375 0.984375
vt 1.062500 0.984375
vt 1.109375 0.937500
vt 1.156250 0.937500
vt 1.156250 0.984375
vt 1.109375 0.984375
vt 1.062500 0.890625
vt 1.109375 0.890625
vt 1.203125 0.937500
vt 1.156250 0.937500
vt 1.156250 0.890625
vt 1.203125 0.890625
vt 1.015625 0.937500
vt 1.015625 0.890625
vn 0.0000 1.0000 0.0000
vn 0.0000 -1.0000 -0.0000
vn 0.0000 -0.0000 1.0000
vn 0.0000 0.0000 -1.0000
vn 1.0000 0.0000 0.0000
vn -1.0000 0.0000 0.0000
vn -0.0119 0.9961 -0.0874
vn 0.0119 -0.9961 0.0874
vn -0.0899 0.0860 0.9922
vn 0.0899 -0.0860 -0.9922
vn 0.9959 0.0197 0.0885
vn -0.9959 -0.0197 -0.0885
vn -0.0192 0.9991 0.0378
vn 0.0192 -0.9991 -0.0378
vn -0.0413 -0.0385 0.9984
vn 0.0413 0.0385 -0.9984
vn 0.9990 0.0176 0.0420
vn -0.9990 -0.0176 -0.0420
vn 0.1824 -0.0000 0.9832
vn -0.1824 0.0000 -0.9832
vn 0.9832 0.0000 -0.1824
vn -0.9832 0.0000 0.1824
vn -0.0271 0.9993 -0.0257
vn 0.0271 -0.9993 0.0257
vn -0.0392 0.0247 0.9989
vn 0.0392 -0.0247 -0.9989
vn 0.9989 0.0281 0.0385
vn -0.9989 -0.0281 -0.0385
vn -0.0260 0.9994 -0.0247
vn 0.0260 -0.9994 0.0247
vn -0.0376 0.0237 0.9990
vn 0.0376 -0.0237 -0.9990
vn 0.9990 0.0269 0.0370
vn -0.9990 -0.0269 -0.0370
vn -0.0677 -0.0000 0.9977
vn 0.0677 0.0000 -0.9977
vn 0.9977 0.0000 0.0677
vn -0.9977 0.0000 -0.0677
vn -0.0782 -0.0000 0.9969
vn 0.0782 0.0000 -0.9969
vn 0.9969 0.0000 0.0782
vn -0.9969 0.0000 -0.0782
vn -0.3280 0.8661 0.3773
vn 0.3280 -0.8661 -0.3773
vn -0.4219 -0.4916 0.7618
vn 0.4219 0.4916 -0.7618
vn 0.8453 0.0907 0.5266
vn -0.8453 -0.0907 -0.5266
vn 0.0539 0.9978 0.0379
vn -0.0539 -0.9978 -0.0379
vn 0.1065 -0.0435 0.9934
vn -0.1065 0.0435 -0.9934
vn 0.9928 -0.0495 -0.1087
vn -0.9928 0.0495 0.1087
vn 0.0000 0.7597 -0.6503
vn 0.0000 -0.7597 0.6503
vn 0.0000 0.6503 0.7597
vn 0.0000 -0.6503 -0.7597
vn 0.0000 0.9873 0.1590
vn 0.0000 -0.9873 -0.1590
vn 0.0000 -0.1590 0.9873
vn 0.0000 0.1590 -0.9873
vn 0.1391 0.9902 0.0138
vn -0.1391 -0.9902 -0.0138
vn -0.1982 0.0142 0.9801
vn 0.1982 -0.0142 -0.9801
vn 0.9702 -0.1391 0.1983
vn -0.9702 0.1391 -0.1983
vn -0.0894 0.9951 -0.0412
vn 0.0894 -0.9951 0.0412
vn 0.1002 0.0501 0.9937
vn -0.1002 -0.0501 -0.9937
vn 0.9909 0.0847 -0.1042
vn -0.9909 -0.0847 0.1042
vn 0.1384 0.9904 0.0000
vn -0.1384 -0.9904 0.0000
vn 0.9904 -0.1384 0.0000
vn -0.9904 0.1384 0.0000
vn -0.9625 0.2712 0.0000
vn 0.9625 -0.2712 -0.0000
vn 0.0019 0.0068 1.0000
vn -0.0019 -0.0068 -1.0000
vn 0.2712 0.9625 -0.0071
vn -0.2712 -0.9625 0.0071
usemtl ModelMaterial
s off
f 1/1/1 2/2/1 3/3/1 4/4/1
f 5/5/2 6/6/2 7/7/2 8/8/2
f 2/2/3 1/1/3 8/9/3 7/10/3
f 4/11/4 3/12/4 6/13/4 5/14/4
f 3/12/5 2/2/5 7/10/5 6/13/5
f 1/1/6 4/15/6 5/16/6 8/9/6
f 9/17/1 10/18/1 11/19/1 12/20/1
f 13/21/2 14/22/2 15/23/2 16/24/2
f 10/18/3 9/17/3 16/25/3 15/26/3
f 12/27/4 11/28/4 14/29/4 13/30/4
f 11/28/5 10/18/5 15/26/5 14/29/5
f 9/17/6 12/31/6 13/32/6 16/25/6
usemtl ModelMaterial.001
f 17/33/7 18/34/7 19/35/7 20/36/7
f 21/37/8 22/38/8 23/39/8 24/40/8
f 18/34/9 17/33/9 24/41/9 23/42/9
f 20/43/10 19/44/10 22/45/10 21/46/10
f 19/44/11 18/34/11 23/42/11 22/45/11
f 17/33/12 20/47/12 21/48/12 24/41/12
usemtl ModelMaterial.002
f 25/49/1 26/50/1 27/51/1 28/52/1
f 29/53/2 30/54/2 31/55/2 32/56/2
f 26/50/3 25/49/3 32/57/3 31/58/3
f 28/59/4 27/60/4 30/61/4 29/62/4
f 27/60/5 26/50/5 31/58/5 30/61/5
f 25/49/6 28/63/6 29/64/6 32/57/6
usemtl ModelMaterial.003
f 33/65/13 34/66/13 35/67/13 36/68/13
f 37/69/14 38/70/14 39/71/14 40/72/14
f 34/66/15 33/65/15 40/73/15 39/74/15
f 36/75/16 35/76/16 38/77/16 37/78/16
f 35/76/17 34/66/17 39/74/17 38/77/17
f 33/65/18 36/79/18 37/80/18 40/73/18
usemtl ModelMaterial.005
f 41/81/1 42/82/1 43/83/1 44/84/1
f 45/85/2 46/86/2 47/87/2 48/88/2
f 42/82/3 41/81/3 48/89/3 47/90/3
f 44/91/4 43/92/4 46/93/4 45/94/4
f 43/92/5 42/82/5 47/90/5 46/93/5
f 41/81/6 44/95/6 45/96/6 48/89/6
usemtl ModelMaterial.004
f 49/97/1 50/98/1 51/99/1 52/100/1
f 53/101/2 54/102/2 55/103/2 56/104/2
f 50/98/19 49/97/19 56/105/19 55/106/19
f 52/107/20 51/108/20 54/109/20 53/110/20
f 51/108/21 50/98/21 55/106/21 54/109/21
f 49/97/22 52/111/22 53/112/22 56/105/22
usemtl ModelMaterial.007
f 57/113/1 58/114/1 59/115/1 60/116/1
f 61/117/2 62/118/2 63/119/2 64/120/2
f 58/114/3 57/113/3 64/121/3 63/122/3
f 60/123/4 59/124/4 62/125/4 61/126/4
f 59/124/5 58/114/5 63/122/5 62/125/5
f 57/113/6 60/127/6 61/128/6 64/121/6
usemtl ModelMaterial.006
f 65/129/23 66/130/23 67/131/23 68/132/23
f 69/133/24 70/134/24 71/135/24 72/136/24
f 66/130/25 65/129/25 72/137/25 71/138/25
f 68/139/26 67/140/26 70/141/26 69/142/26
f 67/140/27 66/130/27 71/138/27 70/141/27
f 65/129/28 68/143/28 69/144/28 72/137/28
usemtl ModelMaterial.009
f 73/145/29 74/146/29 75/147/29 76/148/29
f 77/149/30 78/150/30 79/151/30 80/152/30
f 74/146/31 73/145/31 80/153/31 79/154/31
f 76/155/32 75/156/32 78/157/32 77/158/32
f 75/156/33 74/146/33 79/154/33 78/157/33
f 73/145/34 76/159/34 77/160/34 80/153/34
usemtl ModelMaterial.018
f 81/161/1 82/162/1 83/163/1 84/164/1
f 85/165/2 86/166/2 87/167/2 88/168/2
f 82/162/35 81/161/35 88/169/35 87/170/35
f 84/171/36 83/172/36 86/173/36 85/174/36
f 83/172/37 82/162/37 87/170/37 86/173/37
f 81/161/38 84/175/38 85/176/38 88/169/38
usemtl ModelMaterial.017
f 89/177/7 90/178/7 91/179/7 92/180/7
f 93/181/8 94/182/8 95/183/8 96/184/8
f 90/178/9 89/177/9 96/185/9 95/186/9
f 92/187/10 91/188/10 94/189/10 93/190/10
f 91/188/11 90/178/11 95/186/11 94/189/11
f 89/177/12 92/191/12 93/192/12 96/185/12
usemtl ModelMaterial.016
f 97/193/1 98/194/1 99/195/1 100/196/1
f 101/197/2 102/198/2 103/199/2 104/200/2
f 98/194/3 97/193/3 104/201/3 103/202/3
f 100/203/4 99/204/4 102/205/4 101/206/4
f 99/204/5 98/194/5 103/202/5 102/205/5
f 97/193/6 100/207/6 101/208/6 104/201/6
usemtl ModelMaterial.013
f 105/209/1 106/210/1 107/211/1 108/212/1
f 109/213/2 110/214/2 111/215/2 112/216/2
f 106/210/39 105/209/39 112/217/39 111/218/39
f 108/219/40 107/220/40 110/221/40 109/222/40
f 107/220/41 106/210/41 111/218/41 110/221/41
f 105/209/42 108/223/42 109/224/42 112/217/42
usemtl ModelMaterial.012
f 113/225/43 114/226/43 115/227/43 116/228/43
f 117/229/44 118/230/44 119/231/44 120/232/44
f 114/226/45 113/225/45 120/233/45 119/234/45
f 116/235/46 115/236/46 118/237/46 117/238/46
f 115/236/47 114/226/47 119/234/47 118/237/47
f 113/225/48 116/239/48 117/240/48 120/233/48
usemtl ModelMaterial.010
f 121/241/49 122/242/49 123/243/49 124/244/49
f 125/245/50 126/246/50 127/247/50 128/248/50
f 122/242/51 121/241/51 128/249/51 127/250/51
f 124/251/52 123/252/52 126/253/52 125/254/52
f 123/252/53 122/242/53 127/250/53 126/253/53
f 121/241/54 124/255/54 125/256/54 128/249/54
usemtl ModelMaterial.027
f 129/257/55 130/258/55 131/259/55 132/260/55
f 133/261/56 134/262/56 135/263/56 136/264/56
f 130/258/57 129/257/57 136/265/57 135/266/57
f 132/267/58 131/268/58 134/269/58 133/270/58
f 131/268/5 130/258/5 135/266/5 134/269/5
f 129/257/6 132/271/6 133/272/6 136/265/6
usemtl ModelMaterial.022
f 137/273/1 138/274/1 139/275/1 140/276/1
f 141/277/2 142/278/2 143/279/2 144/280/2
f 138/274/3 137/273/3 144/281/3 143/282/3
f 140/283/4 139/284/4 142/285/4 141/286/4
f 139/284/5 138/274/5 143/282/5 142/285/5
f 137/273/6 140/287/6 141/288/6 144/281/6
usemtl ModelMaterial.021
f 145/289/59 146/290/59 147/291/59 148/292/59
f 149/293/60 150/294/60 151/295/60 152/296/60
f 146/290/61 145/289/61 152/297/61 151/298/61
f 148/299/62 147/300/62 150/301/62 149/302/62
f 147/300/5 146/290/5 151/298/5 150/301/5
f 145/289/6 148/303/6 149/304/6 152/297/6
usemtl ModelMaterial.028
f 153/305/63 154/306/63 155/307/63 156/308/63
f 157/309/64 158/310/64 159/311/64 160/312/64
f 154/306/65 153/305/65 160/313/65 159/314/65
f 156/315/66 155/316/66 158/317/66 157/318/66
f 155/316/67 154/306/67 159/314/67 158/317/67
f 153/305/68 156/319/68 157/320/68 160/313/68
usemtl ModelMaterial.029
f 161/321/69 162/322/69 163/323/69 164/324/69
f 165/325/70 166/326/70 167/327/70 168/328/70
f 162/322/71 161/321/71 168/329/71 167/330/71
f 164/331/72 163/332/72 166/333/72 165/334/72
f 163/332/73 162/322/73 167/330/73 166/333/73
f 161/321/74 164/335/74 165/336/74 168/329/74
usemtl ModelMaterial.030
f 169/337/1 170/338/1 171/339/1 172/340/1
f 173/341/2 174/342/2 175/343/2 176/344/2
f 170/338/3 169/337/3 176/345/3 175/346/3
f 172/347/4 171/348/4 174/349/4 173/350/4
f 171/348/5 170/338/5 175/346/5 174/349/5
f 169/337/6 172/351/6 173/352/6 176/345/6
usemtl ModelMaterial.031
f 177/353/75 178/354/75 179/355/75 180/356/75
f 181/357/76 182/358/76 183/359/76 184/360/76
f 178/354/3 177/353/3 184/361/3 183/362/3
f 180/363/4 179/364/4 182/365/4 181/366/4
f 179/364/77 178/354/77 183/362/77 182/365/77
f 177/353/78 180/367/78 181/368/78 184/361/78
usemtl ModelMaterial.032
f 185/369/79 186/370/79 187/371/79 188/372/79
f 189/373/80 190/374/80 191/375/80 192/376/80
f 186/370/81 185/369/81 192/377/81 191/378/81
f 188/379/82 187/380/82 190/381/82 189/382/82
f 187/380/83 186/370/83 191/378/83 190/381/83
f 185/369/84 188/383/84 189/384/84 192/377/84
