# Blender v2.79 (sub 0) OBJ File: ''
# www.blender.org
mtllib trin_modubar_simplecounter_sink.mtl
o trin_modubar_simplecounter_sink
v -0.500000 0.812500 -0.500000
v 0.500000 0.812500 -0.500000
v 0.500000 0.812500 -0.562500
v -0.500000 0.812500 -0.562500
v -0.500000 0.312500 -0.562500
v 0.500000 0.312500 -0.562500
v 0.500000 0.312500 -0.500000
v -0.500000 0.312500 -0.500000
v -0.500000 1.000000 0.437500
v 0.500000 1.000000 0.437500
v 0.500000 1.000000 -0.500000
v -0.500000 1.000000 -0.500000
v -0.500000 0.000000 -0.500000
v 0.500000 0.000000 -0.500000
v 0.500000 -0.000000 0.437500
v -0.500000 -0.000000 0.437500
v -0.375000 1.000000 0.312500
v 0.375000 1.000000 0.312500
v 0.375000 1.000000 -0.187500
v -0.375000 1.000000 -0.187500
v -0.375000 0.750000 -0.187500
v 0.375000 0.750000 -0.187500
v 0.375000 0.750000 0.312500
v -0.375000 0.750000 0.312500
v -0.031250 1.437500 -0.250000
v 0.031250 1.437500 -0.250000
v 0.031250 1.375000 -0.312500
v -0.031250 1.375000 -0.312500
v -0.031250 1.187500 -0.312500
v 0.031250 1.187500 -0.312500
v 0.031250 1.187500 -0.250000
v -0.031250 1.187500 -0.250000
v -0.046875 1.187500 -0.234375
v 0.046875 1.187500 -0.234375
v 0.046875 1.187500 -0.328125
v -0.046875 1.187500 -0.328125
v -0.046875 1.000000 -0.328125
v 0.046875 1.000000 -0.328125
v 0.046875 1.000000 -0.234375
v -0.046875 1.000000 -0.234375
v 0.031250 1.093750 -0.250000
v 0.093750 1.093750 -0.250000
v 0.093750 1.093750 -0.312500
v 0.031250 1.093750 -0.312500
v 0.031250 1.031250 -0.312500
v 0.093750 1.031250 -0.312500
v 0.093750 1.031250 -0.250000
v 0.031250 1.031250 -0.250000
v 0.093750 1.156250 -0.265625
v 0.140625 1.156250 -0.265625
v 0.140625 1.156250 -0.296875
v 0.093750 1.156250 -0.296875
v 0.093750 1.031250 -0.296875
v 0.140625 1.031250 -0.296875
v 0.140625 1.031250 -0.265625
v 0.093750 1.031250 -0.265625
v -0.031250 1.437500 0.000000
v 0.031250 1.437500 0.000000
v 0.031250 1.437500 -0.250000
v -0.031250 1.437500 -0.250000
v -0.031250 1.375000 -0.250000
v 0.031250 1.375000 -0.250000
v 0.031250 1.375000 0.062500
v -0.031250 1.375000 0.062500
v -0.031250 1.375000 0.062500
v 0.031250 1.375000 0.062500
v 0.031250 1.375000 0.000000
v -0.031250 1.375000 0.000000
v -0.031250 1.343750 0.000000
v 0.031250 1.343750 0.000000
v 0.031250 1.343750 0.062500
v -0.031250 1.343750 0.062500
v -0.468750 0.875000 0.453125
v -0.031250 0.875000 0.453125
v -0.031250 0.875000 0.437500
v -0.468750 0.875000 0.437500
v -0.468750 0.125000 0.437500
v -0.031250 0.125000 0.437500
v -0.031250 0.125000 0.453125
v -0.468750 0.125000 0.453125
v -0.406250 0.843750 0.468750
v -0.093750 0.843750 0.468750
v -0.093750 0.843750 0.453125
v -0.406250 0.843750 0.453125
v -0.406250 0.781250 0.453125
v -0.093750 0.781250 0.453125
v -0.093750 0.781250 0.468750
v -0.406250 0.781250 0.468750
v 0.093750 0.843750 0.468750
v 0.406250 0.843750 0.468750
v 0.406250 0.843750 0.453125
v 0.093750 0.843750 0.453125
v 0.093750 0.781250 0.453125
v 0.406250 0.781250 0.453125
v 0.406250 0.781250 0.468750
v 0.093750 0.781250 0.468750
v 0.031250 0.875000 0.453125
v 0.468750 0.875000 0.453125
v 0.468750 0.875000 0.437500
v 0.031250 0.875000 0.437500
v 0.031250 0.125000 0.437500
v 0.468750 0.125000 0.437500
v 0.468750 0.125000 0.453125
v 0.031250 0.125000 0.453125
vt 1.015625 0.968750
vt 1.140625 0.968750
vt 1.140625 0.984375
vt 1.015625 0.984375
vt 1.140625 0.968750
vt 1.265625 0.968750
vt 1.265625 0.984375
vt 1.140625 0.984375
vt 1.015625 0.843750
vt 1.140625 0.843750
vt 1.273438 0.968750
vt 1.148438 0.968750
vt 1.148438 0.843750
vt 1.273438 0.843750
vt 1.007812 0.968750
vt 1.007812 0.843750
vt 1.312500 0.750000
vt 1.437500 0.750000
vt 1.437500 0.984375
vt 1.312500 0.984375
vt 1.437500 0.750000
vt 1.562500 0.750000
vt 1.562500 0.984375
vt 1.437500 0.984375
vt 1.312500 0.500000
vt 1.437500 0.500000
vt 1.679688 0.750000
vt 1.554688 0.750000
vt 1.554688 0.500000
vt 1.679688 0.500000
vt 1.195312 0.750000
vt 1.195312 0.500000
vt 1.632812 0.859375
vt 1.726562 0.859375
vt 1.726562 0.984375
vt 1.632812 0.984375
vt 1.726562 0.859375
vt 1.726562 0.984375
vt 1.820312 0.984375
vt 1.820312 0.859375
vt 1.726562 0.796875
vt 1.632812 0.796875
vt 1.882812 0.859375
vt 1.882812 0.796875
vt 1.789062 0.796875
vt 1.789062 0.859375
vt 1.570312 0.796875
vt 1.570312 0.859375
vt 1.578125 0.968750
vt 1.585938 0.968750
vt 1.585938 0.984375
vt 1.578125 0.984375
vt 1.585938 0.968750
vt 1.593750 0.968750
vt 1.593750 0.984375
vt 1.585938 0.984375
vt 1.578125 0.906250
vt 1.585938 0.906250
vt 1.601562 0.968750
vt 1.593750 0.968750
vt 1.593750 0.906250
vt 1.601562 0.906250
vt 1.570312 0.968750
vt 1.570312 0.906250
vt 1.890625 0.968750
vt 1.898438 0.968750
vt 1.898438 0.984375
vt 1.890625 0.984375
vt 1.898438 0.968750
vt 1.906250 0.968750
vt 1.906250 0.984375
vt 1.898438 0.984375
vt 1.890625 0.921875
vt 1.898438 0.921875
vt 1.914062 0.968750
vt 1.906250 0.968750
vt 1.906250 0.921875
vt 1.914062 0.921875
vt 1.882812 0.968750
vt 1.882812 0.921875
vt 1.953125 0.968750
vt 1.960938 0.968750
vt 1.960938 0.984375
vt 1.953125 0.984375
vt 1.960938 0.968750
vt 1.968750 0.968750
vt 1.968750 0.984375
vt 1.960938 0.984375
vt 1.953125 0.953125
vt 1.960938 0.953125
vt 1.976562 0.968750
vt 1.968750 0.968750
vt 1.968750 0.953125
vt 1.976562 0.953125
vt 1.945312 0.968750
vt 1.945312 0.953125
vt 1.953125 0.843750
vt 1.960938 0.843750
vt 1.960938 0.859375
vt 1.953125 0.859375
vt 1.960938 0.843750
vt 1.968750 0.843750
vt 1.968750 0.859375
vt 1.960938 0.859375
vt 1.953125 0.812500
vt 1.960938 0.812500
vt 1.976562 0.843750
vt 1.968750 0.843750
vt 1.968750 0.812500
vt 1.976562 0.812500
vt 1.945312 0.843750
vt 1.945312 0.812500
vt 1.039062 0.671875
vt 1.046875 0.671875
vt 1.046875 0.734375
vt 1.039062 0.734375
vt 1.046875 0.671875
vt 1.054688 0.671875
vt 1.054688 0.734375
vt 1.046875 0.734375
vt 1.039062 0.656250
vt 1.046875 0.656250
vt 1.085938 0.671875
vt 1.078125 0.671875
vt 1.078125 0.656250
vt 1.085938 0.656250
vt 1.007812 0.671875
vt 1.007812 0.656250
vt 1.078125 0.718750
vt 1.085938 0.718750
vt 1.085938 0.734375
vt 1.078125 0.734375
vt 1.085938 0.718750
vt 1.093750 0.718750
vt 1.093750 0.734375
vt 1.085938 0.734375
vt 1.078125 0.703125
vt 1.085938 0.703125
vt 1.101562 0.718750
vt 1.093750 0.718750
vt 1.093750 0.703125
vt 1.101562 0.703125
vt 1.070312 0.718750
vt 1.070312 0.703125
vt 1.703125 0.718750
vt 1.757812 0.718750
vt 1.757812 0.734375
vt 1.703125 0.734375
vt 1.757812 0.718750
vt 1.812500 0.718750
vt 1.812500 0.734375
vt 1.757812 0.734375
vt 1.703125 0.531250
vt 1.757812 0.531250
vt 1.820312 0.718750
vt 1.765625 0.718750
vt 1.765625 0.531250
vt 1.820312 0.531250
vt 1.695312 0.718750
vt 1.695312 0.531250
vt 1.890625 0.718750
vt 1.929688 0.718750
vt 1.929688 0.734375
vt 1.890625 0.734375
vt 1.929688 0.718750
vt 1.968750 0.718750
vt 1.968750 0.734375
vt 1.929688 0.734375
vt 1.890625 0.703125
vt 1.929688 0.703125
vt 1.976562 0.718750
vt 1.937500 0.718750
vt 1.937500 0.703125
vt 1.976562 0.703125
vt 1.882812 0.718750
vt 1.882812 0.703125
vt 1.015625 0.593750
vt 1.054688 0.593750
vt 1.054688 0.609375
vt 1.015625 0.609375
vt 1.054688 0.593750
vt 1.093750 0.593750
vt 1.093750 0.609375
vt 1.054688 0.609375
vt 1.015625 0.578125
vt 1.054688 0.578125
vt 1.101562 0.593750
vt 1.062500 0.593750
vt 1.062500 0.578125
vt 1.101562 0.578125
vt 1.007812 0.593750
vt 1.007812 0.578125
vt 1.015625 0.468750
vt 1.070312 0.468750
vt 1.070312 0.484375
vt 1.015625 0.484375
vt 1.070312 0.468750
vt 1.125000 0.468750
vt 1.125000 0.484375
vt 1.070312 0.484375
vt 1.015625 0.281250
vt 1.070312 0.281250
vt 1.132812 0.468750
vt 1.078125 0.468750
vt 1.078125 0.281250
vt 1.132812 0.281250
vt 1.007812 0.468750
vt 1.007812 0.281250
vn 0.0000 1.0000 0.0000
vn 0.0000 -1.0000 0.0000
vn 0.0000 -0.0000 1.0000
vn 0.0000 0.0000 -1.0000
vn 1.0000 0.0000 0.0000
vn -1.0000 0.0000 0.0000
vn 0.0000 0.7071 -0.7071
vn 0.0000 0.7071 0.7071
usemtl ModelMaterial.006
s off
f 1/1/1 2/2/1 3/3/1 4/4/1
f 5/5/2 6/6/2 7/7/2 8/8/2
f 2/2/3 1/1/3 8/9/3 7/10/3
f 4/11/4 3/12/4 6/13/4 5/14/4
f 3/12/5 2/2/5 7/10/5 6/13/5
f 1/1/6 4/15/6 5/16/6 8/9/6
f 9/17/1 10/18/1 11/19/1 12/20/1
f 13/21/2 14/22/2 15/23/2 16/24/2
f 10/18/3 9/17/3 16/25/3 15/26/3
f 12/27/4 11/28/4 14/29/4 13/30/4
f 11/28/5 10/18/5 15/26/5 14/29/5
f 9/17/6 12/31/6 13/32/6 16/25/6
f 17/33/1 18/34/1 19/35/1 20/36/1
f 21/37/1 24/38/1 23/39/1 22/40/1
f 18/34/4 23/41/4 24/42/4 17/33/4
f 20/43/3 21/44/3 22/45/3 19/46/3
f 19/46/6 22/45/6 23/41/6 18/34/6
f 17/33/5 24/42/5 21/47/5 20/48/5
f 25/49/7 26/50/7 27/51/7 28/52/7
f 29/53/2 30/54/2 31/55/2 32/56/2
f 26/50/3 25/49/3 32/57/3 31/58/3
f 28/59/4 27/60/4 30/61/4 29/62/4
f 27/60/5 26/50/5 31/58/5 30/61/5
f 25/49/6 28/63/6 29/64/6 32/57/6
f 33/65/1 34/66/1 35/67/1 36/68/1
f 37/69/2 38/70/2 39/71/2 40/72/2
f 34/66/3 33/65/3 40/73/3 39/74/3
f 36/75/4 35/76/4 38/77/4 37/78/4
f 35/76/5 34/66/5 39/74/5 38/77/5
f 33/65/6 36/79/6 37/80/6 40/73/6
f 41/81/1 42/82/1 43/83/1 44/84/1
f 45/85/2 46/86/2 47/87/2 48/88/2
f 42/82/3 41/81/3 48/89/3 47/90/3
f 44/91/4 43/92/4 46/93/4 45/94/4
f 43/92/5 42/82/5 47/90/5 46/93/5
f 41/81/6 44/95/6 45/96/6 48/89/6
f 49/97/1 50/98/1 51/99/1 52/100/1
f 53/101/2 54/102/2 55/103/2 56/104/2
f 50/98/3 49/97/3 56/105/3 55/106/3
f 52/107/4 51/108/4 54/109/4 53/110/4
f 51/108/5 50/98/5 55/106/5 54/109/5
f 49/97/6 52/111/6 53/112/6 56/105/6
f 57/113/1 58/114/1 59/115/1 60/116/1
f 61/117/2 62/118/2 63/119/2 64/120/2
f 58/114/8 57/113/8 64/121/8 63/122/8
f 60/123/4 59/124/4 62/125/4 61/126/4
f 59/124/5 58/114/5 63/122/5 62/125/5
f 57/113/6 60/127/6 61/128/6 64/121/6
f 65/129/1 66/130/1 67/131/1 68/132/1
f 69/133/2 70/134/2 71/135/2 72/136/2
f 66/130/3 65/129/3 72/137/3 71/138/3
f 68/139/4 67/140/4 70/141/4 69/142/4
f 67/140/5 66/130/5 71/138/5 70/141/5
f 65/129/6 68/143/6 69/144/6 72/137/6
f 73/145/1 74/146/1 75/147/1 76/148/1
f 77/149/2 78/150/2 79/151/2 80/152/2
f 74/146/3 73/145/3 80/153/3 79/154/3
f 76/155/4 75/156/4 78/157/4 77/158/4
f 75/156/5 74/146/5 79/154/5 78/157/5
f 73/145/6 76/159/6 77/160/6 80/153/6
f 81/161/1 82/162/1 83/163/1 84/164/1
f 85/165/2 86/166/2 87/167/2 88/168/2
f 82/162/3 81/161/3 88/169/3 87/170/3
f 84/171/4 83/172/4 86/173/4 85/174/4
f 83/172/5 82/162/5 87/170/5 86/173/5
f 81/161/6 84/175/6 85/176/6 88/169/6
f 89/177/1 90/178/1 91/179/1 92/180/1
f 93/181/2 94/182/2 95/183/2 96/184/2
f 90/178/3 89/177/3 96/185/3 95/186/3
f 92/187/4 91/188/4 94/189/4 93/190/4
f 91/188/5 90/178/5 95/186/5 94/189/5
f 89/177/6 92/191/6 93/192/6 96/185/6
f 97/193/1 98/194/1 99/195/1 100/196/1
f 101/197/2 102/198/2 103/199/2 104/200/2
f 98/194/3 97/193/3 104/201/3 103/202/3
f 100/203/4 99/204/4 102/205/4 101/206/4
f 99/204/5 98/194/5 103/202/5 102/205/5
f 97/193/6 100/207/6 101/208/6 104/201/6
