# Blender v2.79 (sub 0) OBJ File: ''
# www.blender.org
mtllib trin_modubar_counterexpansion_tripple.mtl
o trin_modubar_counterexpansion_tripple
v -1.500000 0.375000 -0.375000
v 1.500000 0.375000 -0.375000
v 1.500000 0.375000 -0.500000
v -1.500000 0.375000 -0.500000
v -1.500000 0.000000 -0.500000
v 1.500000 0.000000 -0.500000
v 1.500000 0.000000 -0.375000
v -1.500000 0.000000 -0.375000
v -1.500000 0.437500 -0.312500
v 1.500000 0.437500 -0.312500
v 1.500000 0.437500 -0.687500
v -1.500000 0.437500 -0.687500
v -1.500000 0.375000 -0.687500
v 1.500000 0.375000 -0.687500
v 1.500000 0.375000 -0.312500
v -1.500000 0.375000 -0.312500
vt 1.023438 0.906250
vt 1.398438 0.906250
vt 1.398438 0.968750
vt 1.023438 0.968750
vt 1.398438 0.906250
vt 1.773438 0.906250
vt 1.773438 0.968750
vt 1.398438 0.968750
vt 1.023438 0.718750
vt 1.398438 0.718750
vt 1.789062 0.906250
vt 1.414062 0.906250
vt 1.414062 0.718750
vt 1.789062 0.718750
vt 1.007812 0.906250
vt 1.007812 0.718750
vt 1.054688 0.281250
vt 1.429688 0.281250
vt 1.429688 0.468750
vt 1.054688 0.468750
vt 1.429688 0.281250
vt 1.804688 0.281250
vt 1.804688 0.468750
vt 1.429688 0.468750
vt 1.054688 0.250000
vt 1.429688 0.250000
vt 1.851562 0.281250
vt 1.476562 0.281250
vt 1.476562 0.250000
vt 1.851562 0.250000
vt 1.007812 0.281250
vt 1.007812 0.250000
vn 0.0000 1.0000 0.0000
vn 0.0000 -1.0000 -0.0000
vn 0.0000 -0.0000 1.0000
vn 0.0000 0.0000 -1.0000
vn 1.0000 0.0000 0.0000
vn -1.0000 0.0000 0.0000
usemtl ModelMaterial
s off
f 1/1/1 2/2/1 3/3/1 4/4/1
f 5/5/2 6/6/2 7/7/2 8/8/2
f 2/2/3 1/1/3 8/9/3 7/10/3
f 4/11/4 3/12/4 6/13/4 5/14/4
f 3/12/5 2/2/5 7/10/5 6/13/5
f 1/1/6 4/15/6 5/16/6 8/9/6
f 9/17/1 10/18/1 11/19/1 12/20/1
f 13/21/2 14/22/2 15/23/2 16/24/2
f 10/18/3 9/17/3 16/25/3 15/26/3
f 12/27/4 11/28/4 14/29/4 13/30/4
f 11/28/5 10/18/5 15/26/5 14/29/5
f 9/17/6 12/31/6 13/32/6 16/25/6
