# Blender v2.79 (sub 0) OBJ File: ''
# www.blender.org
mtllib trin_modubar_simplecounter_filledfrige.mtl
o counterMain
v -0.500000 0.812500 -0.500000
v 0.500000 0.812500 -0.500000
v 0.500000 0.812500 -0.562500
v -0.500000 0.812500 -0.562500
v -0.500000 0.312500 -0.562500
v 0.500000 0.312500 -0.562500
v 0.500000 0.312500 -0.500000
v -0.500000 0.312500 -0.500000
v -0.500000 0.812500 -0.437500
v 0.500000 0.812500 -0.437500
v 0.500000 0.812500 -0.500000
v -0.500000 0.812500 -0.500000
v -0.500000 0.000000 -0.500000
v 0.500000 0.000000 -0.500000
v 0.500000 0.000000 -0.437500
v -0.500000 0.000000 -0.437500
v -0.500000 1.000000 0.437500
v 0.500000 1.000000 0.437500
v 0.500000 1.000000 -0.500000
v -0.500000 1.000000 -0.500000
v -0.500000 0.812500 -0.500000
v 0.500000 0.812500 -0.500000
v 0.500000 0.812500 0.437500
v -0.500000 0.812500 0.437500
v 0.437500 0.812500 0.437500
v 0.500000 0.812500 0.437500
v 0.500000 0.812500 -0.437500
v 0.437500 0.812500 -0.437500
v 0.437500 0.125000 -0.437500
v 0.500000 0.125000 -0.437500
v 0.500000 0.125000 0.437500
v 0.437500 0.125000 0.437500
v -0.500000 0.812500 0.437500
v -0.437500 0.812500 0.437500
v -0.437500 0.812500 -0.437500
v -0.500000 0.812500 -0.437500
v -0.500000 0.125000 -0.437500
v -0.437500 0.125000 -0.437500
v -0.437500 0.125000 0.437500
v -0.500000 0.125000 0.437500
v -0.500000 0.125000 0.437500
v 0.500000 0.125000 0.437500
v 0.500000 0.125000 -0.437500
v -0.500000 0.125000 -0.437500
v -0.500000 0.000000 -0.437500
v 0.500000 0.000000 -0.437500
v 0.500000 -0.000000 0.437500
v -0.500000 -0.000000 0.437500
v -0.437500 0.500000 0.312500
v 0.437500 0.500000 0.312500
v 0.437500 0.500000 -0.437500
v -0.437500 0.500000 -0.437500
v -0.437500 0.437500 -0.437500
v 0.437500 0.437500 -0.437500
v 0.437500 0.437500 0.312500
v -0.437500 0.437500 0.312500
v -0.468750 0.812500 0.453125
v -0.437500 0.812500 0.453125
v -0.437500 0.812500 0.437500
v -0.468750 0.812500 0.437500
v -0.468750 0.125000 0.437500
v -0.437500 0.125000 0.437500
v -0.437500 0.125000 0.453125
v -0.468750 0.125000 0.453125
v 0.437500 0.812500 0.453125
v 0.468750 0.812500 0.453125
v 0.468750 0.812500 0.437500
v 0.437500 0.812500 0.437500
v 0.437500 0.125000 0.437500
v 0.468750 0.125000 0.437500
v 0.468750 0.125000 0.453125
v 0.437500 0.125000 0.453125
vt 1.015625 0.968750
vt 1.140625 0.968750
vt 1.140625 0.984375
vt 1.015625 0.984375
vt 1.140625 0.968750
vt 1.265625 0.968750
vt 1.265625 0.984375
vt 1.140625 0.984375
vt 1.015625 0.843750
vt 1.140625 0.843750
vt 1.273438 0.968750
vt 1.148438 0.968750
vt 1.148438 0.843750
vt 1.273438 0.843750
vt 1.007812 0.968750
vt 1.007812 0.843750
vt 1.328125 0.968750
vt 1.453125 0.968750
vt 1.453125 0.984375
vt 1.328125 0.984375
vt 1.453125 0.968750
vt 1.578125 0.968750
vt 1.578125 0.984375
vt 1.453125 0.984375
vt 1.328125 0.765625
vt 1.453125 0.765625
vt 1.585938 0.968750
vt 1.460938 0.968750
vt 1.460938 0.765625
vt 1.585938 0.765625
vt 1.320312 0.968750
vt 1.320312 0.765625
vt 1.625000 0.750000
vt 1.750000 0.750000
vt 1.750000 0.984375
vt 1.625000 0.984375
vt 1.750000 0.750000
vt 1.875000 0.750000
vt 1.875000 0.984375
vt 1.750000 0.984375
vt 1.625000 0.703125
vt 1.750000 0.703125
vt 1.992188 0.750000
vt 1.867188 0.750000
vt 1.867188 0.703125
vt 1.992188 0.703125
vt 1.507812 0.750000
vt 1.507812 0.703125
vt 1.117188 0.515625
vt 1.125000 0.515625
vt 1.125000 0.734375
vt 1.117188 0.734375
vt 1.125000 0.515625
vt 1.132812 0.515625
vt 1.132812 0.734375
vt 1.125000 0.734375
vt 1.117188 0.343750
vt 1.125000 0.343750
vt 1.242188 0.515625
vt 1.234375 0.515625
vt 1.234375 0.343750
vt 1.242188 0.343750
vt 1.007812 0.515625
vt 1.007812 0.343750
vt 1.367188 0.515625
vt 1.375000 0.515625
vt 1.375000 0.734375
vt 1.367188 0.734375
vt 1.375000 0.515625
vt 1.382812 0.515625
vt 1.382812 0.734375
vt 1.375000 0.734375
vt 1.367188 0.343750
vt 1.375000 0.343750
vt 1.492188 0.515625
vt 1.484375 0.515625
vt 1.484375 0.343750
vt 1.492188 0.343750
vt 1.257812 0.515625
vt 1.257812 0.343750
vt 1.617188 0.390625
vt 1.742188 0.390625
vt 1.742188 0.609375
vt 1.617188 0.609375
vt 1.742188 0.390625
vt 1.867188 0.390625
vt 1.867188 0.609375
vt 1.742188 0.609375
vt 1.617188 0.359375
vt 1.742188 0.359375
vt 1.976562 0.390625
vt 1.851562 0.390625
vt 1.851562 0.359375
vt 1.976562 0.359375
vt 1.507812 0.390625
vt 1.507812 0.359375
vt 1.101562 0.046875
vt 1.210938 0.046875
vt 1.210938 0.234375
vt 1.101562 0.234375
vt 1.210938 0.046875
vt 1.320312 0.046875
vt 1.320312 0.234375
vt 1.210938 0.234375
vt 1.101562 0.031250
vt 1.210938 0.031250
vt 1.414062 0.046875
vt 1.304688 0.046875
vt 1.304688 0.031250
vt 1.414062 0.031250
vt 1.007812 0.046875
vt 1.007812 0.031250
vt 1.015625 0.718750
vt 1.023438 0.718750
vt 1.023438 0.734375
vt 1.015625 0.734375
vt 1.023438 0.718750
vt 1.031250 0.718750
vt 1.031250 0.734375
vt 1.023438 0.734375
vt 1.015625 0.546875
vt 1.023438 0.546875
vt 1.039062 0.718750
vt 1.031250 0.718750
vt 1.031250 0.546875
vt 1.039062 0.546875
vt 1.007812 0.718750
vt 1.007812 0.546875
vt 1.078125 0.718750
vt 1.085938 0.718750
vt 1.085938 0.734375
vt 1.078125 0.734375
vt 1.085938 0.718750
vt 1.093750 0.718750
vt 1.093750 0.734375
vt 1.085938 0.734375
vt 1.078125 0.546875
vt 1.085938 0.546875
vt 1.101562 0.718750
vt 1.093750 0.718750
vt 1.093750 0.546875
vt 1.101562 0.546875
vt 1.070312 0.718750
vt 1.070312 0.546875
vn 0.0000 1.0000 0.0000
vn 0.0000 -1.0000 0.0000
vn 0.0000 -0.0000 1.0000
vn 0.0000 0.0000 -1.0000
vn 1.0000 0.0000 0.0000
vn -1.0000 0.0000 0.0000
usemtl ModelMaterial
s 1
f 1/1/1 2/2/1 3/3/1 4/4/1
f 5/5/2 6/6/2 7/7/2 8/8/2
f 2/2/3 1/1/3 8/9/3 7/10/3
f 4/11/4 3/12/4 6/13/4 5/14/4
f 3/12/5 2/2/5 7/10/5 6/13/5
f 1/1/6 4/15/6 5/16/6 8/9/6
f 9/17/1 10/18/1 11/19/1 12/20/1
f 13/21/2 14/22/2 15/23/2 16/24/2
f 10/18/3 9/17/3 16/25/3 15/26/3
f 12/27/4 11/28/4 14/29/4 13/30/4
f 11/28/5 10/18/5 15/26/5 14/29/5
f 9/17/6 12/31/6 13/32/6 16/25/6
f 17/33/1 18/34/1 19/35/1 20/36/1
f 21/37/2 22/38/2 23/39/2 24/40/2
f 18/34/3 17/33/3 24/41/3 23/42/3
f 20/43/4 19/44/4 22/45/4 21/46/4
f 19/44/5 18/34/5 23/42/5 22/45/5
f 17/33/6 20/47/6 21/48/6 24/41/6
f 25/49/1 26/50/1 27/51/1 28/52/1
f 29/53/2 30/54/2 31/55/2 32/56/2
f 26/50/3 25/49/3 32/57/3 31/58/3
f 28/59/4 27/60/4 30/61/4 29/62/4
f 27/60/5 26/50/5 31/58/5 30/61/5
f 25/49/6 28/63/6 29/64/6 32/57/6
f 33/65/1 34/66/1 35/67/1 36/68/1
f 37/69/2 38/70/2 39/71/2 40/72/2
f 34/66/3 33/65/3 40/73/3 39/74/3
f 36/75/4 35/76/4 38/77/4 37/78/4
f 35/76/5 34/66/5 39/74/5 38/77/5
f 33/65/6 36/79/6 37/80/6 40/73/6
f 41/81/1 42/82/1 43/83/1 44/84/1
f 45/85/2 46/86/2 47/87/2 48/88/2
f 42/82/3 41/81/3 48/89/3 47/90/3
f 44/91/4 43/92/4 46/93/4 45/94/4
f 43/92/5 42/82/5 47/90/5 46/93/5
f 41/81/6 44/95/6 45/96/6 48/89/6
f 49/97/1 50/98/1 51/99/1 52/100/1
f 53/101/2 54/102/2 55/103/2 56/104/2
f 50/98/3 49/97/3 56/105/3 55/106/3
f 52/107/4 51/108/4 54/109/4 53/110/4
f 51/108/5 50/98/5 55/106/5 54/109/5
f 49/97/6 52/111/6 53/112/6 56/105/6
f 57/113/1 58/114/1 59/115/1 60/116/1
f 61/117/2 62/118/2 63/119/2 64/120/2
f 58/114/3 57/113/3 64/121/3 63/122/3
f 60/123/4 59/124/4 62/125/4 61/126/4
f 59/124/5 58/114/5 63/122/5 62/125/5
f 57/113/6 60/127/6 61/128/6 64/121/6
f 65/129/1 66/130/1 67/131/1 68/132/1
f 69/133/2 70/134/2 71/135/2 72/136/2
f 66/130/3 65/129/3 72/137/3 71/138/3
f 68/139/4 67/140/4 70/141/4 69/142/4
f 67/140/5 66/130/5 71/138/5 70/141/5
f 65/129/6 68/143/6 69/144/6 72/137/6
o bottles_translucent
v -0.265838 0.406250 0.228759
v -0.208741 0.406250 0.203338
v -0.234162 0.406250 0.146241
v -0.291259 0.406250 0.171662
v -0.291259 0.375000 0.171662
v -0.234162 0.375000 0.146241
v -0.208741 0.375000 0.203338
v -0.265838 0.375000 0.228759
v -0.294386 0.375000 0.241469
v -0.180193 0.375000 0.190627
v -0.205614 0.375000 0.133531
v -0.319807 0.375000 0.184373
v -0.383259 0.312500 0.195520
v -0.154873 0.312500 0.093836
v -0.116741 0.312500 0.179480
v -0.345127 0.312500 0.281165
v -0.345127 0.312500 0.281165
v -0.116741 0.312500 0.179480
v -0.154873 0.312500 0.093836
v -0.383259 0.312500 0.195520
v -0.383259 0.187500 0.195520
v -0.154873 0.187500 0.093836
v -0.116741 0.187500 0.179480
v -0.345127 0.187500 0.281165
v -0.345127 0.187500 0.281165
v -0.116741 0.187500 0.179480
v -0.154873 0.187500 0.093836
v -0.383259 0.187500 0.195520
v -0.348355 0.125000 0.197083
v -0.177066 0.125000 0.120820
v -0.151645 0.125000 0.177917
v -0.322934 0.125000 0.254180
v -0.029572 0.406250 0.220343
v 0.032843 0.406250 0.217072
v 0.029572 0.406250 0.154657
v -0.032843 0.406250 0.157928
v -0.032843 0.375000 0.157928
v 0.029572 0.375000 0.154657
v 0.032843 0.375000 0.217072
v -0.029572 0.375000 0.220343
v -0.059143 0.375000 0.253185
v 0.065685 0.375000 0.246643
v 0.059143 0.375000 0.121815
v -0.065685 0.375000 0.128357
v -0.065685 0.125000 0.128357
v 0.059143 0.125000 0.121815
v 0.065685 0.125000 0.246643
v -0.059143 0.125000 0.253185
v 0.154657 0.406250 0.217072
v 0.217072 0.406250 0.220343
v 0.220343 0.406250 0.157928
v 0.157928 0.406250 0.154657
v 0.157928 0.375000 0.154657
v 0.220343 0.375000 0.157928
v 0.217072 0.375000 0.220343
v 0.154657 0.375000 0.217072
v 0.121815 0.375000 0.246643
v 0.246643 0.375000 0.253185
v 0.253185 0.375000 0.128357
v 0.128357 0.375000 0.121815
v 0.128357 0.125000 0.121815
v 0.253185 0.125000 0.128357
v 0.246643 0.125000 0.253185
v 0.121815 0.125000 0.246643
v -0.282843 0.781250 0.154572
v -0.220428 0.781250 0.157843
v -0.217157 0.781250 0.095428
v -0.279572 0.781250 0.092157
v -0.279572 0.750000 0.092157
v -0.217157 0.750000 0.095428
v -0.220428 0.750000 0.157843
v -0.282843 0.750000 0.154572
v -0.315685 0.750000 0.184143
v -0.190857 0.750000 0.190685
v -0.184315 0.750000 0.065857
v -0.309143 0.750000 0.059315
v -0.309143 0.500000 0.059315
v -0.184315 0.500000 0.065857
v -0.190857 0.500000 0.190685
v -0.315685 0.500000 0.184143
v 0.087936 0.781250 0.149070
v 0.149070 0.781250 0.162064
v 0.162064 0.781250 0.100930
v 0.100930 0.781250 0.087936
v 0.100930 0.750000 0.087936
v 0.162064 0.750000 0.100930
v 0.149070 0.750000 0.162064
v 0.087936 0.750000 0.149070
v 0.050871 0.750000 0.173140
v 0.173140 0.750000 0.199129
v 0.199129 0.750000 0.076860
v 0.076860 0.750000 0.050871
v 0.015726 0.687500 0.037877
v 0.260263 0.687500 0.089855
v 0.234274 0.687500 0.212123
v -0.010263 0.687500 0.160145
v -0.010263 0.687500 0.160145
v 0.234274 0.687500 0.212123
v 0.260263 0.687500 0.089855
v 0.015726 0.687500 0.037877
v 0.015726 0.500000 0.037877
v 0.260263 0.500000 0.089855
v 0.234274 0.500000 0.212123
v -0.010263 0.500000 0.160145
vt 1.453125 0.718750
vt 1.460938 0.718750
vt 1.460938 0.734375
vt 1.453125 0.734375
vt 1.460938 0.718750
vt 1.468750 0.718750
vt 1.468750 0.734375
vt 1.460938 0.734375
vt 1.453125 0.703125
vt 1.460938 0.703125
vt 1.476562 0.718750
vt 1.468750 0.718750
vt 1.468750 0.703125
vt 1.476562 0.703125
vt 1.445312 0.718750
vt 1.445312 0.703125
vt 1.453125 0.593750
vt 1.468750 0.593750
vt 1.468750 0.609375
vt 1.453125 0.609375
vt 1.468750 0.593750
vt 1.484375 0.593750
vt 1.484375 0.609375
vt 1.468750 0.609375
vt 1.453125 0.578125
vt 1.468750 0.578125
vt 1.492188 0.593750
vt 1.476562 0.593750
vt 1.476562 0.578125
vt 1.492188 0.578125
vt 1.445312 0.593750
vt 1.445312 0.578125
vt 1.515625 0.593750
vt 1.546875 0.593750
vt 1.546875 0.609375
vt 1.515625 0.609375
vt 1.546875 0.593750
vt 1.578125 0.593750
vt 1.578125 0.609375
vt 1.546875 0.609375
vt 1.515625 0.562500
vt 1.546875 0.562500
vt 1.585938 0.593750
vt 1.554688 0.593750
vt 1.554688 0.562500
vt 1.585938 0.562500
vt 1.507812 0.593750
vt 1.507812 0.562500
vt 1.890625 0.593750
vt 1.921875 0.593750
vt 1.921875 0.609375
vt 1.890625 0.609375
vt 1.921875 0.593750
vt 1.953125 0.593750
vt 1.953125 0.609375
vt 1.921875 0.609375
vt 1.890625 0.578125
vt 1.921875 0.578125
vt 1.960938 0.593750
vt 1.929688 0.593750
vt 1.929688 0.578125
vt 1.960938 0.578125
vt 1.882812 0.593750
vt 1.882812 0.578125
vt 1.515625 0.468750
vt 1.523438 0.468750
vt 1.523438 0.484375
vt 1.515625 0.484375
vt 1.523438 0.468750
vt 1.531250 0.468750
vt 1.531250 0.484375
vt 1.523438 0.484375
vt 1.515625 0.453125
vt 1.523438 0.453125
vt 1.539062 0.468750
vt 1.531250 0.468750
vt 1.531250 0.453125
vt 1.539062 0.453125
vt 1.507812 0.468750
vt 1.507812 0.453125
vt 1.023438 0.203125
vt 1.039062 0.203125
vt 1.039062 0.234375
vt 1.023438 0.234375
vt 1.039062 0.203125
vt 1.054688 0.203125
vt 1.054688 0.234375
vt 1.039062 0.234375
vt 1.023438 0.140625
vt 1.039062 0.140625
vt 1.070312 0.203125
vt 1.054688 0.203125
vt 1.054688 0.140625
vt 1.070312 0.140625
vt 1.007812 0.203125
vt 1.007812 0.140625
vt 1.578125 0.468750
vt 1.585938 0.468750
vt 1.585938 0.484375
vt 1.578125 0.484375
vt 1.585938 0.468750
vt 1.593750 0.468750
vt 1.593750 0.484375
vt 1.585938 0.484375
vt 1.578125 0.453125
vt 1.585938 0.453125
vt 1.601562 0.468750
vt 1.593750 0.468750
vt 1.593750 0.453125
vt 1.601562 0.453125
vt 1.570312 0.468750
vt 1.570312 0.453125
vt 1.648438 0.203125
vt 1.664062 0.203125
vt 1.664062 0.234375
vt 1.648438 0.234375
vt 1.664062 0.203125
vt 1.679688 0.203125
vt 1.679688 0.234375
vt 1.664062 0.234375
vt 1.648438 0.140625
vt 1.664062 0.140625
vt 1.695312 0.203125
vt 1.679688 0.203125
vt 1.679688 0.140625
vt 1.695312 0.140625
vt 1.632812 0.203125
vt 1.632812 0.140625
vt 1.890625 0.468750
vt 1.898438 0.468750
vt 1.898438 0.484375
vt 1.890625 0.484375
vt 1.898438 0.468750
vt 1.906250 0.468750
vt 1.906250 0.484375
vt 1.898438 0.484375
vt 1.890625 0.453125
vt 1.898438 0.453125
vt 1.914062 0.468750
vt 1.906250 0.468750
vt 1.906250 0.453125
vt 1.914062 0.453125
vt 1.882812 0.468750
vt 1.882812 0.453125
vt 1.773438 0.203125
vt 1.789062 0.203125
vt 1.789062 0.234375
vt 1.773438 0.234375
vt 1.789062 0.203125
vt 1.804688 0.203125
vt 1.804688 0.234375
vt 1.789062 0.234375
vt 1.773438 0.140625
vt 1.789062 0.140625
vt 1.820312 0.203125
vt 1.804688 0.203125
vt 1.804688 0.140625
vt 1.820312 0.140625
vt 1.757812 0.203125
vt 1.757812 0.140625
vt 1.953125 0.468750
vt 1.960938 0.468750
vt 1.960938 0.484375
vt 1.953125 0.484375
vt 1.960938 0.468750
vt 1.968750 0.468750
vt 1.968750 0.484375
vt 1.960938 0.484375
vt 1.953125 0.453125
vt 1.960938 0.453125
vt 1.976562 0.468750
vt 1.968750 0.468750
vt 1.968750 0.453125
vt 1.976562 0.453125
vt 1.945312 0.468750
vt 1.945312 0.453125
vt 1.898438 0.203125
vt 1.914062 0.203125
vt 1.914062 0.234375
vt 1.898438 0.234375
vt 1.914062 0.203125
vt 1.929688 0.203125
vt 1.929688 0.234375
vt 1.914062 0.234375
vt 1.898438 0.187500
vt 1.914062 0.187500
vt 1.945312 0.203125
vt 1.929688 0.203125
vt 1.929688 0.187500
vt 1.945312 0.187500
vt 1.882812 0.203125
vt 1.882812 0.187500
vt 1.648438 0.078125
vt 1.679688 0.078125
vt 1.679688 0.109375
vt 1.648438 0.109375
vt 1.679688 0.078125
vt 1.710938 0.078125
vt 1.710938 0.109375
vt 1.679688 0.109375
vt 1.648438 0.031250
vt 1.679688 0.031250
vt 1.726562 0.078125
vt 1.695312 0.078125
vt 1.695312 0.031250
vt 1.726562 0.031250
vt 1.632812 0.078125
vt 1.632812 0.031250
vn 0.0000 1.0000 0.0000
vn 0.0000 -1.0000 0.0000
vn 0.4067 0.0000 0.9135
vn -0.4067 0.0000 -0.9135
vn 0.9135 0.0000 -0.4067
vn -0.9135 0.0000 0.4067
vn 0.3946 0.2425 0.8863
vn -0.3946 0.2425 -0.8863
vn 0.6460 0.7071 -0.2876
vn -0.6460 0.7071 0.2876
vn 0.3946 -0.2425 0.8863
vn -0.3946 -0.2425 -0.8863
vn 0.8171 -0.4472 -0.3638
vn -0.8171 -0.4472 0.3638
vn 0.0523 0.0000 0.9986
vn -0.0523 0.0000 -0.9986
vn 0.9986 0.0000 -0.0523
vn -0.9986 0.0000 0.0523
vn -0.0523 0.0000 0.9986
vn 0.0523 0.0000 -0.9986
vn 0.9986 0.0000 0.0523
vn -0.9986 0.0000 -0.0523
vn -0.2079 -0.0000 0.9781
vn 0.2079 0.0000 -0.9781
vn 0.9781 0.0000 0.2079
vn -0.9781 0.0000 -0.2079
vn 0.6917 0.7071 0.1470
vn -0.6917 0.7071 -0.1470
usemtl ModelMaterial.008
s 1
f 73/145/7 74/146/7 75/147/7 76/148/7
f 77/149/8 78/150/8 79/151/8 80/152/8
f 74/146/9 73/145/9 80/153/9 79/154/9
f 76/155/10 75/156/10 78/157/10 77/158/10
f 75/156/11 74/146/11 79/154/11 78/157/11
f 73/145/12 76/159/12 77/160/12 80/153/12
f 81/161/7 82/162/7 83/163/7 84/164/7
f 85/165/8 86/166/8 87/167/8 88/168/8
f 82/162/13 81/161/13 88/169/13 87/170/13
f 84/171/14 83/172/14 86/173/14 85/174/14
f 83/172/15 82/162/15 87/170/15 86/173/15
f 81/161/16 84/175/16 85/176/16 88/169/16
f 89/177/7 90/178/7 91/179/7 92/180/7
f 93/181/8 94/182/8 95/183/8 96/184/8
f 90/178/9 89/177/9 96/185/9 95/186/9
f 92/187/10 91/188/10 94/189/10 93/190/10
f 91/188/11 90/178/11 95/186/11 94/189/11
f 89/177/12 92/191/12 93/192/12 96/185/12
f 97/193/7 98/194/7 99/195/7 100/196/7
f 101/197/8 102/198/8 103/199/8 104/200/8
f 98/194/17 97/193/17 104/201/17 103/202/17
f 100/203/18 99/204/18 102/205/18 101/206/18
f 99/204/19 98/194/19 103/202/19 102/205/19
f 97/193/20 100/207/20 101/208/20 104/201/20
f 105/209/7 106/210/7 107/211/7 108/212/7
f 109/213/8 110/214/8 111/215/8 112/216/8
f 106/210/21 105/209/21 112/217/21 111/218/21
f 108/219/22 107/220/22 110/221/22 109/222/22
f 107/220/23 106/210/23 111/218/23 110/221/23
f 105/209/24 108/223/24 109/224/24 112/217/24
f 113/225/7 114/226/7 115/227/7 116/228/7
f 117/229/8 118/230/8 119/231/8 120/232/8
f 114/226/21 113/225/21 120/233/21 119/234/21
f 116/235/22 115/236/22 118/237/22 117/238/22
f 115/236/23 114/226/23 119/234/23 118/237/23
f 113/225/24 116/239/24 117/240/24 120/233/24
f 121/241/7 122/242/7 123/243/7 124/244/7
f 125/245/8 126/246/8 127/247/8 128/248/8
f 122/242/25 121/241/25 128/249/25 127/250/25
f 124/251/26 123/252/26 126/253/26 125/254/26
f 123/252/27 122/242/27 127/250/27 126/253/27
f 121/241/28 124/255/28 125/256/28 128/249/28
f 129/257/7 130/258/7 131/259/7 132/260/7
f 133/261/8 134/262/8 135/263/8 136/264/8
f 130/258/25 129/257/25 136/265/25 135/266/25
f 132/267/26 131/268/26 134/269/26 133/270/26
f 131/268/27 130/258/27 135/266/27 134/269/27
f 129/257/28 132/271/28 133/272/28 136/265/28
f 137/273/7 138/274/7 139/275/7 140/276/7
f 141/277/8 142/278/8 143/279/8 144/280/8
f 138/274/25 137/273/25 144/281/25 143/282/25
f 140/283/26 139/284/26 142/285/26 141/286/26
f 139/284/27 138/274/27 143/282/27 142/285/27
f 137/273/28 140/287/28 141/288/28 144/281/28
f 145/289/7 146/290/7 147/291/7 148/292/7
f 149/293/8 150/294/8 151/295/8 152/296/8
f 146/290/25 145/289/25 152/297/25 151/298/25
f 148/299/26 147/300/26 150/301/26 149/302/26
f 147/300/27 146/290/27 151/298/27 150/301/27
f 145/289/28 148/303/28 149/304/28 152/297/28
f 153/305/7 154/306/7 155/307/7 156/308/7
f 157/309/8 158/310/8 159/311/8 160/312/8
f 154/306/29 153/305/29 160/313/29 159/314/29
f 156/315/30 155/316/30 158/317/30 157/318/30
f 155/316/31 154/306/31 159/314/31 158/317/31
f 153/305/32 156/319/32 157/320/32 160/313/32
f 161/321/7 162/322/7 163/323/7 164/324/7
f 165/325/8 166/326/8 167/327/8 168/328/8
f 162/322/29 161/321/29 168/329/29 167/330/29
f 164/331/30 163/332/30 166/333/30 165/334/30
f 163/332/33 162/322/33 167/330/33 166/333/33
f 161/321/34 164/335/34 165/336/34 168/329/34
f 169/337/7 170/338/7 171/339/7 172/340/7
f 173/341/8 174/342/8 175/343/8 176/344/8
f 170/338/29 169/337/29 176/345/29 175/346/29
f 172/347/30 171/348/30 174/349/30 173/350/30
f 171/348/31 170/338/31 175/346/31 174/349/31
f 169/337/32 172/351/32 173/352/32 176/345/32
o doorLeft_translucent_doorLeft_translucent
v -0.437500 0.812500 0.453125
v 0.000000 0.812500 0.453125
v 0.000000 0.812500 0.437500
v -0.437500 0.812500 0.437500
v -0.437500 0.125000 0.437500
v 0.000000 0.125000 0.437500
v 0.000000 0.125000 0.453125
v -0.437500 0.125000 0.453125
v -0.375000 0.781250 0.468750
v -0.062500 0.781250 0.468750
v -0.062500 0.781250 0.453125
v -0.375000 0.781250 0.453125
v -0.375000 0.718750 0.453125
v -0.062500 0.718750 0.453125
v -0.062500 0.718750 0.468750
v -0.375000 0.718750 0.468750
vt 1.203125 0.718750
vt 1.257812 0.718750
vt 1.257812 0.734375
vt 1.203125 0.734375
vt 1.257812 0.718750
vt 1.312500 0.718750
vt 1.312500 0.734375
vt 1.257812 0.734375
vt 1.203125 0.546875
vt 1.257812 0.546875
vt 1.320312 0.718750
vt 1.265625 0.718750
vt 1.265625 0.546875
vt 1.320312 0.546875
vt 1.195312 0.718750
vt 1.195312 0.546875
vt 1.890625 0.968750
vt 1.929688 0.968750
vt 1.929688 0.984375
vt 1.890625 0.984375
vt 1.929688 0.968750
vt 1.968750 0.968750
vt 1.968750 0.984375
vt 1.929688 0.984375
vt 1.890625 0.953125
vt 1.929688 0.953125
vt 1.976562 0.968750
vt 1.937500 0.968750
vt 1.937500 0.953125
vt 1.976562 0.953125
vt 1.882812 0.968750
vt 1.882812 0.953125
vn 0.0000 1.0000 0.0000
vn 0.0000 -1.0000 0.0000
vn 0.0000 -0.0000 1.0000
vn 0.0000 0.0000 -1.0000
vn 1.0000 0.0000 0.0000
vn -1.0000 0.0000 0.0000
usemtl ModelMaterial.007
s 1
f 177/353/35 178/354/35 179/355/35 180/356/35
f 181/357/36 182/358/36 183/359/36 184/360/36
f 178/354/37 177/353/37 184/361/37 183/362/37
f 180/363/38 179/364/38 182/365/38 181/366/38
f 179/364/39 178/354/39 183/362/39 182/365/39
f 177/353/40 180/367/40 181/368/40 184/361/40
f 185/369/35 186/370/35 187/371/35 188/372/35
f 189/373/36 190/374/36 191/375/36 192/376/36
f 186/370/37 185/369/37 192/377/37 191/378/37
f 188/379/38 187/380/38 190/381/38 189/382/38
f 187/380/39 186/370/39 191/378/39 190/381/39
f 185/369/40 188/383/40 189/384/40 192/377/40
o doorRight_translucent_doorRight_translucent
v 0.000000 0.812500 0.453125
v 0.437500 0.812500 0.453125
v 0.437500 0.812500 0.437500
v 0.000000 0.812500 0.437500
v 0.000000 0.125000 0.437500
v 0.437500 0.125000 0.437500
v 0.437500 0.125000 0.453125
v 0.000000 0.125000 0.453125
v 0.062500 0.781250 0.468750
v 0.375000 0.781250 0.468750
v 0.375000 0.781250 0.453125
v 0.062500 0.781250 0.453125
v 0.062500 0.718750 0.453125
v 0.375000 0.718750 0.453125
v 0.375000 0.718750 0.468750
v 0.062500 0.718750 0.468750
vt 1.453125 0.218750
vt 1.507812 0.218750
vt 1.507812 0.234375
vt 1.453125 0.234375
vt 1.507812 0.218750
vt 1.562500 0.218750
vt 1.562500 0.234375
vt 1.507812 0.234375
vt 1.453125 0.046875
vt 1.507812 0.046875
vt 1.570312 0.218750
vt 1.515625 0.218750
vt 1.515625 0.046875
vt 1.570312 0.046875
vt 1.445312 0.218750
vt 1.445312 0.046875
vt 1.890625 0.843750
vt 1.929688 0.843750
vt 1.929688 0.859375
vt 1.890625 0.859375
vt 1.929688 0.843750
vt 1.968750 0.843750
vt 1.968750 0.859375
vt 1.929688 0.859375
vt 1.890625 0.828125
vt 1.929688 0.828125
vt 1.976562 0.843750
vt 1.937500 0.843750
vt 1.937500 0.828125
vt 1.976562 0.828125
vt 1.882812 0.843750
vt 1.882812 0.828125
vn 0.0000 1.0000 0.0000
vn 0.0000 -1.0000 0.0000
vn 0.0000 -0.0000 1.0000
vn 0.0000 0.0000 -1.0000
vn 1.0000 0.0000 0.0000
vn -1.0000 0.0000 0.0000
usemtl ModelMaterial.006
s 1
f 193/385/41 194/386/41 195/387/41 196/388/41
f 197/389/42 198/390/42 199/391/42 200/392/42
f 194/386/43 193/385/43 200/393/43 199/394/43
f 196/395/44 195/396/44 198/397/44 197/398/44
f 195/396/45 194/386/45 199/394/45 198/397/45
f 193/385/46 196/399/46 197/400/46 200/393/46
f 201/401/41 202/402/41 203/403/41 204/404/41
f 205/405/42 206/406/42 207/407/42 208/408/42
f 202/402/43 201/401/43 208/409/43 207/410/43
f 204/411/44 203/412/44 206/413/44 205/414/44
f 203/412/45 202/402/45 207/410/45 206/413/45
f 201/401/46 204/415/46 205/416/46 208/409/46
