# Blender v2.79 (sub 0) OBJ File: ''
# www.blender.org
mtllib bus_stop_side2.mtl
o noseModel
v 1.406250 0.375000 0.375000
v 1.468750 0.375000 0.375000
v 1.468750 0.375000 -0.437500
v 1.406250 0.375000 -0.437500
v 1.406250 0.250000 -0.437500
v 1.468750 0.250000 -0.437500
v 1.468750 0.250000 0.375000
v 1.406250 0.250000 0.375000
v 1.437500 1.875000 0.375000
v 1.437500 1.875000 0.375000
v 1.437500 1.875000 -0.375000
v 1.437500 1.875000 -0.375000
v 1.437500 0.375000 -0.375000
v 1.437500 0.375000 -0.375000
v 1.437500 0.375000 0.375000
v 1.437500 0.375000 0.375000
v 1.406250 1.875000 -0.375000
v 1.468750 1.875000 -0.375000
v 1.468750 1.875000 -0.437500
v 1.406250 1.875000 -0.437500
v 1.406250 0.375000 -0.437500
v 1.468750 0.375000 -0.437500
v 1.468750 0.375000 -0.375000
v 1.406250 0.375000 -0.375000
v 1.406250 1.875000 0.375000
v 1.468750 1.875000 0.375000
v 1.468750 2.000000 -0.437500
v 1.406250 2.000000 -0.437500
v 1.406250 1.875000 -0.437500
v 1.468750 1.875000 -0.437500
v 1.468750 1.875000 0.375000
v 1.406250 1.875000 0.375000
vt 1.734375 0.765625
vt 1.742188 0.765625
vt 1.742188 0.867188
vt 1.734375 0.867188
vt 1.742188 0.765625
vt 1.750000 0.765625
vt 1.750000 0.867188
vt 1.742188 0.867188
vt 1.734375 0.750000
vt 1.742188 0.750000
vt 1.851562 0.765625
vt 1.843750 0.765625
vt 1.843750 0.750000
vt 1.851562 0.750000
vt 1.632812 0.765625
vt 1.632812 0.750000
vt 1.351562 0.710938
vt 1.351562 0.710938
vt 1.351562 0.804688
vt 1.351562 0.804688
vt 1.351562 0.710938
vt 1.351562 0.710938
vt 1.351562 0.804688
vt 1.351562 0.804688
vt 1.351562 0.523438
vt 1.351562 0.523438
vt 1.445312 0.710938
vt 1.445312 0.710938
vt 1.445312 0.523438
vt 1.445312 0.523438
vt 1.257812 0.710938
vt 1.257812 0.523438
vt 1.953125 0.984375
vt 1.960938 0.984375
vt 1.960938 0.992188
vt 1.953125 0.992188
vt 1.960938 0.984375
vt 1.968750 0.984375
vt 1.968750 0.992188
vt 1.960938 0.992188
vt 1.953125 0.796875
vt 1.960938 0.796875
vt 1.976562 0.984375
vt 1.968750 0.984375
vt 1.968750 0.796875
vt 1.976562 0.796875
vt 1.945312 0.984375
vt 1.945312 0.796875
vt 1.109375 0.703125
vt 1.117188 0.703125
vt 1.117188 0.804688
vt 1.109375 0.804688
vt 1.117188 0.703125
vt 1.125000 0.703125
vt 1.125000 0.804688
vt 1.117188 0.804688
vt 1.109375 0.687500
vt 1.117188 0.687500
vt 1.226562 0.703125
vt 1.218750 0.703125
vt 1.218750 0.687500
vt 1.226562 0.687500
vt 1.007812 0.703125
vt 1.007812 0.687500
vn 0.0000 1.0000 0.0000
vn 0.0000 -1.0000 -0.0000
vn 0.0000 -0.0000 1.0000
vn 0.0000 0.0000 -1.0000
vn 1.0000 0.0000 0.0000
vn -1.0000 0.0000 0.0000
vn 0.0000 0.9884 0.1521
usemtl ModelMaterial
s off
f 1/1/1 2/2/1 3/3/1 4/4/1
f 5/5/2 6/6/2 7/7/2 8/8/2
f 2/2/3 1/1/3 8/9/3 7/10/3
f 4/11/4 3/12/4 6/13/4 5/14/4
f 3/12/5 2/2/5 7/10/5 6/13/5
f 1/1/6 4/15/6 5/16/6 8/9/6
f 9/17/3 10/18/3 11/19/3 12/20/3
f 13/21/3 14/22/3 15/23/3 16/24/3
f 10/18/3 9/17/3 16/25/3 15/26/3
f 12/27/3 11/28/3 14/29/3 13/30/3
f 11/28/5 10/18/5 15/26/5 14/29/5
f 9/17/6 12/31/6 13/32/6 16/25/6
f 17/33/1 18/34/1 19/35/1 20/36/1
f 21/37/2 22/38/2 23/39/2 24/40/2
f 18/34/3 17/33/3 24/41/3 23/42/3
f 20/43/4 19/44/4 22/45/4 21/46/4
f 19/44/5 18/34/5 23/42/5 22/45/5
f 17/33/6 20/47/6 21/48/6 24/41/6
f 25/49/7 26/50/7 27/51/7 28/52/7
f 29/53/2 30/54/2 31/55/2 32/56/2
f 26/50/3 25/49/3 32/57/3 31/58/3
f 28/59/4 27/60/4 30/61/4 29/62/4
f 27/60/5 26/50/5 31/58/5 30/61/5
f 25/49/6 28/63/6 29/64/6 32/57/6
o bodyModel
v -0.500000 1.984375 0.500000
v -0.375000 1.984375 0.500000
v -0.375000 2.000000 0.375000
v -0.500000 2.000000 0.375000
v -0.500000 -0.000000 0.375000
v -0.375000 -0.000000 0.375000
v -0.375000 -0.000000 0.500000
v -0.500000 -0.000000 0.500000
v 1.375000 1.984375 0.500000
v 1.500000 1.984375 0.500000
v 1.500000 2.000000 0.375000
v 1.375000 2.000000 0.375000
v 1.375000 -0.000000 0.375000
v 1.500000 -0.000000 0.375000
v 1.500000 -0.000000 0.500000
v 1.375000 -0.000000 0.500000
v -0.375000 0.562500 0.375000
v 1.375000 0.562500 0.375000
v 1.375000 0.562500 -0.125000
v -0.375000 0.562500 -0.125000
v -0.375000 0.500000 -0.125000
v 1.375000 0.500000 -0.125000
v 1.375000 0.500000 0.375000
v -0.375000 0.500000 0.375000
v -0.375000 0.375000 0.468750
v 1.375000 0.375000 0.468750
v 1.375000 0.375000 0.406250
v -0.375000 0.375000 0.406250
v -0.375000 0.250000 0.406250
v 1.375000 0.250000 0.406250
v 1.375000 0.250000 0.468750
v -0.375000 0.250000 0.468750
v -0.250000 0.375000 0.406250
v -0.187500 0.375000 0.406250
v -0.187500 0.500000 0.156250
v -0.250000 0.500000 0.156250
v -0.250000 0.500000 -0.031250
v -0.187500 0.500000 -0.031250
v -0.187500 0.250000 0.406250
v -0.250000 0.250000 0.406250
v 1.187500 0.375000 0.406250
v 1.250000 0.375000 0.406250
v 1.250000 0.500000 0.156250
v 1.187500 0.500000 0.156250
v 1.187500 0.500000 -0.031250
v 1.250000 0.500000 -0.031250
v 1.250000 0.250000 0.406250
v 1.187500 0.250000 0.406250
v -0.375000 1.984375 0.500000
v 1.375000 1.984375 0.500000
v 1.375000 2.000000 0.375000
v -0.375000 2.000000 0.375000
v -0.375000 1.875000 0.375000
v 1.375000 1.875000 0.375000
v 1.375000 1.875000 0.500000
v -0.375000 1.875000 0.500000
v 0.531250 1.875000 0.437500
v 1.281250 1.875000 0.437500
v 1.281250 1.875000 0.437500
v 0.531250 1.875000 0.437500
v 0.531250 0.375000 0.437500
v 1.281250 0.375000 0.437500
v 1.281250 0.375000 0.437500
v 0.531250 0.375000 0.437500
v -0.281250 1.875000 0.437500
v 0.468750 1.875000 0.437500
v 0.468750 1.875000 0.437500
v -0.281250 1.875000 0.437500
v -0.281250 0.375000 0.437500
v 0.468750 0.375000 0.437500
v 0.468750 0.375000 0.437500
v -0.281250 0.375000 0.437500
v 1.281250 1.875000 0.468750
v 1.343750 1.875000 0.468750
v 1.343750 1.875000 0.406250
v 1.281250 1.875000 0.406250
v 1.281250 0.375000 0.406250
v 1.343750 0.375000 0.406250
v 1.343750 0.375000 0.468750
v 1.281250 0.375000 0.468750
v -0.343750 1.875000 0.468750
v -0.281250 1.875000 0.468750
v -0.281250 1.875000 0.406250
v -0.343750 1.875000 0.406250
v -0.343750 0.375000 0.406250
v -0.281250 0.375000 0.406250
v -0.281250 0.375000 0.468750
v -0.343750 0.375000 0.468750
v 0.468750 1.875000 0.468750
v 0.531250 1.875000 0.468750
v 0.531250 1.875000 0.406250
v 0.468750 1.875000 0.406250
v 0.468750 0.375000 0.406250
v 0.531250 0.375000 0.406250
v 0.531250 0.375000 0.468750
v 0.468750 0.375000 0.468750
v 1.375000 2.000000 0.375000
v 1.500000 2.000000 0.375000
v 1.500000 2.125000 -0.437500
v 1.375000 2.125000 -0.437500
v 1.375000 2.000000 -0.437500
v 1.500000 2.000000 -0.437500
v 1.500000 1.875000 0.375000
v 1.375000 1.875000 0.375000
v -0.500000 2.000000 0.375000
v -0.375000 2.000000 0.375000
v -0.375000 2.125000 -0.437500
v -0.500000 2.125000 -0.437500
v -0.500000 2.000000 -0.437500
v -0.375000 2.000000 -0.437500
v -0.375000 1.875000 0.375000
v -0.500000 1.875000 0.375000
v -0.500000 2.125000 -0.437500
v 1.500000 2.125000 -0.437500
v 1.500000 2.140625 -0.562500
v -0.500000 2.140625 -0.562500
v -0.500000 2.015625 -0.562500
v 1.500000 2.015625 -0.562500
v 1.500000 2.000000 -0.437500
v -0.500000 2.000000 -0.437500
v -0.375000 1.968750 0.375000
v 1.375000 1.968750 0.375000
v 1.375000 2.093750 -0.437500
v -0.375000 2.093750 -0.437500
v -0.375000 2.093750 -0.437500
v 1.375000 2.093750 -0.437500
v 1.375000 1.968750 0.375000
v -0.375000 1.968750 0.375000
v -0.343750 0.562500 0.406250
v -0.281250 0.562500 0.406250
v -0.281250 0.562500 0.375000
v -0.343750 0.562500 0.375000
v -0.343750 0.500000 0.375000
v -0.281250 0.500000 0.375000
v -0.281250 0.500000 0.406250
v -0.343750 0.500000 0.406250
v 0.468750 0.562500 0.406250
v 0.531250 0.562500 0.406250
v 0.531250 0.562500 0.375000
v 0.468750 0.562500 0.375000
v 0.468750 0.500000 0.375000
v 0.531250 0.500000 0.375000
v 0.531250 0.500000 0.406250
v 0.468750 0.500000 0.406250
v 1.281250 0.562500 0.406250
v 1.343750 0.562500 0.406250
v 1.343750 0.562500 0.375000
v 1.281250 0.562500 0.375000
v 1.281250 0.500000 0.375000
v 1.343750 0.500000 0.375000
v 1.343750 0.500000 0.406250
v 1.281250 0.500000 0.406250
vt 1.023438 0.976562
vt 1.039062 0.976562
vt 1.039062 0.992188
vt 1.023438 0.992188
vt 1.039062 0.976562
vt 1.054688 0.976562
vt 1.054688 0.992188
vt 1.039062 0.992188
vt 1.023438 0.726562
vt 1.039062 0.726562
vt 1.070312 0.976562
vt 1.054688 0.976562
vt 1.054688 0.726562
vt 1.070312 0.726562
vt 1.007812 0.976562
vt 1.007812 0.726562
vt 1.148438 0.976562
vt 1.164062 0.976562
vt 1.164062 0.992188
vt 1.148438 0.992188
vt 1.164062 0.976562
vt 1.179688 0.976562
vt 1.179688 0.992188
vt 1.164062 0.992188
vt 1.148438 0.726562
vt 1.164062 0.726562
vt 1.195312 0.976562
vt 1.179688 0.976562
vt 1.179688 0.726562
vt 1.195312 0.726562
vt 1.132812 0.976562
vt 1.132812 0.726562
vt 1.320312 0.929688
vt 1.539062 0.929688
vt 1.539062 0.992188
vt 1.320312 0.992188
vt 1.539062 0.929688
vt 1.757812 0.929688
vt 1.757812 0.992188
vt 1.539062 0.992188
vt 1.320312 0.921875
vt 1.539062 0.921875
vt 1.820312 0.929688
vt 1.601562 0.929688
vt 1.601562 0.921875
vt 1.820312 0.921875
vt 1.257812 0.929688
vt 1.257812 0.921875
vt 1.265625 0.859375
vt 1.484375 0.859375
vt 1.484375 0.867188
vt 1.265625 0.867188
vt 1.484375 0.859375
vt 1.703125 0.859375
vt 1.703125 0.867188
vt 1.484375 0.867188
vt 1.265625 0.843750
vt 1.484375 0.843750
vt 1.710938 0.859375
vt 1.492188 0.859375
vt 1.492188 0.843750
vt 1.710938 0.843750
vt 1.257812 0.859375
vt 1.257812 0.843750
vt 1.859375 0.953125
vt 1.867188 0.953125
vt 1.867188 0.992188
vt 1.859375 0.992188
vt 1.867188 0.953125
vt 1.875000 0.953125
vt 1.875000 0.992188
vt 1.867188 0.992188
vt 1.859375 0.937500
vt 1.867188 0.937500
vt 1.914062 0.953125
vt 1.906250 0.953125
vt 1.906250 0.937500
vt 1.914062 0.937500
vt 1.820312 0.953125
vt 1.820312 0.937500
vt 1.859375 0.890625
vt 1.867188 0.890625
vt 1.867188 0.929688
vt 1.859375 0.929688
vt 1.867188 0.890625
vt 1.875000 0.890625
vt 1.875000 0.929688
vt 1.867188 0.929688
vt 1.859375 0.875000
vt 1.867188 0.875000
vt 1.914062 0.890625
vt 1.906250 0.890625
vt 1.906250 0.875000
vt 1.914062 0.875000
vt 1.820312 0.890625
vt 1.820312 0.875000
vt 1.273438 0.789062
vt 1.492188 0.789062
vt 1.492188 0.804688
vt 1.273438 0.804688
vt 1.492188 0.789062
vt 1.710938 0.789062
vt 1.710938 0.804688
vt 1.492188 0.804688
vt 1.273438 0.773438
vt 1.492188 0.773438
vt 1.726562 0.789062
vt 1.507812 0.789062
vt 1.507812 0.773438
vt 1.726562 0.773438
vt 1.257812 0.789062
vt 1.257812 0.773438
vt 1.507812 0.742188
vt 1.601562 0.742188
vt 1.601562 0.742188
vt 1.507812 0.742188
vt 1.601562 0.742188
vt 1.695312 0.742188
vt 1.695312 0.742188
vt 1.601562 0.742188
vt 1.507812 0.554688
vt 1.601562 0.554688
vt 1.695312 0.742188
vt 1.601562 0.554688
vt 1.695312 0.554688
vt 1.507812 0.554688
vt 1.757812 0.742188
vt 1.851562 0.742188
vt 1.851562 0.742188
vt 1.757812 0.742188
vt 1.851562 0.742188
vt 1.945312 0.742188
vt 1.945312 0.742188
vt 1.851562 0.742188
vt 1.757812 0.554688
vt 1.851562 0.554688
vt 1.945312 0.742188
vt 1.851562 0.554688
vt 1.945312 0.554688
vt 1.757812 0.554688
vt 1.015625 0.671875
vt 1.023438 0.671875
vt 1.023438 0.679688
vt 1.015625 0.679688
vt 1.023438 0.671875
vt 1.031250 0.671875
vt 1.031250 0.679688
vt 1.023438 0.679688
vt 1.015625 0.484375
vt 1.023438 0.484375
vt 1.039062 0.671875
vt 1.031250 0.671875
vt 1.031250 0.484375
vt 1.039062 0.484375
vt 1.007812 0.671875
vt 1.007812 0.484375
vt 1.078125 0.671875
vt 1.085938 0.671875
vt 1.085938 0.679688
vt 1.078125 0.679688
vt 1.085938 0.671875
vt 1.093750 0.671875
vt 1.093750 0.679688
vt 1.085938 0.679688
vt 1.078125 0.484375
vt 1.085938 0.484375
vt 1.101562 0.671875
vt 1.093750 0.671875
vt 1.093750 0.484375
vt 1.101562 0.484375
vt 1.070312 0.671875
vt 1.070312 0.484375
vt 1.140625 0.671875
vt 1.148438 0.671875
vt 1.148438 0.679688
vt 1.140625 0.679688
vt 1.148438 0.671875
vt 1.156250 0.671875
vt 1.156250 0.679688
vt 1.148438 0.679688
vt 1.140625 0.484375
vt 1.148438 0.484375
vt 1.164062 0.671875
vt 1.156250 0.671875
vt 1.156250 0.484375
vt 1.164062 0.484375
vt 1.132812 0.671875
vt 1.132812 0.484375
vt 1.171875 0.453125
vt 1.187500 0.453125
vt 1.187500 0.554688
vt 1.171875 0.554688
vt 1.187500 0.453125
vt 1.203125 0.453125
vt 1.203125 0.554688
vt 1.187500 0.554688
vt 1.171875 0.437500
vt 1.187500 0.437500
vt 1.304688 0.453125
vt 1.289062 0.453125
vt 1.289062 0.437500
vt 1.304688 0.437500
vt 1.070312 0.453125
vt 1.070312 0.437500
vt 1.359375 0.390625
vt 1.375000 0.390625
vt 1.375000 0.492188
vt 1.359375 0.492188
vt 1.375000 0.390625
vt 1.390625 0.390625
vt 1.390625 0.492188
vt 1.375000 0.492188
vt 1.359375 0.375000
vt 1.375000 0.375000
vt 1.492188 0.390625
vt 1.476562 0.390625
vt 1.476562 0.375000
vt 1.492188 0.375000
vt 1.257812 0.390625
vt 1.257812 0.375000
vt 1.460938 0.476562
vt 1.710938 0.476562
vt 1.710938 0.492188
vt 1.460938 0.492188
vt 1.710938 0.476562
vt 1.960938 0.476562
vt 1.960938 0.492188
vt 1.710938 0.492188
vt 1.460938 0.460938
vt 1.710938 0.460938
vt 1.976562 0.476562
vt 1.726562 0.476562
vt 1.726562 0.460938
vt 1.976562 0.460938
vt 1.445312 0.476562
vt 1.445312 0.460938
vt 1.109375 0.265625
vt 1.328125 0.265625
vt 1.328125 0.367188
vt 1.109375 0.367188
vt 1.328125 0.265625
vt 1.546875 0.265625
vt 1.546875 0.367188
vt 1.328125 0.367188
vt 1.109375 0.265625
vt 1.328125 0.265625
vt 1.648438 0.265625
vt 1.429688 0.265625
vt 1.429688 0.265625
vt 1.648438 0.265625
vt 1.007812 0.265625
vt 1.007812 0.265625
vt 1.265625 0.984375
vt 1.273438 0.984375
vt 1.273438 0.992188
vt 1.265625 0.992188
vt 1.273438 0.984375
vt 1.281250 0.984375
vt 1.281250 0.992188
vt 1.273438 0.992188
vt 1.265625 0.976562
vt 1.273438 0.976562
vt 1.289062 0.984375
vt 1.281250 0.984375
vt 1.281250 0.976562
vt 1.289062 0.976562
vt 1.257812 0.984375
vt 1.257812 0.976562
vt 1.828125 0.984375
vt 1.835938 0.984375
vt 1.835938 0.992188
vt 1.828125 0.992188
vt 1.835938 0.984375
vt 1.843750 0.984375
vt 1.843750 0.992188
vt 1.835938 0.992188
vt 1.828125 0.976562
vt 1.835938 0.976562
vt 1.851562 0.984375
vt 1.843750 0.984375
vt 1.843750 0.976562
vt 1.851562 0.976562
vt 1.820312 0.984375
vt 1.820312 0.976562
vt 1.890625 0.984375
vt 1.898438 0.984375
vt 1.898438 0.992188
vt 1.890625 0.992188
vt 1.898438 0.984375
vt 1.906250 0.984375
vt 1.906250 0.992188
vt 1.898438 0.992188
vt 1.890625 0.976562
vt 1.898438 0.976562
vt 1.914062 0.984375
vt 1.906250 0.984375
vt 1.906250 0.976562
vt 1.914062 0.976562
vt 1.882812 0.984375
vt 1.882812 0.976562
vn 0.0000 0.9923 0.1240
vn 0.0000 -1.0000 -0.0000
vn 0.0000 -0.0000 1.0000
vn 0.0000 0.0000 -1.0000
vn 1.0000 0.0000 0.0000
vn -1.0000 0.0000 0.0000
vn 0.0000 1.0000 0.0000
vn 0.0000 0.8944 0.4472
vn 0.0000 -0.8682 -0.4961
vn 0.0000 0.9884 0.1521
vn 0.0000 -0.9884 -0.1521
vn 0.0000 -0.9923 -0.1240
usemtl ModelMaterial
s off
f 33/65/8 34/66/8 35/67/8 36/68/8
f 37/69/9 38/70/9 39/71/9 40/72/9
f 34/66/10 33/65/10 40/73/10 39/74/10
f 36/75/11 35/76/11 38/77/11 37/78/11
f 35/76/12 34/66/12 39/74/12 38/77/12
f 33/65/13 36/79/13 37/80/13 40/73/13
f 41/81/8 42/82/8 43/83/8 44/84/8
f 45/85/9 46/86/9 47/87/9 48/88/9
f 42/82/10 41/81/10 48/89/10 47/90/10
f 44/91/11 43/92/11 46/93/11 45/94/11
f 43/92/12 42/82/12 47/90/12 46/93/12
f 41/81/13 44/95/13 45/96/13 48/89/13
f 49/97/14 50/98/14 51/99/14 52/100/14
f 53/101/9 54/102/9 55/103/9 56/104/9
f 50/98/10 49/97/10 56/105/10 55/106/10
f 52/107/11 51/108/11 54/109/11 53/110/11
f 51/108/12 50/98/12 55/106/12 54/109/12
f 49/97/13 52/111/13 53/112/13 56/105/13
f 57/113/14 58/114/14 59/115/14 60/116/14
f 61/117/9 62/118/9 63/119/9 64/120/9
f 58/114/10 57/113/10 64/121/10 63/122/10
f 60/123/11 59/124/11 62/125/11 61/126/11
f 59/124/12 58/114/12 63/122/12 62/125/12
f 57/113/13 60/127/13 61/128/13 64/121/13
f 65/129/15 66/130/15 67/131/15 68/132/15
f 69/133/16 70/134/16 71/135/16 72/136/16
f 66/130/10 65/129/10 72/137/10 71/138/10
f 68/139/14 67/140/14 70/141/14 69/142/14
f 67/140/12 66/130/12 71/138/12 70/141/12
f 65/129/13 68/143/13 69/144/13 72/137/13
f 73/145/15 74/146/15 75/147/15 76/148/15
f 77/149/16 78/150/16 79/151/16 80/152/16
f 74/146/10 73/145/10 80/153/10 79/154/10
f 76/155/14 75/156/14 78/157/14 77/158/14
f 75/156/12 74/146/12 79/154/12 78/157/12
f 73/145/13 76/159/13 77/160/13 80/153/13
f 81/161/8 82/162/8 83/163/8 84/164/8
f 85/165/9 86/166/9 87/167/9 88/168/9
f 82/162/10 81/161/10 88/169/10 87/170/10
f 84/171/11 83/172/11 86/173/11 85/174/11
f 83/172/12 82/162/12 87/170/12 86/173/12
f 81/161/13 84/175/13 85/176/13 88/169/13
f 89/177/10 90/178/10 91/179/10 92/180/10
f 93/181/10 94/182/10 95/183/10 96/184/10
f 90/178/10 89/177/10 96/185/10 95/186/10
f 92/187/11 91/179/11 94/188/11 93/189/11
f 91/179/10 90/178/10 95/186/10 94/188/10
f 89/177/10 92/180/10 93/190/10 96/185/10
f 97/191/10 98/192/10 99/193/10 100/194/10
f 101/195/10 102/196/10 103/197/10 104/198/10
f 98/192/10 97/191/10 104/199/10 103/200/10
f 100/201/11 99/193/11 102/202/11 101/203/11
f 99/193/10 98/192/10 103/200/10 102/202/10
f 97/191/10 100/194/10 101/204/10 104/199/10
f 105/205/14 106/206/14 107/207/14 108/208/14
f 109/209/9 110/210/9 111/211/9 112/212/9
f 106/206/10 105/205/10 112/213/10 111/214/10
f 108/215/11 107/216/11 110/217/11 109/218/11
f 107/216/12 106/206/12 111/214/12 110/217/12
f 105/205/13 108/219/13 109/220/13 112/213/13
f 113/221/14 114/222/14 115/223/14 116/224/14
f 117/225/9 118/226/9 119/227/9 120/228/9
f 114/222/10 113/221/10 120/229/10 119/230/10
f 116/231/11 115/232/11 118/233/11 117/234/11
f 115/232/12 114/222/12 119/230/12 118/233/12
f 113/221/13 116/235/13 117/236/13 120/229/13
f 121/237/14 122/238/14 123/239/14 124/240/14
f 125/241/9 126/242/9 127/243/9 128/244/9
f 122/238/10 121/237/10 128/245/10 127/246/10
f 124/247/11 123/248/11 126/249/11 125/250/11
f 123/248/12 122/238/12 127/246/12 126/249/12
f 121/237/13 124/251/13 125/252/13 128/245/13
f 129/253/17 130/254/17 131/255/17 132/256/17
f 133/257/18 134/258/18 135/259/18 136/260/18
f 130/254/10 129/253/10 136/261/10 135/262/10
f 132/263/11 131/264/11 134/265/11 133/266/11
f 131/264/12 130/254/12 135/262/12 134/265/12
f 129/253/13 132/267/13 133/268/13 136/261/13
f 137/269/17 138/270/17 139/271/17 140/272/17
f 141/273/18 142/274/18 143/275/18 144/276/18
f 138/270/10 137/269/10 144/277/10 143/278/10
f 140/279/11 139/280/11 142/281/11 141/282/11
f 139/280/12 138/270/12 143/278/12 142/281/12
f 137/269/13 140/283/13 141/284/13 144/277/13
f 145/285/8 146/286/8 147/287/8 148/288/8
f 149/289/19 150/290/19 151/291/19 152/292/19
f 146/286/10 145/285/10 152/293/10 151/294/10
f 148/295/11 147/296/11 150/297/11 149/298/11
f 147/296/12 146/286/12 151/294/12 150/297/12
f 145/285/13 148/299/13 149/300/13 152/293/13
f 153/301/17 154/302/17 155/303/17 156/304/17
f 157/305/18 158/306/18 159/307/18 160/308/18
f 154/302/10 153/301/10 160/309/10 159/310/10
f 156/311/10 155/312/10 158/313/10 157/314/10
f 155/312/10 154/302/10 159/310/10 158/313/10
f 153/301/10 156/315/10 157/316/10 160/309/10
f 161/317/14 162/318/14 163/319/14 164/320/14
f 165/321/9 166/322/9 167/323/9 168/324/9
f 162/318/10 161/317/10 168/325/10 167/326/10
f 164/327/11 163/328/11 166/329/11 165/330/11
f 163/328/12 162/318/12 167/326/12 166/329/12
f 161/317/13 164/331/13 165/332/13 168/325/13
f 169/333/14 170/334/14 171/335/14 172/336/14
f 173/337/9 174/338/9 175/339/9 176/340/9
f 170/334/10 169/333/10 176/341/10 175/342/10
f 172/343/11 171/344/11 174/345/11 173/346/11
f 171/344/12 170/334/12 175/342/12 174/345/12
f 169/333/13 172/347/13 173/348/13 176/341/13
f 177/349/14 178/350/14 179/351/14 180/352/14
f 181/353/9 182/354/9 183/355/9 184/356/9
f 178/350/10 177/349/10 184/357/10 183/358/10
f 180/359/11 179/360/11 182/361/11 181/362/11
f 179/360/12 178/350/12 183/358/12 182/361/12
f 177/349/13 180/363/13 181/364/13 184/357/13
o tailModel
v -0.468750 0.375000 0.375000
v -0.406250 0.375000 0.375000
v -0.406250 0.375000 -0.437500
v -0.468750 0.375000 -0.437500
v -0.468750 0.250000 -0.437500
v -0.406250 0.250000 -0.437500
v -0.406250 0.250000 0.375000
v -0.468750 0.250000 0.375000
v -0.468750 1.875000 -0.375000
v -0.406250 1.875000 -0.375000
v -0.406250 1.875000 -0.437500
v -0.468750 1.875000 -0.437500
v -0.468750 0.375000 -0.437500
v -0.406250 0.375000 -0.437500
v -0.406250 0.375000 -0.375000
v -0.468750 0.375000 -0.375000
v -0.468750 1.875000 0.375000
v -0.406250 1.875000 0.375000
v -0.406250 2.000000 -0.437500
v -0.468750 2.000000 -0.437500
v -0.468750 1.875000 -0.437500
v -0.406250 1.875000 -0.437500
v -0.406250 1.875000 0.375000
v -0.468750 1.875000 0.375000
v -0.437500 1.875000 0.375000
v -0.437500 1.875000 0.375000
v -0.437500 1.875000 -0.375000
v -0.437500 1.875000 -0.375000
v -0.437500 0.375000 -0.375000
v -0.437500 0.375000 -0.375000
v -0.437500 0.375000 0.375000
v -0.437500 0.375000 0.375000
vt 1.734375 0.765625
vt 1.742188 0.765625
vt 1.742188 0.867188
vt 1.734375 0.867188
vt 1.742188 0.765625
vt 1.750000 0.765625
vt 1.750000 0.867188
vt 1.742188 0.867188
vt 1.734375 0.750000
vt 1.742188 0.750000
vt 1.851562 0.765625
vt 1.843750 0.765625
vt 1.843750 0.750000
vt 1.851562 0.750000
vt 1.632812 0.765625
vt 1.632812 0.750000
vt 1.953125 0.984375
vt 1.960938 0.984375
vt 1.960938 0.992188
vt 1.953125 0.992188
vt 1.960938 0.984375
vt 1.968750 0.984375
vt 1.968750 0.992188
vt 1.960938 0.992188
vt 1.953125 0.796875
vt 1.960938 0.796875
vt 1.976562 0.984375
vt 1.968750 0.984375
vt 1.968750 0.796875
vt 1.976562 0.796875
vt 1.945312 0.984375
vt 1.945312 0.796875
vt 1.109375 0.703125
vt 1.117188 0.703125
vt 1.117188 0.804688
vt 1.109375 0.804688
vt 1.117188 0.703125
vt 1.125000 0.703125
vt 1.125000 0.804688
vt 1.117188 0.804688
vt 1.109375 0.687500
vt 1.117188 0.687500
vt 1.226562 0.703125
vt 1.218750 0.703125
vt 1.218750 0.687500
vt 1.226562 0.687500
vt 1.007812 0.703125
vt 1.007812 0.687500
vt 1.351562 0.710938
vt 1.351562 0.710938
vt 1.351562 0.804688
vt 1.351562 0.804688
vt 1.351562 0.710938
vt 1.351562 0.710938
vt 1.351562 0.804688
vt 1.351562 0.804688
vt 1.351562 0.523438
vt 1.351562 0.523438
vt 1.445312 0.710938
vt 1.445312 0.710938
vt 1.445312 0.523438
vt 1.445312 0.523438
vt 1.257812 0.710938
vt 1.257812 0.523438
vn 0.0000 1.0000 0.0000
vn 0.0000 -1.0000 -0.0000
vn 0.0000 -0.0000 1.0000
vn 0.0000 0.0000 -1.0000
vn 1.0000 0.0000 0.0000
vn -1.0000 0.0000 0.0000
vn 0.0000 0.9884 0.1521
usemtl ModelMaterial
s off
f 185/365/20 186/366/20 187/367/20 188/368/20
f 189/369/21 190/370/21 191/371/21 192/372/21
f 186/366/22 185/365/22 192/373/22 191/374/22
f 188/375/23 187/376/23 190/377/23 189/378/23
f 187/376/24 186/366/24 191/374/24 190/377/24
f 185/365/25 188/379/25 189/380/25 192/373/25
f 193/381/20 194/382/20 195/383/20 196/384/20
f 197/385/21 198/386/21 199/387/21 200/388/21
f 194/382/22 193/381/22 200/389/22 199/390/22
f 196/391/23 195/392/23 198/393/23 197/394/23
f 195/392/24 194/382/24 199/390/24 198/393/24
f 193/381/25 196/395/25 197/396/25 200/389/25
f 201/397/26 202/398/26 203/399/26 204/400/26
f 205/401/21 206/402/21 207/403/21 208/404/21
f 202/398/22 201/397/22 208/405/22 207/406/22
f 204/407/23 203/408/23 206/409/23 205/410/23
f 203/408/24 202/398/24 207/406/24 206/409/24
f 201/397/25 204/411/25 205/412/25 208/405/25
f 209/413/22 210/414/22 211/415/22 212/416/22
f 213/417/22 214/418/22 215/419/22 216/420/22
f 210/414/22 209/413/22 216/421/22 215/422/22
f 212/423/22 211/424/22 214/425/22 213/426/22
f 211/424/24 210/414/24 215/422/24 214/425/24
f 209/413/25 212/427/25 213/428/25 216/421/25
