# Blender v2.79 (sub 0) OBJ File: ''
# www.blender.org
mtllib street_fence_angle2.obj.mtl
o street_fence_angle2.obj
v -0.031250 0.812500 -0.375000
v 0.031250 0.812500 -0.375000
v -0.375000 0.812500 0.031250
v -0.375000 0.812500 -0.031250
v -0.375000 0.750000 -0.031250
v -0.375000 0.750000 0.031250
v 0.031250 0.750000 -0.375000
v -0.031250 0.750000 -0.375000
v -0.031250 0.250000 -0.375000
v 0.031250 0.250000 -0.375000
v -0.375000 0.250000 0.031250
v -0.375000 0.250000 -0.031250
v -0.375000 0.187500 -0.031250
v -0.375000 0.187500 0.031250
v 0.031250 0.187500 -0.375000
v -0.031250 0.187500 -0.375000
vt 1.218750 0.781250
vt 1.218750 0.968750
vt 1.250000 0.968750
vt 1.250000 0.781250
vt 1.250000 0.781250
vt 1.250000 0.968750
vt 1.281250 0.968750
vt 1.281250 0.781250
vt 1.250000 0.750000
vt 1.218750 0.750000
vt 1.468750 0.781250
vt 1.468750 0.750000
vt 1.437500 0.750000
vt 1.437500 0.781250
vt 1.031250 0.750000
vt 1.031250 0.781250
vt 1.718750 0.781250
vt 1.718750 0.968750
vt 1.750000 0.968750
vt 1.750000 0.781250
vt 1.750000 0.781250
vt 1.750000 0.968750
vt 1.781250 0.968750
vt 1.781250 0.781250
vt 1.750000 0.750000
vt 1.718750 0.750000
vt 1.968750 0.781250
vt 1.968750 0.750000
vt 1.937500 0.750000
vt 1.937500 0.781250
vt 1.531250 0.750000
vt 1.531250 0.781250
vn 0.0000 1.0000 0.0000
vn -0.0000 -1.0000 0.0000
vn 0.0000 -0.0000 -1.0000
vn -1.0000 -0.0000 0.0000
vn 0.7071 0.0000 0.7071
vn -0.7071 -0.0000 -0.7071
usemtl ModelMaterial
s off
f 1/1/1 4/2/1 3/3/1 2/4/1
f 5/5/2 8/6/2 7/7/2 6/8/2
f 2/4/3 7/9/3 8/10/3 1/1/3
f 4/11/4 5/12/4 6/13/4 3/14/4
f 3/14/5 6/13/5 7/9/5 2/4/5
f 1/1/6 8/10/6 5/15/6 4/16/6
f 9/17/1 12/18/1 11/19/1 10/20/1
f 13/21/2 16/22/2 15/23/2 14/24/2
f 10/20/3 15/25/3 16/26/3 9/17/3
f 12/27/4 13/28/4 14/29/4 11/30/4
f 11/30/5 14/29/5 15/25/5 10/20/5
f 9/17/6 16/26/6 13/31/6 12/32/6
