# Blender v2.79 (sub 0) OBJ File: ''
# www.blender.org
mtllib street_fence_full.obj.mtl
o street_fence_full.obj.002
v -0.625000 0.812500 0.031250
v -0.500000 0.812500 0.031250
v -0.500000 0.812500 -0.031250
v -0.625000 0.812500 -0.031250
v -0.625000 0.000000 -0.031250
v -0.500000 0.000000 -0.031250
v -0.500000 0.000000 0.031250
v -0.625000 0.000000 0.031250
v -0.593750 0.812500 0.062500
v -0.531250 0.812500 0.062500
v -0.500000 0.812500 0.031250
v -0.625000 0.812500 0.031250
v -0.625000 0.000000 0.031250
v -0.500000 0.000000 0.031250
v -0.531250 0.000000 0.062500
v -0.593750 0.000000 0.062500
v -0.593750 0.843750 0.031250
v -0.531250 0.843750 0.031250
v -0.531250 0.843750 -0.031250
v -0.593750 0.843750 -0.031250
v -0.593750 0.812500 -0.031250
v -0.531250 0.812500 -0.031250
v -0.531250 0.812500 0.031250
v -0.593750 0.812500 0.031250
v -0.625000 0.812500 -0.031250
v -0.500000 0.812500 -0.031250
v -0.531250 0.812500 -0.062500
v -0.593750 0.812500 -0.062500
v -0.593750 0.000000 -0.062500
v -0.531250 0.000000 -0.062500
v -0.500000 0.000000 -0.031250
v -0.625000 0.000000 -0.031250
v -0.609375 0.921875 0.046875
v -0.515625 0.921875 0.046875
v -0.515625 0.921875 -0.046875
v -0.609375 0.921875 -0.046875
v -0.609375 0.843750 -0.046875
v -0.515625 0.843750 -0.046875
v -0.515625 0.843750 0.046875
v -0.609375 0.843750 0.046875
v 0.500000 0.812500 0.031250
v 0.625000 0.812500 0.031250
v 0.625000 0.812500 -0.031250
v 0.500000 0.812500 -0.031250
v 0.500000 -0.000000 -0.031250
v 0.625000 -0.000000 -0.031250
v 0.625000 -0.000000 0.031250
v 0.500000 -0.000000 0.031250
v 0.531250 0.812500 0.062500
v 0.593750 0.812500 0.062500
v 0.625000 0.812500 0.031250
v 0.500000 0.812500 0.031250
v 0.500000 -0.000000 0.031250
v 0.625000 -0.000000 0.031250
v 0.593750 -0.000000 0.062500
v 0.531250 -0.000000 0.062500
v 0.500000 0.812500 -0.031250
v 0.625000 0.812500 -0.031250
v 0.593750 0.812500 -0.062500
v 0.531250 0.812500 -0.062500
v 0.531250 -0.000000 -0.062500
v 0.593750 -0.000000 -0.062500
v 0.625000 -0.000000 -0.031250
v 0.500000 -0.000000 -0.031250
v 0.515625 0.921875 0.046875
v 0.609375 0.921875 0.046875
v 0.609375 0.921875 -0.046875
v 0.515625 0.921875 -0.046875
v 0.515625 0.843750 -0.046875
v 0.609375 0.843750 -0.046875
v 0.609375 0.843750 0.046875
v 0.515625 0.843750 0.046875
v 0.531250 0.843750 0.031250
v 0.593750 0.843750 0.031250
v 0.593750 0.843750 -0.031250
v 0.531250 0.843750 -0.031250
v 0.531250 0.812500 -0.031250
v 0.593750 0.812500 -0.031250
v 0.593750 0.812500 0.031250
v 0.531250 0.812500 0.031250
v -0.500000 0.812500 0.031250
v 0.500000 0.812500 0.031250
v 0.500000 0.812500 -0.031250
v -0.500000 0.812500 -0.031250
v -0.500000 0.750000 -0.031250
v 0.500000 0.750000 -0.031250
v 0.500000 0.750000 0.031250
v -0.500000 0.750000 0.031250
v -0.500000 0.250000 0.031250
v 0.500000 0.250000 0.031250
v 0.500000 0.250000 -0.031250
v -0.500000 0.250000 -0.031250
v -0.500000 0.187500 -0.031250
v 0.500000 0.187500 -0.031250
v 0.500000 0.187500 0.031250
v -0.500000 0.187500 0.031250
v -0.468750 0.750000 0.031250
v -0.406250 0.750000 0.031250
v -0.406250 0.750000 -0.031250
v -0.468750 0.750000 -0.031250
v -0.468750 0.250000 -0.031250
v -0.406250 0.250000 -0.031250
v -0.406250 0.250000 0.031250
v -0.468750 0.250000 0.031250
v 0.406250 0.750000 0.031250
v 0.468750 0.750000 0.031250
v 0.468750 0.750000 -0.031250
v 0.406250 0.750000 -0.031250
v 0.406250 0.250000 -0.031250
v 0.468750 0.250000 -0.031250
v 0.468750 0.250000 0.031250
v 0.406250 0.250000 0.031250
v -0.406250 0.750000 0.031250
v 0.406250 0.312500 0.031250
v 0.406250 0.312500 -0.031250
v -0.406250 0.750000 -0.031250
v -0.406250 0.687500 -0.031250
v 0.406250 0.250000 -0.031250
v 0.406250 0.250000 0.031250
v -0.406250 0.687500 0.031250
v -0.406250 0.312500 0.031250
v 0.406250 0.750000 0.031250
v 0.406250 0.750000 -0.031250
v -0.406250 0.312500 -0.031250
v -0.406250 0.250000 -0.031250
v 0.406250 0.687500 -0.031250
v 0.406250 0.687500 0.031250
v -0.406250 0.250000 0.031250
v -0.046875 0.546875 0.046875
v 0.046875 0.546875 0.046875
v 0.046875 0.546875 -0.046875
v -0.046875 0.546875 -0.046875
v -0.046875 0.468750 -0.046875
v 0.046875 0.468750 -0.046875
v 0.046875 0.468750 0.046875
v -0.046875 0.468750 0.046875
vt 1.031250 0.937500
vt 1.062500 0.937500
vt 1.062500 0.968750
vt 1.031250 0.968750
vt 1.062500 0.937500
vt 1.093750 0.937500
vt 1.093750 0.968750
vt 1.062500 0.968750
vt 1.031250 0.531250
vt 1.062500 0.531250
vt 1.109375 0.937500
vt 1.078125 0.937500
vt 1.078125 0.531250
vt 1.109375 0.531250
vt 1.015625 0.937500
vt 1.015625 0.531250
vt 1.156250 0.937500
vt 1.171875 0.937500
vt 1.171875 0.968750
vt 1.156250 0.968750
vt 1.171875 0.937500
vt 1.187500 0.937500
vt 1.187500 0.968750
vt 1.171875 0.968750
vt 1.156250 0.531250
vt 1.171875 0.531250
vt 1.203125 0.937500
vt 1.187500 0.937500
vt 1.187500 0.531250
vt 1.203125 0.531250
vt 1.140625 0.937500
vt 1.140625 0.531250
vt 1.281250 0.937500
vt 1.296875 0.937500
vt 1.296875 0.968750
vt 1.281250 0.968750
vt 1.296875 0.937500
vt 1.312500 0.937500
vt 1.312500 0.968750
vt 1.296875 0.968750
vt 1.281250 0.906250
vt 1.296875 0.906250
vt 1.328125 0.937500
vt 1.312500 0.937500
vt 1.312500 0.906250
vt 1.328125 0.906250
vt 1.265625 0.937500
vt 1.265625 0.906250
vt 1.406250 0.937500
vt 1.421875 0.937500
vt 1.421875 0.968750
vt 1.406250 0.968750
vt 1.421875 0.937500
vt 1.437500 0.937500
vt 1.437500 0.968750
vt 1.421875 0.968750
vt 1.406250 0.531250
vt 1.421875 0.531250
vt 1.453125 0.937500
vt 1.437500 0.937500
vt 1.437500 0.531250
vt 1.453125 0.531250
vt 1.390625 0.937500
vt 1.390625 0.531250
vt 1.546875 0.906250
vt 1.578125 0.906250
vt 1.578125 0.968750
vt 1.546875 0.968750
vt 1.578125 0.906250
vt 1.609375 0.906250
vt 1.609375 0.968750
vt 1.578125 0.968750
vt 1.546875 0.843750
vt 1.578125 0.843750
vt 1.640625 0.906250
vt 1.609375 0.906250
vt 1.609375 0.843750
vt 1.640625 0.843750
vt 1.515625 0.906250
vt 1.515625 0.843750
vt 1.781250 0.937500
vt 1.812500 0.937500
vt 1.812500 0.968750
vt 1.781250 0.968750
vt 1.812500 0.937500
vt 1.843750 0.937500
vt 1.843750 0.968750
vt 1.812500 0.968750
vt 1.781250 0.531250
vt 1.812500 0.531250
vt 1.859375 0.937500
vt 1.828125 0.937500
vt 1.828125 0.531250
vt 1.859375 0.531250
vt 1.765625 0.937500
vt 1.765625 0.531250
vt 1.906250 0.937500
vt 1.921875 0.937500
vt 1.921875 0.968750
vt 1.906250 0.968750
vt 1.921875 0.937500
vt 1.937500 0.937500
vt 1.937500 0.968750
vt 1.921875 0.968750
vt 1.906250 0.531250
vt 1.921875 0.531250
vt 1.953125 0.937500
vt 1.937500 0.937500
vt 1.937500 0.531250
vt 1.953125 0.531250
vt 1.890625 0.937500
vt 1.890625 0.531250
vt 1.281250 0.687500
vt 1.296875 0.687500
vt 1.296875 0.718750
vt 1.281250 0.718750
vt 1.296875 0.687500
vt 1.312500 0.687500
vt 1.312500 0.718750
vt 1.296875 0.718750
vt 1.281250 0.281250
vt 1.296875 0.281250
vt 1.328125 0.687500
vt 1.312500 0.687500
vt 1.312500 0.281250
vt 1.328125 0.281250
vt 1.265625 0.687500
vt 1.265625 0.281250
vt 1.546875 0.656250
vt 1.578125 0.656250
vt 1.578125 0.718750
vt 1.546875 0.718750
vt 1.578125 0.656250
vt 1.609375 0.656250
vt 1.609375 0.718750
vt 1.578125 0.718750
vt 1.546875 0.593750
vt 1.578125 0.593750
vt 1.640625 0.656250
vt 1.609375 0.656250
vt 1.609375 0.593750
vt 1.640625 0.593750
vt 1.515625 0.656250
vt 1.515625 0.593750
vt 1.031250 0.437500
vt 1.046875 0.437500
vt 1.046875 0.468750
vt 1.031250 0.468750
vt 1.046875 0.437500
vt 1.062500 0.437500
vt 1.062500 0.468750
vt 1.046875 0.468750
vt 1.031250 0.406250
vt 1.046875 0.406250
vt 1.078125 0.437500
vt 1.062500 0.437500
vt 1.062500 0.406250
vt 1.078125 0.406250
vt 1.015625 0.437500
vt 1.015625 0.406250
vt 1.406250 0.437500
vt 1.656250 0.437500
vt 1.656250 0.468750
vt 1.406250 0.468750
vt 1.656250 0.437500
vt 1.906250 0.437500
vt 1.906250 0.468750
vt 1.656250 0.468750
vt 1.406250 0.406250
vt 1.656250 0.406250
vt 1.921875 0.437500
vt 1.671875 0.437500
vt 1.671875 0.406250
vt 1.921875 0.406250
vt 1.390625 0.437500
vt 1.390625 0.406250
vt 1.031250 0.187500
vt 1.281250 0.187500
vt 1.281250 0.218750
vt 1.031250 0.218750
vt 1.281250 0.187500
vt 1.531250 0.187500
vt 1.531250 0.218750
vt 1.281250 0.218750
vt 1.031250 0.156250
vt 1.281250 0.156250
vt 1.546875 0.187500
vt 1.296875 0.187500
vt 1.296875 0.156250
vt 1.546875 0.156250
vt 1.015625 0.187500
vt 1.015625 0.156250
vt 1.140625 0.500000
vt 1.156250 0.500000
vt 1.156250 0.531250
vt 1.140625 0.531250
vt 1.156250 0.500000
vt 1.171875 0.500000
vt 1.171875 0.531250
vt 1.156250 0.531250
vt 1.140625 0.250000
vt 1.156250 0.250000
vt 1.187500 0.500000
vt 1.171875 0.500000
vt 1.171875 0.250000
vt 1.187500 0.250000
vt 1.125000 0.500000
vt 1.125000 0.250000
vt 1.203125 0.500000
vt 1.218750 0.500000
vt 1.218750 0.531250
vt 1.203125 0.531250
vt 1.218750 0.500000
vt 1.234375 0.500000
vt 1.234375 0.531250
vt 1.218750 0.531250
vt 1.203125 0.250000
vt 1.218750 0.250000
vt 1.250000 0.500000
vt 1.234375 0.500000
vt 1.234375 0.250000
vt 1.250000 0.250000
vt 1.187500 0.500000
vt 1.187500 0.250000
vt 1.046875 0.062500
vt 1.250000 0.062500
vt 1.250000 0.093750
vt 1.046875 0.093750
vt 1.250000 0.062500
vt 1.453125 0.062500
vt 1.453125 0.093750
vt 1.250000 0.093750
vt 1.046875 0.031250
vt 1.250000 0.031250
vt 1.468750 0.062500
vt 1.265625 0.062500
vt 1.265625 0.031250
vt 1.468750 0.031250
vt 1.031250 0.062500
vt 1.031250 0.031250
vt 1.093750 0.187500
vt 1.296875 0.187500
vt 1.296875 0.218750
vt 1.093750 0.218750
vt 1.296875 0.187500
vt 1.500000 0.187500
vt 1.500000 0.218750
vt 1.296875 0.218750
vt 1.093750 0.156250
vt 1.296875 0.156250
vt 1.515625 0.187500
vt 1.312500 0.187500
vt 1.312500 0.156250
vt 1.515625 0.156250
vt 1.078125 0.187500
vt 1.078125 0.156250
vt 1.671875 0.156250
vt 1.703125 0.156250
vt 1.703125 0.218750
vt 1.671875 0.218750
vt 1.703125 0.156250
vt 1.734375 0.156250
vt 1.734375 0.218750
vt 1.703125 0.218750
vt 1.671875 0.093750
vt 1.703125 0.093750
vt 1.765625 0.156250
vt 1.734375 0.156250
vt 1.734375 0.093750
vt 1.765625 0.093750
vt 1.640625 0.156250
vt 1.640625 0.093750
vn 0.0000 1.0000 0.0000
vn -0.0000 -1.0000 0.0000
vn 0.0000 -0.0000 1.0000
vn -0.0000 0.0000 -1.0000
vn 1.0000 -0.0000 0.0000
vn -1.0000 0.0000 0.0000
vn 0.7071 -0.0000 0.7071
vn -0.7071 0.0000 0.7071
vn 0.7071 -0.0000 -0.7071
vn -0.7071 0.0000 -0.7071
vn 0.4741 0.8805 0.0000
vn -0.4741 -0.8805 0.0000
vn -0.4741 0.8805 0.0000
vn 0.4741 -0.8805 0.0000
usemtl ModelMaterial.001
s off
f 1/1/1 2/2/1 3/3/1 4/4/1
f 5/5/2 6/6/2 7/7/2 8/8/2
f 2/2/3 1/1/3 8/9/3 7/10/3
f 4/11/4 3/12/4 6/13/4 5/14/4
f 3/12/5 2/2/5 7/10/5 6/13/5
f 1/1/6 4/15/6 5/16/6 8/9/6
f 9/17/1 10/18/1 11/19/1 12/20/1
f 13/21/2 14/22/2 15/23/2 16/24/2
f 10/18/3 9/17/3 16/25/3 15/26/3
f 12/27/4 11/28/4 14/29/4 13/30/4
f 11/28/7 10/18/7 15/26/7 14/29/7
f 9/17/8 12/31/8 13/32/8 16/25/8
f 17/33/1 18/34/1 19/35/1 20/36/1
f 21/37/2 22/38/2 23/39/2 24/40/2
f 18/34/3 17/33/3 24/41/3 23/42/3
f 20/43/4 19/44/4 22/45/4 21/46/4
f 19/44/5 18/34/5 23/42/5 22/45/5
f 17/33/6 20/47/6 21/48/6 24/41/6
f 25/49/1 26/50/1 27/51/1 28/52/1
f 29/53/2 30/54/2 31/55/2 32/56/2
f 26/50/3 25/49/3 32/57/3 31/58/3
f 28/59/4 27/60/4 30/61/4 29/62/4
f 27/60/9 26/50/9 31/58/9 30/61/9
f 25/49/10 28/63/10 29/64/10 32/57/10
f 33/65/1 34/66/1 35/67/1 36/68/1
f 37/69/2 38/70/2 39/71/2 40/72/2
f 34/66/3 33/65/3 40/73/3 39/74/3
f 36/75/4 35/76/4 38/77/4 37/78/4
f 35/76/5 34/66/5 39/74/5 38/77/5
f 33/65/6 36/79/6 37/80/6 40/73/6
f 41/81/1 42/82/1 43/83/1 44/84/1
f 45/85/2 46/86/2 47/87/2 48/88/2
f 42/82/3 41/81/3 48/89/3 47/90/3
f 44/91/4 43/92/4 46/93/4 45/94/4
f 43/92/5 42/82/5 47/90/5 46/93/5
f 41/81/6 44/95/6 45/96/6 48/89/6
f 49/97/1 50/98/1 51/99/1 52/100/1
f 53/101/2 54/102/2 55/103/2 56/104/2
f 50/98/3 49/97/3 56/105/3 55/106/3
f 52/107/4 51/108/4 54/109/4 53/110/4
f 51/108/7 50/98/7 55/106/7 54/109/7
f 49/97/8 52/111/8 53/112/8 56/105/8
f 57/113/1 58/114/1 59/115/1 60/116/1
f 61/117/2 62/118/2 63/119/2 64/120/2
f 58/114/3 57/113/3 64/121/3 63/122/3
f 60/123/4 59/124/4 62/125/4 61/126/4
f 59/124/9 58/114/9 63/122/9 62/125/9
f 57/113/10 60/127/10 61/128/10 64/121/10
f 65/129/1 66/130/1 67/131/1 68/132/1
f 69/133/2 70/134/2 71/135/2 72/136/2
f 66/130/3 65/129/3 72/137/3 71/138/3
f 68/139/4 67/140/4 70/141/4 69/142/4
f 67/140/5 66/130/5 71/138/5 70/141/5
f 65/129/6 68/143/6 69/144/6 72/137/6
f 73/145/1 74/146/1 75/147/1 76/148/1
f 77/149/2 78/150/2 79/151/2 80/152/2
f 74/146/3 73/145/3 80/153/3 79/154/3
f 76/155/4 75/156/4 78/157/4 77/158/4
f 75/156/5 74/146/5 79/154/5 78/157/5
f 73/145/6 76/159/6 77/160/6 80/153/6
f 81/161/1 82/162/1 83/163/1 84/164/1
f 85/165/2 86/166/2 87/167/2 88/168/2
f 82/162/3 81/161/3 88/169/3 87/170/3
f 84/171/4 83/172/4 86/173/4 85/174/4
f 83/172/5 82/162/5 87/170/5 86/173/5
f 81/161/6 84/175/6 85/176/6 88/169/6
f 89/177/1 90/178/1 91/179/1 92/180/1
f 93/181/2 94/182/2 95/183/2 96/184/2
f 90/178/3 89/177/3 96/185/3 95/186/3
f 92/187/4 91/188/4 94/189/4 93/190/4
f 91/188/5 90/178/5 95/186/5 94/189/5
f 89/177/6 92/191/6 93/192/6 96/185/6
f 97/193/1 98/194/1 99/195/1 100/196/1
f 101/197/2 102/198/2 103/199/2 104/200/2
f 98/194/3 97/193/3 104/201/3 103/202/3
f 100/203/4 99/204/4 102/205/4 101/206/4
f 99/204/5 98/194/5 103/202/5 102/205/5
f 97/193/6 100/207/6 101/208/6 104/201/6
f 105/209/1 106/210/1 107/211/1 108/212/1
f 109/213/2 110/214/2 111/215/2 112/216/2
f 106/210/3 105/209/3 112/217/3 111/218/3
f 108/219/4 107/220/4 110/221/4 109/222/4
f 107/220/5 106/210/5 111/218/5 110/221/5
f 105/209/6 108/223/6 109/224/6 112/217/6
f 113/225/11 114/226/11 115/227/11 116/228/11
f 117/229/12 118/230/12 119/231/12 120/232/12
f 114/226/3 113/225/3 120/233/3 119/234/3
f 116/235/4 115/236/4 118/237/4 117/238/4
f 115/236/5 114/226/5 119/234/5 118/237/5
f 113/225/6 116/239/6 117/240/6 120/233/6
f 121/241/13 122/242/13 123/243/13 124/244/13
f 125/245/14 126/246/14 127/247/14 128/248/14
f 122/242/3 121/241/3 128/249/3 127/250/3
f 124/251/4 123/252/4 126/253/4 125/254/4
f 123/252/5 122/242/5 127/250/5 126/253/5
f 121/241/6 124/255/6 125/256/6 128/249/6
f 129/257/1 130/258/1 131/259/1 132/260/1
f 133/261/2 134/262/2 135/263/2 136/264/2
f 130/258/3 129/257/3 136/265/3 135/266/3
f 132/267/4 131/268/4 134/269/4 133/270/4
f 131/268/5 130/258/5 135/266/5 134/269/5
f 129/257/6 132/271/6 133/272/6 136/265/6
