# Blender v2.79 (sub 0) OBJ File: ''
# www.blender.org
mtllib for_sale_sign.mtl
o for_sale_sign
v -0.312500 0.875000 -0.031250
v -0.312500 0.875000 0.031250
v 0.500000 0.875000 0.031250
v 0.500000 0.875000 -0.031250
v 0.437500 0.812500 -0.031250
v 0.437500 0.812500 0.031250
v -0.312500 0.812500 0.031250
v -0.312500 0.812500 -0.031250
v -0.375000 1.000000 -0.031250
v -0.375000 1.000000 0.031250
v -0.312500 1.000000 0.031250
v -0.312500 1.000000 -0.031250
v -0.312500 -0.000000 -0.031250
v -0.312500 -0.000000 0.031250
v -0.375000 -0.000000 0.031250
v -0.375000 -0.000000 -0.031250
v -0.281250 0.750000 -0.031250
v -0.281250 0.750000 0.031250
v 0.406250 0.750000 0.031250
v 0.406250 0.750000 -0.031250
v 0.406250 0.250000 -0.031250
v 0.406250 0.250000 0.031250
v -0.281250 0.250000 0.031250
v -0.281250 0.250000 -0.031250
v -0.500000 0.875000 -0.031250
v -0.500000 0.875000 0.031250
v -0.375000 0.875000 0.031250
v -0.375000 0.875000 -0.031250
v -0.375000 0.812500 -0.031250
v -0.375000 0.812500 0.031250
v -0.437500 0.812500 0.031250
v -0.437500 0.812500 -0.031250
v -0.265625 0.812500 -0.015625
v -0.265625 0.812500 0.015625
v -0.234375 0.812500 0.015625
v -0.234375 0.812500 -0.015625
v -0.234375 0.750000 -0.015625
v -0.234375 0.750000 0.015625
v -0.265625 0.750000 0.015625
v -0.265625 0.750000 -0.015625
v 0.359375 0.812500 -0.015625
v 0.359375 0.812500 0.015625
v 0.390625 0.812500 0.015625
v 0.390625 0.812500 -0.015625
v 0.390625 0.750000 -0.015625
v 0.390625 0.750000 0.015625
v 0.359375 0.750000 0.015625
v 0.359375 0.750000 -0.015625
vt 1.109375 0.890625
vt 1.117188 0.890625
vt 1.117188 0.992188
vt 1.109375 0.992188
vt 1.117188 0.890625
vt 1.125000 0.890625
vt 1.125000 0.992188
vt 1.117188 0.992188
vt 1.109375 0.882812
vt 1.117188 0.882812
vt 1.226562 0.890625
vt 1.218750 0.890625
vt 1.218750 0.882812
vt 1.226562 0.882812
vt 1.007812 0.890625
vt 1.007812 0.882812
vt 1.265625 0.984375
vt 1.273438 0.984375
vt 1.273438 0.992188
vt 1.265625 0.992188
vt 1.273438 0.984375
vt 1.281250 0.984375
vt 1.281250 0.992188
vt 1.273438 0.992188
vt 1.265625 0.859375
vt 1.273438 0.859375
vt 1.289062 0.984375
vt 1.281250 0.984375
vt 1.281250 0.859375
vt 1.289062 0.859375
vt 1.257812 0.984375
vt 1.257812 0.859375
vt 1.304688 0.820312
vt 1.312500 0.820312
vt 1.312500 0.992188
vt 1.304688 0.992188
vt 1.312500 0.820312
vt 1.320312 0.820312
vt 1.320312 0.992188
vt 1.312500 0.992188
vt 1.304688 0.695312
vt 1.312500 0.695312
vt 1.492188 0.820312
vt 1.484375 0.820312
vt 1.484375 0.695312
vt 1.492188 0.695312
vt 1.132812 0.820312
vt 1.132812 0.695312
vt 1.015625 0.984375
vt 1.023438 0.984375
vt 1.023438 0.992188
vt 1.015625 0.992188
vt 1.023438 0.984375
vt 1.031250 0.984375
vt 1.031250 0.992188
vt 1.023438 0.992188
vt 1.015625 0.976562
vt 1.023438 0.976562
vt 1.039062 0.984375
vt 1.031250 0.984375
vt 1.031250 0.976562
vt 1.039062 0.976562
vt 1.007812 0.984375
vt 1.007812 0.976562
vt 1.078125 0.984375
vt 1.085938 0.984375
vt 1.085938 0.992188
vt 1.078125 0.992188
vt 1.085938 0.984375
vt 1.093750 0.984375
vt 1.093750 0.992188
vt 1.085938 0.992188
vt 1.078125 0.976562
vt 1.085938 0.976562
vt 1.101562 0.984375
vt 1.093750 0.984375
vt 1.093750 0.976562
vt 1.101562 0.976562
vt 1.070312 0.984375
vt 1.070312 0.976562
vt 1.140625 0.984375
vt 1.148438 0.984375
vt 1.148438 0.992188
vt 1.140625 0.992188
vt 1.148438 0.984375
vt 1.156250 0.984375
vt 1.156250 0.992188
vt 1.148438 0.992188
vt 1.140625 0.976562
vt 1.148438 0.976562
vt 1.164062 0.984375
vt 1.156250 0.984375
vt 1.156250 0.976562
vt 1.164062 0.976562
vt 1.132812 0.984375
vt 1.132812 0.976562
vn -0.0000 1.0000 0.0000
vn 0.0000 -1.0000 0.0000
vn -1.0000 -0.0000 0.0000
vn 0.7071 -0.7071 0.0000
vn -0.0000 -0.0000 1.0000
vn 0.0000 0.0000 -1.0000
vn 1.0000 0.0000 0.0000
vn -0.7071 -0.7071 0.0000
usemtl ModelMaterial
s off
f 1/1/1 2/2/1 3/3/1 4/4/1
f 5/5/2 6/6/2 7/7/2 8/8/2
f 2/2/3 1/1/3 8/9/3 7/10/3
f 4/11/4 3/12/4 6/13/4 5/14/4
f 3/12/5 2/2/5 7/10/5 6/13/5
f 1/1/6 4/15/6 5/16/6 8/9/6
f 9/17/1 10/18/1 11/19/1 12/20/1
f 13/21/2 14/22/2 15/23/2 16/24/2
f 10/18/3 9/17/3 16/25/3 15/26/3
f 12/27/7 11/28/7 14/29/7 13/30/7
f 11/28/5 10/18/5 15/26/5 14/29/5
f 9/17/6 12/31/6 13/32/6 16/25/6
f 17/33/1 18/34/1 19/35/1 20/36/1
f 21/37/2 22/38/2 23/39/2 24/40/2
f 18/34/3 17/33/3 24/41/3 23/42/3
f 20/43/7 19/44/7 22/45/7 21/46/7
f 19/44/5 18/34/5 23/42/5 22/45/5
f 17/33/6 20/47/6 21/48/6 24/41/6
f 25/49/1 26/50/1 27/51/1 28/52/1
f 29/53/2 30/54/2 31/55/2 32/56/2
f 26/50/8 25/49/8 32/57/8 31/58/8
f 28/59/7 27/60/7 30/61/7 29/62/7
f 27/60/5 26/50/5 31/58/5 30/61/5
f 25/49/6 28/63/6 29/64/6 32/57/6
f 33/65/1 34/66/1 35/67/1 36/68/1
f 37/69/2 38/70/2 39/71/2 40/72/2
f 34/66/3 33/65/3 40/73/3 39/74/3
f 36/75/7 35/76/7 38/77/7 37/78/7
f 35/76/5 34/66/5 39/74/5 38/77/5
f 33/65/6 36/79/6 37/80/6 40/73/6
f 41/81/1 42/82/1 43/83/1 44/84/1
f 45/85/2 46/86/2 47/87/2 48/88/2
f 42/82/3 41/81/3 48/89/3 47/90/3
f 44/91/7 43/92/7 46/93/7 45/94/7
f 43/92/5 42/82/5 47/90/5 46/93/5
f 41/81/6 44/95/6 45/96/6 48/89/6
