# Blender v2.79 (sub 0) OBJ File: ''
# www.blender.org
mtllib ceramics_pitchet.mtl
o ceramics_pitchet
v -0.119083 0.062566 0.058216
v 0.058304 0.062714 0.118962
v 0.119050 0.062434 -0.058425
v -0.058337 0.062286 -0.119171
v -0.058321 -0.000214 -0.119066
v 0.119066 -0.000066 -0.058321
v 0.058321 0.000214 0.119066
v -0.119066 0.000066 0.058321
v -0.178245 0.187516 0.037759
v -0.139365 0.187659 0.117136
v -0.038122 0.187192 -0.178509
v -0.117499 0.187236 -0.139628
v -0.058321 -0.000214 -0.119066
v -0.058321 -0.000214 -0.119066
v -0.119066 0.000066 0.058321
v -0.119066 0.000066 0.058321
v -0.178278 0.312516 0.037550
v -0.139398 0.312659 0.116927
v -0.038155 0.312192 -0.178718
v -0.117532 0.312236 -0.139837
v -0.117499 0.187236 -0.139628
v -0.038122 0.187192 -0.178509
v -0.139365 0.187659 0.117136
v -0.178245 0.187516 0.037759
v -0.119165 0.375066 0.057694
v -0.089601 0.375090 0.067818
v -0.028855 0.374810 -0.109569
v -0.058420 0.374785 -0.119693
v -0.117532 0.312236 -0.139837
v -0.058403 0.312285 -0.119589
v -0.119149 0.312566 0.057798
v -0.178278 0.312516 0.037550
v -0.109074 0.500019 0.027921
v -0.079510 0.500043 0.038045
v -0.039012 0.499856 -0.080213
v -0.068577 0.499832 -0.090337
v -0.068544 0.374832 -0.090129
v -0.038979 0.374857 -0.080004
v -0.079477 0.375043 0.038254
v -0.109041 0.375019 0.028129
v -0.139365 0.187659 0.117136
v 0.038023 0.187808 0.177882
v 0.058271 0.187714 0.118753
v -0.119116 0.187566 0.058007
v -0.119066 0.000066 0.058321
v 0.058321 0.000214 0.119066
v 0.058321 0.000214 0.119066
v -0.119066 0.000066 0.058321
v -0.139398 0.312659 0.116927
v 0.037990 0.312807 0.177673
v 0.058238 0.312714 0.118544
v -0.119149 0.312566 0.057798
v -0.119116 0.187566 0.058007
v 0.058271 0.187714 0.118753
v 0.038023 0.187808 0.177882
v -0.139365 0.187659 0.117136
v -0.119165 0.375066 0.057694
v 0.058222 0.375214 0.118440
v 0.068346 0.375167 0.088875
v -0.109041 0.375019 0.028129
v -0.119149 0.312566 0.057798
v 0.058238 0.312714 0.118544
v 0.037990 0.312807 0.177673
v -0.139398 0.312659 0.116927
v -0.089634 0.500090 0.067609
v 0.028624 0.500189 0.108106
v 0.068313 0.500167 0.088666
v -0.109074 0.500019 0.027921
v -0.109041 0.375019 0.028129
v 0.068346 0.375167 0.088875
v 0.028657 0.375189 0.108315
v -0.089601 0.375090 0.067818
v -0.068577 0.499832 -0.090337
v 0.108810 0.499980 -0.029592
v 0.089370 0.499909 -0.069281
v -0.028888 0.499810 -0.109778
v -0.028855 0.374810 -0.109569
v 0.089403 0.374909 -0.069072
v 0.108843 0.374980 -0.029383
v -0.068544 0.374832 -0.090129
v 0.038748 0.500142 0.078542
v 0.068313 0.500167 0.088666
v 0.108810 0.499980 -0.029592
v 0.079246 0.499955 -0.039716
v 0.079279 0.374955 -0.039507
v 0.108843 0.374980 -0.029383
v 0.068346 0.375167 0.088875
v 0.038781 0.375142 0.078751
v -0.058370 0.187285 -0.119380
v 0.119017 0.187434 -0.058634
v 0.139266 0.187340 -0.117763
v -0.038122 0.187192 -0.178509
v -0.058321 -0.000214 -0.119066
v 0.119066 -0.000066 -0.058321
v 0.119066 -0.000066 -0.058321
v -0.058321 -0.000214 -0.119066
v -0.058403 0.312285 -0.119589
v 0.118984 0.312434 -0.058843
v 0.139233 0.312340 -0.117972
v -0.038155 0.312192 -0.178718
v -0.038122 0.187192 -0.178509
v 0.139266 0.187340 -0.117763
v 0.119017 0.187434 -0.058634
v -0.058370 0.187285 -0.119380
v -0.068544 0.374832 -0.090129
v 0.108843 0.374980 -0.029383
v 0.118967 0.374933 -0.058947
v -0.058420 0.374785 -0.119693
v -0.038155 0.312192 -0.178718
v 0.139233 0.312340 -0.117972
v 0.118984 0.312434 -0.058843
v -0.058403 0.312285 -0.119589
v 0.028657 0.375189 0.108315
v 0.058222 0.375214 0.118440
v 0.118967 0.374933 -0.058947
v 0.089403 0.374909 -0.069072
v 0.118984 0.312434 -0.058843
v 0.178113 0.312483 -0.038594
v 0.117367 0.312763 0.138793
v 0.058238 0.312714 0.118544
v 0.038023 0.187808 0.177882
v 0.117400 0.187764 0.139001
v 0.178146 0.187483 -0.038385
v 0.139266 0.187340 -0.117763
v 0.119066 -0.000066 -0.058321
v 0.119066 -0.000066 -0.058321
v 0.058321 0.000214 0.119066
v 0.058321 0.000214 0.119066
v 0.037990 0.312807 0.177673
v 0.117367 0.312763 0.138793
v 0.178113 0.312483 -0.038594
v 0.139233 0.312340 -0.117972
v 0.139266 0.187340 -0.117763
v 0.178146 0.187483 -0.038385
v 0.117400 0.187764 0.139001
v 0.038023 0.187808 0.177882
v -0.119165 0.375066 0.057694
v -0.119165 0.375066 0.057694
v -0.119165 0.375066 0.057694
v -0.119165 0.375066 0.057694
v -0.178278 0.312516 0.037550
v -0.119149 0.312566 0.057798
v -0.139398 0.312659 0.116927
v -0.178278 0.312516 0.037550
v -0.058420 0.374785 -0.119693
v -0.058420 0.374785 -0.119693
v -0.058420 0.374785 -0.119693
v -0.058420 0.374785 -0.119693
v -0.117532 0.312236 -0.139837
v -0.038155 0.312192 -0.178718
v -0.058403 0.312285 -0.119589
v -0.117532 0.312236 -0.139837
v 0.118967 0.374933 -0.058947
v 0.118967 0.374933 -0.058947
v 0.118967 0.374933 -0.058947
v 0.118967 0.374933 -0.058947
v 0.139233 0.312340 -0.117972
v 0.178113 0.312483 -0.038594
v 0.178113 0.312483 -0.038594
v 0.118984 0.312434 -0.058843
v 0.058222 0.375214 0.118440
v 0.058222 0.375214 0.118440
v 0.058222 0.375214 0.118440
v 0.058222 0.375214 0.118440
v 0.058238 0.312714 0.118544
v 0.117367 0.312763 0.138793
v 0.117367 0.312763 0.138793
v 0.037990 0.312807 0.177673
v 0.078437 0.500120 0.059102
v 0.137566 0.500170 0.079350
v 0.157815 0.500076 0.020221
v 0.098686 0.500027 -0.000027
v 0.098702 0.437527 0.000077
v 0.157815 0.500076 0.020221
v 0.137566 0.500170 0.079350
v 0.078454 0.437620 0.059206
v -0.158071 0.468672 -0.021840
v -0.098942 0.468722 -0.001592
v -0.078693 0.468628 -0.060721
v -0.137822 0.468579 -0.080969
v -0.167378 0.437304 -0.091041
v -0.078685 0.437378 -0.060668
v -0.098933 0.437472 -0.001539
v -0.187627 0.437398 -0.031912
v -0.187627 0.437398 -0.031912
v -0.158062 0.437422 -0.021788
v -0.137814 0.437329 -0.080917
v -0.167378 0.437304 -0.091041
v -0.167345 0.312304 -0.090832
v -0.137781 0.312329 -0.080708
v -0.158029 0.312423 -0.021579
v -0.187594 0.312398 -0.031703
v -0.187594 0.312398 -0.031703
v -0.158029 0.312423 -0.021579
v -0.137781 0.312329 -0.080708
v -0.167345 0.312304 -0.090832
v -0.167337 0.281054 -0.090780
v -0.137764 0.249829 -0.080604
v -0.158013 0.249923 -0.021475
v -0.187586 0.281148 -0.031651
vt 1.062500 0.937500
vt 1.109375 0.937500
vt 1.109375 0.984375
vt 1.062500 0.984375
vt 1.109375 0.937500
vt 1.156250 0.937500
vt 1.156250 0.984375
vt 1.109375 0.984375
vt 1.062500 0.921875
vt 1.109375 0.921875
vt 1.203125 0.937500
vt 1.156250 0.937500
vt 1.156250 0.921875
vt 1.203125 0.921875
vt 1.015625 0.937500
vt 1.015625 0.921875
vt 1.312500 0.937500
vt 1.328125 0.937500
vt 1.328125 0.984375
vt 1.312500 0.984375
vt 1.328125 0.937500
vt 1.343750 0.937500
vt 1.343750 0.984375
vt 1.328125 0.984375
vt 1.312500 0.890625
vt 1.328125 0.890625
vt 1.390625 0.937500
vt 1.375000 0.937500
vt 1.375000 0.890625
vt 1.390625 0.890625
vt 1.265625 0.937500
vt 1.265625 0.890625
vt 1.562500 0.937500
vt 1.578125 0.937500
vt 1.578125 0.984375
vt 1.562500 0.984375
vt 1.578125 0.937500
vt 1.593750 0.937500
vt 1.593750 0.984375
vt 1.578125 0.984375
vt 1.562500 0.906250
vt 1.578125 0.906250
vt 1.640625 0.937500
vt 1.625000 0.937500
vt 1.625000 0.906250
vt 1.640625 0.906250
vt 1.515625 0.937500
vt 1.515625 0.906250
vt 1.812500 0.937500
vt 1.828125 0.937500
vt 1.828125 0.984375
vt 1.812500 0.984375
vt 1.828125 0.937500
vt 1.843750 0.937500
vt 1.843750 0.984375
vt 1.828125 0.984375
vt 1.812500 0.921875
vt 1.828125 0.921875
vt 1.890625 0.937500
vt 1.875000 0.937500
vt 1.875000 0.921875
vt 1.890625 0.921875
vt 1.765625 0.937500
vt 1.765625 0.921875
vt 1.046875 0.828125
vt 1.062500 0.828125
vt 1.062500 0.859375
vt 1.046875 0.859375
vt 1.062500 0.828125
vt 1.078125 0.828125
vt 1.078125 0.859375
vt 1.062500 0.859375
vt 1.046875 0.796875
vt 1.062500 0.796875
vt 1.109375 0.828125
vt 1.093750 0.828125
vt 1.093750 0.796875
vt 1.109375 0.796875
vt 1.015625 0.828125
vt 1.015625 0.796875
vt 1.156250 0.843750
vt 1.203125 0.843750
vt 1.203125 0.859375
vt 1.156250 0.859375
vt 1.203125 0.843750
vt 1.250000 0.843750
vt 1.250000 0.859375
vt 1.203125 0.859375
vt 1.156250 0.796875
vt 1.203125 0.796875
vt 1.265625 0.843750
vt 1.218750 0.843750
vt 1.218750 0.796875
vt 1.265625 0.796875
vt 1.140625 0.843750
vt 1.140625 0.796875
vt 1.406250 0.843750
vt 1.453125 0.843750
vt 1.453125 0.859375
vt 1.406250 0.859375
vt 1.453125 0.843750
vt 1.500000 0.843750
vt 1.500000 0.859375
vt 1.453125 0.859375
vt 1.406250 0.812500
vt 1.453125 0.812500
vt 1.515625 0.843750
vt 1.468750 0.843750
vt 1.468750 0.812500
vt 1.515625 0.812500
vt 1.390625 0.843750
vt 1.390625 0.812500
vt 1.406250 0.968750
vt 1.453125 0.968750
vt 1.453125 0.984375
vt 1.406250 0.984375
vt 1.453125 0.968750
vt 1.500000 0.968750
vt 1.500000 0.984375
vt 1.453125 0.984375
vt 1.406250 0.953125
vt 1.453125 0.953125
vt 1.515625 0.968750
vt 1.468750 0.968750
vt 1.468750 0.953125
vt 1.515625 0.953125
vt 1.390625 0.968750
vt 1.390625 0.953125
vt 1.656250 0.843750
vt 1.687500 0.843750
vt 1.687500 0.859375
vt 1.656250 0.859375
vt 1.687500 0.843750
vt 1.718750 0.843750
vt 1.718750 0.859375
vt 1.687500 0.859375
vt 1.656250 0.812500
vt 1.687500 0.812500
vt 1.734375 0.843750
vt 1.703125 0.843750
vt 1.703125 0.812500
vt 1.734375 0.812500
vt 1.640625 0.843750
vt 1.640625 0.812500
vt 1.781250 0.843750
vt 1.812500 0.843750
vt 1.812500 0.859375
vt 1.781250 0.859375
vt 1.812500 0.843750
vt 1.843750 0.843750
vt 1.843750 0.859375
vt 1.812500 0.859375
vt 1.781250 0.812500
vt 1.812500 0.812500
vt 1.859375 0.843750
vt 1.828125 0.843750
vt 1.828125 0.812500
vt 1.859375 0.812500
vt 1.765625 0.843750
vt 1.765625 0.812500
vt 1.921875 0.828125
vt 1.937500 0.828125
vt 1.937500 0.859375
vt 1.921875 0.859375
vt 1.937500 0.828125
vt 1.953125 0.828125
vt 1.953125 0.859375
vt 1.937500 0.859375
vt 1.921875 0.796875
vt 1.937500 0.796875
vt 1.984375 0.828125
vt 1.968750 0.828125
vt 1.968750 0.796875
vt 1.984375 0.796875
vt 1.890625 0.828125
vt 1.890625 0.796875
vt 1.031250 0.718750
vt 1.078125 0.718750
vt 1.078125 0.734375
vt 1.031250 0.734375
vt 1.078125 0.718750
vt 1.125000 0.718750
vt 1.125000 0.734375
vt 1.078125 0.734375
vt 1.031250 0.671875
vt 1.078125 0.671875
vt 1.140625 0.718750
vt 1.093750 0.718750
vt 1.093750 0.671875
vt 1.140625 0.671875
vt 1.015625 0.718750
vt 1.015625 0.671875
vt 1.281250 0.718750
vt 1.328125 0.718750
vt 1.328125 0.734375
vt 1.281250 0.734375
vt 1.328125 0.718750
vt 1.375000 0.718750
vt 1.375000 0.734375
vt 1.328125 0.734375
vt 1.281250 0.687500
vt 1.328125 0.687500
vt 1.390625 0.718750
vt 1.343750 0.718750
vt 1.343750 0.687500
vt 1.390625 0.687500
vt 1.265625 0.718750
vt 1.265625 0.687500
vt 1.656250 0.968750
vt 1.703125 0.968750
vt 1.703125 0.984375
vt 1.656250 0.984375
vt 1.703125 0.968750
vt 1.750000 0.968750
vt 1.750000 0.984375
vt 1.703125 0.984375
vt 1.656250 0.953125
vt 1.703125 0.953125
vt 1.765625 0.968750
vt 1.718750 0.968750
vt 1.718750 0.953125
vt 1.765625 0.953125
vt 1.640625 0.968750
vt 1.640625 0.953125
vt 1.562500 0.687500
vt 1.578125 0.687500
vt 1.578125 0.734375
vt 1.562500 0.734375
vt 1.578125 0.687500
vt 1.593750 0.687500
vt 1.593750 0.734375
vt 1.578125 0.734375
vt 1.562500 0.671875
vt 1.578125 0.671875
vt 1.640625 0.687500
vt 1.625000 0.687500
vt 1.625000 0.671875
vt 1.640625 0.671875
vt 1.515625 0.687500
vt 1.515625 0.671875
vt 1.812500 0.687500
vt 1.828125 0.687500
vt 1.828125 0.734375
vt 1.812500 0.734375
vt 1.828125 0.687500
vt 1.843750 0.687500
vt 1.843750 0.734375
vt 1.828125 0.734375
vt 1.812500 0.640625
vt 1.828125 0.640625
vt 1.890625 0.687500
vt 1.875000 0.687500
vt 1.875000 0.640625
vt 1.890625 0.640625
vt 1.765625 0.687500
vt 1.765625 0.640625
vt 1.062500 0.562500
vt 1.078125 0.562500
vt 1.078125 0.609375
vt 1.062500 0.609375
vt 1.078125 0.562500
vt 1.093750 0.562500
vt 1.093750 0.609375
vt 1.078125 0.609375
vt 1.062500 0.531250
vt 1.078125 0.531250
vt 1.140625 0.562500
vt 1.125000 0.562500
vt 1.125000 0.531250
vt 1.140625 0.531250
vt 1.015625 0.562500
vt 1.015625 0.531250
vt 1.906250 0.968750
vt 1.921875 0.968750
vt 1.921875 0.984375
vt 1.906250 0.984375
vt 1.921875 0.968750
vt 1.937500 0.968750
vt 1.937500 0.984375
vt 1.921875 0.984375
vt 1.906250 0.953125
vt 1.921875 0.953125
vt 1.953125 0.968750
vt 1.937500 0.968750
vt 1.937500 0.953125
vt 1.953125 0.953125
vt 1.890625 0.968750
vt 1.890625 0.953125
vt 1.656250 0.718750
vt 1.671875 0.718750
vt 1.671875 0.734375
vt 1.656250 0.734375
vt 1.671875 0.718750
vt 1.687500 0.718750
vt 1.687500 0.734375
vt 1.671875 0.734375
vt 1.656250 0.703125
vt 1.671875 0.703125
vt 1.703125 0.718750
vt 1.687500 0.718750
vt 1.687500 0.703125
vt 1.703125 0.703125
vt 1.640625 0.718750
vt 1.640625 0.703125
vt 1.906250 0.718750
vt 1.921875 0.718750
vt 1.921875 0.734375
vt 1.906250 0.734375
vt 1.921875 0.718750
vt 1.937500 0.718750
vt 1.937500 0.734375
vt 1.921875 0.734375
vt 1.906250 0.703125
vt 1.921875 0.703125
vt 1.953125 0.718750
vt 1.937500 0.718750
vt 1.937500 0.703125
vt 1.953125 0.703125
vt 1.890625 0.718750
vt 1.890625 0.703125
vt 1.156250 0.593750
vt 1.171875 0.593750
vt 1.171875 0.609375
vt 1.156250 0.609375
vt 1.171875 0.593750
vt 1.187500 0.593750
vt 1.187500 0.609375
vt 1.171875 0.609375
vt 1.156250 0.578125
vt 1.171875 0.578125
vt 1.203125 0.593750
vt 1.187500 0.593750
vt 1.187500 0.578125
vt 1.203125 0.578125
vt 1.140625 0.593750
vt 1.140625 0.578125
vt 1.281250 0.593750
vt 1.296875 0.593750
vt 1.296875 0.609375
vt 1.281250 0.609375
vt 1.296875 0.593750
vt 1.312500 0.593750
vt 1.312500 0.609375
vt 1.296875 0.609375
vt 1.281250 0.578125
vt 1.296875 0.578125
vt 1.328125 0.593750
vt 1.312500 0.593750
vt 1.312500 0.578125
vt 1.328125 0.578125
vt 1.265625 0.593750
vt 1.265625 0.578125
vt 1.406250 0.593750
vt 1.421875 0.593750
vt 1.421875 0.609375
vt 1.406250 0.609375
vt 1.421875 0.593750
vt 1.437500 0.593750
vt 1.437500 0.609375
vt 1.421875 0.609375
vt 1.406250 0.578125
vt 1.421875 0.578125
vt 1.453125 0.593750
vt 1.437500 0.593750
vt 1.437500 0.578125
vt 1.453125 0.578125
vt 1.390625 0.593750
vt 1.390625 0.578125
vt 1.531250 0.593750
vt 1.546875 0.593750
vt 1.546875 0.609375
vt 1.531250 0.609375
vt 1.546875 0.593750
vt 1.562500 0.593750
vt 1.562500 0.609375
vt 1.546875 0.609375
vt 1.531250 0.562500
vt 1.546875 0.562500
vt 1.578125 0.593750
vt 1.562500 0.593750
vt 1.562500 0.562500
vt 1.578125 0.562500
vt 1.515625 0.593750
vt 1.515625 0.562500
vt 1.656250 0.593750
vt 1.671875 0.593750
vt 1.671875 0.609375
vt 1.656250 0.609375
vt 1.671875 0.593750
vt 1.687500 0.593750
vt 1.687500 0.609375
vt 1.671875 0.609375
vt 1.656250 0.578125
vt 1.671875 0.578125
vt 1.703125 0.593750
vt 1.687500 0.593750
vt 1.687500 0.578125
vt 1.703125 0.578125
vt 1.640625 0.593750
vt 1.640625 0.578125
vn -0.0003 1.0000 -0.0017
vn 0.0003 -1.0000 0.0017
vn -0.3240 0.0015 0.9461
vn 0.3240 -0.0015 -0.9461
vn 0.9461 0.0008 0.3240
vn -0.9461 -0.0008 -0.3240
vn 0.0000 0.0000 1.0000
vn -0.8740 -0.2289 0.4285
vn -0.4281 -0.2310 -0.8737
vn -0.8974 -0.3170 -0.3068
vn -0.8981 0.0005 0.4399
vn -0.4399 -0.0016 -0.8981
vn 0.8463 -0.4465 0.2905
vn -0.6692 0.7065 -0.2303
vn -0.3073 -0.3148 0.8980
vn -0.2293 0.7082 0.6678
vn 0.2899 -0.4486 -0.8454
vn 0.4399 0.0016 0.8981
vn 0.8981 -0.0005 -0.4399
vn 0.3074 -0.3176 -0.8970
vn -0.2897 -0.4459 0.8469
vn 0.2289 0.7060 -0.6701
vn 0.6688 0.7077 0.2279
vn -0.8461 -0.4479 -0.2890
vn 0.4282 -0.2278 0.8745
vn 0.8742 -0.2299 -0.4278
vn 0.8976 -0.3155 0.3079
vn -0.7334 0.5778 0.3582
vn -0.3593 0.5760 -0.7342
vn 0.7331 0.5769 -0.3601
vn 0.3590 0.5787 0.7323
vn 0.6692 -0.7065 0.2303
vn -0.6688 -0.7077 -0.2279
usemtl ModelMaterial
s off
f 1/1/1 2/2/1 3/3/1 4/4/1
f 5/5/2 6/6/2 7/7/2 8/8/2
f 2/2/3 1/1/3 8/9/3 7/10/3
f 4/11/4 3/12/4 6/13/4 5/14/4
f 3/12/5 2/2/5 7/10/5 6/13/5
f 1/1/6 4/15/6 5/16/6 8/9/6
f 9/17/1 10/18/1 11/19/1 12/20/1
f 13/21/7 14/22/7 15/23/7 16/24/7
f 10/18/8 9/17/8 16/25/8 15/26/8
f 12/27/9 11/28/9 14/29/9 13/30/9
f 11/28/5 10/18/5 15/26/5 14/29/5
f 9/17/10 12/31/10 13/32/10 16/25/10
f 17/33/1 18/34/1 19/35/1 20/36/1
f 21/37/2 22/38/2 23/39/2 24/40/2
f 18/34/11 17/33/11 24/41/11 23/42/11
f 20/43/12 19/44/12 22/45/12 21/46/12
f 19/44/5 18/34/5 23/42/5 22/45/5
f 17/33/6 20/47/6 21/48/6 24/41/6
f 25/49/1 26/50/1 27/51/1 28/52/1
f 29/53/2 30/54/2 31/55/2 32/56/2
f 26/50/3 25/49/3 32/57/3 31/58/3
f 28/59/4 27/60/4 30/61/4 29/62/4
f 27/60/13 26/50/13 31/58/13 30/61/13
f 25/49/14 28/63/14 29/64/14 32/57/14
f 33/65/1 34/66/1 35/67/1 36/68/1
f 37/69/2 38/70/2 39/71/2 40/72/2
f 34/66/3 33/65/3 40/73/3 39/74/3
f 36/75/4 35/76/4 38/77/4 37/78/4
f 35/76/5 34/66/5 39/74/5 38/77/5
f 33/65/6 36/79/6 37/80/6 40/73/6
f 41/81/1 42/82/1 43/83/1 44/84/1
f 45/85/7 46/86/7 47/87/7 48/88/7
f 42/82/15 41/81/15 48/89/15 47/90/15
f 44/91/4 43/92/4 46/93/4 45/94/4
f 43/92/5 42/82/5 47/90/5 46/93/5
f 41/81/6 44/95/6 45/96/6 48/89/6
f 49/97/1 50/98/1 51/99/1 52/100/1
f 53/101/2 54/102/2 55/103/2 56/104/2
f 50/98/3 49/97/3 56/105/3 55/106/3
f 52/107/4 51/108/4 54/109/4 53/110/4
f 51/108/5 50/98/5 55/106/5 54/109/5
f 49/97/6 52/111/6 53/112/6 56/105/6
f 57/113/1 58/114/1 59/115/1 60/116/1
f 61/117/2 62/118/2 63/119/2 64/120/2
f 58/114/16 57/113/16 64/121/16 63/122/16
f 60/123/17 59/124/17 62/125/17 61/126/17
f 59/124/5 58/114/5 63/122/5 62/125/5
f 57/113/6 60/127/6 61/128/6 64/121/6
f 65/129/1 66/130/1 67/131/1 68/132/1
f 69/133/2 70/134/2 71/135/2 72/136/2
f 66/130/3 65/129/3 72/137/3 71/138/3
f 68/139/4 67/140/4 70/141/4 69/142/4
f 67/140/18 66/130/18 71/138/18 70/141/18
f 65/129/11 68/143/11 69/144/11 72/137/11
f 73/145/1 74/146/1 75/147/1 76/148/1
f 77/149/2 78/150/2 79/151/2 80/152/2
f 74/146/3 73/145/3 80/153/3 79/154/3
f 76/155/4 75/156/4 78/157/4 77/158/4
f 75/156/19 74/146/19 79/154/19 78/157/19
f 73/145/12 76/159/12 77/160/12 80/153/12
f 81/161/1 82/162/1 83/163/1 84/164/1
f 85/165/2 86/166/2 87/167/2 88/168/2
f 82/162/3 81/161/3 88/169/3 87/170/3
f 84/171/4 83/172/4 86/173/4 85/174/4
f 83/172/5 82/162/5 87/170/5 86/173/5
f 81/161/6 84/175/6 85/176/6 88/169/6
f 89/177/1 90/178/1 91/179/1 92/180/1
f 93/181/7 94/182/7 95/183/7 96/184/7
f 90/178/3 89/177/3 96/185/3 95/186/3
f 92/187/20 91/188/20 94/189/20 93/190/20
f 91/188/5 90/178/5 95/186/5 94/189/5
f 89/177/6 92/191/6 93/192/6 96/185/6
f 97/193/1 98/194/1 99/195/1 100/196/1
f 101/197/2 102/198/2 103/199/2 104/200/2
f 98/194/3 97/193/3 104/201/3 103/202/3
f 100/203/4 99/204/4 102/205/4 101/206/4
f 99/204/5 98/194/5 103/202/5 102/205/5
f 97/193/6 100/207/6 101/208/6 104/201/6
f 105/209/1 106/210/1 107/211/1 108/212/1
f 109/213/2 110/214/2 111/215/2 112/216/2
f 106/210/21 105/209/21 112/217/21 111/218/21
f 108/219/22 107/220/22 110/221/22 109/222/22
f 107/220/5 106/210/5 111/218/5 110/221/5
f 105/209/6 108/223/6 109/224/6 112/217/6
f 113/225/1 114/226/1 115/227/1 116/228/1
f 117/229/2 118/230/2 119/231/2 120/232/2
f 114/226/3 113/225/3 120/233/3 119/234/3
f 116/235/4 115/236/4 118/237/4 117/238/4
f 115/236/23 114/226/23 119/234/23 118/237/23
f 113/225/24 116/239/24 117/240/24 120/233/24
f 121/241/1 122/242/1 123/243/1 124/244/1
f 125/245/7 126/246/7 127/247/7 128/248/7
f 122/242/25 121/241/25 128/249/25 127/250/25
f 124/251/26 123/252/26 126/253/26 125/254/26
f 123/252/27 122/242/27 127/250/27 126/253/27
f 121/241/6 124/255/6 125/256/6 128/249/6
f 129/257/1 130/258/1 131/259/1 132/260/1
f 133/261/2 134/262/2 135/263/2 136/264/2
f 130/258/18 129/257/18 136/265/18 135/266/18
f 132/267/19 131/268/19 134/269/19 133/270/19
f 131/268/5 130/258/5 135/266/5 134/269/5
f 129/257/6 132/271/6 133/272/6 136/265/6
f 137/273/7 138/274/7 139/275/7 140/276/7
f 141/277/2 142/278/2 143/279/2 144/280/2
f 138/274/28 137/273/28 144/281/28 143/282/28
f 140/283/4 139/284/4 142/285/4 141/286/4
f 139/284/5 138/274/5 143/282/5 142/285/5
f 137/273/7 140/287/7 141/288/7 144/281/7
f 145/289/7 146/290/7 147/291/7 148/292/7
f 149/293/2 150/294/2 151/295/2 152/296/2
f 146/290/3 145/289/3 152/297/3 151/298/3
f 148/299/29 147/300/29 150/301/29 149/302/29
f 147/300/5 146/290/5 151/298/5 150/301/5
f 145/289/7 148/303/7 149/304/7 152/297/7
f 153/305/7 154/306/7 155/307/7 156/308/7
f 157/309/2 158/310/2 159/311/2 160/312/2
f 154/306/3 153/305/3 160/313/3 159/314/3
f 156/315/30 155/316/30 158/317/30 157/318/30
f 155/316/7 154/306/7 159/314/7 158/317/7
f 153/305/6 156/319/6 157/320/6 160/313/6
f 161/321/7 162/322/7 163/323/7 164/324/7
f 165/325/2 166/326/2 167/327/2 168/328/2
f 162/322/31 161/321/31 168/329/31 167/330/31
f 164/331/4 163/332/4 166/333/4 165/334/4
f 163/332/7 162/322/7 167/330/7 166/333/7
f 161/321/6 164/335/6 165/336/6 168/329/6
f 169/337/1 170/338/1 171/339/1 172/340/1
f 173/341/32 174/342/32 175/343/32 176/344/32
f 170/338/3 169/337/3 176/345/3 175/346/3
f 172/347/4 171/348/4 174/349/4 173/350/4
f 171/348/7 170/338/7 175/346/7 174/349/7
f 169/337/6 172/351/6 173/352/6 176/345/6
f 177/353/1 178/354/1 179/355/1 180/356/1
f 181/357/2 182/358/2 183/359/2 184/360/2
f 178/354/3 177/353/3 184/361/3 183/362/3
f 180/363/4 179/364/4 182/365/4 181/366/4
f 179/364/5 178/354/5 183/362/5 182/365/5
f 177/353/14 180/367/14 181/368/14 184/361/14
f 185/369/1 186/370/1 187/371/1 188/372/1
f 189/373/2 190/374/2 191/375/2 192/376/2
f 186/370/3 185/369/3 192/377/3 191/378/3
f 188/379/4 187/380/4 190/381/4 189/382/4
f 187/380/5 186/370/5 191/378/5 190/381/5
f 185/369/6 188/383/6 189/384/6 192/377/6
f 193/385/1 194/386/1 195/387/1 196/388/1
f 197/389/33 198/390/33 199/391/33 200/392/33
f 194/386/3 193/385/3 200/393/3 199/394/3
f 196/395/4 195/396/4 198/397/4 197/398/4
f 195/396/5 194/386/5 199/394/5 198/397/5
f 193/385/6 196/399/6 197/400/6 200/393/6
