# Blender v2.79 (sub 0) OBJ File: ''
# www.blender.org
mtllib ceramics_platter.mtl
o ceramics_platter_translucent
v -0.250000 0.062500 0.250000
v 0.250000 0.062500 0.250000
v 0.250000 0.062500 -0.250000
v -0.250000 0.062500 -0.250000
v -0.250000 0.000000 -0.250000
v 0.250000 0.000000 -0.250000
v 0.250000 -0.000000 0.250000
v -0.250000 -0.000000 0.250000
v -0.437500 0.125000 0.250000
v -0.250000 0.062500 0.250000
v -0.250000 0.062500 -0.250000
v -0.437500 0.125000 -0.250000
v -0.437500 0.062500 -0.250000
v -0.250000 0.000000 -0.250000
v -0.250000 -0.000000 0.250000
v -0.437500 0.062500 0.250000
v 0.250000 0.062500 0.250000
v 0.437500 0.125000 0.250000
v 0.437500 0.125000 -0.250000
v 0.250000 0.062500 -0.250000
v 0.250000 0.000000 -0.250000
v 0.437500 0.062500 -0.250000
v 0.437500 0.062500 0.250000
v 0.250000 -0.000000 0.250000
v -0.250000 0.125000 0.437500
v 0.250000 0.125000 0.437500
v 0.250000 0.062500 0.250000
v -0.250000 0.062500 0.250000
v -0.250000 -0.000000 0.250000
v 0.250000 -0.000000 0.250000
v 0.250000 0.062500 0.437500
v -0.250000 0.062500 0.437500
v -0.250000 0.062500 -0.250000
v 0.250000 0.062500 -0.250000
v 0.250000 0.125000 -0.437500
v -0.250000 0.125000 -0.437500
v -0.250000 0.062500 -0.437500
v 0.250000 0.062500 -0.437500
v 0.250000 0.000000 -0.250000
v -0.250000 0.000000 -0.250000
v -0.437500 0.125000 -0.250000
v -0.250000 0.062500 -0.250000
v -0.250000 0.125000 -0.437500
v -0.343750 0.125000 -0.343750
v -0.343750 0.062500 -0.343750
v -0.250000 0.062500 -0.437500
v -0.250000 0.000000 -0.250000
v -0.437500 0.062500 -0.250000
v -0.343750 0.125000 0.343750
v -0.250000 0.125000 0.437500
v -0.250000 0.062500 0.250000
v -0.437500 0.125000 0.250000
v -0.437500 0.062500 0.250000
v -0.250000 -0.000000 0.250000
v -0.250000 0.062500 0.437500
v -0.343750 0.062500 0.343750
v 0.250000 0.125000 0.437500
v 0.343750 0.125000 0.343750
v 0.437500 0.125000 0.250000
v 0.250000 0.062500 0.250000
v 0.250000 -0.000000 0.250000
v 0.437500 0.062500 0.250000
v 0.343750 0.062500 0.343750
v 0.250000 0.062500 0.437500
v 0.250000 0.062500 -0.250000
v 0.437500 0.125000 -0.250000
v 0.343750 0.125000 -0.343750
v 0.250000 0.125000 -0.437500
v 0.250000 0.062500 -0.437500
v 0.343750 0.062500 -0.343750
v 0.437500 0.062500 -0.250000
v 0.250000 0.000000 -0.250000
vt 1.140625 0.859375
vt 1.265625 0.859375
vt 1.265625 0.984375
vt 1.140625 0.984375
vt 1.265625 0.859375
vt 1.390625 0.859375
vt 1.390625 0.984375
vt 1.265625 0.984375
vt 1.140625 0.843750
vt 1.265625 0.843750
vt 1.515625 0.859375
vt 1.390625 0.859375
vt 1.390625 0.843750
vt 1.515625 0.843750
vt 1.015625 0.859375
vt 1.015625 0.843750
vt 1.765625 0.859375
vt 1.812500 0.859375
vt 1.812500 0.984375
vt 1.765625 0.984375
vt 1.812500 0.859375
vt 1.859375 0.859375
vt 1.859375 0.984375
vt 1.812500 0.984375
vt 1.765625 0.843750
vt 1.812500 0.843750
vt 1.984375 0.859375
vt 1.937500 0.859375
vt 1.937500 0.843750
vt 1.984375 0.843750
vt 1.640625 0.859375
vt 1.640625 0.843750
vt 1.140625 0.609375
vt 1.187500 0.609375
vt 1.187500 0.734375
vt 1.140625 0.734375
vt 1.187500 0.609375
vt 1.234375 0.609375
vt 1.234375 0.734375
vt 1.187500 0.734375
vt 1.140625 0.593750
vt 1.187500 0.593750
vt 1.359375 0.609375
vt 1.312500 0.609375
vt 1.312500 0.593750
vt 1.359375 0.593750
vt 1.015625 0.609375
vt 1.015625 0.593750
vt 1.312500 0.687500
vt 1.437500 0.687500
vt 1.437500 0.734375
vt 1.312500 0.734375
vt 1.437500 0.687500
vt 1.562500 0.687500
vt 1.562500 0.734375
vt 1.437500 0.734375
vt 1.312500 0.671875
vt 1.437500 0.671875
vt 1.609375 0.687500
vt 1.484375 0.687500
vt 1.484375 0.671875
vt 1.609375 0.671875
vt 1.265625 0.687500
vt 1.265625 0.671875
vt 1.687500 0.687500
vt 1.812500 0.687500
vt 1.812500 0.734375
vt 1.687500 0.734375
vt 1.812500 0.687500
vt 1.937500 0.687500
vt 1.937500 0.734375
vt 1.812500 0.734375
vt 1.687500 0.671875
vt 1.812500 0.671875
vt 1.984375 0.687500
vt 1.859375 0.687500
vt 1.859375 0.671875
vt 1.984375 0.671875
vt 1.640625 0.687500
vt 1.640625 0.671875
vt 1.562500 0.937500
vt 1.609375 0.937500
vt 1.609375 0.984375
vt 1.562500 0.984375
vt 1.609375 0.937500
vt 1.656250 0.937500
vt 1.656250 0.984375
vt 1.609375 0.984375
vt 1.562500 0.921875
vt 1.609375 0.921875
vt 1.703125 0.937500
vt 1.656250 0.937500
vt 1.656250 0.921875
vt 1.703125 0.921875
vt 1.515625 0.937500
vt 1.515625 0.921875
vt 1.437500 0.562500
vt 1.484375 0.562500
vt 1.484375 0.609375
vt 1.437500 0.609375
vt 1.484375 0.562500
vt 1.531250 0.562500
vt 1.531250 0.609375
vt 1.484375 0.609375
vt 1.437500 0.546875
vt 1.484375 0.546875
vt 1.578125 0.562500
vt 1.531250 0.562500
vt 1.531250 0.546875
vt 1.578125 0.546875
vt 1.390625 0.562500
vt 1.390625 0.546875
vt 1.687500 0.562500
vt 1.734375 0.562500
vt 1.734375 0.609375
vt 1.687500 0.609375
vt 1.734375 0.562500
vt 1.781250 0.562500
vt 1.781250 0.609375
vt 1.734375 0.609375
vt 1.687500 0.546875
vt 1.734375 0.546875
vt 1.828125 0.562500
vt 1.781250 0.562500
vt 1.781250 0.546875
vt 1.828125 0.546875
vt 1.640625 0.562500
vt 1.640625 0.546875
vt 1.062500 0.437500
vt 1.109375 0.437500
vt 1.109375 0.484375
vt 1.062500 0.484375
vt 1.109375 0.437500
vt 1.156250 0.437500
vt 1.156250 0.484375
vt 1.109375 0.484375
vt 1.062500 0.421875
vt 1.109375 0.421875
vt 1.203125 0.437500
vt 1.156250 0.437500
vt 1.156250 0.421875
vt 1.203125 0.421875
vt 1.015625 0.437500
vt 1.015625 0.421875
vn 0.0000 1.0000 0.0000
vn 0.0000 -1.0000 -0.0000
vn 0.0000 0.0000 1.0000
vn 0.0000 0.0000 -1.0000
vn 1.0000 0.0000 0.0000
vn -1.0000 0.0000 0.0000
vn 0.3162 0.9487 0.0000
vn -0.3162 -0.9487 -0.0000
vn -0.3162 0.9487 0.0000
vn 0.3162 -0.9487 -0.0000
vn 0.0000 0.9487 -0.3162
vn 0.0000 -0.9487 0.3162
vn 0.0000 0.9487 0.3162
vn 0.0000 -0.9487 -0.3162
vn 0.3015 0.9045 0.3015
vn -0.3015 -0.9045 -0.3015
vn -0.7071 0.0000 -0.7071
vn 0.3015 0.9045 -0.3015
vn -0.3015 -0.9045 0.3015
vn -0.7071 -0.0000 0.7071
vn -0.3015 0.9045 -0.3015
vn 0.3015 -0.9045 0.3015
vn 0.7071 -0.0000 0.7071
vn -0.3015 0.9045 0.3015
vn 0.3015 -0.9045 -0.3015
vn 0.7071 0.0000 -0.7071
usemtl ModelMaterial.003
s 1
f 1/1/1 2/2/1 3/3/1 4/4/1
f 5/5/2 6/6/2 7/7/2 8/8/2
f 2/2/3 1/1/3 8/9/3 7/10/3
f 4/11/4 3/12/4 6/13/4 5/14/4
f 3/12/5 2/2/5 7/10/5 6/13/5
f 1/1/6 4/15/6 5/16/6 8/9/6
f 9/17/7 10/18/7 11/19/7 12/20/7
f 13/21/8 14/22/8 15/23/8 16/24/8
f 10/18/3 9/17/3 16/25/3 15/26/3
f 12/27/4 11/28/4 14/29/4 13/30/4
f 11/28/5 10/18/5 15/26/5 14/29/5
f 9/17/6 12/31/6 13/32/6 16/25/6
f 17/33/9 18/34/9 19/35/9 20/36/9
f 21/37/10 22/38/10 23/39/10 24/40/10
f 18/34/3 17/33/3 24/41/3 23/42/3
f 20/43/4 19/44/4 22/45/4 21/46/4
f 19/44/5 18/34/5 23/42/5 22/45/5
f 17/33/6 20/47/6 21/48/6 24/41/6
f 25/49/11 26/50/11 27/51/11 28/52/11
f 29/53/12 30/54/12 31/55/12 32/56/12
f 26/50/3 25/49/3 32/57/3 31/58/3
f 28/59/4 27/60/4 30/61/4 29/62/4
f 27/60/5 26/50/5 31/58/5 30/61/5
f 25/49/6 28/63/6 29/64/6 32/57/6
f 33/65/13 34/66/13 35/67/13 36/68/13
f 37/69/14 38/70/14 39/71/14 40/72/14
f 34/66/3 33/65/3 40/73/3 39/74/3
f 36/75/4 35/76/4 38/77/4 37/78/4
f 35/76/5 34/66/5 39/74/5 38/77/5
f 33/65/6 36/79/6 37/80/6 40/73/6
f 41/81/15 42/82/15 43/83/15 44/84/15
f 45/85/16 46/86/16 47/87/16 48/88/16
f 42/82/3 41/81/3 48/89/3 47/90/3
f 44/91/17 43/92/17 46/93/17 45/94/17
f 43/92/5 42/82/5 47/90/5 46/93/5
f 41/81/17 44/95/17 45/96/17 48/89/17
f 49/97/18 50/98/18 51/99/18 52/100/18
f 53/101/19 54/102/19 55/103/19 56/104/19
f 50/98/20 49/97/20 56/105/20 55/106/20
f 52/107/4 51/108/4 54/109/4 53/110/4
f 51/108/5 50/98/5 55/106/5 54/109/5
f 49/97/20 52/111/20 53/112/20 56/105/20
f 57/113/21 58/114/21 59/115/21 60/116/21
f 61/117/22 62/118/22 63/119/22 64/120/22
f 58/114/23 57/113/23 64/121/23 63/122/23
f 60/123/4 59/124/4 62/125/4 61/126/4
f 59/124/23 58/114/23 63/122/23 62/125/23
f 57/113/6 60/127/6 61/128/6 64/121/6
f 65/129/24 66/130/24 67/131/24 68/132/24
f 69/133/25 70/134/25 71/135/25 72/136/25
f 66/130/3 65/129/3 72/137/3 71/138/3
f 68/139/26 67/140/26 70/141/26 69/142/26
f 67/140/26 66/130/26 71/138/26 70/141/26
f 65/129/6 68/143/6 69/144/6 72/137/6
