# Blender v2.79 (sub 0) OBJ File: ''
# www.blender.org
mtllib ceramics_saucer.mtl
o ceramics_saucer
v -0.125000 0.062500 0.125000
v 0.125000 0.062500 0.125000
v 0.125000 0.062500 -0.125000
v -0.125000 0.062500 -0.125000
v -0.125000 0.000000 -0.125000
v 0.125000 0.000000 -0.125000
v 0.125000 -0.000000 0.125000
v -0.125000 -0.000000 0.125000
v 0.125000 0.062500 0.125000
v 0.250000 0.093750 0.125000
v 0.250000 0.093750 -0.125000
v 0.125000 0.062500 -0.125000
v 0.125000 0.000000 -0.125000
v 0.250000 0.062500 -0.125000
v 0.250000 0.062500 0.125000
v 0.125000 -0.000000 0.125000
v 0.125000 0.093750 0.250000
v 0.125000 0.093750 0.250000
v 0.250000 0.093750 0.125000
v 0.125000 0.062500 0.125000
v 0.125000 -0.000000 0.125000
v 0.250000 0.062500 0.125000
v 0.125000 0.062500 0.250000
v 0.125000 0.062500 0.250000
v -0.125000 0.062500 -0.125000
v 0.125000 0.062500 -0.125000
v 0.125000 0.093750 -0.250000
v -0.125000 0.093750 -0.250000
v -0.125000 0.062500 -0.250000
v 0.125000 0.062500 -0.250000
v 0.125000 0.000000 -0.125000
v -0.125000 0.000000 -0.125000
v 0.125000 0.062500 -0.125000
v 0.250000 0.093750 -0.125000
v 0.250000 0.093750 -0.125000
v 0.125000 0.093750 -0.250000
v 0.125000 0.062500 -0.250000
v 0.250000 0.062500 -0.125000
v 0.250000 0.062500 -0.125000
v 0.125000 0.000000 -0.125000
v -0.125000 0.093750 0.250000
v -0.125000 0.093750 0.250000
v -0.125000 0.062500 0.125000
v -0.250000 0.093750 0.125000
v -0.250000 0.062500 0.125000
v -0.125000 -0.000000 0.125000
v -0.125000 0.062500 0.250000
v -0.125000 0.062500 0.250000
v -0.250000 0.093750 0.125000
v -0.125000 0.062500 0.125000
v -0.125000 0.062500 -0.125000
v -0.250000 0.093750 -0.125000
v -0.250000 0.062500 -0.125000
v -0.125000 0.000000 -0.125000
v -0.125000 -0.000000 0.125000
v -0.250000 0.062500 0.125000
v -0.250000 0.093750 -0.125000
v -0.125000 0.062500 -0.125000
v -0.125000 0.093750 -0.250000
v -0.250000 0.093750 -0.125000
v -0.250000 0.062500 -0.125000
v -0.125000 0.062500 -0.250000
v -0.125000 0.000000 -0.125000
v -0.250000 0.062500 -0.125000
v -0.125000 0.093750 0.250000
v 0.125000 0.093750 0.250000
v 0.125000 0.062500 0.125000
v -0.125000 0.062500 0.125000
v -0.125000 -0.000000 0.125000
v 0.125000 -0.000000 0.125000
v 0.125000 0.062500 0.250000
v -0.125000 0.062500 0.250000
vt 1.078125 0.921875
vt 1.140625 0.921875
vt 1.140625 0.984375
vt 1.078125 0.984375
vt 1.140625 0.921875
vt 1.203125 0.921875
vt 1.203125 0.984375
vt 1.140625 0.984375
vt 1.078125 0.906250
vt 1.140625 0.906250
vt 1.265625 0.921875
vt 1.203125 0.921875
vt 1.203125 0.906250
vt 1.265625 0.906250
vt 1.015625 0.921875
vt 1.015625 0.906250
vt 1.453125 0.921875
vt 1.484375 0.921875
vt 1.484375 0.984375
vt 1.453125 0.984375
vt 1.484375 0.921875
vt 1.515625 0.921875
vt 1.515625 0.984375
vt 1.484375 0.984375
vt 1.453125 0.906250
vt 1.484375 0.906250
vt 1.578125 0.921875
vt 1.546875 0.921875
vt 1.546875 0.906250
vt 1.578125 0.906250
vt 1.390625 0.921875
vt 1.390625 0.906250
vt 1.296875 0.953125
vt 1.328125 0.953125
vt 1.328125 0.984375
vt 1.296875 0.984375
vt 1.328125 0.953125
vt 1.359375 0.953125
vt 1.359375 0.984375
vt 1.328125 0.984375
vt 1.296875 0.937500
vt 1.328125 0.937500
vt 1.390625 0.953125
vt 1.359375 0.953125
vt 1.359375 0.937500
vt 1.390625 0.937500
vt 1.265625 0.953125
vt 1.265625 0.937500
vt 1.671875 0.953125
vt 1.734375 0.953125
vt 1.734375 0.984375
vt 1.671875 0.984375
vt 1.734375 0.953125
vt 1.796875 0.953125
vt 1.796875 0.984375
vt 1.734375 0.984375
vt 1.671875 0.937500
vt 1.734375 0.937500
vt 1.828125 0.953125
vt 1.765625 0.953125
vt 1.765625 0.937500
vt 1.828125 0.937500
vt 1.640625 0.953125
vt 1.640625 0.937500
vt 1.046875 0.828125
vt 1.078125 0.828125
vt 1.078125 0.859375
vt 1.046875 0.859375
vt 1.078125 0.828125
vt 1.109375 0.828125
vt 1.109375 0.859375
vt 1.078125 0.859375
vt 1.046875 0.812500
vt 1.078125 0.812500
vt 1.140625 0.828125
vt 1.109375 0.828125
vt 1.109375 0.812500
vt 1.140625 0.812500
vt 1.015625 0.828125
vt 1.015625 0.812500
vt 1.296875 0.828125
vt 1.328125 0.828125
vt 1.328125 0.859375
vt 1.296875 0.859375
vt 1.328125 0.828125
vt 1.359375 0.828125
vt 1.359375 0.859375
vt 1.328125 0.859375
vt 1.296875 0.812500
vt 1.328125 0.812500
vt 1.390625 0.828125
vt 1.359375 0.828125
vt 1.359375 0.812500
vt 1.390625 0.812500
vt 1.265625 0.828125
vt 1.265625 0.812500
vt 1.453125 0.796875
vt 1.484375 0.796875
vt 1.484375 0.859375
vt 1.453125 0.859375
vt 1.484375 0.796875
vt 1.515625 0.796875
vt 1.515625 0.859375
vt 1.484375 0.859375
vt 1.453125 0.781250
vt 1.484375 0.781250
vt 1.578125 0.796875
vt 1.546875 0.796875
vt 1.546875 0.781250
vt 1.578125 0.781250
vt 1.390625 0.796875
vt 1.390625 0.781250
vt 1.671875 0.828125
vt 1.703125 0.828125
vt 1.703125 0.859375
vt 1.671875 0.859375
vt 1.703125 0.828125
vt 1.734375 0.828125
vt 1.734375 0.859375
vt 1.703125 0.859375
vt 1.671875 0.812500
vt 1.703125 0.812500
vt 1.765625 0.828125
vt 1.734375 0.828125
vt 1.734375 0.812500
vt 1.765625 0.812500
vt 1.640625 0.828125
vt 1.640625 0.812500
vt 1.046875 0.703125
vt 1.109375 0.703125
vt 1.109375 0.734375
vt 1.046875 0.734375
vt 1.109375 0.703125
vt 1.171875 0.703125
vt 1.171875 0.734375
vt 1.109375 0.734375
vt 1.046875 0.687500
vt 1.109375 0.687500
vt 1.203125 0.703125
vt 1.140625 0.703125
vt 1.140625 0.687500
vt 1.203125 0.687500
vt 1.015625 0.703125
vt 1.015625 0.687500
vn 0.0000 1.0000 0.0000
vn 0.0000 -1.0000 -0.0000
vn 0.0000 -0.0000 1.0000
vn 0.0000 0.0000 -1.0000
vn 1.0000 0.0000 0.0000
vn -1.0000 0.0000 0.0000
vn -0.2425 0.9701 0.0000
vn 0.4472 -0.8944 -0.0000
vn -0.2357 0.9428 -0.2357
vn 0.4082 -0.8165 0.4082
vn 0.7071 -0.0000 0.7071
vn 0.0000 0.9701 0.2425
vn 0.0000 -0.8944 -0.4472
vn -0.2357 0.9428 0.2357
vn 0.4082 -0.8165 -0.4082
vn 0.7071 0.0000 -0.7071
vn 0.2357 0.9428 -0.2357
vn -0.4082 -0.8165 0.4082
vn -0.7071 -0.0000 0.7071
vn 0.2425 0.9701 0.0000
vn -0.4472 -0.8944 -0.0000
vn 0.2357 0.9428 0.2357
vn -0.4082 -0.8165 -0.4082
vn -0.7071 0.0000 -0.7071
vn 0.0000 0.9701 -0.2425
vn 0.0000 -0.8944 0.4472
usemtl ModelMaterial.001
s off
f 1/1/1 2/2/1 3/3/1 4/4/1
f 5/5/2 6/6/2 7/7/2 8/8/2
f 2/2/3 1/1/3 8/9/3 7/10/3
f 4/11/4 3/12/4 6/13/4 5/14/4
f 3/12/5 2/2/5 7/10/5 6/13/5
f 1/1/6 4/15/6 5/16/6 8/9/6
f 9/17/7 10/18/7 11/19/7 12/20/7
f 13/21/8 14/22/8 15/23/8 16/24/8
f 10/18/3 9/17/3 16/25/3 15/26/3
f 12/27/4 11/28/4 14/29/4 13/30/4
f 11/28/5 10/18/5 15/26/5 14/29/5
f 9/17/6 12/31/6 13/32/6 16/25/6
f 17/33/9 18/34/9 19/35/9 20/36/9
f 21/37/10 22/38/10 23/39/10 24/40/10
f 18/34/3 17/33/3 24/41/3 23/42/3
f 20/43/4 19/44/4 22/45/4 21/46/4
f 19/44/11 18/34/11 23/42/11 22/45/11
f 17/33/6 20/47/6 21/48/6 24/41/6
f 25/49/12 26/50/12 27/51/12 28/52/12
f 29/53/13 30/54/13 31/55/13 32/56/13
f 26/50/3 25/49/3 32/57/3 31/58/3
f 28/59/4 27/60/4 30/61/4 29/62/4
f 27/60/5 26/50/5 31/58/5 30/61/5
f 25/49/6 28/63/6 29/64/6 32/57/6
f 33/65/14 34/66/14 35/67/14 36/68/14
f 37/69/15 38/70/15 39/71/15 40/72/15
f 34/66/3 33/65/3 40/73/3 39/74/3
f 36/75/16 35/76/16 38/77/16 37/78/16
f 35/76/3 34/66/3 39/74/3 38/77/3
f 33/65/6 36/79/6 37/80/6 40/73/6
f 41/81/17 42/82/17 43/83/17 44/84/17
f 45/85/18 46/86/18 47/87/18 48/88/18
f 42/82/3 41/81/3 48/89/3 47/90/3
f 44/91/4 43/92/4 46/93/4 45/94/4
f 43/92/5 42/82/5 47/90/5 46/93/5
f 41/81/19 44/95/19 45/96/19 48/89/19
f 49/97/20 50/98/20 51/99/20 52/100/20
f 53/101/21 54/102/21 55/103/21 56/104/21
f 50/98/3 49/97/3 56/105/3 55/106/3
f 52/107/4 51/108/4 54/109/4 53/110/4
f 51/108/5 50/98/5 55/106/5 54/109/5
f 49/97/6 52/111/6 53/112/6 56/105/6
f 57/113/22 58/114/22 59/115/22 60/116/22
f 61/117/23 62/118/23 63/119/23 64/120/23
f 58/114/3 57/113/3 64/121/3 63/122/3
f 60/123/24 59/124/24 62/125/24 61/126/24
f 59/124/5 58/114/5 63/122/5 62/125/5
f 57/113/3 60/127/3 61/128/3 64/121/3
f 65/129/25 66/130/25 67/131/25 68/132/25
f 69/133/26 70/134/26 71/135/26 72/136/26
f 66/130/3 65/129/3 72/137/3 71/138/3
f 68/139/4 67/140/4 70/141/4 69/142/4
f 67/140/5 66/130/5 71/138/5 70/141/5
f 65/129/6 68/143/6 69/144/6 72/137/6
