# Blender v2.79 (sub 0) OBJ File: ''
# www.blender.org
mtllib glassware_glass_wine.mtl
o glassware_glass_wine_translucent
v -0.031250 0.140625 0.031250
v 0.031250 0.140625 0.031250
v 0.031250 0.140625 -0.031250
v -0.031250 0.140625 -0.031250
v -0.031250 0.015625 -0.031250
v 0.031250 0.015625 -0.031250
v 0.031250 0.015625 0.031250
v -0.031250 0.015625 0.031250
v 0.062500 0.171875 -0.062500
v 0.062500 0.140625 -0.062500
v -0.093750 0.328125 -0.062500
v 0.093750 0.328125 0.062500
v 0.125000 0.328125 0.062500
v 0.125000 0.328125 -0.062500
v 0.093750 0.328125 -0.062500
v -0.062500 0.328125 -0.093750
v 0.062500 0.328125 -0.125000
v -0.062500 0.328125 -0.125000
v -0.062500 0.171875 -0.062500
v -0.062500 0.328125 0.125000
v 0.062500 0.328125 0.125000
v -0.062500 0.328125 0.093750
v 0.062500 0.328125 0.093750
v 0.062500 0.171875 0.062500
v 0.062500 0.140625 0.062500
v 0.062500 0.328125 -0.093750
v -0.125000 0.328125 -0.062500
v -0.062500 0.140625 -0.062500
v -0.125000 0.328125 0.062500
v -0.093750 0.328125 0.062500
v -0.062500 0.171875 0.062500
v -0.062500 0.140625 0.062500
v 0.093750 0.015625 0.031250
v -0.093750 0.015625 -0.031250
v 0.109375 0.000000 -0.046875
v -0.109375 -0.000000 0.046875
v 0.093750 0.015625 -0.031250
v 0.031250 0.015625 -0.093750
v -0.031250 0.015625 -0.093750
v -0.046875 0.000000 -0.109375
v 0.046875 0.000000 -0.109375
v -0.109375 0.000000 -0.046875
v -0.031250 0.015625 0.093750
v 0.031250 0.015625 0.093750
v -0.093750 0.015625 0.031250
v 0.109375 -0.000000 0.046875
v 0.046875 -0.000000 0.109375
v -0.046875 -0.000000 0.109375
vt 1.031250 0.968750
vt 1.046875 0.968750
vt 1.046875 0.984375
vt 1.031250 0.984375
vt 1.046875 0.968750
vt 1.062500 0.968750
vt 1.062500 0.984375
vt 1.046875 0.984375
vt 1.031250 0.937500
vt 1.046875 0.937500
vt 1.078125 0.968750
vt 1.062500 0.968750
vt 1.062500 0.937500
vt 1.078125 0.937500
vt 1.015625 0.968750
vt 1.015625 0.937500
vt 1.171875 0.953125
vt 1.203125 0.953125
vt 1.203125 0.984375
vt 1.171875 0.984375
vt 1.203125 0.953125
vt 1.234375 0.953125
vt 1.234375 0.984375
vt 1.203125 0.984375
vt 1.171875 0.937500
vt 1.203125 0.937500
vt 1.265625 0.953125
vt 1.234375 0.953125
vt 1.234375 0.937500
vt 1.265625 0.937500
vt 1.140625 0.953125
vt 1.140625 0.937500
vt 1.421875 0.953125
vt 1.453125 0.953125
vt 1.453125 0.984375
vt 1.421875 0.984375
vt 1.421875 0.906250
vt 1.453125 0.906250
vt 1.515625 0.953125
vt 1.484375 0.953125
vt 1.484375 0.906250
vt 1.515625 0.906250
vt 1.390625 0.953125
vt 1.390625 0.906250
vt 1.671875 0.953125
vt 1.703125 0.953125
vt 1.703125 0.984375
vt 1.671875 0.984375
vt 1.671875 0.906250
vt 1.703125 0.906250
vt 1.765625 0.953125
vt 1.734375 0.953125
vt 1.734375 0.906250
vt 1.765625 0.906250
vt 1.640625 0.953125
vt 1.640625 0.906250
vt 1.046875 0.828125
vt 1.078125 0.828125
vt 1.078125 0.859375
vt 1.046875 0.859375
vt 1.046875 0.781250
vt 1.078125 0.781250
vt 1.140625 0.828125
vt 1.109375 0.828125
vt 1.109375 0.781250
vt 1.140625 0.781250
vt 1.015625 0.828125
vt 1.015625 0.781250
vt 1.296875 0.828125
vt 1.328125 0.828125
vt 1.328125 0.859375
vt 1.296875 0.859375
vt 1.296875 0.781250
vt 1.328125 0.781250
vt 1.390625 0.828125
vt 1.359375 0.828125
vt 1.359375 0.781250
vt 1.390625 0.781250
vt 1.265625 0.828125
vt 1.265625 0.781250
vt 1.921875 0.953125
vt 1.937500 0.953125
vt 1.937500 0.984375
vt 1.921875 0.984375
vt 1.937500 0.906250
vt 1.984375 0.953125
vt 1.968750 0.953125
vt 1.984375 0.906250
vt 1.546875 0.828125
vt 1.562500 0.828125
vt 1.562500 0.859375
vt 1.546875 0.859375
vt 1.562500 0.781250
vt 1.609375 0.828125
vt 1.593750 0.828125
vt 1.609375 0.781250
vt 1.671875 0.828125
vt 1.687500 0.828125
vt 1.687500 0.859375
vt 1.671875 0.859375
vt 1.687500 0.781250
vt 1.734375 0.828125
vt 1.718750 0.828125
vt 1.734375 0.781250
vt 1.796875 0.828125
vt 1.812500 0.828125
vt 1.812500 0.859375
vt 1.796875 0.859375
vt 1.812500 0.781250
vt 1.859375 0.828125
vt 1.843750 0.828125
vt 1.859375 0.781250
vt 1.031250 0.718750
vt 1.078125 0.718750
vt 1.078125 0.734375
vt 1.031250 0.734375
vt 1.078125 0.718750
vt 1.125000 0.718750
vt 1.125000 0.734375
vt 1.078125 0.734375
vt 1.031250 0.703125
vt 1.078125 0.703125
vt 1.140625 0.718750
vt 1.093750 0.718750
vt 1.093750 0.703125
vt 1.140625 0.703125
vt 1.015625 0.718750
vt 1.015625 0.703125
vt 1.906250 0.843750
vt 1.921875 0.843750
vt 1.921875 0.859375
vt 1.906250 0.859375
vt 1.921875 0.843750
vt 1.937500 0.843750
vt 1.937500 0.859375
vt 1.921875 0.859375
vt 1.953125 0.843750
vt 1.937500 0.843750
vt 1.937500 0.828125
vt 1.953125 0.828125
vt 1.921875 0.828125
vt 1.890625 0.843750
vt 1.890625 0.828125
vt 1.906250 0.828125
vt 1.906250 0.843750
vt 1.921875 0.843750
vt 1.921875 0.859375
vt 1.906250 0.859375
vt 1.921875 0.843750
vt 1.937500 0.843750
vt 1.937500 0.859375
vt 1.921875 0.859375
vt 1.906250 0.828125
vt 1.921875 0.828125
vt 1.937500 0.843750
vt 1.937500 0.828125
vt 1.890625 0.843750
vt 1.890625 0.828125
vn 0.0000 1.0000 0.0000
vn 0.0000 -1.0000 -0.0000
vn 0.0000 -0.0000 1.0000
vn 0.0000 0.0000 -1.0000
vn 1.0000 0.0000 0.0000
vn -1.0000 0.0000 0.0000
vn 0.9806 0.1961 0.0000
vn -0.9487 -0.3162 0.0000
vn 0.9487 -0.3162 0.0000
vn -0.9806 0.1961 0.0000
vn 0.0000 0.1961 0.9806
vn 0.0000 -0.3162 -0.9487
vn 0.0000 -0.3162 0.9487
vn 0.0000 0.1961 -0.9806
vn 0.6882 -0.2294 0.6882
vn -0.7001 0.1400 -0.7001
vn -0.7001 0.1400 0.7001
vn 0.6882 -0.2294 -0.6882
vn 0.7001 0.1400 0.7001
vn -0.6882 -0.2294 -0.6882
vn -0.6882 -0.2294 0.6882
vn 0.7001 0.1400 -0.7001
vn 0.0000 0.7071 0.7071
vn 0.0000 0.7071 -0.7071
vn 0.7071 0.7071 0.0000
vn -0.7071 0.7071 0.0000
vn 0.4082 0.8165 -0.4082
vn -0.4082 0.8165 -0.4082
vn 0.4082 0.8165 0.4082
vn -0.4082 0.8165 0.4082
usemtl ModelMaterial.004
s off
f 1/1/1 2/2/1 3/3/1 4/4/1
f 5/5/2 6/6/2 7/7/2 8/8/2
f 2/2/3 1/1/3 8/9/3 7/10/3
f 4/11/4 3/12/4 6/13/4 5/14/4
f 3/12/5 2/2/5 7/10/5 6/13/5
f 1/1/6 4/15/6 5/16/6 8/9/6
f 31/17/1 24/18/1 9/19/1 19/20/1
f 28/21/2 10/22/2 25/23/2 32/24/2
f 24/18/3 31/17/3 32/25/3 25/26/3
f 19/27/4 9/28/4 10/29/4 28/30/4
f 9/28/5 24/18/5 25/26/5 10/29/5
f 31/17/6 19/31/6 28/32/6 32/25/6
f 29/33/1 30/34/1 11/35/1 27/36/1
f 30/34/3 29/33/3 32/37/3 31/38/3
f 27/39/4 11/40/4 19/41/4 28/42/4
f 11/40/7 30/34/7 31/38/7 19/41/7
f 29/33/8 27/43/8 28/44/8 32/37/8
f 12/45/1 13/46/1 14/47/1 15/48/1
f 13/46/3 12/45/3 24/49/3 25/50/3
f 15/51/4 14/52/4 10/53/4 9/54/4
f 14/52/9 13/46/9 25/50/9 10/53/9
f 12/45/10 15/55/10 9/56/10 24/49/10
f 16/57/1 26/58/1 17/59/1 18/60/1
f 26/58/11 16/57/11 19/61/11 9/62/11
f 18/63/12 17/64/12 10/65/12 28/66/12
f 17/64/5 26/58/5 9/62/5 10/65/5
f 16/57/6 18/67/6 28/68/6 19/61/6
f 20/69/1 21/70/1 23/71/1 22/72/1
f 21/70/13 20/69/13 32/73/13 25/74/13
f 22/75/14 23/76/14 24/77/14 31/78/14
f 23/76/5 21/70/5 25/74/5 24/77/5
f 20/69/6 22/79/6 31/80/6 32/73/6
f 21/81/1 13/82/1 12/83/1 23/84/1
f 13/82/15 21/81/15 25/85/15
f 23/86/16 12/87/16 24/88/16
f 26/89/1 15/90/1 14/91/1 17/92/1
f 15/90/17 26/89/17 9/93/17
f 17/94/18 14/95/18 10/96/18
f 11/97/1 16/98/1 18/99/1 27/100/1
f 16/98/19 11/97/19 19/101/19
f 27/102/20 18/103/20 28/104/20
f 29/105/1 20/106/1 22/107/1 30/108/1
f 20/106/21 29/105/21 32/109/21
f 30/110/22 22/111/22 31/112/22
f 45/113/1 33/114/1 37/115/1 34/116/1
f 42/117/2 35/118/2 46/119/2 36/120/2
f 33/114/23 45/113/23 36/121/23 46/122/23
f 34/123/24 37/124/24 35/125/24 42/126/24
f 37/124/25 33/114/25 46/122/25 35/125/25
f 45/113/26 34/127/26 42/128/26 36/121/26
f 34/129/1 37/130/1 38/131/1 39/132/1
f 40/133/2 41/134/2 35/135/2 42/136/2
f 39/137/24 38/138/24 41/139/24 40/140/24
f 38/138/27 37/130/27 35/141/27 41/139/27
f 34/129/28 39/142/28 40/143/28 42/144/28
f 43/145/1 44/146/1 33/147/1 45/148/1
f 36/149/2 46/150/2 47/151/2 48/152/2
f 44/146/23 43/145/23 48/153/23 47/154/23
f 33/155/29 44/146/29 47/154/29 46/156/29
f 43/145/30 45/157/30 36/158/30 48/153/30
