# Blender v2.79 (sub 0) OBJ File: ''
# www.blender.org
mtllib computer_curved.mtl
o computer_curved.obj
v 0.156250 0.062500 -0.375000
v -0.156250 0.062500 -0.375000
v -0.156250 0.062500 -0.187500
v 0.156250 0.062500 -0.187500
v 0.156250 -0.000000 -0.187500
v -0.156250 -0.000000 -0.187500
v -0.156250 -0.000000 -0.375000
v 0.156250 -0.000000 -0.375000
v 0.031250 0.187500 -0.312500
v -0.031250 0.187500 -0.312500
v -0.031250 0.187500 -0.250000
v 0.031250 0.187500 -0.250000
v 0.031250 0.062500 -0.250000
v -0.031250 0.062500 -0.250000
v -0.031250 0.062500 -0.312500
v 0.031250 0.062500 -0.312500
v 0.250000 0.625000 -0.250000
v -0.250000 0.625000 -0.250000
v -0.250000 0.625000 -0.187500
v 0.250000 0.625000 -0.187500
v 0.250000 0.125000 -0.187500
v -0.250000 0.125000 -0.187500
v -0.250000 0.125000 -0.250000
v 0.250000 0.125000 -0.250000
v 0.125000 0.312500 -0.312500
v -0.125000 0.312500 -0.312500
v -0.250000 0.437500 -0.250000
v 0.250000 0.437500 -0.250000
v 0.250000 0.125000 -0.250000
v -0.250000 0.125000 -0.250000
v -0.125000 0.187500 -0.312500
v 0.125000 0.187500 -0.312500
v 0.437500 0.625000 -0.187500
v 0.250000 0.625000 -0.250000
v 0.250000 0.625000 -0.187500
v 0.437500 0.625000 -0.125000
v 0.437500 0.125000 -0.125000
v 0.250000 0.125000 -0.187500
v 0.250000 0.125000 -0.250000
v 0.437500 0.125000 -0.187500
v -0.250000 0.625000 -0.250000
v -0.437500 0.625000 -0.187500
v -0.437500 0.625000 -0.125000
v -0.250000 0.625000 -0.187500
v -0.250000 0.125000 -0.187500
v -0.437500 0.125000 -0.125000
v -0.437500 0.125000 -0.187500
v -0.250000 0.125000 -0.250000
v 0.500000 0.625000 -0.125000
v 0.437500 0.625000 -0.187500
v 0.437500 0.625000 -0.125000
v 0.500000 0.625000 -0.093750
v 0.500000 0.125000 -0.093750
v 0.437500 0.125000 -0.125000
v 0.437500 0.125000 -0.187500
v 0.500000 0.125000 -0.125000
v -0.437500 0.625000 -0.187500
v -0.500000 0.625000 -0.125000
v -0.500000 0.625000 -0.093750
v -0.437500 0.625000 -0.125000
v -0.437500 0.125000 -0.125000
v -0.500000 0.125000 -0.093750
v -0.500000 0.125000 -0.125000
v -0.437500 0.125000 -0.187500
v 0.211019 0.031250 -0.085023
v -0.348400 0.031250 -0.026226
v -0.322268 0.031250 0.222405
v 0.237151 0.031250 0.163607
v 0.237151 0.000000 0.163607
v -0.322268 0.000000 0.222405
v -0.348400 -0.000000 -0.026226
v 0.211019 -0.000000 -0.085023
v 0.237151 0.031250 0.163607
v -0.322268 0.031250 0.222405
v -0.247044 0.000000 0.340187
v 0.188059 0.000000 0.294456
v 0.188059 0.000000 0.294456
v -0.247044 0.000000 0.340187
v -0.322268 0.000000 0.222405
v 0.237151 0.000000 0.163607
v 0.406250 0.062500 0.062500
v 0.343750 0.062500 0.062500
v 0.343750 0.062500 0.187500
v 0.406250 0.062500 0.187500
v 0.406250 0.000000 0.187500
v 0.343750 0.000000 0.187500
v 0.343750 0.000000 0.062500
v 0.406250 0.000000 0.062500
v 0.031250 0.656250 -0.250000
v -0.031250 0.656250 -0.250000
v -0.031250 0.687500 -0.187500
v 0.031250 0.687500 -0.187500
v 0.031250 0.625000 -0.187500
v -0.031250 0.625000 -0.187500
v -0.031250 0.625000 -0.250000
v 0.031250 0.625000 -0.250000
vt 1.062500 0.875000
vt 1.140625 0.875000
vt 1.140625 0.968750
vt 1.062500 0.968750
vt 1.140625 0.875000
vt 1.218750 0.875000
vt 1.218750 0.968750
vt 1.140625 0.968750
vt 1.062500 0.843750
vt 1.140625 0.843750
vt 1.265625 0.875000
vt 1.187500 0.875000
vt 1.187500 0.843750
vt 1.265625 0.843750
vt 1.015625 0.875000
vt 1.015625 0.843750
vt 1.406250 0.937500
vt 1.421875 0.937500
vt 1.421875 0.968750
vt 1.406250 0.968750
vt 1.421875 0.937500
vt 1.437500 0.937500
vt 1.437500 0.968750
vt 1.421875 0.968750
vt 1.406250 0.875000
vt 1.421875 0.875000
vt 1.453125 0.937500
vt 1.437500 0.937500
vt 1.437500 0.875000
vt 1.453125 0.875000
vt 1.390625 0.937500
vt 1.390625 0.875000
vt 1.531250 0.937500
vt 1.656250 0.937500
vt 1.656250 0.968750
vt 1.531250 0.968750
vt 1.656250 0.937500
vt 1.781250 0.937500
vt 1.781250 0.968750
vt 1.656250 0.968750
vt 1.531250 0.687500
vt 1.656250 0.687500
vt 1.796875 0.937500
vt 1.671875 0.937500
vt 1.671875 0.687500
vt 1.796875 0.687500
vt 1.515625 0.937500
vt 1.515625 0.687500
vt 1.031250 0.687500
vt 1.093750 0.687500
vt 1.093750 0.718750
vt 1.031250 0.718750
vt 1.093750 0.687500
vt 1.156250 0.687500
vt 1.156250 0.718750
vt 1.093750 0.718750
vt 1.031250 0.625000
vt 1.093750 0.625000
vt 1.171875 0.687500
vt 1.109375 0.687500
vt 1.109375 0.625000
vt 1.171875 0.625000
vt 1.015625 0.687500
vt 1.015625 0.625000
vt 1.281250 0.687500
vt 1.328125 0.687500
vt 1.328125 0.718750
vt 1.281250 0.718750
vt 1.328125 0.687500
vt 1.375000 0.687500
vt 1.375000 0.718750
vt 1.328125 0.718750
vt 1.281250 0.437500
vt 1.328125 0.437500
vt 1.390625 0.687500
vt 1.343750 0.687500
vt 1.343750 0.437500
vt 1.390625 0.437500
vt 1.265625 0.687500
vt 1.265625 0.437500
vt 1.031250 0.437500
vt 1.078125 0.437500
vt 1.078125 0.468750
vt 1.031250 0.468750
vt 1.078125 0.437500
vt 1.125000 0.437500
vt 1.125000 0.468750
vt 1.078125 0.468750
vt 1.031250 0.187500
vt 1.078125 0.187500
vt 1.140625 0.437500
vt 1.093750 0.437500
vt 1.093750 0.187500
vt 1.140625 0.187500
vt 1.015625 0.437500
vt 1.015625 0.187500
vt 1.906250 0.937500
vt 1.921875 0.937500
vt 1.921875 0.968750
vt 1.906250 0.968750
vt 1.921875 0.937500
vt 1.937500 0.937500
vt 1.937500 0.968750
vt 1.921875 0.968750
vt 1.906250 0.687500
vt 1.921875 0.687500
vt 1.953125 0.937500
vt 1.937500 0.937500
vt 1.937500 0.687500
vt 1.953125 0.687500
vt 1.890625 0.937500
vt 1.890625 0.687500
vt 1.531250 0.437500
vt 1.546875 0.437500
vt 1.546875 0.468750
vt 1.531250 0.468750
vt 1.546875 0.437500
vt 1.562500 0.437500
vt 1.562500 0.468750
vt 1.546875 0.468750
vt 1.531250 0.187500
vt 1.546875 0.187500
vt 1.578125 0.437500
vt 1.562500 0.437500
vt 1.562500 0.187500
vt 1.578125 0.187500
vt 1.515625 0.437500
vt 1.515625 0.187500
vt 1.203125 0.093750
vt 1.343750 0.093750
vt 1.343750 0.218750
vt 1.203125 0.218750
vt 1.343750 0.093750
vt 1.484375 0.093750
vt 1.484375 0.218750
vt 1.343750 0.218750
vt 1.203125 0.062500
vt 1.343750 0.062500
vt 1.546875 0.093750
vt 1.406250 0.093750
vt 1.406250 0.062500
vt 1.546875 0.062500
vt 1.140625 0.093750
vt 1.140625 0.062500
vt 1.671875 0.406250
vt 1.812500 0.406250
vt 1.812500 0.468750
vt 1.671875 0.468750
vt 1.812500 0.406250
vt 1.953125 0.406250
vt 1.953125 0.468750
vt 1.812500 0.468750
vt 1.671875 0.375000
vt 1.812500 0.375000
vt 1.984375 0.406250
vt 1.843750 0.406250
vt 1.843750 0.375000
vt 1.984375 0.375000
vt 1.640625 0.406250
vt 1.640625 0.375000
vt 1.421875 0.406250
vt 1.437500 0.406250
vt 1.437500 0.468750
vt 1.421875 0.468750
vt 1.437500 0.406250
vt 1.453125 0.406250
vt 1.453125 0.468750
vt 1.437500 0.468750
vt 1.421875 0.375000
vt 1.437500 0.375000
vt 1.484375 0.406250
vt 1.468750 0.406250
vt 1.468750 0.375000
vt 1.484375 0.375000
vt 1.390625 0.406250
vt 1.390625 0.375000
vt 1.281250 0.937500
vt 1.296875 0.937500
vt 1.296875 0.968750
vt 1.281250 0.968750
vt 1.296875 0.937500
vt 1.312500 0.937500
vt 1.312500 0.968750
vt 1.296875 0.968750
vt 1.281250 0.906250
vt 1.296875 0.906250
vt 1.328125 0.937500
vt 1.312500 0.937500
vt 1.312500 0.906250
vt 1.328125 0.906250
vt 1.265625 0.937500
vt 1.265625 0.906250
vn 0.0000 1.0000 -0.0000
vn -0.0000 -1.0000 0.0000
vn 0.0000 -0.0000 -1.0000
vn -0.0000 0.0000 1.0000
vn -1.0000 0.0000 -0.0000
vn 1.0000 0.0000 0.0000
vn 0.0000 0.4472 -0.8944
vn 0.0000 -0.7071 -0.7071
vn -0.4472 -0.0000 -0.8944
vn 0.4472 -0.0000 -0.8944
vn 0.3162 -0.0000 -0.9487
vn -0.3162 0.0000 0.9487
vn -0.3162 -0.0000 -0.9487
vn 0.3162 0.0000 0.9487
vn 0.7071 -0.0000 -0.7071
vn -0.4472 0.0000 0.8944
vn -0.7071 -0.0000 -0.7071
vn 0.4472 0.0000 0.8944
vn -0.1045 -0.0000 -0.9945
vn 0.1045 0.0000 0.9945
vn -0.9945 0.0000 0.1045
vn 0.9945 0.0000 -0.1045
vn 0.0254 0.9701 0.2412
vn -0.8428 0.0000 0.5383
vn 0.9363 0.0000 0.3513
vn 0.0000 0.8944 -0.4472
usemtl ModelMaterial
s 1
f 1/1/1 2/2/1 3/3/1 4/4/1
f 5/5/2 6/6/2 7/7/2 8/8/2
f 2/2/3 1/1/3 8/9/3 7/10/3
f 4/11/4 3/12/4 6/13/4 5/14/4
f 3/12/5 2/2/5 7/10/5 6/13/5
f 1/1/6 4/15/6 5/16/6 8/9/6
f 9/17/1 10/18/1 11/19/1 12/20/1
f 13/21/2 14/22/2 15/23/2 16/24/2
f 10/18/3 9/17/3 16/25/3 15/26/3
f 12/27/4 11/28/4 14/29/4 13/30/4
f 11/28/5 10/18/5 15/26/5 14/29/5
f 9/17/6 12/31/6 13/32/6 16/25/6
f 17/33/1 18/34/1 19/35/1 20/36/1
f 21/37/2 22/38/2 23/39/2 24/40/2
f 18/34/3 17/33/3 24/41/3 23/42/3
f 20/43/4 19/44/4 22/45/4 21/46/4
f 19/44/5 18/34/5 23/42/5 22/45/5
f 17/33/6 20/47/6 21/48/6 24/41/6
f 25/49/7 26/50/7 27/51/7 28/52/7
f 29/53/8 30/54/8 31/55/8 32/56/8
f 26/50/3 25/49/3 32/57/3 31/58/3
f 28/59/4 27/60/4 30/61/4 29/62/4
f 27/60/9 26/50/9 31/58/9 30/61/9
f 25/49/10 28/63/10 29/64/10 32/57/10
f 33/65/1 34/66/1 35/67/1 36/68/1
f 37/69/2 38/70/2 39/71/2 40/72/2
f 34/66/11 33/65/11 40/73/11 39/74/11
f 36/75/12 35/76/12 38/77/12 37/78/12
f 35/76/5 34/66/5 39/74/5 38/77/5
f 33/65/6 36/79/6 37/80/6 40/73/6
f 41/81/1 42/82/1 43/83/1 44/84/1
f 45/85/2 46/86/2 47/87/2 48/88/2
f 42/82/13 41/81/13 48/89/13 47/90/13
f 44/91/14 43/92/14 46/93/14 45/94/14
f 43/92/5 42/82/5 47/90/5 46/93/5
f 41/81/6 44/95/6 45/96/6 48/89/6
f 49/97/1 50/98/1 51/99/1 52/100/1
f 53/101/2 54/102/2 55/103/2 56/104/2
f 50/98/15 49/97/15 56/105/15 55/106/15
f 52/107/16 51/108/16 54/109/16 53/110/16
f 51/108/5 50/98/5 55/106/5 54/109/5
f 49/97/6 52/111/6 53/112/6 56/105/6
f 57/113/1 58/114/1 59/115/1 60/116/1
f 61/117/2 62/118/2 63/119/2 64/120/2
f 58/114/17 57/113/17 64/121/17 63/122/17
f 60/123/18 59/124/18 62/125/18 61/126/18
f 59/124/5 58/114/5 63/122/5 62/125/5
f 57/113/6 60/127/6 61/128/6 64/121/6
f 65/129/1 66/130/1 67/131/1 68/132/1
f 69/133/2 70/134/2 71/135/2 72/136/2
f 66/130/19 65/129/19 72/137/19 71/138/19
f 68/139/20 67/140/20 70/141/20 69/142/20
f 67/140/21 66/130/21 71/138/21 70/141/21
f 65/129/22 68/143/22 69/144/22 72/137/22
f 73/145/23 74/146/23 75/147/23 76/148/23
f 77/149/2 78/150/2 79/151/2 80/152/2
f 74/146/19 73/145/19 80/153/19 79/154/19
f 76/155/4 75/156/4 78/157/4 77/158/4
f 75/156/24 74/146/24 79/154/24 78/157/24
f 73/145/25 76/159/25 77/160/25 80/153/25
f 81/161/1 82/162/1 83/163/1 84/164/1
f 85/165/2 86/166/2 87/167/2 88/168/2
f 82/162/3 81/161/3 88/169/3 87/170/3
f 84/171/4 83/172/4 86/173/4 85/174/4
f 83/172/5 82/162/5 87/170/5 86/173/5
f 81/161/6 84/175/6 85/176/6 88/169/6
f 89/177/26 90/178/26 91/179/26 92/180/26
f 93/181/2 94/182/2 95/183/2 96/184/2
f 90/178/3 89/177/3 96/185/3 95/186/3
f 92/187/4 91/188/4 94/189/4 93/190/4
f 91/188/5 90/178/5 95/186/5 94/189/5
f 89/177/6 92/191/6 93/192/6 96/185/6
