# Blender v2.79 (sub 0) OBJ File: ''
# www.blender.org
mtllib tv_1x2.obj.mtl
o tv_1x2.obj
v -1.000000 1.187500 0.125000
v -1.000000 1.187500 0.187500
v 1.000000 1.187500 0.187500
v 1.000000 1.187500 0.125000
v 1.000000 0.187500 0.125000
v 1.000000 0.187500 0.187500
v -1.000000 0.187500 0.187500
v -1.000000 0.187500 0.125000
v -0.500000 0.687500 0.062500
v -0.687500 0.875000 0.125000
v 0.687500 0.875000 0.125000
v 0.500000 0.687500 0.062500
v 0.500000 0.187500 0.062500
v 0.687500 0.187500 0.125000
v -0.687500 0.187500 0.125000
v -0.500000 0.187500 0.062500
v -0.312500 0.187500 0.109375
v -0.312500 0.187500 0.171875
v 0.312500 0.187500 0.171875
v 0.312500 0.187500 0.109375
v 0.234375 0.140625 0.125000
v 0.250000 0.125000 0.171875
v -0.250000 0.125000 0.171875
v -0.234375 0.140625 0.125000
v -0.234375 0.180000 0.171875
v -0.234375 0.180000 0.187500
v -0.187500 0.180000 0.187500
v -0.187500 0.180000 0.171875
v -0.187500 0.133125 0.171875
v -0.187500 0.133125 0.187500
v -0.234375 0.133125 0.187500
v -0.234375 0.133125 0.171875
v -0.109375 0.180000 0.171875
v -0.109375 0.180000 0.187500
v -0.062500 0.180000 0.187500
v -0.062500 0.180000 0.171875
v -0.062500 0.133125 0.171875
v -0.062500 0.133125 0.187500
v -0.109375 0.133125 0.187500
v -0.109375 0.133125 0.171875
v 0.015625 0.180000 0.171875
v 0.015625 0.180000 0.187500
v 0.062500 0.180000 0.187500
v 0.062500 0.180000 0.171875
v 0.062500 0.133125 0.171875
v 0.062500 0.133125 0.187500
v 0.015625 0.133125 0.187500
v 0.015625 0.133125 0.171875
v 0.140625 0.180000 0.171875
v 0.140625 0.180000 0.187500
v 0.187500 0.180000 0.187500
v 0.187500 0.180000 0.171875
v 0.187500 0.133125 0.171875
v 0.187500 0.133125 0.187500
v 0.140625 0.133125 0.187500
v 0.140625 0.133125 0.171875
v -0.062500 0.187500 0.093750
v -0.062500 0.187500 0.156250
v 0.062500 0.187500 0.156250
v 0.062500 0.187500 0.093750
v 0.062500 0.062500 0.093750
v 0.062500 0.062500 0.156250
v -0.062500 0.062500 0.156250
v -0.062500 0.062500 0.093750
v -0.500000 0.062500 0.062500
v -0.500000 0.062500 0.187500
v 0.500000 0.062500 0.187500
v 0.500000 0.062500 0.062500
v 0.500000 0.000000 0.062500
v 0.500000 0.000000 0.187500
v -0.500000 -0.000000 0.187500
v -0.500000 -0.000000 0.062500
v -0.375000 0.062500 -0.000000
v -0.500000 0.062500 0.062500
v 0.500000 0.062500 0.062500
v 0.375000 0.062500 0.000000
v 0.375000 0.000000 0.000000
v 0.500000 0.000000 0.062500
v -0.500000 -0.000000 0.062500
v -0.375000 -0.000000 -0.000000
v -0.500000 0.062500 0.187500
v -0.375000 0.062500 0.250000
v 0.375000 0.062500 0.250000
v 0.500000 0.062500 0.187500
v 0.500000 0.000000 0.187500
v 0.375000 0.000000 0.250000
v -0.375000 -0.000000 0.250000
v -0.500000 -0.000000 0.187500
vt 1.257812 0.742188
vt 1.265625 0.742188
vt 1.265625 0.992188
vt 1.257812 0.992188
vt 1.265625 0.742188
vt 1.273438 0.742188
vt 1.273438 0.992188
vt 1.265625 0.992188
vt 1.257812 0.617188
vt 1.265625 0.617188
vt 1.523438 0.742188
vt 1.515625 0.742188
vt 1.515625 0.617188
vt 1.523438 0.617188
vt 1.007812 0.742188
vt 1.007812 0.617188
vt 1.445312 0.867188
vt 1.453125 0.867188
vt 1.453125 0.992188
vt 1.445312 0.992188
vt 1.453125 0.867188
vt 1.460938 0.867188
vt 1.460938 0.992188
vt 1.453125 0.992188
vt 1.445312 0.804688
vt 1.453125 0.804688
vt 1.585938 0.867188
vt 1.578125 0.867188
vt 1.578125 0.804688
vt 1.585938 0.804688
vt 1.320312 0.867188
vt 1.320312 0.804688
vt 1.070312 0.929688
vt 1.078125 0.929688
vt 1.078125 0.992188
vt 1.070312 0.992188
vt 1.078125 0.929688
vt 1.085938 0.929688
vt 1.085938 0.992188
vt 1.078125 0.992188
vt 1.070312 0.921875
vt 1.078125 0.921875
vt 1.148438 0.929688
vt 1.140625 0.929688
vt 1.140625 0.921875
vt 1.148438 0.921875
vt 1.007812 0.929688
vt 1.007812 0.921875
vt 1.015625 0.984375
vt 1.023438 0.984375
vt 1.023438 0.992188
vt 1.015625 0.992188
vt 1.023438 0.984375
vt 1.031250 0.984375
vt 1.031250 0.992188
vt 1.023438 0.992188
vt 1.015625 0.976562
vt 1.023438 0.976562
vt 1.039062 0.984375
vt 1.031250 0.984375
vt 1.031250 0.976562
vt 1.039062 0.976562
vt 1.007812 0.984375
vt 1.007812 0.976562
vt 1.140625 0.984375
vt 1.148438 0.984375
vt 1.148438 0.992188
vt 1.140625 0.992188
vt 1.148438 0.984375
vt 1.156250 0.984375
vt 1.156250 0.992188
vt 1.148438 0.992188
vt 1.140625 0.976562
vt 1.148438 0.976562
vt 1.164062 0.984375
vt 1.156250 0.984375
vt 1.156250 0.976562
vt 1.164062 0.976562
vt 1.132812 0.984375
vt 1.132812 0.976562
vt 1.203125 0.984375
vt 1.210938 0.984375
vt 1.210938 0.992188
vt 1.203125 0.992188
vt 1.210938 0.984375
vt 1.218750 0.984375
vt 1.218750 0.992188
vt 1.210938 0.992188
vt 1.203125 0.976562
vt 1.210938 0.976562
vt 1.226562 0.984375
vt 1.218750 0.984375
vt 1.218750 0.976562
vt 1.226562 0.976562
vt 1.195312 0.984375
vt 1.195312 0.976562
vt 1.328125 0.984375
vt 1.335938 0.984375
vt 1.335938 0.992188
vt 1.328125 0.992188
vt 1.335938 0.984375
vt 1.343750 0.984375
vt 1.343750 0.992188
vt 1.335938 0.992188
vt 1.328125 0.976562
vt 1.335938 0.976562
vt 1.351562 0.984375
vt 1.343750 0.984375
vt 1.343750 0.976562
vt 1.351562 0.976562
vt 1.320312 0.984375
vt 1.320312 0.976562
vt 1.398438 0.976562
vt 1.406250 0.976562
vt 1.406250 0.992188
vt 1.398438 0.992188
vt 1.406250 0.976562
vt 1.414062 0.976562
vt 1.414062 0.992188
vt 1.406250 0.992188
vt 1.398438 0.960938
vt 1.406250 0.960938
vt 1.429688 0.976562
vt 1.421875 0.976562
vt 1.421875 0.960938
vt 1.429688 0.960938
vt 1.382812 0.976562
vt 1.382812 0.960938
vt 1.757812 0.867188
vt 1.773438 0.867188
vt 1.773438 0.992188
vt 1.757812 0.992188
vt 1.773438 0.867188
vt 1.789062 0.867188
vt 1.789062 0.992188
vt 1.773438 0.992188
vt 1.757812 0.859375
vt 1.773438 0.859375
vt 1.914062 0.867188
vt 1.898438 0.867188
vt 1.898438 0.859375
vt 1.914062 0.859375
vt 1.632812 0.867188
vt 1.632812 0.859375
vt 1.695312 0.679688
vt 1.703125 0.679688
vt 1.703125 0.804688
vt 1.695312 0.804688
vt 1.703125 0.679688
vt 1.710938 0.679688
vt 1.710938 0.804688
vt 1.703125 0.804688
vt 1.695312 0.671875
vt 1.703125 0.671875
vt 1.835938 0.679688
vt 1.828125 0.679688
vt 1.828125 0.671875
vt 1.835938 0.671875
vt 1.570312 0.679688
vt 1.570312 0.671875
vt 1.570312 0.492188
vt 1.578125 0.492188
vt 1.578125 0.617188
vt 1.570312 0.617188
vt 1.578125 0.492188
vt 1.585938 0.492188
vt 1.585938 0.617188
vt 1.578125 0.617188
vt 1.570312 0.484375
vt 1.578125 0.484375
vt 1.710938 0.492188
vt 1.703125 0.492188
vt 1.703125 0.484375
vt 1.710938 0.484375
vt 1.445312 0.492188
vt 1.445312 0.484375
vn -0.0000 1.0000 0.0000
vn 0.0000 -1.0000 0.0000
vn -1.0000 -0.0000 0.0000
vn 1.0000 0.0000 0.0000
vn -0.0000 -0.0000 1.0000
vn 0.0000 0.0000 -1.0000
vn 0.0000 0.3162 -0.9487
vn -0.3162 -0.0000 -0.9487
vn 0.3162 0.0000 -0.9487
vn 0.0000 -0.9487 -0.3162
vn -0.5883 -0.7845 -0.1961
vn 0.5883 -0.7845 -0.1961
vn 0.0000 -0.3162 -0.9487
vn -0.4472 0.0000 -0.8944
vn 0.4472 0.0000 -0.8944
vn -0.4472 0.0000 0.8944
vn 0.4472 0.0000 0.8944
usemtl ModelMaterial
s off
f 1/1/1 2/2/1 3/3/1 4/4/1
f 5/5/2 6/6/2 7/7/2 8/8/2
f 2/2/3 1/1/3 8/9/3 7/10/3
f 4/11/4 3/12/4 6/13/4 5/14/4
f 3/12/5 2/2/5 7/10/5 6/13/5
f 1/1/6 4/15/6 5/16/6 8/9/6
f 9/17/7 10/18/7 11/19/7 12/20/7
f 13/21/2 14/22/2 15/23/2 16/24/2
f 10/18/8 9/17/8 16/25/8 15/26/8
f 12/27/9 11/28/9 14/29/9 13/30/9
f 11/28/5 10/18/5 15/26/5 14/29/5
f 9/17/6 12/31/6 13/32/6 16/25/6
f 17/33/1 18/34/1 19/35/1 20/36/1
f 21/37/10 22/38/10 23/39/10 24/40/10
f 18/34/11 17/33/11 24/41/11 23/42/11
f 20/43/12 19/44/12 22/45/12 21/46/12
f 19/44/5 18/34/5 23/42/5 22/45/5
f 17/33/13 20/47/13 21/48/13 24/41/13
f 25/49/1 26/50/1 27/51/1 28/52/1
f 29/53/2 30/54/2 31/55/2 32/56/2
f 26/50/3 25/49/3 32/57/3 31/58/3
f 28/59/4 27/60/4 30/61/4 29/62/4
f 27/60/5 26/50/5 31/58/5 30/61/5
f 25/49/6 28/63/6 29/64/6 32/57/6
f 33/65/1 34/66/1 35/67/1 36/68/1
f 37/69/2 38/70/2 39/71/2 40/72/2
f 34/66/3 33/65/3 40/73/3 39/74/3
f 36/75/4 35/76/4 38/77/4 37/78/4
f 35/76/5 34/66/5 39/74/5 38/77/5
f 33/65/6 36/79/6 37/80/6 40/73/6
f 41/81/1 42/82/1 43/83/1 44/84/1
f 45/85/2 46/86/2 47/87/2 48/88/2
f 42/82/3 41/81/3 48/89/3 47/90/3
f 44/91/4 43/92/4 46/93/4 45/94/4
f 43/92/5 42/82/5 47/90/5 46/93/5
f 41/81/6 44/95/6 45/96/6 48/89/6
f 49/97/1 50/98/1 51/99/1 52/100/1
f 53/101/2 54/102/2 55/103/2 56/104/2
f 50/98/3 49/97/3 56/105/3 55/106/3
f 52/107/4 51/108/4 54/109/4 53/110/4
f 51/108/5 50/98/5 55/106/5 54/109/5
f 49/97/6 52/111/6 53/112/6 56/105/6
f 57/113/1 58/114/1 59/115/1 60/116/1
f 61/117/2 62/118/2 63/119/2 64/120/2
f 58/114/3 57/113/3 64/121/3 63/122/3
f 60/123/4 59/124/4 62/125/4 61/126/4
f 59/124/5 58/114/5 63/122/5 62/125/5
f 57/113/6 60/127/6 61/128/6 64/121/6
f 65/129/1 66/130/1 67/131/1 68/132/1
f 69/133/2 70/134/2 71/135/2 72/136/2
f 66/130/3 65/129/3 72/137/3 71/138/3
f 68/139/4 67/140/4 70/141/4 69/142/4
f 67/140/5 66/130/5 71/138/5 70/141/5
f 65/129/6 68/143/6 69/144/6 72/137/6
f 73/145/1 74/146/1 75/147/1 76/148/1
f 77/149/2 78/150/2 79/151/2 80/152/2
f 74/146/14 73/145/14 80/153/14 79/154/14
f 76/155/15 75/156/15 78/157/15 77/158/15
f 75/156/5 74/146/5 79/154/5 78/157/5
f 73/145/6 76/159/6 77/160/6 80/153/6
f 81/161/1 82/162/1 83/163/1 84/164/1
f 85/165/2 86/166/2 87/167/2 88/168/2
f 82/162/16 81/161/16 88/169/16 87/170/16
f 84/171/17 83/172/17 86/173/17 85/174/17
f 83/172/5 82/162/5 87/170/5 86/173/5
f 81/161/6 84/175/6 85/176/6 88/169/6
