# Blender v2.79 (sub 0) OBJ File: ''
# www.blender.org
mtllib tv_2x4.obj.mtl
o tv_2x4.obj
v -2.000000 2.187500 0.125000
v -2.000000 2.187500 0.187500
v 2.000000 2.187500 0.187500
v 2.000000 2.187500 0.125000
v 2.000000 0.187500 0.125000
v 2.000000 0.187500 0.187500
v -2.000000 0.187500 0.187500
v -2.000000 0.187500 0.125000
v -1.000000 1.187500 0.062500
v -1.187500 1.375000 0.125000
v 1.187500 1.375000 0.125000
v 1.000000 1.187500 0.062500
v 1.000000 0.187500 0.062500
v 1.187500 0.187500 0.125000
v -1.187500 0.187500 0.125000
v -1.000000 0.187500 0.062500
v -0.593750 0.187500 0.109375
v -0.593750 0.187500 0.171875
v 0.531250 0.187500 0.171875
v 0.531250 0.187500 0.109375
v 0.453125 0.140625 0.125000
v 0.468750 0.125000 0.171875
v -0.531250 0.125000 0.171875
v -0.515625 0.140625 0.125000
v -0.234375 0.180000 0.171875
v -0.234375 0.180000 0.187500
v -0.187500 0.180000 0.187500
v -0.187500 0.180000 0.171875
v -0.187500 0.133125 0.171875
v -0.187500 0.133125 0.187500
v -0.234375 0.133125 0.187500
v -0.234375 0.133125 0.171875
v -0.109375 0.180000 0.171875
v -0.109375 0.180000 0.187500
v -0.062500 0.180000 0.187500
v -0.062500 0.180000 0.171875
v -0.062500 0.133125 0.171875
v -0.062500 0.133125 0.187500
v -0.109375 0.133125 0.187500
v -0.109375 0.133125 0.171875
v 0.015625 0.180000 0.171875
v 0.015625 0.180000 0.187500
v 0.062500 0.180000 0.187500
v 0.062500 0.180000 0.171875
v 0.062500 0.133125 0.171875
v 0.062500 0.133125 0.187500
v 0.015625 0.133125 0.187500
v 0.015625 0.133125 0.171875
v 0.140625 0.180000 0.171875
v 0.140625 0.180000 0.187500
v 0.187500 0.180000 0.187500
v 0.187500 0.180000 0.171875
v 0.187500 0.133125 0.171875
v 0.187500 0.133125 0.187500
v 0.140625 0.133125 0.187500
v 0.140625 0.133125 0.171875
v -0.875000 0.187500 0.093750
v -0.875000 0.187500 0.156250
v -0.750000 0.187500 0.156250
v -0.750000 0.187500 0.093750
v -0.750000 0.062500 0.093750
v -0.750000 0.062500 0.156250
v -0.875000 0.062500 0.156250
v -0.875000 0.062500 0.093750
v -1.000000 0.062500 0.062500
v -1.000000 0.062500 0.187500
v 1.000000 0.062500 0.187500
v 1.000000 0.062500 0.062500
v 1.000000 0.000000 0.062500
v 1.000000 0.000000 0.187500
v -1.000000 -0.000000 0.187500
v -1.000000 -0.000000 0.062500
v -0.875000 0.062500 -0.000000
v -1.000000 0.062500 0.062500
v 1.000000 0.062500 0.062500
v 0.875000 0.062500 0.000000
v 0.875000 0.000000 0.000000
v 1.000000 0.000000 0.062500
v -1.000000 -0.000000 0.062500
v -0.875000 -0.000000 -0.000000
v -1.000000 0.062500 0.187500
v -0.875000 0.062500 0.250000
v 0.875000 0.062500 0.250000
v 1.000000 0.062500 0.187500
v 1.000000 0.000000 0.187500
v 0.875000 0.000000 0.250000
v -0.875000 -0.000000 0.250000
v -1.000000 -0.000000 0.187500
v 0.750000 0.187500 0.093750
v 0.750000 0.187500 0.156250
v 0.875000 0.187500 0.156250
v 0.875000 0.187500 0.093750
v 0.875000 0.062500 0.093750
v 0.875000 0.062500 0.156250
v 0.750000 0.062500 0.156250
v 0.750000 0.062500 0.093750
v -0.359375 0.180000 0.171875
v -0.359375 0.180000 0.187500
v -0.312500 0.180000 0.187500
v -0.312500 0.180000 0.171875
v -0.312500 0.133125 0.171875
v -0.312500 0.133125 0.187500
v -0.359375 0.133125 0.187500
v -0.359375 0.133125 0.171875
v 0.265625 0.180000 0.171875
v 0.265625 0.180000 0.187500
v 0.312500 0.180000 0.187500
v 0.312500 0.180000 0.171875
v 0.312500 0.133125 0.171875
v 0.312500 0.133125 0.187500
v 0.265625 0.133125 0.187500
v 0.265625 0.133125 0.171875
v 0.390625 0.180000 0.171875
v 0.390625 0.180000 0.187500
v 0.437500 0.180000 0.187500
v 0.437500 0.180000 0.171875
v 0.437500 0.133125 0.171875
v 0.437500 0.133125 0.187500
v 0.390625 0.133125 0.187500
v 0.390625 0.133125 0.171875
v -0.484375 0.180000 0.171875
v -0.484375 0.180000 0.187500
v -0.437500 0.180000 0.187500
v -0.437500 0.180000 0.171875
v -0.437500 0.133125 0.171875
v -0.437500 0.133125 0.187500
v -0.484375 0.133125 0.187500
v -0.484375 0.133125 0.171875
vt 1.253906 0.492188
vt 1.257812 0.492188
vt 1.257812 0.992188
vt 1.253906 0.992188
vt 1.257812 0.492188
vt 1.261719 0.492188
vt 1.261719 0.992188
vt 1.257812 0.992188
vt 1.253906 0.242188
vt 1.257812 0.242188
vt 1.511719 0.492188
vt 1.507812 0.492188
vt 1.507812 0.242188
vt 1.511719 0.242188
vt 1.003906 0.492188
vt 1.003906 0.242188
vt 1.410156 0.742188
vt 1.414062 0.742188
vt 1.414062 0.992188
vt 1.410156 0.992188
vt 1.414062 0.742188
vt 1.417969 0.742188
vt 1.417969 0.992188
vt 1.414062 0.992188
vt 1.410156 0.617188
vt 1.414062 0.617188
vt 1.542969 0.742188
vt 1.539062 0.742188
vt 1.539062 0.617188
vt 1.542969 0.617188
vt 1.285156 0.742188
vt 1.285156 0.617188
vt 1.066406 0.867188
vt 1.070312 0.867188
vt 1.070312 0.992188
vt 1.066406 0.992188
vt 1.070312 0.867188
vt 1.074219 0.867188
vt 1.074219 0.992188
vt 1.070312 0.992188
vt 1.066406 0.859375
vt 1.070312 0.859375
vt 1.136719 0.867188
vt 1.132812 0.867188
vt 1.132812 0.859375
vt 1.136719 0.859375
vt 1.003906 0.867188
vt 1.003906 0.859375
vt 1.007812 0.984375
vt 1.011719 0.984375
vt 1.011719 0.992188
vt 1.007812 0.992188
vt 1.011719 0.984375
vt 1.015625 0.984375
vt 1.015625 0.992188
vt 1.011719 0.992188
vt 1.007812 0.976562
vt 1.011719 0.976562
vt 1.019531 0.984375
vt 1.015625 0.984375
vt 1.015625 0.976562
vt 1.019531 0.976562
vt 1.003906 0.984375
vt 1.003906 0.976562
vt 1.039062 0.984375
vt 1.042969 0.984375
vt 1.042969 0.992188
vt 1.039062 0.992188
vt 1.042969 0.984375
vt 1.046875 0.984375
vt 1.046875 0.992188
vt 1.042969 0.992188
vt 1.039062 0.976562
vt 1.042969 0.976562
vt 1.050781 0.984375
vt 1.046875 0.984375
vt 1.046875 0.976562
vt 1.050781 0.976562
vt 1.035156 0.984375
vt 1.035156 0.976562
vt 1.101562 0.984375
vt 1.105469 0.984375
vt 1.105469 0.992188
vt 1.101562 0.992188
vt 1.105469 0.984375
vt 1.109375 0.984375
vt 1.109375 0.992188
vt 1.105469 0.992188
vt 1.101562 0.976562
vt 1.105469 0.976562
vt 1.113281 0.984375
vt 1.109375 0.984375
vt 1.109375 0.976562
vt 1.113281 0.976562
vt 1.097656 0.984375
vt 1.097656 0.976562
vt 1.132812 0.984375
vt 1.136719 0.984375
vt 1.136719 0.992188
vt 1.132812 0.992188
vt 1.136719 0.984375
vt 1.140625 0.984375
vt 1.140625 0.992188
vt 1.136719 0.992188
vt 1.132812 0.976562
vt 1.136719 0.976562
vt 1.144531 0.984375
vt 1.140625 0.984375
vt 1.140625 0.976562
vt 1.144531 0.976562
vt 1.128906 0.984375
vt 1.128906 0.976562
vt 1.167969 0.976562
vt 1.171875 0.976562
vt 1.171875 0.992188
vt 1.167969 0.992188
vt 1.171875 0.976562
vt 1.175781 0.976562
vt 1.175781 0.992188
vt 1.171875 0.992188
vt 1.167969 0.960938
vt 1.171875 0.960938
vt 1.183594 0.976562
vt 1.179688 0.976562
vt 1.179688 0.960938
vt 1.183594 0.960938
vt 1.160156 0.976562
vt 1.160156 0.960938
vt 1.691406 0.742188
vt 1.699219 0.742188
vt 1.699219 0.992188
vt 1.691406 0.992188
vt 1.699219 0.742188
vt 1.707031 0.742188
vt 1.707031 0.992188
vt 1.699219 0.992188
vt 1.691406 0.734375
vt 1.699219 0.734375
vt 1.832031 0.742188
vt 1.824219 0.742188
vt 1.824219 0.734375
vt 1.832031 0.734375
vt 1.566406 0.742188
vt 1.566406 0.734375
vt 1.847656 0.679688
vt 1.851562 0.679688
vt 1.851562 0.929688
vt 1.847656 0.929688
vt 1.851562 0.679688
vt 1.855469 0.679688
vt 1.855469 0.929688
vt 1.851562 0.929688
vt 1.847656 0.671875
vt 1.851562 0.671875
vt 1.980469 0.679688
vt 1.976562 0.679688
vt 1.976562 0.671875
vt 1.980469 0.671875
vt 1.722656 0.679688
vt 1.722656 0.671875
vt 1.660156 0.429688
vt 1.664062 0.429688
vt 1.664062 0.679688
vt 1.660156 0.679688
vt 1.664062 0.429688
vt 1.667969 0.429688
vt 1.667969 0.679688
vt 1.664062 0.679688
vt 1.660156 0.421875
vt 1.664062 0.421875
vt 1.792969 0.429688
vt 1.789062 0.429688
vt 1.789062 0.421875
vt 1.792969 0.421875
vt 1.535156 0.429688
vt 1.535156 0.421875
vt 1.199219 0.976562
vt 1.203125 0.976562
vt 1.203125 0.992188
vt 1.199219 0.992188
vt 1.203125 0.976562
vt 1.207031 0.976562
vt 1.207031 0.992188
vt 1.203125 0.992188
vt 1.199219 0.960938
vt 1.203125 0.960938
vt 1.214844 0.976562
vt 1.210938 0.976562
vt 1.210938 0.960938
vt 1.214844 0.960938
vt 1.191406 0.976562
vt 1.191406 0.960938
vt 1.226562 0.984375
vt 1.230469 0.984375
vt 1.230469 0.992188
vt 1.226562 0.992188
vt 1.230469 0.984375
vt 1.234375 0.984375
vt 1.234375 0.992188
vt 1.230469 0.992188
vt 1.226562 0.976562
vt 1.230469 0.976562
vt 1.238281 0.984375
vt 1.234375 0.984375
vt 1.234375 0.976562
vt 1.238281 0.976562
vt 1.222656 0.984375
vt 1.222656 0.976562
vt 1.289062 0.984375
vt 1.292969 0.984375
vt 1.292969 0.992188
vt 1.289062 0.992188
vt 1.292969 0.984375
vt 1.296875 0.984375
vt 1.296875 0.992188
vt 1.292969 0.992188
vt 1.289062 0.976562
vt 1.292969 0.976562
vt 1.300781 0.984375
vt 1.296875 0.984375
vt 1.296875 0.976562
vt 1.300781 0.976562
vt 1.285156 0.984375
vt 1.285156 0.976562
vt 1.320312 0.984375
vt 1.324219 0.984375
vt 1.324219 0.992188
vt 1.320312 0.992188
vt 1.324219 0.984375
vt 1.328125 0.984375
vt 1.328125 0.992188
vt 1.324219 0.992188
vt 1.320312 0.976562
vt 1.324219 0.976562
vt 1.332031 0.984375
vt 1.328125 0.984375
vt 1.328125 0.976562
vt 1.332031 0.976562
vt 1.316406 0.984375
vt 1.316406 0.976562
vt 1.351562 0.984375
vt 1.355469 0.984375
vt 1.355469 0.992188
vt 1.351562 0.992188
vt 1.355469 0.984375
vt 1.359375 0.984375
vt 1.359375 0.992188
vt 1.355469 0.992188
vt 1.351562 0.976562
vt 1.355469 0.976562
vt 1.363281 0.984375
vt 1.359375 0.984375
vt 1.359375 0.976562
vt 1.363281 0.976562
vt 1.347656 0.984375
vt 1.347656 0.976562
vn -0.0000 1.0000 0.0000
vn 0.0000 -1.0000 0.0000
vn -1.0000 -0.0000 0.0000
vn 1.0000 0.0000 0.0000
vn -0.0000 -0.0000 1.0000
vn 0.0000 0.0000 -1.0000
vn -0.0000 0.3162 -0.9487
vn -0.3162 -0.0000 -0.9487
vn 0.3162 0.0000 -0.9487
vn 0.0000 -0.9487 -0.3162
vn -0.5883 -0.7845 -0.1961
vn 0.5883 -0.7845 -0.1961
vn 0.0000 -0.3162 -0.9487
vn -0.4472 0.0000 -0.8944
vn 0.4472 0.0000 -0.8944
vn -0.4472 0.0000 0.8944
vn 0.4472 0.0000 0.8944
usemtl ModelMaterial.001
s off
f 1/1/1 2/2/1 3/3/1 4/4/1
f 5/5/2 6/6/2 7/7/2 8/8/2
f 2/2/3 1/1/3 8/9/3 7/10/3
f 4/11/4 3/12/4 6/13/4 5/14/4
f 3/12/5 2/2/5 7/10/5 6/13/5
f 1/1/6 4/15/6 5/16/6 8/9/6
f 9/17/7 10/18/7 11/19/7 12/20/7
f 13/21/2 14/22/2 15/23/2 16/24/2
f 10/18/8 9/17/8 16/25/8 15/26/8
f 12/27/9 11/28/9 14/29/9 13/30/9
f 11/28/5 10/18/5 15/26/5 14/29/5
f 9/17/6 12/31/6 13/32/6 16/25/6
f 17/33/1 18/34/1 19/35/1 20/36/1
f 21/37/10 22/38/10 23/39/10 24/40/10
f 18/34/11 17/33/11 24/41/11 23/42/11
f 20/43/12 19/44/12 22/45/12 21/46/12
f 19/44/5 18/34/5 23/42/5 22/45/5
f 17/33/13 20/47/13 21/48/13 24/41/13
f 25/49/1 26/50/1 27/51/1 28/52/1
f 29/53/2 30/54/2 31/55/2 32/56/2
f 26/50/3 25/49/3 32/57/3 31/58/3
f 28/59/4 27/60/4 30/61/4 29/62/4
f 27/60/5 26/50/5 31/58/5 30/61/5
f 25/49/6 28/63/6 29/64/6 32/57/6
f 33/65/1 34/66/1 35/67/1 36/68/1
f 37/69/2 38/70/2 39/71/2 40/72/2
f 34/66/3 33/65/3 40/73/3 39/74/3
f 36/75/4 35/76/4 38/77/4 37/78/4
f 35/76/5 34/66/5 39/74/5 38/77/5
f 33/65/6 36/79/6 37/80/6 40/73/6
f 41/81/1 42/82/1 43/83/1 44/84/1
f 45/85/2 46/86/2 47/87/2 48/88/2
f 42/82/3 41/81/3 48/89/3 47/90/3
f 44/91/4 43/92/4 46/93/4 45/94/4
f 43/92/5 42/82/5 47/90/5 46/93/5
f 41/81/6 44/95/6 45/96/6 48/89/6
f 49/97/1 50/98/1 51/99/1 52/100/1
f 53/101/2 54/102/2 55/103/2 56/104/2
f 50/98/3 49/97/3 56/105/3 55/106/3
f 52/107/4 51/108/4 54/109/4 53/110/4
f 51/108/5 50/98/5 55/106/5 54/109/5
f 49/97/6 52/111/6 53/112/6 56/105/6
f 57/113/1 58/114/1 59/115/1 60/116/1
f 61/117/2 62/118/2 63/119/2 64/120/2
f 58/114/3 57/113/3 64/121/3 63/122/3
f 60/123/4 59/124/4 62/125/4 61/126/4
f 59/124/5 58/114/5 63/122/5 62/125/5
f 57/113/6 60/127/6 61/128/6 64/121/6
f 65/129/1 66/130/1 67/131/1 68/132/1
f 69/133/2 70/134/2 71/135/2 72/136/2
f 66/130/3 65/129/3 72/137/3 71/138/3
f 68/139/4 67/140/4 70/141/4 69/142/4
f 67/140/5 66/130/5 71/138/5 70/141/5
f 65/129/6 68/143/6 69/144/6 72/137/6
f 73/145/1 74/146/1 75/147/1 76/148/1
f 77/149/2 78/150/2 79/151/2 80/152/2
f 74/146/14 73/145/14 80/153/14 79/154/14
f 76/155/15 75/156/15 78/157/15 77/158/15
f 75/156/5 74/146/5 79/154/5 78/157/5
f 73/145/6 76/159/6 77/160/6 80/153/6
f 81/161/1 82/162/1 83/163/1 84/164/1
f 85/165/2 86/166/2 87/167/2 88/168/2
f 82/162/16 81/161/16 88/169/16 87/170/16
f 84/171/17 83/172/17 86/173/17 85/174/17
f 83/172/5 82/162/5 87/170/5 86/173/5
f 81/161/6 84/175/6 85/176/6 88/169/6
f 89/177/1 90/178/1 91/179/1 92/180/1
f 93/181/2 94/182/2 95/183/2 96/184/2
f 90/178/3 89/177/3 96/185/3 95/186/3
f 92/187/4 91/188/4 94/189/4 93/190/4
f 91/188/5 90/178/5 95/186/5 94/189/5
f 89/177/6 92/191/6 93/192/6 96/185/6
f 97/193/1 98/194/1 99/195/1 100/196/1
f 101/197/2 102/198/2 103/199/2 104/200/2
f 98/194/3 97/193/3 104/201/3 103/202/3
f 100/203/4 99/204/4 102/205/4 101/206/4
f 99/204/5 98/194/5 103/202/5 102/205/5
f 97/193/6 100/207/6 101/208/6 104/201/6
f 105/209/1 106/210/1 107/211/1 108/212/1
f 109/213/2 110/214/2 111/215/2 112/216/2
f 106/210/3 105/209/3 112/217/3 111/218/3
f 108/219/4 107/220/4 110/221/4 109/222/4
f 107/220/5 106/210/5 111/218/5 110/221/5
f 105/209/6 108/223/6 109/224/6 112/217/6
f 113/225/1 114/226/1 115/227/1 116/228/1
f 117/229/2 118/230/2 119/231/2 120/232/2
f 114/226/3 113/225/3 120/233/3 119/234/3
f 116/235/4 115/236/4 118/237/4 117/238/4
f 115/236/5 114/226/5 119/234/5 118/237/5
f 113/225/6 116/239/6 117/240/6 120/233/6
f 121/241/1 122/242/1 123/243/1 124/244/1
f 125/245/2 126/246/2 127/247/2 128/248/2
f 122/242/3 121/241/3 128/249/3 127/250/3
f 124/251/4 123/252/4 126/253/4 125/254/4
f 123/252/5 122/242/5 127/250/5 126/253/5
f 121/241/6 124/255/6 125/256/6 128/249/6
