# Blender v2.79 (sub 0) OBJ File: ''
# www.blender.org
mtllib garage_furniture_lamp.obj.mtl
o garage_furniture_lamp.obj
v 0.024851 0.062500 -0.095645
v -0.132399 0.062500 -0.197765
v -0.234519 0.062500 -0.040514
v -0.077268 0.062500 0.061605
v -0.077268 0.000000 0.061605
v -0.234519 -0.000000 -0.040514
v -0.132399 -0.000000 -0.197765
v 0.024851 -0.000000 -0.095645
v -0.244064 0.545545 -0.195759
v -0.291949 0.520124 -0.226856
v -0.325989 0.520124 -0.174439
v -0.278104 0.545545 -0.143342
v -0.086225 0.031676 -0.018734
v -0.134110 0.006255 -0.049831
v -0.100070 0.006254 -0.102248
v -0.052185 0.031676 -0.071151
v -0.223450 0.578125 -0.201003
v -0.302076 0.578125 -0.252062
v -0.353136 0.578125 -0.173437
v -0.274510 0.578125 -0.122377
v -0.274510 0.484375 -0.122377
v -0.353136 0.484375 -0.173437
v -0.302076 0.484375 -0.252062
v -0.223450 0.484375 -0.201003
v -0.121915 0.755771 -0.116434
v -0.166845 0.787960 -0.145612
v -0.200885 0.787960 -0.093195
v -0.155955 0.755771 -0.064017
v -0.263942 0.541479 -0.134145
v -0.308872 0.573669 -0.163323
v -0.274832 0.573669 -0.215740
v -0.229902 0.541479 -0.186562
v -0.092408 0.828125 -0.115903
v -0.171033 0.828125 -0.166963
v -0.222093 0.828125 -0.088337
v -0.143468 0.828125 -0.037277
v -0.143468 0.734375 -0.037277
v -0.222093 0.734375 -0.088337
v -0.171033 0.734375 -0.166963
v -0.092408 0.734375 -0.115903
v -0.009188 0.812500 -0.043229
v -0.114022 0.812500 -0.111308
v -0.148062 0.812500 -0.058892
v -0.043228 0.812500 0.009188
v -0.043228 0.750000 0.009188
v -0.148062 0.750000 -0.058892
v -0.114022 0.750000 -0.111308
v -0.009188 0.750000 -0.043229
v 0.060917 0.901360 -0.034963
v -0.041626 0.875371 -0.101555
v -0.109706 0.875371 0.003279
v -0.007163 0.901360 0.069871
v 0.014633 0.779091 0.084025
v -0.087910 0.753102 0.017433
v -0.019830 0.753102 -0.087401
v 0.082713 0.779091 -0.020808
v 0.082713 0.779091 -0.020808
v -0.019830 0.753102 -0.087401
v -0.087910 0.753102 0.017433
v 0.014633 0.779091 0.084025
v 0.055943 0.602186 0.148114
v -0.097871 0.563203 0.048226
v 0.004249 0.563203 -0.109025
v 0.158063 0.602186 -0.009137
vt 1.125000 0.875000
vt 1.218750 0.875000
vt 1.218750 0.968750
vt 1.125000 0.968750
vt 1.218750 0.875000
vt 1.312500 0.875000
vt 1.312500 0.968750
vt 1.218750 0.968750
vt 1.125000 0.843750
vt 1.218750 0.843750
vt 1.406250 0.875000
vt 1.312500 0.875000
vt 1.312500 0.843750
vt 1.406250 0.843750
vt 1.031250 0.875000
vt 1.031250 0.843750
vt 1.562500 0.937500
vt 1.593750 0.937500
vt 1.593750 0.968750
vt 1.562500 0.968750
vt 1.593750 0.937500
vt 1.625000 0.937500
vt 1.625000 0.968750
vt 1.593750 0.968750
vt 1.562500 0.656250
vt 1.593750 0.656250
vt 1.656250 0.937500
vt 1.625000 0.937500
vt 1.625000 0.656250
vt 1.656250 0.656250
vt 1.531250 0.937500
vt 1.531250 0.656250
vt 1.812500 0.937500
vt 1.843750 0.937500
vt 1.843750 0.968750
vt 1.812500 0.968750
vt 1.843750 0.937500
vt 1.875000 0.937500
vt 1.875000 0.968750
vt 1.843750 0.968750
vt 1.812500 0.906250
vt 1.843750 0.906250
vt 1.906250 0.937500
vt 1.875000 0.937500
vt 1.875000 0.906250
vt 1.906250 0.906250
vt 1.781250 0.937500
vt 1.781250 0.906250
vt 1.062500 0.687500
vt 1.093750 0.687500
vt 1.093750 0.718750
vt 1.062500 0.718750
vt 1.093750 0.687500
vt 1.125000 0.687500
vt 1.125000 0.718750
vt 1.093750 0.718750
vt 1.062500 0.562500
vt 1.093750 0.562500
vt 1.156250 0.687500
vt 1.125000 0.687500
vt 1.125000 0.562500
vt 1.156250 0.562500
vt 1.031250 0.687500
vt 1.031250 0.562500
vt 1.312500 0.687500
vt 1.343750 0.687500
vt 1.343750 0.718750
vt 1.312500 0.718750
vt 1.343750 0.687500
vt 1.375000 0.687500
vt 1.375000 0.718750
vt 1.343750 0.718750
vt 1.312500 0.656250
vt 1.343750 0.656250
vt 1.406250 0.687500
vt 1.375000 0.687500
vt 1.375000 0.656250
vt 1.406250 0.656250
vt 1.281250 0.687500
vt 1.281250 0.656250
vt 1.812500 0.687500
vt 1.875000 0.687500
vt 1.875000 0.718750
vt 1.812500 0.718750
vt 1.875000 0.687500
vt 1.937500 0.687500
vt 1.937500 0.718750
vt 1.875000 0.718750
vt 1.812500 0.656250
vt 1.875000 0.656250
vt 1.968750 0.687500
vt 1.906250 0.687500
vt 1.906250 0.656250
vt 1.968750 0.656250
vt 1.781250 0.687500
vt 1.781250 0.656250
vt 1.093750 0.406250
vt 1.156250 0.406250
vt 1.156250 0.468750
vt 1.093750 0.468750
vt 1.156250 0.406250
vt 1.218750 0.406250
vt 1.218750 0.468750
vt 1.156250 0.468750
vt 1.093750 0.343750
vt 1.156250 0.343750
vt 1.281250 0.406250
vt 1.218750 0.406250
vt 1.218750 0.343750
vt 1.281250 0.343750
vt 1.031250 0.406250
vt 1.031250 0.343750
vt 1.593750 0.406250
vt 1.656250 0.406250
vt 1.656250 0.468750
vt 1.593750 0.468750
vt 1.656250 0.406250
vt 1.718750 0.406250
vt 1.718750 0.468750
vt 1.656250 0.468750
vt 1.593750 0.312500
vt 1.656250 0.312500
vt 1.781250 0.406250
vt 1.718750 0.406250
vt 1.718750 0.312500
vt 1.781250 0.312500
vt 1.531250 0.406250
vt 1.531250 0.312500
vn -0.0000 1.0000 -0.0000
vn -0.0000 -1.0000 0.0000
vn 0.5446 -0.0000 -0.8387
vn -0.5446 0.0000 0.8387
vn -0.8387 -0.0000 -0.5446
vn 0.8387 0.0000 0.5446
vn -0.3411 0.9135 -0.2215
vn 0.3411 -0.9135 0.2215
vn -0.7662 -0.4067 -0.4976
vn 0.7662 0.4067 0.4976
vn 0.4319 0.8572 0.2805
vn -0.4319 -0.8572 -0.2805
vn -0.7189 0.5150 -0.4668
vn 0.7189 -0.5150 0.4668
vn -0.1744 0.9781 -0.1132
vn 0.1744 -0.9781 0.1132
vn -0.8203 -0.2079 -0.5327
vn 0.8203 0.2079 0.5327
vn 0.5086 0.1608 -0.8459
vn -0.5659 0.1608 0.8086
vn -0.8378 -0.0443 -0.5441
vn 0.7805 0.3659 0.5069
usemtl ModelMaterial
s off
f 1/1/1 2/2/1 3/3/1 4/4/1
f 5/5/2 6/6/2 7/7/2 8/8/2
f 2/2/3 1/1/3 8/9/3 7/10/3
f 4/11/4 3/12/4 6/13/4 5/14/4
f 3/12/5 2/2/5 7/10/5 6/13/5
f 1/1/6 4/15/6 5/16/6 8/9/6
f 9/17/7 10/18/7 11/19/7 12/20/7
f 13/21/8 14/22/8 15/23/8 16/24/8
f 10/18/3 9/17/3 16/25/3 15/26/3
f 12/27/4 11/28/4 14/29/4 13/30/4
f 11/28/9 10/18/9 15/26/9 14/29/9
f 9/17/10 12/31/10 13/32/10 16/25/10
f 17/33/1 18/34/1 19/35/1 20/36/1
f 21/37/2 22/38/2 23/39/2 24/40/2
f 18/34/3 17/33/3 24/41/3 23/42/3
f 20/43/4 19/44/4 22/45/4 21/46/4
f 19/44/5 18/34/5 23/42/5 22/45/5
f 17/33/6 20/47/6 21/48/6 24/41/6
f 25/49/11 26/50/11 27/51/11 28/52/11
f 29/53/12 30/54/12 31/55/12 32/56/12
f 26/50/3 25/49/3 32/57/3 31/58/3
f 28/59/4 27/60/4 30/61/4 29/62/4
f 27/60/13 26/50/13 31/58/13 30/61/13
f 25/49/14 28/63/14 29/64/14 32/57/14
f 33/65/1 34/66/1 35/67/1 36/68/1
f 37/69/2 38/70/2 39/71/2 40/72/2
f 34/66/3 33/65/3 40/73/3 39/74/3
f 36/75/4 35/76/4 38/77/4 37/78/4
f 35/76/5 34/66/5 39/74/5 38/77/5
f 33/65/6 36/79/6 37/80/6 40/73/6
f 41/81/1 42/82/1 43/83/1 44/84/1
f 45/85/2 46/86/2 47/87/2 48/88/2
f 42/82/3 41/81/3 48/89/3 47/90/3
f 44/91/4 43/92/4 46/93/4 45/94/4
f 43/92/5 42/82/5 47/90/5 46/93/5
f 41/81/6 44/95/6 45/96/6 48/89/6
f 49/97/15 50/98/15 51/99/15 52/100/15
f 53/101/16 54/102/16 55/103/16 56/104/16
f 50/98/3 49/97/3 56/105/3 55/106/3
f 52/107/4 51/108/4 54/109/4 53/110/4
f 51/108/17 50/98/17 55/106/17 54/109/17
f 49/97/18 52/111/18 53/112/18 56/105/18
f 57/113/15 58/114/15 59/115/15 60/116/15
f 61/117/16 62/118/16 63/119/16 64/120/16
f 58/114/19 57/113/19 64/121/19 63/122/19
f 60/123/20 59/124/20 62/125/20 61/126/20
f 59/124/21 58/114/21 63/122/21 62/125/21
f 57/113/22 60/127/22 61/128/22 64/121/22
