# Blender v2.79 (sub 0) OBJ File: ''
# www.blender.org
mtllib garage_furniture_desk.obj.mtl
o garage_furniture_desk.obj
v -1.437500 0.875000 -0.500000
v -1.437500 0.875000 0.312500
v -0.562500 0.875000 0.312500
v -0.562500 0.875000 -0.500000
v -0.562500 -0.000000 -0.500000
v -0.562500 -0.000000 0.312500
v -1.437500 -0.000000 0.312500
v -1.437500 -0.000000 -0.500000
v 0.562500 0.875000 -0.500000
v 0.562500 0.875000 0.312500
v 1.437500 0.875000 0.312500
v 1.437500 0.875000 -0.500000
v 1.437500 0.000000 -0.500000
v 1.437500 0.000000 0.312500
v 0.562500 0.000000 0.312500
v 0.562500 0.000000 -0.500000
v -1.500000 1.000000 -0.500000
v -1.500000 1.000000 0.375000
v 1.500000 1.000000 0.375000
v 1.500000 1.000000 -0.500000
v 1.500000 0.875000 -0.500000
v 1.500000 0.875000 0.375000
v -1.500000 0.875000 0.375000
v -1.500000 0.875000 -0.500000
v -1.375000 0.812500 0.265625
v -1.375000 0.812500 0.328125
v -0.625000 0.812500 0.328125
v -0.625000 0.812500 0.265625
v -0.625000 0.687500 0.265625
v -0.625000 0.687500 0.328125
v -1.375000 0.687500 0.328125
v -1.375000 0.687500 0.265625
v -1.375000 0.656250 0.265625
v -1.375000 0.656250 0.328125
v -0.625000 0.656250 0.328125
v -0.625000 0.656250 0.265625
v -0.625000 0.531250 0.265625
v -0.625000 0.531250 0.328125
v -1.375000 0.531250 0.328125
v -1.375000 0.531250 0.265625
v -1.375000 0.343750 0.265625
v -1.375000 0.343750 0.328125
v -0.625000 0.343750 0.328125
v -0.625000 0.343750 0.265625
v -0.625000 0.218750 0.265625
v -0.625000 0.218750 0.328125
v -1.375000 0.218750 0.328125
v -1.375000 0.218750 0.265625
v -1.375000 0.500000 0.265625
v -1.375000 0.500000 0.328125
v -0.625000 0.500000 0.328125
v -0.625000 0.500000 0.265625
v -0.625000 0.375000 0.265625
v -0.625000 0.375000 0.328125
v -1.375000 0.375000 0.328125
v -1.375000 0.375000 0.265625
v -1.375000 0.187500 0.265625
v -1.375000 0.187500 0.328125
v -0.625000 0.187500 0.328125
v -0.625000 0.187500 0.265625
v -0.625000 0.062500 0.265625
v -0.625000 0.062500 0.328125
v -1.375000 0.062500 0.328125
v -1.375000 0.062500 0.265625
v 0.625000 0.187500 0.265625
v 0.625000 0.187500 0.328125
v 1.375000 0.187500 0.328125
v 1.375000 0.187500 0.265625
v 1.375000 0.062500 0.265625
v 1.375000 0.062500 0.328125
v 0.625000 0.062500 0.328125
v 0.625000 0.062500 0.265625
v 0.625000 0.343750 0.265625
v 0.625000 0.343750 0.328125
v 1.375000 0.343750 0.328125
v 1.375000 0.343750 0.265625
v 1.375000 0.218750 0.265625
v 1.375000 0.218750 0.328125
v 0.625000 0.218750 0.328125
v 0.625000 0.218750 0.265625
v 0.625000 0.500000 0.265625
v 0.625000 0.500000 0.328125
v 1.375000 0.500000 0.328125
v 1.375000 0.500000 0.265625
v 1.375000 0.375000 0.265625
v 1.375000 0.375000 0.328125
v 0.625000 0.375000 0.328125
v 0.625000 0.375000 0.265625
v 0.625000 0.656250 0.265625
v 0.625000 0.656250 0.328125
v 1.375000 0.656250 0.328125
v 1.375000 0.656250 0.265625
v 1.375000 0.531250 0.265625
v 1.375000 0.531250 0.328125
v 0.625000 0.531250 0.328125
v 0.625000 0.531250 0.265625
v 0.625000 0.812500 0.265625
v 0.625000 0.812500 0.328125
v 1.375000 0.812500 0.328125
v 1.375000 0.812500 0.265625
v 1.375000 0.687500 0.265625
v 1.375000 0.687500 0.328125
v 0.625000 0.687500 0.328125
v 0.625000 0.687500 0.265625
v -0.562500 0.875000 -0.500000
v -0.562500 0.875000 -0.437500
v 0.562500 0.875000 -0.437500
v 0.562500 0.875000 -0.500000
v 0.562500 0.000000 -0.500000
v 0.562500 0.000000 -0.437500
v -0.562500 -0.000000 -0.437500
v -0.562500 -0.000000 -0.500000
vt 1.117188 0.882812
vt 1.218750 0.882812
vt 1.218750 0.992188
vt 1.117188 0.992188
vt 1.218750 0.882812
vt 1.320312 0.882812
vt 1.320312 0.992188
vt 1.218750 0.992188
vt 1.117188 0.773438
vt 1.218750 0.773438
vt 1.429688 0.882812
vt 1.328125 0.882812
vt 1.328125 0.773438
vt 1.429688 0.773438
vt 1.007812 0.882812
vt 1.007812 0.773438
vt 1.554688 0.882812
vt 1.656250 0.882812
vt 1.656250 0.992188
vt 1.554688 0.992188
vt 1.656250 0.882812
vt 1.757812 0.882812
vt 1.757812 0.992188
vt 1.656250 0.992188
vt 1.554688 0.773438
vt 1.656250 0.773438
vt 1.867188 0.882812
vt 1.765625 0.882812
vt 1.765625 0.773438
vt 1.867188 0.773438
vt 1.445312 0.882812
vt 1.445312 0.773438
vt 1.382812 0.367188
vt 1.492188 0.367188
vt 1.492188 0.742188
vt 1.382812 0.742188
vt 1.492188 0.367188
vt 1.601562 0.367188
vt 1.601562 0.742188
vt 1.492188 0.742188
vt 1.382812 0.351562
vt 1.492188 0.351562
vt 1.976562 0.367188
vt 1.867188 0.367188
vt 1.867188 0.351562
vt 1.976562 0.351562
vt 1.007812 0.367188
vt 1.007812 0.351562
vt 1.101562 0.648438
vt 1.109375 0.648438
vt 1.109375 0.742188
vt 1.101562 0.742188
vt 1.109375 0.648438
vt 1.117188 0.648438
vt 1.117188 0.742188
vt 1.109375 0.742188
vt 1.101562 0.632812
vt 1.109375 0.632812
vt 1.210938 0.648438
vt 1.203125 0.648438
vt 1.203125 0.632812
vt 1.210938 0.632812
vt 1.007812 0.648438
vt 1.007812 0.632812
vt 1.726562 0.648438
vt 1.734375 0.648438
vt 1.734375 0.742188
vt 1.726562 0.742188
vt 1.734375 0.648438
vt 1.742188 0.648438
vt 1.742188 0.742188
vt 1.734375 0.742188
vt 1.726562 0.632812
vt 1.734375 0.632812
vt 1.835938 0.648438
vt 1.828125 0.648438
vt 1.828125 0.632812
vt 1.835938 0.632812
vt 1.632812 0.648438
vt 1.632812 0.632812
vt 1.226562 0.585938
vt 1.234375 0.585938
vt 1.234375 0.679688
vt 1.226562 0.679688
vt 1.234375 0.585938
vt 1.242188 0.585938
vt 1.242188 0.679688
vt 1.234375 0.679688
vt 1.226562 0.570312
vt 1.234375 0.570312
vt 1.335938 0.585938
vt 1.328125 0.585938
vt 1.328125 0.570312
vt 1.335938 0.570312
vt 1.132812 0.585938
vt 1.132812 0.570312
vt 1.851562 0.585938
vt 1.859375 0.585938
vt 1.859375 0.679688
vt 1.851562 0.679688
vt 1.859375 0.585938
vt 1.867188 0.585938
vt 1.867188 0.679688
vt 1.859375 0.679688
vt 1.851562 0.570312
vt 1.859375 0.570312
vt 1.960938 0.585938
vt 1.953125 0.585938
vt 1.953125 0.570312
vt 1.960938 0.570312
vt 1.757812 0.585938
vt 1.757812 0.570312
vt 1.101562 0.523438
vt 1.109375 0.523438
vt 1.109375 0.617188
vt 1.101562 0.617188
vt 1.109375 0.523438
vt 1.117188 0.523438
vt 1.117188 0.617188
vt 1.109375 0.617188
vt 1.101562 0.507812
vt 1.109375 0.507812
vt 1.210938 0.523438
vt 1.203125 0.523438
vt 1.203125 0.507812
vt 1.210938 0.507812
vt 1.007812 0.523438
vt 1.007812 0.507812
vt 1.726562 0.523438
vt 1.734375 0.523438
vt 1.734375 0.617188
vt 1.726562 0.617188
vt 1.734375 0.523438
vt 1.742188 0.523438
vt 1.742188 0.617188
vt 1.734375 0.617188
vt 1.726562 0.507812
vt 1.734375 0.507812
vt 1.835938 0.523438
vt 1.828125 0.523438
vt 1.828125 0.507812
vt 1.835938 0.507812
vt 1.632812 0.523438
vt 1.632812 0.507812
vt 1.226562 0.460938
vt 1.234375 0.460938
vt 1.234375 0.554688
vt 1.226562 0.554688
vt 1.234375 0.460938
vt 1.242188 0.460938
vt 1.242188 0.554688
vt 1.234375 0.554688
vt 1.226562 0.445312
vt 1.234375 0.445312
vt 1.335938 0.460938
vt 1.328125 0.460938
vt 1.328125 0.445312
vt 1.335938 0.445312
vt 1.132812 0.460938
vt 1.132812 0.445312
vt 1.851562 0.460938
vt 1.859375 0.460938
vt 1.859375 0.554688
vt 1.851562 0.554688
vt 1.859375 0.460938
vt 1.867188 0.460938
vt 1.867188 0.554688
vt 1.859375 0.554688
vt 1.851562 0.445312
vt 1.859375 0.445312
vt 1.960938 0.460938
vt 1.953125 0.460938
vt 1.953125 0.445312
vt 1.960938 0.445312
vt 1.757812 0.460938
vt 1.757812 0.445312
vt 1.101562 0.398438
vt 1.109375 0.398438
vt 1.109375 0.492188
vt 1.101562 0.492188
vt 1.109375 0.398438
vt 1.117188 0.398438
vt 1.117188 0.492188
vt 1.109375 0.492188
vt 1.101562 0.382812
vt 1.109375 0.382812
vt 1.210938 0.398438
vt 1.203125 0.398438
vt 1.203125 0.382812
vt 1.210938 0.382812
vt 1.007812 0.398438
vt 1.007812 0.382812
vt 1.726562 0.398438
vt 1.734375 0.398438
vt 1.734375 0.492188
vt 1.726562 0.492188
vt 1.734375 0.398438
vt 1.742188 0.398438
vt 1.742188 0.492188
vt 1.734375 0.492188
vt 1.726562 0.382812
vt 1.734375 0.382812
vt 1.835938 0.398438
vt 1.828125 0.398438
vt 1.828125 0.382812
vt 1.835938 0.382812
vt 1.632812 0.398438
vt 1.632812 0.382812
vt 1.148438 0.164062
vt 1.156250 0.164062
vt 1.156250 0.304688
vt 1.148438 0.304688
vt 1.156250 0.164062
vt 1.164062 0.164062
vt 1.164062 0.304688
vt 1.156250 0.304688
vt 1.148438 0.054688
vt 1.156250 0.054688
vt 1.304688 0.164062
vt 1.296875 0.164062
vt 1.296875 0.054688
vt 1.304688 0.054688
vt 1.007812 0.164062
vt 1.007812 0.054688
vn -0.0000 1.0000 -0.0000
vn 0.0000 -1.0000 0.0000
vn -1.0000 -0.0000 0.0000
vn 1.0000 0.0000 0.0000
vn -0.0000 -0.0000 1.0000
vn 0.0000 0.0000 -1.0000
usemtl ModelMaterial
s off
f 1/1/1 2/2/1 3/3/1 4/4/1
f 5/5/2 6/6/2 7/7/2 8/8/2
f 2/2/3 1/1/3 8/9/3 7/10/3
f 4/11/4 3/12/4 6/13/4 5/14/4
f 3/12/5 2/2/5 7/10/5 6/13/5
f 1/1/6 4/15/6 5/16/6 8/9/6
f 9/17/1 10/18/1 11/19/1 12/20/1
f 13/21/2 14/22/2 15/23/2 16/24/2
f 10/18/3 9/17/3 16/25/3 15/26/3
f 12/27/4 11/28/4 14/29/4 13/30/4
f 11/28/5 10/18/5 15/26/5 14/29/5
f 9/17/6 12/31/6 13/32/6 16/25/6
f 17/33/1 18/34/1 19/35/1 20/36/1
f 21/37/2 22/38/2 23/39/2 24/40/2
f 18/34/3 17/33/3 24/41/3 23/42/3
f 20/43/4 19/44/4 22/45/4 21/46/4
f 19/44/5 18/34/5 23/42/5 22/45/5
f 17/33/6 20/47/6 21/48/6 24/41/6
f 25/49/1 26/50/1 27/51/1 28/52/1
f 29/53/2 30/54/2 31/55/2 32/56/2
f 26/50/3 25/49/3 32/57/3 31/58/3
f 28/59/4 27/60/4 30/61/4 29/62/4
f 27/60/5 26/50/5 31/58/5 30/61/5
f 25/49/6 28/63/6 29/64/6 32/57/6
f 33/65/1 34/66/1 35/67/1 36/68/1
f 37/69/2 38/70/2 39/71/2 40/72/2
f 34/66/3 33/65/3 40/73/3 39/74/3
f 36/75/4 35/76/4 38/77/4 37/78/4
f 35/76/5 34/66/5 39/74/5 38/77/5
f 33/65/6 36/79/6 37/80/6 40/73/6
f 41/81/1 42/82/1 43/83/1 44/84/1
f 45/85/2 46/86/2 47/87/2 48/88/2
f 42/82/3 41/81/3 48/89/3 47/90/3
f 44/91/4 43/92/4 46/93/4 45/94/4
f 43/92/5 42/82/5 47/90/5 46/93/5
f 41/81/6 44/95/6 45/96/6 48/89/6
f 49/97/1 50/98/1 51/99/1 52/100/1
f 53/101/2 54/102/2 55/103/2 56/104/2
f 50/98/3 49/97/3 56/105/3 55/106/3
f 52/107/4 51/108/4 54/109/4 53/110/4
f 51/108/5 50/98/5 55/106/5 54/109/5
f 49/97/6 52/111/6 53/112/6 56/105/6
f 57/113/1 58/114/1 59/115/1 60/116/1
f 61/117/2 62/118/2 63/119/2 64/120/2
f 58/114/3 57/113/3 64/121/3 63/122/3
f 60/123/4 59/124/4 62/125/4 61/126/4
f 59/124/5 58/114/5 63/122/5 62/125/5
f 57/113/6 60/127/6 61/128/6 64/121/6
f 65/129/1 66/130/1 67/131/1 68/132/1
f 69/133/2 70/134/2 71/135/2 72/136/2
f 66/130/3 65/129/3 72/137/3 71/138/3
f 68/139/4 67/140/4 70/141/4 69/142/4
f 67/140/5 66/130/5 71/138/5 70/141/5
f 65/129/6 68/143/6 69/144/6 72/137/6
f 73/145/1 74/146/1 75/147/1 76/148/1
f 77/149/2 78/150/2 79/151/2 80/152/2
f 74/146/3 73/145/3 80/153/3 79/154/3
f 76/155/4 75/156/4 78/157/4 77/158/4
f 75/156/5 74/146/5 79/154/5 78/157/5
f 73/145/6 76/159/6 77/160/6 80/153/6
f 81/161/1 82/162/1 83/163/1 84/164/1
f 85/165/2 86/166/2 87/167/2 88/168/2
f 82/162/3 81/161/3 88/169/3 87/170/3
f 84/171/4 83/172/4 86/173/4 85/174/4
f 83/172/5 82/162/5 87/170/5 86/173/5
f 81/161/6 84/175/6 85/176/6 88/169/6
f 89/177/1 90/178/1 91/179/1 92/180/1
f 93/181/2 94/182/2 95/183/2 96/184/2
f 90/178/3 89/177/3 96/185/3 95/186/3
f 92/187/4 91/188/4 94/189/4 93/190/4
f 91/188/5 90/178/5 95/186/5 94/189/5
f 89/177/6 92/191/6 93/192/6 96/185/6
f 97/193/1 98/194/1 99/195/1 100/196/1
f 101/197/2 102/198/2 103/199/2 104/200/2
f 98/194/3 97/193/3 104/201/3 103/202/3
f 100/203/4 99/204/4 102/205/4 101/206/4
f 99/204/5 98/194/5 103/202/5 102/205/5
f 97/193/6 100/207/6 101/208/6 104/201/6
f 105/209/1 106/210/1 107/211/1 108/212/1
f 109/213/2 110/214/2 111/215/2 112/216/2
f 106/210/3 105/209/3 112/217/3 111/218/3
f 108/219/4 107/220/4 110/221/4 109/222/4
f 107/220/5 106/210/5 111/218/5 110/221/5
f 105/209/6 108/223/6 109/224/6 112/217/6
