# Blender v2.79 (sub 0) OBJ File: ''
# www.blender.org
mtllib pixar_lamp.obj.mtl
o pixar_lamp.obj
v 0.071508 0.062500 -0.051953
v -0.051953 0.062500 -0.071508
v -0.071508 0.062500 0.051953
v 0.051953 0.062500 0.071508
v 0.051953 0.000000 0.071508
v -0.071508 0.000000 0.051953
v -0.051953 -0.000000 -0.071508
v 0.071508 -0.000000 -0.051953
v 0.040642 0.125000 -0.056842
v -0.021088 0.125000 -0.066619
v -0.040642 0.125000 0.056842
v 0.021088 0.125000 0.066619
v 0.021088 0.062500 0.066619
v -0.040642 0.062500 0.056842
v -0.021088 0.062500 -0.066619
v 0.040642 0.062500 -0.056842
v 0.071508 0.187500 -0.051953
v -0.051953 0.187500 -0.071508
v -0.071508 0.187500 0.051953
v 0.051953 0.187500 0.071508
v 0.051953 0.125000 0.071508
v -0.071508 0.125000 0.051953
v -0.051953 0.125000 -0.071508
v 0.071508 0.125000 -0.051953
v 0.107262 0.250000 -0.077930
v -0.077930 0.250000 -0.107262
v -0.107262 0.250000 0.077930
v 0.077930 0.250000 0.107261
v 0.077930 0.187500 0.107261
v -0.107262 0.187500 0.077930
v -0.077930 0.187500 -0.107262
v 0.107262 0.187500 -0.077930
v 0.035754 0.312500 -0.025977
v -0.025977 0.312500 -0.035754
v -0.035754 0.312500 0.025977
v 0.025977 0.312500 0.035754
v 0.025977 0.250000 0.035754
v -0.035754 0.250000 0.025977
v -0.025977 0.250000 -0.035754
v 0.035754 0.250000 -0.025977
v 0.097484 0.343750 -0.016200
v 0.035754 0.343750 -0.025977
v 0.025977 0.343750 0.035754
v 0.087707 0.343750 0.045531
v 0.025977 0.312500 0.035754
v -0.035754 0.312500 0.025977
v -0.025977 0.312500 -0.035754
v 0.035754 0.312500 -0.025977
v -0.025977 0.437500 -0.035754
v -0.087707 0.437500 -0.045531
v -0.097484 0.437500 0.016199
v -0.035754 0.437500 0.025977
v -0.035754 0.250000 0.025977
v -0.097484 0.312500 0.016199
v -0.087707 0.312500 -0.045531
v -0.025977 0.250000 -0.035754
v 0.035754 0.406250 -0.025977
v -0.025977 0.406250 -0.035754
v -0.035754 0.406250 0.025977
v 0.025977 0.406250 0.035754
v 0.087707 0.343750 0.045531
v 0.025977 0.343750 0.035754
v 0.035754 0.343750 -0.025977
v 0.097484 0.343750 -0.016200
v 0.128350 0.468750 -0.011311
v 0.066619 0.468750 -0.021088
v 0.056842 0.468750 0.040642
v 0.118572 0.468750 0.050419
v 0.025977 0.406250 0.035754
v -0.035754 0.406250 0.025977
v -0.025977 0.406250 -0.035754
v 0.035754 0.406250 -0.025977
v 0.066619 0.500000 -0.021088
v 0.004889 0.500000 -0.030865
v -0.004889 0.500000 0.030865
v 0.056842 0.500000 0.040642
v -0.035754 0.437500 0.025977
v -0.097484 0.437500 0.016199
v -0.087707 0.437500 -0.045531
v -0.025977 0.437500 -0.035754
v 0.128350 0.500000 -0.011311
v 0.066619 0.500000 -0.021088
v 0.056842 0.500000 0.040642
v 0.118572 0.500000 0.050419
v 0.118572 0.468750 0.050419
v 0.056842 0.468750 0.040642
v 0.066619 0.468750 -0.021088
v 0.128350 0.468750 -0.011311
v 0.128350 0.562500 -0.011311
v 0.066619 0.562500 -0.021088
v 0.056842 0.562500 0.040642
v 0.118572 0.562500 0.050419
v 0.118572 0.500000 0.050419
v -0.004889 0.500000 0.030865
v 0.004889 0.500000 -0.030865
v 0.128350 0.500000 -0.011311
v 0.176905 0.625000 -0.069551
v 0.054637 0.625000 -0.043562
v 0.067631 0.625000 0.017573
v 0.189900 0.625000 -0.008416
v 0.189900 0.500000 -0.008416
v 0.067631 0.500000 0.017573
v 0.054637 0.500000 -0.043562
v 0.176905 0.500000 -0.069551
v 0.189900 0.625000 -0.008416
v 0.067631 0.625000 0.017573
v 0.063053 0.656250 0.146338
v 0.246456 0.656250 0.107355
v 0.246456 0.468750 0.107355
v 0.063053 0.468750 0.146338
v 0.067631 0.500000 0.017573
v 0.189900 0.500000 -0.008416
vt 1.093750 0.906250
vt 1.156250 0.906250
vt 1.156250 0.968750
vt 1.093750 0.968750
vt 1.156250 0.906250
vt 1.218750 0.906250
vt 1.218750 0.968750
vt 1.156250 0.968750
vt 1.093750 0.875000
vt 1.156250 0.875000
vt 1.281250 0.906250
vt 1.218750 0.906250
vt 1.218750 0.875000
vt 1.281250 0.875000
vt 1.031250 0.906250
vt 1.031250 0.875000
vt 1.593750 0.906250
vt 1.625000 0.906250
vt 1.625000 0.968750
vt 1.593750 0.968750
vt 1.625000 0.906250
vt 1.656250 0.906250
vt 1.656250 0.968750
vt 1.625000 0.968750
vt 1.593750 0.875000
vt 1.625000 0.875000
vt 1.718750 0.906250
vt 1.687500 0.906250
vt 1.687500 0.875000
vt 1.718750 0.875000
vt 1.531250 0.906250
vt 1.531250 0.875000
vt 1.093750 0.656250
vt 1.156250 0.656250
vt 1.156250 0.718750
vt 1.093750 0.718750
vt 1.156250 0.656250
vt 1.218750 0.656250
vt 1.218750 0.718750
vt 1.156250 0.718750
vt 1.093750 0.625000
vt 1.156250 0.625000
vt 1.281250 0.656250
vt 1.218750 0.656250
vt 1.218750 0.625000
vt 1.281250 0.625000
vt 1.031250 0.656250
vt 1.031250 0.625000
vt 1.625000 0.625000
vt 1.718750 0.625000
vt 1.718750 0.718750
vt 1.625000 0.718750
vt 1.718750 0.625000
vt 1.812500 0.625000
vt 1.812500 0.718750
vt 1.718750 0.718750
vt 1.625000 0.593750
vt 1.718750 0.593750
vt 1.906250 0.625000
vt 1.812500 0.625000
vt 1.812500 0.593750
vt 1.906250 0.593750
vt 1.531250 0.625000
vt 1.531250 0.593750
vt 1.812500 0.937500
vt 1.843750 0.937500
vt 1.843750 0.968750
vt 1.812500 0.968750
vt 1.843750 0.937500
vt 1.875000 0.937500
vt 1.875000 0.968750
vt 1.843750 0.968750
vt 1.812500 0.906250
vt 1.843750 0.906250
vt 1.906250 0.937500
vt 1.875000 0.937500
vt 1.875000 0.906250
vt 1.906250 0.906250
vt 1.781250 0.937500
vt 1.781250 0.906250
vt 1.062500 0.437500
vt 1.093750 0.437500
vt 1.093750 0.468750
vt 1.062500 0.468750
vt 1.093750 0.437500
vt 1.125000 0.437500
vt 1.125000 0.468750
vt 1.093750 0.468750
vt 1.062500 0.406250
vt 1.093750 0.406250
vt 1.156250 0.437500
vt 1.125000 0.437500
vt 1.125000 0.406250
vt 1.156250 0.406250
vt 1.031250 0.437500
vt 1.031250 0.406250
vt 1.312500 0.437500
vt 1.343750 0.437500
vt 1.343750 0.468750
vt 1.312500 0.468750
vt 1.343750 0.437500
vt 1.375000 0.437500
vt 1.375000 0.468750
vt 1.343750 0.468750
vt 1.312500 0.375000
vt 1.343750 0.375000
vt 1.406250 0.437500
vt 1.375000 0.437500
vt 1.375000 0.375000
vt 1.406250 0.375000
vt 1.281250 0.437500
vt 1.281250 0.375000
vt 1.562500 0.437500
vt 1.593750 0.437500
vt 1.593750 0.468750
vt 1.562500 0.468750
vt 1.593750 0.437500
vt 1.625000 0.437500
vt 1.625000 0.468750
vt 1.593750 0.468750
vt 1.562500 0.406250
vt 1.593750 0.406250
vt 1.656250 0.437500
vt 1.625000 0.437500
vt 1.625000 0.406250
vt 1.656250 0.406250
vt 1.531250 0.437500
vt 1.531250 0.406250
vt 1.812500 0.437500
vt 1.843750 0.437500
vt 1.843750 0.468750
vt 1.812500 0.468750
vt 1.843750 0.437500
vt 1.875000 0.437500
vt 1.875000 0.468750
vt 1.843750 0.468750
vt 1.812500 0.406250
vt 1.843750 0.406250
vt 1.906250 0.437500
vt 1.875000 0.437500
vt 1.875000 0.406250
vt 1.906250 0.406250
vt 1.781250 0.437500
vt 1.781250 0.406250
vt 1.062500 0.187500
vt 1.093750 0.187500
vt 1.093750 0.218750
vt 1.062500 0.218750
vt 1.093750 0.187500
vt 1.125000 0.187500
vt 1.125000 0.218750
vt 1.093750 0.218750
vt 1.062500 0.156250
vt 1.093750 0.156250
vt 1.156250 0.187500
vt 1.125000 0.187500
vt 1.125000 0.156250
vt 1.156250 0.156250
vt 1.031250 0.187500
vt 1.031250 0.156250
vt 1.312500 0.187500
vt 1.343750 0.187500
vt 1.343750 0.218750
vt 1.312500 0.218750
vt 1.343750 0.187500
vt 1.375000 0.187500
vt 1.375000 0.218750
vt 1.343750 0.218750
vt 1.312500 0.156250
vt 1.343750 0.156250
vt 1.406250 0.187500
vt 1.375000 0.187500
vt 1.375000 0.156250
vt 1.406250 0.156250
vt 1.281250 0.187500
vt 1.281250 0.156250
vt 1.562500 0.187500
vt 1.625000 0.187500
vt 1.625000 0.218750
vt 1.562500 0.218750
vt 1.625000 0.187500
vt 1.687500 0.187500
vt 1.687500 0.218750
vt 1.625000 0.218750
vt 1.562500 0.156250
vt 1.625000 0.156250
vt 1.718750 0.187500
vt 1.656250 0.187500
vt 1.656250 0.156250
vt 1.718750 0.156250
vt 1.531250 0.187500
vt 1.531250 0.156250
vt 1.812500 0.187500
vt 1.875000 0.187500
vt 1.875000 0.218750
vt 1.812500 0.218750
vt 1.875000 0.187500
vt 1.937500 0.187500
vt 1.937500 0.218750
vt 1.875000 0.218750
vt 1.812500 0.125000
vt 1.875000 0.125000
vt 1.968750 0.187500
vt 1.906250 0.187500
vt 1.906250 0.125000
vt 1.968750 0.125000
vt 1.781250 0.187500
vt 1.781250 0.125000
vt 1.312500 0.781250
vt 1.375000 0.781250
vt 1.375000 0.843750
vt 1.312500 0.843750
vt 1.375000 0.781250
vt 1.437500 0.781250
vt 1.437500 0.843750
vt 1.375000 0.843750
vt 1.312500 0.718750
vt 1.375000 0.718750
vt 1.500000 0.781250
vt 1.437500 0.781250
vt 1.437500 0.718750
vt 1.500000 0.718750
vt 1.250000 0.781250
vt 1.250000 0.718750
vn 0.0000 1.0000 -0.0000
vn -0.0000 -1.0000 0.0000
vn 0.1564 -0.0000 -0.9877
vn -0.1564 0.0000 0.9877
vn -0.9877 0.0000 -0.1564
vn 0.9877 0.0000 0.1564
vn -0.4417 0.8944 -0.0700
vn 0.4417 -0.8944 0.0700
vn -0.6984 -0.7071 -0.1106
vn 0.6984 0.7071 0.1106
vn -0.5479 0.8321 -0.0868
vn 0.5479 -0.8321 0.0868
vn -0.6984 0.7071 -0.1106
vn -0.2079 -0.0000 -0.9781
vn 0.2079 0.0000 0.9781
vn -0.9781 0.0000 0.2079
vn 0.9781 0.0000 -0.2079
vn -0.0504 0.9701 -0.2372
vn -0.0504 -0.9701 -0.2372
vn -0.9994 0.0000 -0.0355
vn 0.8985 -0.0000 -0.4389
usemtl ModelMaterial
s off
f 1/1/1 2/2/1 3/3/1 4/4/1
f 5/5/2 6/6/2 7/7/2 8/8/2
f 2/2/3 1/1/3 8/9/3 7/10/3
f 4/11/4 3/12/4 6/13/4 5/14/4
f 3/12/5 2/2/5 7/10/5 6/13/5
f 1/1/6 4/15/6 5/16/6 8/9/6
f 9/17/1 10/18/1 11/19/1 12/20/1
f 13/21/2 14/22/2 15/23/2 16/24/2
f 10/18/3 9/17/3 16/25/3 15/26/3
f 12/27/4 11/28/4 14/29/4 13/30/4
f 11/28/5 10/18/5 15/26/5 14/29/5
f 9/17/6 12/31/6 13/32/6 16/25/6
f 17/33/1 18/34/1 19/35/1 20/36/1
f 21/37/2 22/38/2 23/39/2 24/40/2
f 18/34/3 17/33/3 24/41/3 23/42/3
f 20/43/4 19/44/4 22/45/4 21/46/4
f 19/44/5 18/34/5 23/42/5 22/45/5
f 17/33/6 20/47/6 21/48/6 24/41/6
f 25/49/1 26/50/1 27/51/1 28/52/1
f 29/53/2 30/54/2 31/55/2 32/56/2
f 26/50/3 25/49/3 32/57/3 31/58/3
f 28/59/4 27/60/4 30/61/4 29/62/4
f 27/60/5 26/50/5 31/58/5 30/61/5
f 25/49/6 28/63/6 29/64/6 32/57/6
f 33/65/1 34/66/1 35/67/1 36/68/1
f 37/69/2 38/70/2 39/71/2 40/72/2
f 34/66/3 33/65/3 40/73/3 39/74/3
f 36/75/4 35/76/4 38/77/4 37/78/4
f 35/76/5 34/66/5 39/74/5 38/77/5
f 33/65/6 36/79/6 37/80/6 40/73/6
f 41/81/1 42/82/1 43/83/1 44/84/1
f 45/85/2 46/86/2 47/87/2 48/88/2
f 42/82/3 41/81/3 48/89/3 47/90/3
f 44/91/4 43/92/4 46/93/4 45/94/4
f 43/92/7 42/82/7 47/90/7 46/93/7
f 41/81/8 44/95/8 45/96/8 48/89/8
f 49/97/1 50/98/1 51/99/1 52/100/1
f 53/101/9 54/102/9 55/103/9 56/104/9
f 50/98/3 49/97/3 56/105/3 55/106/3
f 52/107/4 51/108/4 54/109/4 53/110/4
f 51/108/5 50/98/5 55/106/5 54/109/5
f 49/97/6 52/111/6 53/112/6 56/105/6
f 57/113/1 58/114/1 59/115/1 60/116/1
f 61/117/2 62/118/2 63/119/2 64/120/2
f 58/114/3 57/113/3 64/121/3 63/122/3
f 60/123/4 59/124/4 62/125/4 61/126/4
f 59/124/9 58/114/9 63/122/9 62/125/9
f 57/113/10 60/127/10 61/128/10 64/121/10
f 65/129/1 66/130/1 67/131/1 68/132/1
f 69/133/2 70/134/2 71/135/2 72/136/2
f 66/130/3 65/129/3 72/137/3 71/138/3
f 68/139/4 67/140/4 70/141/4 69/142/4
f 67/140/11 66/130/11 71/138/11 70/141/11
f 65/129/12 68/143/12 69/144/12 72/137/12
f 73/145/1 74/146/1 75/147/1 76/148/1
f 77/149/2 78/150/2 79/151/2 80/152/2
f 74/146/3 73/145/3 80/153/3 79/154/3
f 76/155/4 75/156/4 78/157/4 77/158/4
f 75/156/11 74/146/11 79/154/11 78/157/11
f 73/145/12 76/159/12 77/160/12 80/153/12
f 81/161/1 82/162/1 83/163/1 84/164/1
f 85/165/2 86/166/2 87/167/2 88/168/2
f 82/162/3 81/161/3 88/169/3 87/170/3
f 84/171/4 83/172/4 86/173/4 85/174/4
f 83/172/5 82/162/5 87/170/5 86/173/5
f 81/161/6 84/175/6 85/176/6 88/169/6
f 89/177/1 90/178/1 91/179/1 92/180/1
f 93/181/2 94/182/2 95/183/2 96/184/2
f 90/178/3 89/177/3 96/185/3 95/186/3
f 92/187/4 91/188/4 94/189/4 93/190/4
f 91/188/13 90/178/13 95/186/13 94/189/13
f 89/177/6 92/191/6 93/192/6 96/185/6
f 97/193/1 98/194/1 99/195/1 100/196/1
f 101/197/2 102/198/2 103/199/2 104/200/2
f 98/194/14 97/193/14 104/201/14 103/202/14
f 100/203/15 99/204/15 102/205/15 101/206/15
f 99/204/16 98/194/16 103/202/16 102/205/16
f 97/193/17 100/207/17 101/208/17 104/201/17
f 105/209/18 106/210/18 107/211/18 108/212/18
f 109/213/19 110/214/19 111/215/19 112/216/19
f 106/210/14 105/209/14 112/217/14 111/218/14
f 108/219/15 107/220/15 110/221/15 109/222/15
f 107/220/20 106/210/20 111/218/20 110/221/20
f 105/209/21 108/223/21 109/224/21 112/217/21
