# Blender v2.79 (sub 0) OBJ File: ''
# www.blender.org
mtllib small_house_bin.mtl
o $lid
v 0.312500 0.875000 -0.312500
v -0.312500 0.875000 -0.312500
v -0.312500 0.875000 0.312500
v 0.312500 0.875000 0.312500
v 0.312500 0.812500 0.312500
v -0.312500 0.812500 0.312500
v -0.312500 0.812500 -0.312500
v 0.312500 0.812500 -0.312500
vt 1.421875 0.078125
vt 1.578125 0.078125
vt 1.578125 0.234375
vt 1.421875 0.234375
vt 1.578125 0.078125
vt 1.734375 0.078125
vt 1.734375 0.234375
vt 1.578125 0.234375
vt 1.421875 0.062500
vt 1.578125 0.062500
vt 1.890625 0.078125
vt 1.734375 0.078125
vt 1.734375 0.062500
vt 1.890625 0.062500
vt 1.265625 0.078125
vt 1.265625 0.062500
vn -0.0000 1.0000 -0.0000
vn 0.0000 -1.0000 0.0000
vn -0.0000 0.0000 -1.0000
vn 0.0000 0.0000 1.0000
vn -1.0000 0.0000 0.0000
vn 1.0000 0.0000 -0.0000
usemtl ModelMaterial
s 1
f 1/1/1 2/2/1 3/3/1 4/4/1
f 5/5/2 6/6/2 7/7/2 8/8/2
f 2/2/3 1/1/3 8/9/3 7/10/3
f 4/11/4 3/12/4 6/13/4 5/14/4
f 3/12/5 2/2/5 7/10/5 6/13/5
f 1/1/6 4/15/6 5/16/6 8/9/6
o bin
v 0.250000 0.062500 -0.250000
v -0.250000 0.062500 -0.250000
v -0.250000 0.062500 0.250000
v 0.250000 0.062500 0.250000
v 0.250000 0.000000 0.250000
v -0.250000 0.000000 0.250000
v -0.250000 -0.000000 -0.250000
v 0.250000 -0.000000 -0.250000
v 0.250000 0.812500 -0.312500
v -0.250000 0.812500 -0.312500
v -0.250000 0.812500 -0.250000
v 0.250000 0.812500 -0.250000
v 0.250000 -0.000000 -0.250000
v -0.250000 -0.000000 -0.250000
v -0.250000 -0.000000 -0.312500
v 0.250000 -0.000000 -0.312500
v 0.250000 0.812500 0.250000
v -0.250000 0.812500 0.250000
v -0.250000 0.812500 0.312500
v 0.250000 0.812500 0.312500
v 0.250000 0.000000 0.312500
v -0.250000 0.000000 0.312500
v -0.250000 0.000000 0.250000
v 0.250000 0.000000 0.250000
v 0.312500 0.812500 -0.250000
v 0.250000 0.812500 -0.250000
v 0.250000 0.812500 0.250000
v 0.312500 0.812500 0.250000
v 0.312500 0.000000 0.250000
v 0.250000 0.000000 0.250000
v 0.250000 -0.000000 -0.250000
v 0.312500 -0.000000 -0.250000
v -0.250000 0.812500 -0.250000
v -0.312500 0.812500 -0.250000
v -0.312500 0.812500 0.250000
v -0.250000 0.812500 0.250000
v -0.250000 0.000000 0.250000
v -0.312500 0.000000 0.250000
v -0.312500 -0.000000 -0.250000
v -0.250000 -0.000000 -0.250000
v 0.125000 0.062500 0.250000
v -0.125000 0.062500 0.250000
v -0.125000 0.062500 0.437500
v 0.125000 0.062500 0.437500
v 0.125000 0.000000 0.437500
v -0.125000 0.000000 0.437500
v -0.125000 0.015625 0.250000
v 0.125000 0.015625 0.250000
v 0.125000 0.843750 -0.343750
v -0.125000 0.843750 -0.343750
v -0.125000 0.843750 -0.281250
v 0.125000 0.843750 -0.281250
v 0.125000 0.781250 -0.281250
v -0.125000 0.781250 -0.281250
v -0.125000 0.781250 -0.343750
v 0.125000 0.781250 -0.343750
v 0.062500 0.781250 -0.343750
v -0.062500 0.781250 -0.343750
v -0.062500 0.781250 -0.312500
v 0.062500 0.781250 -0.312500
v 0.062500 -0.000000 -0.312500
v -0.062500 -0.000000 -0.312500
v -0.062500 -0.000000 -0.343750
v 0.062500 -0.000000 -0.343750
vt 1.140625 0.859375
vt 1.265625 0.859375
vt 1.265625 0.984375
vt 1.140625 0.984375
vt 1.265625 0.859375
vt 1.390625 0.859375
vt 1.390625 0.984375
vt 1.265625 0.984375
vt 1.140625 0.843750
vt 1.265625 0.843750
vt 1.515625 0.859375
vt 1.390625 0.859375
vt 1.390625 0.843750
vt 1.515625 0.843750
vt 1.015625 0.859375
vt 1.015625 0.843750
vt 1.656250 0.968750
vt 1.781250 0.968750
vt 1.781250 0.984375
vt 1.656250 0.984375
vt 1.781250 0.968750
vt 1.906250 0.968750
vt 1.906250 0.984375
vt 1.781250 0.984375
vt 1.656250 0.765625
vt 1.781250 0.765625
vt 1.921875 0.968750
vt 1.796875 0.968750
vt 1.796875 0.765625
vt 1.921875 0.765625
vt 1.640625 0.968750
vt 1.640625 0.765625
vt 1.031250 0.718750
vt 1.156250 0.718750
vt 1.156250 0.734375
vt 1.031250 0.734375
vt 1.156250 0.718750
vt 1.281250 0.718750
vt 1.281250 0.734375
vt 1.156250 0.734375
vt 1.031250 0.515625
vt 1.156250 0.515625
vt 1.296875 0.718750
vt 1.171875 0.718750
vt 1.171875 0.515625
vt 1.296875 0.515625
vt 1.015625 0.718750
vt 1.015625 0.515625
vt 1.515625 0.609375
vt 1.531250 0.609375
vt 1.531250 0.734375
vt 1.515625 0.734375
vt 1.531250 0.609375
vt 1.546875 0.609375
vt 1.546875 0.734375
vt 1.531250 0.734375
vt 1.515625 0.406250
vt 1.531250 0.406250
vt 1.671875 0.609375
vt 1.656250 0.609375
vt 1.656250 0.406250
vt 1.671875 0.406250
vt 1.390625 0.609375
vt 1.390625 0.406250
vt 1.140625 0.359375
vt 1.156250 0.359375
vt 1.156250 0.484375
vt 1.140625 0.484375
vt 1.156250 0.359375
vt 1.171875 0.359375
vt 1.171875 0.484375
vt 1.156250 0.484375
vt 1.140625 0.156250
vt 1.156250 0.156250
vt 1.296875 0.359375
vt 1.281250 0.359375
vt 1.281250 0.156250
vt 1.296875 0.156250
vt 1.015625 0.359375
vt 1.015625 0.156250
vt 1.671875 0.703125
vt 1.734375 0.703125
vt 1.734375 0.750000
vt 1.671875 0.750000
vt 1.734375 0.703125
vt 1.796875 0.703125
vt 1.796875 0.750000
vt 1.734375 0.750000
vt 1.671875 0.687500
vt 1.734375 0.687500
vt 1.843750 0.703125
vt 1.781250 0.703125
vt 1.781250 0.687500
vt 1.843750 0.687500
vt 1.625000 0.703125
vt 1.625000 0.687500
vt 1.781250 0.593750
vt 1.843750 0.593750
vt 1.843750 0.609375
vt 1.781250 0.609375
vt 1.843750 0.593750
vt 1.906250 0.593750
vt 1.906250 0.609375
vt 1.843750 0.609375
vt 1.781250 0.578125
vt 1.843750 0.578125
vt 1.921875 0.593750
vt 1.859375 0.593750
vt 1.859375 0.578125
vt 1.921875 0.578125
vt 1.765625 0.593750
vt 1.765625 0.578125
vt 1.781250 0.468750
vt 1.812500 0.468750
vt 1.812500 0.484375
vt 1.781250 0.484375
vt 1.812500 0.468750
vt 1.843750 0.468750
vt 1.843750 0.484375
vt 1.812500 0.484375
vt 1.781250 0.281250
vt 1.812500 0.281250
vt 1.859375 0.468750
vt 1.828125 0.468750
vt 1.828125 0.281250
vt 1.859375 0.281250
vt 1.765625 0.468750
vt 1.765625 0.281250
vn -0.0000 1.0000 -0.0000
vn 0.0000 -1.0000 0.0000
vn -0.0000 -0.0000 -1.0000
vn 0.0000 0.0000 1.0000
vn -1.0000 0.0000 0.0000
vn 1.0000 0.0000 -0.0000
vn -0.0000 -0.9965 -0.0830
usemtl ModelMaterial
s 1
f 9/17/7 10/18/7 11/19/7 12/20/7
f 13/21/8 14/22/8 15/23/8 16/24/8
f 10/18/9 9/17/9 16/25/9 15/26/9
f 12/27/10 11/28/10 14/29/10 13/30/10
f 11/28/11 10/18/11 15/26/11 14/29/11
f 9/17/12 12/31/12 13/32/12 16/25/12
f 17/33/7 18/34/7 19/35/7 20/36/7
f 21/37/8 22/38/8 23/39/8 24/40/8
f 18/34/9 17/33/9 24/41/9 23/42/9
f 20/43/10 19/44/10 22/45/10 21/46/10
f 19/44/11 18/34/11 23/42/11 22/45/11
f 17/33/12 20/47/12 21/48/12 24/41/12
f 25/49/7 26/50/7 27/51/7 28/52/7
f 29/53/8 30/54/8 31/55/8 32/56/8
f 26/50/9 25/49/9 32/57/9 31/58/9
f 28/59/10 27/60/10 30/61/10 29/62/10
f 27/60/11 26/50/11 31/58/11 30/61/11
f 25/49/12 28/63/12 29/64/12 32/57/12
f 33/65/7 34/66/7 35/67/7 36/68/7
f 37/69/8 38/70/8 39/71/8 40/72/8
f 34/66/9 33/65/9 40/73/9 39/74/9
f 36/75/10 35/76/10 38/77/10 37/78/10
f 35/76/11 34/66/11 39/74/11 38/77/11
f 33/65/12 36/79/12 37/80/12 40/73/12
f 41/81/7 42/82/7 43/83/7 44/84/7
f 45/85/8 46/86/8 47/87/8 48/88/8
f 42/82/9 41/81/9 48/89/9 47/90/9
f 44/91/10 43/92/10 46/93/10 45/94/10
f 43/92/11 42/82/11 47/90/11 46/93/11
f 41/81/12 44/95/12 45/96/12 48/89/12
f 49/97/7 50/98/7 51/99/7 52/100/7
f 53/101/13 54/102/13 55/103/13 56/104/13
f 50/98/9 49/97/9 56/105/9 55/106/9
f 52/107/10 51/108/10 54/109/10 53/110/10
f 51/108/11 50/98/11 55/106/11 54/109/11
f 49/97/12 52/111/12 53/112/12 56/105/12
f 57/113/7 58/114/7 59/115/7 60/116/7
f 61/117/8 62/118/8 63/119/8 64/120/8
f 58/114/9 57/113/9 64/121/9 63/122/9
f 60/123/10 59/124/10 62/125/10 61/126/10
f 59/124/11 58/114/11 63/122/11 62/125/11
f 57/113/12 60/127/12 61/128/12 64/121/12
f 65/129/7 66/130/7 67/131/7 68/132/7
f 69/133/8 70/134/8 71/135/8 72/136/8
f 66/130/9 65/129/9 72/137/9 71/138/9
f 68/139/10 67/140/10 70/141/10 69/142/10
f 67/140/11 66/130/11 71/138/11 70/141/11
f 65/129/12 68/143/12 69/144/12 72/137/12
