# Blender v2.79 (sub 0) OBJ File: ''
# www.blender.org
mtllib tool_rack_small.mtl
o tool_rack_small.obj
v 0.718750 0.937500 -0.500000
v -0.718750 0.937500 -0.500000
v -0.718750 0.937500 -0.437500
v 0.718750 0.937500 -0.437500
v 0.718750 -0.000000 -0.437500
v -0.718750 -0.000000 -0.437500
v -0.718750 0.000000 -0.500000
v 0.718750 0.000000 -0.500000
vt 1.031250 0.937500
vt 1.390625 0.937500
vt 1.390625 0.968750
vt 1.031250 0.968750
vt 1.390625 0.937500
vt 1.750000 0.937500
vt 1.750000 0.968750
vt 1.390625 0.968750
vt 1.031250 0.468750
vt 1.390625 0.468750
vt 1.765625 0.937500
vt 1.406250 0.937500
vt 1.406250 0.468750
vt 1.765625 0.468750
vt 1.015625 0.937500
vt 1.015625 0.468750
vn 0.0000 1.0000 0.0000
vn 0.0000 -1.0000 -0.0000
vn 0.0000 0.0000 -1.0000
vn 0.0000 -0.0000 1.0000
vn -1.0000 0.0000 0.0000
vn 1.0000 0.0000 0.0000
usemtl ModelMaterial.003
s 1
f 1/1/1 2/2/1 3/3/1 4/4/1
f 5/5/2 6/6/2 7/7/2 8/8/2
f 2/2/3 1/1/3 8/9/3 7/10/3
f 4/11/4 3/12/4 6/13/4 5/14/4
f 3/12/5 2/2/5 7/10/5 6/13/5
f 1/1/6 4/15/6 5/16/6 8/9/6
