# Blender v2.79 (sub 0) OBJ File: ''
# www.blender.org
mtllib trash_can_simple_open.obj.mtl
o trash_can_simple_open
v 0.312500 1.375000 -0.406250
v 0.312500 1.375000 0.343750
v 0.375000 1.375000 0.281250
v 0.375000 1.375000 -0.343750
v 0.375000 0.250000 -0.343750
v 0.312500 0.250000 0.343750
v 0.312500 0.250000 -0.406250
v -0.312500 1.375000 -0.343750
v 0.312500 1.375000 -0.343750
v 0.312500 0.250000 -0.343750
v -0.312500 0.250000 -0.343750
v -0.312500 1.375000 0.281250
v -0.312500 1.375000 0.343750
v 0.312500 1.375000 0.281250
v -0.312500 0.062500 0.343750
v -0.312500 0.062500 0.281250
v 0.312500 0.187500 -0.281250
v 0.375000 0.187500 -0.281250
v 0.375000 0.000000 -0.281250
v 0.312500 0.000000 -0.281250
v 0.312500 0.000000 -0.343750
v 0.312500 0.125000 -0.218750
v 0.375000 0.125000 -0.218750
v 0.375000 0.062500 -0.218750
v 0.312500 0.062500 -0.218750
v 0.312500 0.125000 -0.406250
v 0.312500 0.187500 -0.343750
v 0.375000 0.187500 -0.343750
v 0.375000 0.125000 -0.406250
v 0.375000 0.062500 -0.406250
v 0.375000 0.000000 -0.343750
v 0.312500 0.062500 -0.406250
v 0.312500 0.250000 -0.187500
v 0.375000 0.250000 0.281250
v 0.375000 0.250000 -0.187500
v 0.375000 0.062500 -0.187500
v 0.375000 0.062500 0.281250
v 0.312500 0.062500 0.343750
v 0.312500 0.218750 -0.250000
v 0.312500 0.218750 -0.187500
v 0.375000 0.218750 -0.250000
v 0.375000 0.156250 -0.187500
v 0.312500 0.156250 -0.187500
v 0.375000 0.218750 -0.343750
v 0.375000 0.218750 -0.187500
v 0.312500 0.218750 -0.406250
v -0.312500 0.250000 -0.218750
v -0.312500 0.187500 -0.218750
v 0.312500 0.062500 -0.187500
v -0.312500 0.062500 -0.187500
v -0.375000 0.125000 -0.218750
v -0.312500 0.125000 -0.218750
v -0.312500 0.187500 -0.281250
v -0.312500 0.062500 -0.218750
v -0.375000 0.062500 -0.218750
v -0.375000 -0.000000 -0.281250
v -0.375000 0.187500 -0.343750
v -0.375000 0.187500 -0.281250
v -0.312500 -0.000000 -0.343750
v -0.312500 -0.000000 -0.281250
v -0.375000 0.125000 -0.406250
v -0.312500 0.187500 -0.343750
v -0.312500 0.125000 -0.406250
v -0.312500 0.062500 -0.406250
v -0.375000 -0.000000 -0.343750
v -0.375000 0.062500 -0.406250
v -0.375000 0.250000 -0.343750
v -0.375000 0.250000 -0.187500
v -0.312500 0.250000 -0.187500
v -0.312500 0.250000 -0.406250
v -0.312500 0.218750 -0.406250
v -0.312500 0.218750 -0.187500
v -0.375000 0.218750 -0.187500
v -0.375000 0.218750 -0.343750
v -0.375000 1.375000 -0.343750
v -0.375000 1.375000 0.281250
v -0.312500 1.375000 -0.406250
v -0.375000 0.218750 -0.250000
v -0.312500 0.218750 -0.250000
v -0.312500 0.156250 -0.187500
v -0.375000 0.156250 -0.187500
v -0.375000 0.250000 0.281250
v -0.312500 0.250000 0.343750
v -0.375000 0.062500 0.281250
v -0.375000 0.062500 -0.187500
v -0.312500 0.125000 -0.343750
v -0.312500 0.125000 -0.281250
v 0.312500 0.125000 -0.281250
v 0.312500 0.125000 -0.343750
v 0.312500 0.062500 -0.343750
v 0.312500 0.062500 -0.281250
v -0.312500 0.062500 -0.281250
v -0.312500 0.062500 -0.343750
v -0.312500 0.187500 -0.156250
v 0.312500 0.250000 -0.218750
v 0.312500 0.187500 -0.218750
v 0.312500 0.187500 -0.156250
v -0.312500 0.125000 -0.156250
v -0.312500 0.125000 0.281250
v 0.312500 0.125000 0.281250
v 0.312500 0.125000 -0.156250
v 0.312500 0.062500 -0.156250
v 0.312500 0.062500 0.281250
v -0.312500 0.062500 -0.156250
v -0.250000 0.218750 -0.406250
v -0.250000 0.187500 -0.218750
v -0.187500 0.187500 -0.218750
v -0.187500 0.218750 -0.406250
v -0.187500 0.125000 -0.343750
v -0.187500 0.125000 -0.281250
v -0.250000 0.125000 -0.281250
v -0.250000 0.125000 -0.343750
v 0.187500 0.218750 -0.406250
v 0.187500 0.187500 -0.218750
v 0.250000 0.187500 -0.218750
v 0.250000 0.218750 -0.406250
v 0.250000 0.125000 -0.343750
v 0.250000 0.125000 -0.281250
v 0.187500 0.125000 -0.281250
v 0.187500 0.125000 -0.343750
v -0.250000 1.125000 -0.468750
v -0.250000 1.187500 -0.406250
v -0.187500 1.187500 -0.406250
v -0.187500 1.125000 -0.468750
v -0.187500 1.000000 -0.406250
v -0.250000 1.000000 -0.406250
v -0.250000 1.062500 -0.468750
v 0.187500 1.125000 -0.468750
v 0.187500 1.187500 -0.406250
v 0.250000 1.187500 -0.406250
v 0.250000 1.125000 -0.468750
v 0.250000 1.062500 -0.468750
v 0.250000 1.000000 -0.406250
v 0.187500 1.000000 -0.406250
v -0.187500 1.125000 -0.437500
v 0.187500 1.125000 -0.437500
v 0.187500 1.062500 -0.468750
v 0.187500 1.062500 -0.437500
v -0.187500 1.062500 -0.437500
v -0.187500 1.062500 -0.468750
v 0.406250 2.071978 -0.592610
v 0.406250 1.394922 -0.473227
v 0.406250 1.405775 -0.411676
v -0.406250 2.082831 -0.531060
v -0.125000 2.082831 -0.531060
v -0.125000 2.144381 -0.541913
v 0.125000 2.144381 -0.541913
v 0.125000 2.082831 -0.531060
v 0.125000 2.093683 -0.469509
v 0.125000 2.155234 -0.480362
v -0.125000 2.155234 -0.480362
v -0.125000 2.093683 -0.469509
v -0.406250 2.071978 -0.592610
v -0.343750 2.138955 -0.572688
v 0.343750 2.138955 -0.572688
v 0.406250 2.082831 -0.531060
v 0.343750 2.144381 -0.541913
v -0.343750 2.144381 -0.541913
v -0.343750 1.338798 -0.431599
v -0.406250 1.394922 -0.473227
v 0.343750 1.338798 -0.431599
v 0.343750 1.344225 -0.400823
v -0.406250 1.405775 -0.411677
v -0.343750 1.344225 -0.400824
v -0.312500 0.062500 0.156250
v -0.312500 0.062500 0.218750
v -0.250000 0.062500 0.218750
v -0.250000 0.062500 0.156250
v -0.250000 -0.000000 0.156250
v -0.250000 -0.000000 0.218750
v -0.312500 -0.000000 0.218750
v -0.312500 -0.000000 0.156250
v 0.250000 0.062500 0.156250
v 0.250000 0.062500 0.218750
v 0.312500 0.062500 0.218750
v 0.312500 0.062500 0.156250
v 0.312500 0.000000 0.156250
v 0.312500 0.000000 0.218750
v 0.250000 0.000000 0.218750
v 0.250000 0.000000 0.156250
vt 1.015625 0.984375
vt 1.093750 0.984375
vt 1.093750 0.992188
vt 1.015625 0.992188
vt 1.093750 0.984375
vt 1.171875 0.984375
vt 1.171875 0.992188
vt 1.093750 0.992188
vt 1.015625 0.843750
vt 1.093750 0.843750
vt 1.179688 0.984375
vt 1.101562 0.984375
vt 1.101562 0.843750
vt 1.179688 0.843750
vt 1.007812 0.984375
vt 1.007812 0.843750
vt 1.273438 0.914062
vt 1.281250 0.914062
vt 1.281250 0.992188
vt 1.273438 0.992188
vt 1.281250 0.914062
vt 1.289062 0.914062
vt 1.289062 0.992188
vt 1.281250 0.992188
vt 1.273438 0.773438
vt 1.281250 0.773438
vt 1.367188 0.914062
vt 1.359375 0.914062
vt 1.359375 0.773438
vt 1.367188 0.773438
vt 1.195312 0.914062
vt 1.195312 0.773438
vt 1.460938 0.914062
vt 1.468750 0.914062
vt 1.468750 0.992188
vt 1.460938 0.992188
vt 1.468750 0.914062
vt 1.476562 0.914062
vt 1.476562 0.992188
vt 1.468750 0.992188
vt 1.460938 0.750000
vt 1.468750 0.750000
vt 1.554688 0.914062
vt 1.546875 0.914062
vt 1.546875 0.750000
vt 1.554688 0.750000
vt 1.382812 0.914062
vt 1.382812 0.750000
vt 1.203125 0.984375
vt 1.210938 0.984375
vt 1.210938 0.992188
vt 1.203125 0.992188
vt 1.210938 0.984375
vt 1.218750 0.984375
vt 1.218750 0.992188
vt 1.210938 0.992188
vt 1.203125 0.960938
vt 1.210938 0.960938
vt 1.226562 0.984375
vt 1.218750 0.984375
vt 1.218750 0.960938
vt 1.226562 0.960938
vt 1.195312 0.984375
vt 1.195312 0.960938
vt 1.328125 0.984375
vt 1.335938 0.984375
vt 1.335938 0.992188
vt 1.328125 0.992188
vt 1.335938 0.984375
vt 1.343750 0.984375
vt 1.343750 0.992188
vt 1.335938 0.992188
vt 1.328125 0.976562
vt 1.335938 0.976562
vt 1.351562 0.984375
vt 1.343750 0.984375
vt 1.343750 0.976562
vt 1.351562 0.976562
vt 1.390625 0.984375
vt 1.398438 0.984375
vt 1.398438 0.992188
vt 1.390625 0.992188
vt 1.398438 0.984375
vt 1.406250 0.984375
vt 1.406250 0.992188
vt 1.398438 0.992188
vt 1.390625 0.976562
vt 1.398438 0.976562
vt 1.414062 0.984375
vt 1.406250 0.984375
vt 1.406250 0.976562
vt 1.414062 0.976562
vt 1.382812 0.984375
vt 1.382812 0.976562
vt 1.515625 0.984375
vt 1.570312 0.984375
vt 1.570312 0.992188
vt 1.515625 0.992188
vt 1.570312 0.984375
vt 1.625000 0.984375
vt 1.625000 0.992188
vt 1.570312 0.992188
vt 1.515625 0.960938
vt 1.570312 0.960938
vt 1.632812 0.984375
vt 1.578125 0.984375
vt 1.578125 0.960938
vt 1.632812 0.960938
vt 1.507812 0.984375
vt 1.507812 0.960938
vt 1.703125 0.984375
vt 1.710938 0.984375
vt 1.710938 0.992188
vt 1.703125 0.992188
vt 1.710938 0.984375
vt 1.718750 0.984375
vt 1.718750 0.992188
vt 1.710938 0.992188
vt 1.703125 0.976562
vt 1.710938 0.976562
vt 1.726562 0.984375
vt 1.718750 0.984375
vt 1.718750 0.976562
vt 1.765625 0.984375
vt 1.781250 0.984375
vt 1.781250 0.992188
vt 1.765625 0.992188
vt 1.781250 0.984375
vt 1.796875 0.984375
vt 1.796875 0.992188
vt 1.781250 0.992188
vt 1.765625 0.976562
vt 1.781250 0.976562
vt 1.804688 0.984375
vt 1.789062 0.984375
vt 1.789062 0.976562
vt 1.804688 0.976562
vt 1.757812 0.984375
vt 1.757812 0.976562
vt 1.835938 0.914062
vt 1.859375 0.914062
vt 1.859375 0.992188
vt 1.835938 0.992188
vt 1.859375 0.914062
vt 1.882812 0.914062
vt 1.882812 0.992188
vt 1.859375 0.992188
vt 1.835938 0.906250
vt 1.859375 0.906250
vt 1.960938 0.914062
vt 1.937500 0.914062
vt 1.937500 0.906250
vt 1.960938 0.906250
vt 1.757812 0.914062
vt 1.757812 0.906250
vt 1.648438 0.914062
vt 1.656250 0.914062
vt 1.656250 0.992188
vt 1.648438 0.992188
vt 1.656250 0.914062
vt 1.664062 0.914062
vt 1.664062 0.992188
vt 1.656250 0.992188
vt 1.648438 0.898438
vt 1.656250 0.898438
vt 1.742188 0.914062
vt 1.734375 0.914062
vt 1.734375 0.898438
vt 1.742188 0.898438
vt 1.570312 0.914062
vt 1.570312 0.898438
vt 1.953125 0.984375
vt 1.960938 0.984375
vt 1.960938 0.992188
vt 1.953125 0.992188
vt 1.960938 0.984375
vt 1.968750 0.984375
vt 1.968750 0.992188
vt 1.960938 0.992188
vt 1.953125 0.976562
vt 1.960938 0.976562
vt 1.976562 0.984375
vt 1.968750 0.984375
vt 1.968750 0.976562
vt 1.976562 0.976562
vt 1.945312 0.984375
vt 1.945312 0.976562
vt 1.578125 0.859375
vt 1.585938 0.859375
vt 1.585938 0.867188
vt 1.578125 0.867188
vt 1.585938 0.859375
vt 1.593750 0.859375
vt 1.593750 0.867188
vt 1.585938 0.867188
vt 1.578125 0.835938
vt 1.585938 0.835938
vt 1.601562 0.859375
vt 1.593750 0.859375
vt 1.593750 0.835938
vt 1.601562 0.835938
vt 1.570312 0.859375
vt 1.570312 0.835938
vt 1.640625 0.859375
vt 1.648438 0.859375
vt 1.648438 0.867188
vt 1.640625 0.867188
vt 1.648438 0.859375
vt 1.656250 0.859375
vt 1.656250 0.867188
vt 1.648438 0.867188
vt 1.640625 0.851562
vt 1.648438 0.851562
vt 1.664062 0.859375
vt 1.656250 0.859375
vt 1.656250 0.851562
vt 1.664062 0.851562
vt 1.632812 0.859375
vt 1.632812 0.851562
vt 1.703125 0.859375
vt 1.718750 0.859375
vt 1.718750 0.867188
vt 1.703125 0.867188
vt 1.718750 0.859375
vt 1.734375 0.859375
vt 1.734375 0.867188
vt 1.718750 0.867188
vt 1.703125 0.851562
vt 1.718750 0.851562
vt 1.742188 0.859375
vt 1.726562 0.859375
vt 1.726562 0.851562
vt 1.742188 0.851562
vt 1.695312 0.859375
vt 1.695312 0.851562
vt 1.765625 0.859375
vt 1.843750 0.859375
vt 1.843750 0.867188
vt 1.765625 0.867188
vt 1.843750 0.859375
vt 1.921875 0.859375
vt 1.921875 0.867188
vt 1.843750 0.867188
vt 1.765625 0.718750
vt 1.843750 0.718750
vt 1.929688 0.859375
vt 1.851562 0.859375
vt 1.851562 0.718750
vt 1.929688 0.718750
vt 1.757812 0.859375
vt 1.757812 0.718750
vt 1.953125 0.859375
vt 1.960938 0.859375
vt 1.960938 0.867188
vt 1.953125 0.867188
vt 1.960938 0.859375
vt 1.968750 0.859375
vt 1.968750 0.867188
vt 1.960938 0.867188
vt 1.953125 0.851562
vt 1.960938 0.851562
vt 1.976562 0.859375
vt 1.968750 0.859375
vt 1.968750 0.851562
vt 1.015625 0.796875
vt 1.070312 0.796875
vt 1.070312 0.804688
vt 1.015625 0.804688
vt 1.070312 0.796875
vt 1.125000 0.796875
vt 1.125000 0.804688
vt 1.070312 0.804688
vt 1.015625 0.773438
vt 1.070312 0.773438
vt 1.132812 0.796875
vt 1.078125 0.796875
vt 1.078125 0.773438
vt 1.132812 0.773438
vt 1.007812 0.796875
vt 1.007812 0.773438
vt 1.148438 0.726562
vt 1.156250 0.726562
vt 1.156250 0.804688
vt 1.148438 0.804688
vt 1.156250 0.726562
vt 1.164062 0.726562
vt 1.164062 0.804688
vt 1.156250 0.804688
vt 1.148438 0.718750
vt 1.156250 0.718750
vt 1.242188 0.726562
vt 1.234375 0.726562
vt 1.234375 0.718750
vt 1.242188 0.718750
vt 1.070312 0.726562
vt 1.070312 0.718750
vt 1.585938 0.726562
vt 1.593750 0.726562
vt 1.593750 0.804688
vt 1.585938 0.804688
vt 1.585938 0.718750
vt 1.679688 0.726562
vt 1.671875 0.718750
vt 1.679688 0.718750
vt 1.273438 0.664062
vt 1.328125 0.664062
vt 1.328125 0.742188
vt 1.273438 0.742188
vt 1.328125 0.664062
vt 1.382812 0.664062
vt 1.382812 0.742188
vt 1.328125 0.742188
vt 1.273438 0.656250
vt 1.328125 0.656250
vt 1.460938 0.664062
vt 1.406250 0.664062
vt 1.406250 0.656250
vt 1.460938 0.656250
vt 1.195312 0.664062
vt 1.195312 0.656250
vt 1.640625 0.796875
vt 1.664062 0.796875
vt 1.664062 0.804688
vt 1.640625 0.804688
vt 1.664062 0.796875
vt 1.687500 0.796875
vt 1.687500 0.804688
vt 1.664062 0.804688
vt 1.640625 0.789062
vt 1.664062 0.789062
vt 1.695312 0.796875
vt 1.671875 0.796875
vt 1.671875 0.789062
vt 1.695312 0.789062
vt 1.632812 0.796875
vt 1.632812 0.789062
vt 1.015625 0.671875
vt 1.039062 0.671875
vt 1.039062 0.679688
vt 1.015625 0.679688
vt 1.039062 0.671875
vt 1.062500 0.671875
vt 1.062500 0.679688
vt 1.039062 0.679688
vt 1.015625 0.664062
vt 1.039062 0.664062
vt 1.070312 0.671875
vt 1.046875 0.671875
vt 1.046875 0.664062
vt 1.070312 0.664062
vt 1.007812 0.671875
vt 1.007812 0.664062
vt 1.953125 0.796875
vt 1.960938 0.796875
vt 1.960938 0.804688
vt 1.953125 0.804688
vt 1.960938 0.796875
vt 1.968750 0.796875
vt 1.968750 0.804688
vt 1.960938 0.804688
vt 1.953125 0.773438
vt 1.960938 0.773438
vt 1.976562 0.796875
vt 1.968750 0.796875
vt 1.968750 0.773438
vt 1.976562 0.773438
vt 1.945312 0.796875
vt 1.945312 0.773438
vt 1.015625 0.734375
vt 1.023438 0.734375
vt 1.023438 0.742188
vt 1.015625 0.742188
vt 1.023438 0.734375
vt 1.031250 0.734375
vt 1.031250 0.742188
vt 1.023438 0.742188
vt 1.015625 0.710938
vt 1.023438 0.710938
vt 1.039062 0.734375
vt 1.031250 0.734375
vt 1.031250 0.710938
vt 1.039062 0.710938
vt 1.007812 0.734375
vt 1.007812 0.710938
vt 1.117188 0.632812
vt 1.125000 0.632812
vt 1.125000 0.679688
vt 1.117188 0.679688
vt 1.125000 0.632812
vt 1.132812 0.632812
vt 1.132812 0.679688
vt 1.125000 0.679688
vt 1.117188 0.625000
vt 1.125000 0.625000
vt 1.179688 0.632812
vt 1.171875 0.632812
vt 1.171875 0.625000
vt 1.179688 0.625000
vt 1.070312 0.632812
vt 1.070312 0.625000
vt 1.484375 0.578125
vt 1.570312 0.578125
vt 1.570312 0.679688
vt 1.484375 0.679688
vt 1.570312 0.578125
vt 1.656250 0.578125
vt 1.656250 0.679688
vt 1.570312 0.679688
vt 1.484375 0.570312
vt 1.570312 0.570312
vt 1.757812 0.578125
vt 1.671875 0.578125
vt 1.671875 0.570312
vt 1.757812 0.570312
vt 1.382812 0.578125
vt 1.382812 0.570312
vt 1.476562 0.710938
vt 1.484375 0.710938
vt 1.484375 0.742188
vt 1.476562 0.742188
vt 1.484375 0.710938
vt 1.492188 0.710938
vt 1.492188 0.742188
vt 1.484375 0.742188
vt 1.476562 0.703125
vt 1.484375 0.703125
vt 1.523438 0.710938
vt 1.515625 0.710938
vt 1.515625 0.703125
vt 1.523438 0.703125
vt 1.445312 0.710938
vt 1.445312 0.703125
vt 1.734375 0.703125
vt 1.742188 0.703125
vt 1.742188 0.804688
vt 1.734375 0.804688
vt 1.742188 0.703125
vt 1.750000 0.703125
vt 1.750000 0.804688
vt 1.742188 0.804688
vt 1.734375 0.695312
vt 1.742188 0.695312
vt 1.851562 0.703125
vt 1.843750 0.703125
vt 1.843750 0.695312
vt 1.851562 0.695312
vt 1.109375 0.515625
vt 1.117188 0.515625
vt 1.117188 0.617188
vt 1.109375 0.617188
vt 1.117188 0.515625
vt 1.125000 0.515625
vt 1.125000 0.617188
vt 1.117188 0.617188
vt 1.109375 0.507812
vt 1.117188 0.507812
vt 1.226562 0.515625
vt 1.218750 0.515625
vt 1.218750 0.507812
vt 1.226562 0.507812
vt 1.007812 0.515625
vt 1.007812 0.507812
vt 1.703125 0.734375
vt 1.710938 0.734375
vt 1.710938 0.742188
vt 1.703125 0.742188
vt 1.710938 0.734375
vt 1.718750 0.734375
vt 1.718750 0.742188
vt 1.710938 0.742188
vt 1.703125 0.726562
vt 1.710938 0.726562
vt 1.726562 0.734375
vt 1.718750 0.734375
vt 1.718750 0.726562
vt 1.726562 0.726562
vt 1.695312 0.734375
vt 1.695312 0.726562
vt 1.953125 0.734375
vt 1.960938 0.734375
vt 1.960938 0.742188
vt 1.953125 0.742188
vt 1.960938 0.734375
vt 1.968750 0.734375
vt 1.968750 0.742188
vt 1.960938 0.742188
vt 1.953125 0.726562
vt 1.960938 0.726562
vt 1.976562 0.734375
vt 1.968750 0.734375
vt 1.968750 0.726562
vt 1.976562 0.726562
vt 1.945312 0.734375
vt 1.945312 0.726562
vn -0.0000 1.0000 0.0000
vn 0.0000 -1.0000 -0.0000
vn -1.0000 -0.0000 -0.0000
vn 1.0000 0.0000 0.0000
vn 0.7071 0.0000 0.7071
vn 0.7071 0.0000 -0.7071
vn 0.0000 0.0000 1.0000
vn -0.0000 0.0000 -1.0000
vn -0.0000 0.7071 0.7071
vn 0.0000 -0.7071 0.7071
vn 0.0000 0.7071 -0.7071
vn 0.0000 -0.7071 -0.7071
vn 0.0000 -0.9864 -0.1644
vn 0.0000 -0.2425 -0.9701
vn -0.7071 0.0000 -0.7071
vn -0.7071 -0.0000 0.7071
vn -0.0000 0.9864 0.1644
vn 0.0000 -0.5547 -0.8321
vn 0.0000 -0.1736 -0.9848
vn -0.0000 0.1736 0.9848
vn 0.0000 0.9848 -0.1736
vn 0.0000 -0.9848 0.1736
vn 0.0000 0.2851 -0.9585
vn -0.7071 0.6964 -0.1228
vn 0.7071 0.6964 -0.1228
vn 0.0000 -0.5957 -0.8032
vn -0.7071 -0.6964 0.1228
vn 0.7071 -0.6964 0.1228
vn -0.0000 -0.9848 0.1737
usemtl ModelMaterial.001
s off
f 1/1/1 2/2/1 3/3/1 4/4/1
f 5/5/2 34/6/2 6/7/2 7/8/2
f 2/2/3 1/1/3 7/9/3 6/10/3
f 4/11/4 3/12/4 34/13/4 5/14/4
f 3/12/5 2/2/5 6/10/5 34/13/5
f 1/1/6 4/15/6 5/16/6 7/9/6
f 77/17/1 8/18/1 9/19/1 1/20/1
f 7/21/2 10/22/2 11/23/2 70/24/2
f 8/18/3 77/17/3 70/25/3 11/26/3
f 1/27/4 9/28/4 10/29/4 7/30/4
f 9/28/7 8/18/7 11/26/7 10/29/7
f 77/17/8 1/31/8 7/32/8 70/25/8
f 12/33/1 13/34/1 2/35/1 14/36/1
f 103/37/2 38/38/2 15/39/2 16/40/2
f 13/34/3 12/33/3 16/41/3 15/42/3
f 14/43/4 2/44/4 38/45/4 103/46/4
f 2/44/7 13/34/7 15/42/7 38/45/7
f 12/33/8 14/47/8 103/48/8 16/41/8
f 27/49/1 17/50/1 18/51/1 28/52/1
f 31/53/2 19/54/2 20/55/2 21/56/2
f 17/50/3 27/49/3 21/57/3 20/58/3
f 28/59/4 18/60/4 19/61/4 31/62/4
f 18/60/7 17/50/7 20/58/7 19/61/7
f 27/49/8 28/63/8 31/64/8 21/57/8
f 17/65/9 22/66/9 23/67/9 18/68/9
f 19/69/10 24/70/10 25/71/10 20/72/10
f 22/66/3 17/65/3 20/73/3 25/74/3
f 18/75/4 23/76/4 24/77/4 19/78/4
f 23/76/7 22/66/7 25/74/7 24/77/7
f 26/79/11 27/80/11 28/81/11 29/82/11
f 30/83/12 31/84/12 21/85/12 32/86/12
f 27/80/3 26/79/3 32/87/3 21/88/3
f 29/89/4 28/90/4 31/91/4 30/92/4
f 26/79/8 29/93/8 30/94/8 32/87/8
f 33/95/1 6/96/1 34/97/1 35/98/1
f 36/99/2 37/100/2 38/101/2 49/102/2
f 6/96/3 33/95/3 49/103/3 38/104/3
f 35/105/4 34/106/4 37/107/4 36/108/4
f 34/106/5 6/96/5 38/104/5 37/107/5
f 33/95/8 35/109/8 36/110/8 49/103/8
f 39/111/1 40/112/1 45/113/1 41/114/1
f 41/115/12 42/116/12 43/117/12 39/118/12
f 40/112/3 39/119/3 43/120/3
f 41/121/4 45/122/4 42/123/4
f 45/122/7 40/112/7 43/120/7 42/123/7
f 7/124/1 33/125/1 35/126/1 5/127/1
f 44/128/2 45/129/2 40/130/2 46/131/2
f 33/125/3 7/124/3 46/132/3 40/133/3
f 5/134/4 35/135/4 45/136/4 44/137/4
f 35/135/7 33/125/7 40/133/7 45/136/7
f 7/124/6 5/138/6 44/139/6 46/132/6
f 70/140/1 47/141/1 95/142/1 7/143/1
f 46/144/13 96/145/13 48/146/13 71/147/13
f 47/141/3 70/140/3 71/148/3 48/149/3
f 7/150/4 95/151/4 96/152/4 46/153/4
f 95/151/7 47/141/7 48/149/7 96/152/7
f 70/140/8 7/154/8 46/155/8 71/148/8
f 48/156/1 94/157/1 97/158/1 96/159/1
f 49/160/2 102/161/2 104/162/2 50/163/2
f 94/157/3 48/156/3 50/164/3 104/165/3
f 96/166/4 97/167/4 102/168/4 49/169/4
f 97/167/7 94/157/7 104/165/7 102/168/7
f 48/156/14 96/170/14 49/171/14 50/164/14
f 58/172/9 51/173/9 52/174/9 53/175/9
f 60/176/10 54/177/10 55/178/10 56/179/10
f 51/173/3 58/172/3 56/180/3 55/181/3
f 53/182/4 52/183/4 54/184/4 60/185/4
f 52/183/7 51/173/7 55/181/7 54/184/7
f 58/172/8 53/186/8 60/187/8 56/180/8
f 57/188/1 58/189/1 53/190/1 62/191/1
f 59/192/2 60/193/2 56/194/2 65/195/2
f 58/189/3 57/188/3 65/196/3 56/197/3
f 62/198/4 53/199/4 60/200/4 59/201/4
f 57/188/8 62/202/8 59/203/8 65/196/8
f 61/204/11 57/205/11 62/206/11 63/207/11
f 64/208/12 59/209/12 65/210/12 66/211/12
f 57/205/3 61/204/3 66/212/3 65/213/3
f 63/214/4 62/215/4 59/216/4 64/217/4
f 61/204/8 63/218/8 64/219/8 66/212/8
f 67/220/1 68/221/1 69/222/1 70/223/1
f 71/224/2 72/225/2 73/226/2 74/227/2
f 68/221/3 67/220/3 74/228/3 73/229/3
f 70/230/4 69/231/4 72/232/4 71/233/4
f 69/231/7 68/221/7 73/229/7 72/232/7
f 67/220/15 70/234/15 71/235/15 74/228/15
f 75/236/1 76/237/1 13/238/1 77/239/1
f 70/240/2 83/241/2 82/242/2 67/243/2
f 76/237/3 75/236/3 67/244/3 82/245/3
f 77/246/4 13/247/4 83/248/4 70/249/4
f 13/247/16 76/237/16 82/245/16 83/248/16
f 75/236/15 77/250/15 70/251/15 67/244/15
f 78/252/1 73/253/1 72/254/1 79/255/1
f 79/256/12 80/257/12 81/258/12 78/259/12
f 73/253/3 78/260/3 81/261/3
f 79/262/4 72/263/4 80/264/4
f 72/263/7 73/253/7 81/261/7 80/264/7
f 68/265/1 82/266/1 83/267/1 69/268/1
f 50/269/2 15/270/2 84/271/2 85/272/2
f 82/266/3 68/265/3 85/273/3 84/274/3
f 69/275/4 83/276/4 15/277/4 50/278/4
f 83/276/16 82/266/16 84/274/16 15/277/16
f 68/265/8 69/279/8 50/280/8 85/273/8
f 86/281/1 87/282/1 88/283/1 89/284/1
f 90/285/2 91/286/2 92/287/2 93/288/2
f 87/282/3 86/281/3 93/289/3 92/290/3
f 89/291/4 88/292/4 91/293/4 90/294/4
f 88/292/7 87/282/7 92/290/7 91/293/7
f 86/281/8 89/295/8 90/296/8 93/289/8
f 47/297/9 94/298/9 97/299/9 95/300/9
f 94/298/3 47/297/3 48/301/3
f 95/302/4 97/303/4 96/304/4
f 98/305/1 99/306/1 100/307/1 101/308/1
f 102/309/2 103/310/2 16/311/2 104/312/2
f 99/306/3 98/305/3 104/313/3 16/314/3
f 101/315/4 100/316/4 103/317/4 102/318/4
f 100/316/7 99/306/7 16/314/7 103/317/7
f 98/305/8 101/319/8 102/320/8 104/313/8
f 105/321/17 106/322/17 107/323/17 108/324/17
f 109/325/2 110/326/2 111/327/2 112/328/2
f 106/322/3 105/321/3 112/329/3 111/330/3
f 108/331/4 107/332/4 110/333/4 109/334/4
f 107/332/10 106/322/10 111/330/10 110/333/10
f 105/321/18 108/335/18 109/336/18 112/329/18
f 113/337/17 114/338/17 115/339/17 116/340/17
f 117/341/2 118/342/2 119/343/2 120/344/2
f 114/338/3 113/337/3 120/345/3 119/346/3
f 116/347/4 115/348/4 118/349/4 117/350/4
f 115/348/10 114/338/10 119/346/10 118/349/10
f 113/337/18 116/351/18 117/352/18 120/345/18
f 121/353/11 122/354/11 123/355/11 124/356/11
f 140/357/12 125/358/12 126/359/12 127/360/12
f 122/354/3 121/353/3 127/361/3 126/362/3
f 124/363/4 123/364/4 125/365/4 140/366/4
f 123/364/7 122/354/7 126/362/7 125/365/7
f 121/353/8 124/367/8 140/368/8 127/361/8
f 128/369/11 129/370/11 130/371/11 131/372/11
f 132/373/12 133/374/12 134/375/12 137/376/12
f 129/370/3 128/369/3 137/377/3 134/378/3
f 131/379/4 130/380/4 133/381/4 132/382/4
f 130/380/7 129/370/7 134/378/7 133/381/7
f 128/369/8 131/383/8 132/384/8 137/377/8
f 124/385/1 135/386/1 136/387/1 128/388/1
f 137/389/2 138/390/2 139/391/2 140/392/2
f 135/386/3 124/385/3 140/393/3 139/394/3
f 128/395/4 136/396/4 138/397/4 137/398/4
f 136/396/7 135/386/7 139/394/7 138/397/7
f 124/385/8 128/399/8 137/400/8 140/393/8
f 160/401/19 153/402/19 141/403/19 142/404/19
f 143/405/20 156/406/20 144/407/20 163/408/20
f 153/402/3 160/401/3 163/409/3 144/410/3
f 142/411/4 141/412/4 156/413/4 143/414/4
f 141/412/21 153/402/21 144/410/21 156/413/21
f 160/401/22 142/415/22 143/416/22 163/409/22
f 145/417/19 146/418/19 147/419/19 148/420/19
f 149/421/20 150/422/20 151/423/20 152/424/20
f 146/418/3 145/417/3 152/425/3 151/426/3
f 148/427/4 147/428/4 150/429/4 149/430/4
f 147/428/21 146/418/21 151/426/21 150/429/21
f 145/417/22 148/431/22 149/432/22 152/425/22
f 153/433/23 154/434/23 155/435/23 141/436/23
f 156/437/20 157/438/20 158/439/20 144/440/20
f 154/434/24 153/433/24 144/441/24 158/442/24
f 141/443/25 155/444/25 157/445/25 156/446/25
f 155/444/21 154/434/21 158/442/21 157/445/21
f 159/447/26 160/448/26 142/449/26 161/450/26
f 162/451/20 143/452/20 163/453/20 164/454/20
f 160/448/27 159/447/27 164/455/27 163/456/27
f 161/457/28 142/458/28 143/459/28 162/460/28
f 159/447/29 161/461/29 162/462/29 164/455/29
f 165/463/1 166/464/1 167/465/1 168/466/1
f 169/467/2 170/468/2 171/469/2 172/470/2
f 166/464/3 165/463/3 172/471/3 171/472/3
f 168/473/4 167/474/4 170/475/4 169/476/4
f 167/474/7 166/464/7 171/472/7 170/475/7
f 165/463/8 168/477/8 169/478/8 172/471/8
f 173/479/1 174/480/1 175/481/1 176/482/1
f 177/483/2 178/484/2 179/485/2 180/486/2
f 174/480/3 173/479/3 180/487/3 179/488/3
f 176/489/4 175/490/4 178/491/4 177/492/4
f 175/490/7 174/480/7 179/488/7 178/491/7
f 173/479/8 176/493/8 177/494/8 180/487/8
