# Blender v2.79 (sub 0) OBJ File: ''
# www.blender.org
mtllib crafting_stone_slab.mtl
o crafting_stone_slab
v -0.500000 0.125000 0.500000
v 0.498630 0.125000 0.447664
v 0.446294 0.125000 -0.550965
v -0.552336 0.125000 -0.498630
v -0.552336 0.000000 -0.498630
v 0.446294 0.000000 -0.550965
v 0.498630 -0.000000 0.447664
v -0.500000 -0.000000 0.500000
v -0.598531 0.250000 0.395314
v 0.265697 0.250000 0.532194
v 0.373245 0.250000 -0.146842
v -0.490982 0.250000 -0.283722
v -0.490982 0.125000 -0.283722
v 0.373245 0.125000 -0.146842
v 0.265697 0.125000 0.532194
v -0.598531 0.125000 0.395314
v -0.118552 0.279537 -0.251958
v 0.193520 0.279537 -0.268313
v 0.185290 0.177417 -0.425348
v -0.126782 0.177417 -0.408993
v -0.125000 0.125000 -0.375000
v 0.187072 0.125000 -0.391355
v 0.195302 0.227120 -0.234320
v -0.116770 0.227120 -0.217965
vt 1.250000 0.343750
vt 1.500000 0.343750
vt 1.500000 0.593750
vt 1.250000 0.593750
vt 1.500000 0.343750
vt 1.750000 0.343750
vt 1.750000 0.593750
vt 1.500000 0.593750
vt 1.250000 0.312500
vt 1.500000 0.312500
vt 2.000000 0.343750
vt 1.750000 0.343750
vt 1.750000 0.312500
vt 2.000000 0.312500
vt 1.000000 0.343750
vt 1.000000 0.312500
vt 1.187500 0.750000
vt 1.406250 0.750000
vt 1.406250 0.921875
vt 1.187500 0.921875
vt 1.406250 0.750000
vt 1.625000 0.750000
vt 1.625000 0.921875
vt 1.406250 0.921875
vt 1.187500 0.718750
vt 1.406250 0.718750
vt 1.796875 0.750000
vt 1.578125 0.750000
vt 1.578125 0.718750
vt 1.796875 0.718750
vt 1.015625 0.750000
vt 1.015625 0.718750
vt 1.687500 0.937500
vt 1.765625 0.937500
vt 1.765625 0.984375
vt 1.687500 0.984375
vt 1.765625 0.937500
vt 1.843750 0.937500
vt 1.843750 0.984375
vt 1.765625 0.984375
vt 1.687500 0.921875
vt 1.765625 0.921875
vt 1.890625 0.937500
vt 1.812500 0.937500
vt 1.812500 0.921875
vt 1.890625 0.921875
vt 1.640625 0.937500
vt 1.640625 0.921875
vn -0.0000 1.0000 0.0000
vn -0.0000 -1.0000 -0.0000
vn 0.0523 -0.0000 0.9986
vn -0.0523 0.0000 -0.9986
vn 0.9986 0.0000 -0.0523
vn -0.9986 0.0000 0.0523
vn -0.1564 -0.0000 0.9877
vn 0.1564 0.0000 -0.9877
vn 0.9877 -0.0000 0.1564
vn -0.9877 0.0000 -0.1564
vn -0.0285 0.8387 -0.5439
vn 0.0285 -0.8387 0.5439
vn 0.0439 0.5446 0.8375
vn -0.0439 -0.5446 -0.8375
usemtl ModelMaterial
s off
f 1/1/1 2/2/1 3/3/1 4/4/1
f 5/5/2 6/6/2 7/7/2 8/8/2
f 2/2/3 1/1/3 8/9/3 7/10/3
f 4/11/4 3/12/4 6/13/4 5/14/4
f 3/12/5 2/2/5 7/10/5 6/13/5
f 1/1/6 4/15/6 5/16/6 8/9/6
f 9/17/1 10/18/1 11/19/1 12/20/1
f 13/21/2 14/22/2 15/23/2 16/24/2
f 10/18/7 9/17/7 16/25/7 15/26/7
f 12/27/8 11/28/8 14/29/8 13/30/8
f 11/28/9 10/18/9 15/26/9 14/29/9
f 9/17/10 12/31/10 13/32/10 16/25/10
f 17/33/11 18/34/11 19/35/11 20/36/11
f 21/37/12 22/38/12 23/39/12 24/40/12
f 18/34/13 17/33/13 24/41/13 23/42/13
f 20/43/14 19/44/14 22/45/14 21/46/14
f 19/44/5 18/34/5 23/42/5 22/45/5
f 17/33/6 20/47/6 21/48/6 24/41/6
