# Blender v2.79 (sub 0) OBJ File: ''
# www.blender.org
mtllib greenhouse_section_center_2x5_default.mtl
o greenhouseglass_translucent
v -1.437501 3.062499 5.500000
v -1.437501 3.062499 5.562500
v 0.437499 3.062499 5.562500
v 0.437499 3.062499 5.500000
v 0.437500 0.124999 5.500000
v 0.437500 0.124999 5.562500
v -1.437500 0.124999 5.562500
v -1.437500 0.124999 5.500000
v -1.437501 3.478124 4.718750
v -1.437501 3.156249 5.500000
v 0.437499 3.156249 5.500000
v 0.437499 3.478124 4.718750
v 0.437499 3.478124 4.718750
v 0.437499 3.156249 5.500000
v -1.437501 3.156249 5.500000
v -1.437501 3.478124 4.718750
v -1.437501 4.156250 3.062501
v -1.437501 3.834374 3.843751
v 0.437499 3.834374 3.843751
v 0.437499 4.156250 3.062501
v 0.437499 4.156250 3.062501
v 0.437499 3.834374 3.843751
v -1.437501 3.834374 3.843751
v -1.437501 4.156250 3.062501
v -1.437501 3.812499 3.906251
v -1.437501 3.503124 4.656250
v 0.437499 3.503124 4.656250
v 0.437499 3.812499 3.906251
v 0.437499 3.812499 3.906251
v 0.437499 3.503124 4.656250
v -1.437501 3.503124 4.656250
v -1.437501 3.812499 3.906251
v -1.437501 3.834375 2.156251
v -1.437501 4.156250 2.937501
v 0.437499 4.156250 2.937501
v 0.437499 3.834375 2.156251
v 0.437499 3.834375 2.156251
v 0.437499 4.156250 2.937501
v -1.437501 4.156250 2.937501
v -1.437501 3.834375 2.156251
v -1.437501 3.503125 1.343751
v -1.437501 3.812500 2.093751
v 0.437499 3.812500 2.093751
v 0.437499 3.503125 1.343751
v 0.437499 3.503125 1.343751
v 0.437499 3.812500 2.093751
v -1.437501 3.812500 2.093751
v -1.437501 3.503125 1.343751
v -1.437500 3.156250 0.500001
v -1.437501 3.478125 1.281251
v 0.437499 3.478125 1.281251
v 0.437499 3.156250 0.500001
v 0.437499 3.156250 0.500001
v 0.437499 3.478125 1.281251
v -1.437501 3.478125 1.281251
v -1.437500 3.156250 0.500001
v -1.437500 3.062500 0.437501
v -1.437500 3.062500 0.500000
v 0.437499 3.062500 0.500000
v 0.437499 3.062500 0.437501
v 0.437500 0.125000 0.437500
v 0.437500 0.125000 0.500000
v -1.437500 0.125000 0.500000
v -1.437500 0.125000 0.437500
vt 1.060547 0.757812
vt 1.062500 0.757812
vt 1.062500 0.992188
vt 1.060547 0.992188
vt 1.062500 0.757812
vt 1.064453 0.757812
vt 1.064453 0.992188
vt 1.062500 0.992188
vt 1.060547 0.390625
vt 1.062500 0.390625
vt 1.123047 0.757812
vt 1.121094 0.757812
vt 1.121094 0.390625
vt 1.123047 0.390625
vt 1.001953 0.757812
vt 1.001953 0.390625
vt 1.873047 0.757812
vt 1.898438 0.757812
vt 1.898438 0.992188
vt 1.873047 0.992188
vt 1.898438 0.757812
vt 1.923828 0.757812
vt 1.923828 0.992188
vt 1.898438 0.992188
vt 1.873047 0.757812
vt 1.898438 0.757812
vt 1.982422 0.757812
vt 1.957031 0.757812
vt 1.957031 0.757812
vt 1.982422 0.757812
vt 1.814453 0.757812
vt 1.814453 0.757812
vt 1.763672 0.695312
vt 1.789062 0.695312
vt 1.789062 0.929688
vt 1.763672 0.929688
vt 1.789062 0.695312
vt 1.814453 0.695312
vt 1.814453 0.929688
vt 1.789062 0.929688
vt 1.763672 0.695312
vt 1.789062 0.695312
vt 1.873047 0.695312
vt 1.847656 0.695312
vt 1.847656 0.695312
vt 1.873047 0.695312
vt 1.705078 0.695312
vt 1.705078 0.695312
vt 1.310547 0.507812
vt 1.333984 0.507812
vt 1.333984 0.742188
vt 1.310547 0.742188
vt 1.333984 0.507812
vt 1.357422 0.507812
vt 1.357422 0.742188
vt 1.333984 0.742188
vt 1.310547 0.507812
vt 1.333984 0.507812
vt 1.416016 0.507812
vt 1.392578 0.507812
vt 1.392578 0.507812
vt 1.416016 0.507812
vt 1.251953 0.507812
vt 1.251953 0.507812
vt 1.185547 0.445312
vt 1.210938 0.445312
vt 1.210938 0.679688
vt 1.185547 0.679688
vt 1.210938 0.445312
vt 1.236328 0.445312
vt 1.236328 0.679688
vt 1.210938 0.679688
vt 1.185547 0.445312
vt 1.210938 0.445312
vt 1.294922 0.445312
vt 1.269531 0.445312
vt 1.269531 0.445312
vt 1.294922 0.445312
vt 1.126953 0.445312
vt 1.126953 0.445312
vt 1.654297 0.445312
vt 1.677734 0.445312
vt 1.677734 0.679688
vt 1.654297 0.679688
vt 1.677734 0.445312
vt 1.701172 0.445312
vt 1.701172 0.679688
vt 1.677734 0.679688
vt 1.654297 0.445312
vt 1.677734 0.445312
vt 1.759766 0.445312
vt 1.736328 0.445312
vt 1.736328 0.445312
vt 1.759766 0.445312
vt 1.595703 0.445312
vt 1.595703 0.445312
vt 1.888672 0.445312
vt 1.914062 0.445312
vt 1.914062 0.679688
vt 1.888672 0.679688
vt 1.914062 0.445312
vt 1.939453 0.445312
vt 1.939453 0.679688
vt 1.914062 0.679688
vt 1.888672 0.445312
vt 1.914062 0.445312
vt 1.998047 0.445312
vt 1.972656 0.445312
vt 1.972656 0.445312
vt 1.998047 0.445312
vt 1.830078 0.445312
vt 1.830078 0.445312
vt 1.373047 0.382812
vt 1.375000 0.382812
vt 1.375000 0.617188
vt 1.373047 0.617188
vt 1.375000 0.382812
vt 1.376953 0.382812
vt 1.376953 0.617188
vt 1.375000 0.617188
vt 1.373047 0.015625
vt 1.375000 0.015625
vt 1.435547 0.382812
vt 1.433594 0.382812
vt 1.433594 0.015625
vt 1.435547 0.015625
vt 1.314453 0.382812
vt 1.314453 0.015625
vn 0.0000 1.0000 0.0000
vn 0.0000 -1.0000 -0.0000
vn -1.0000 -0.0000 0.0000
vn 1.0000 0.0000 0.0000
vn 0.0000 -0.0000 1.0000
vn 0.0000 0.0000 -1.0000
vn 0.0000 0.9246 0.3809
vn 0.0000 -0.9246 -0.3809
vn 0.0000 0.9244 0.3813
vn 0.0000 -0.9244 -0.3813
vn 0.0000 0.9246 -0.3809
vn 0.0000 -0.9246 0.3809
vn 0.0000 0.9244 -0.3813
vn 0.0000 -0.9244 0.3813
usemtl ModelMaterial
s 1
f 1/1/1 2/2/1 3/3/1 4/4/1
f 5/5/2 6/6/2 7/7/2 8/8/2
f 2/2/3 1/1/3 8/9/3 7/10/3
f 4/11/4 3/12/4 6/13/4 5/14/4
f 3/12/5 2/2/5 7/10/5 6/13/5
f 1/1/6 4/15/6 5/16/6 8/9/6
f 9/17/7 10/18/7 11/19/7 12/20/7
f 13/21/8 14/22/8 15/23/8 16/24/8
f 10/18/5 9/17/5 16/25/5 15/26/5
f 12/27/5 11/28/5 14/29/5 13/30/5
f 11/28/5 10/18/5 15/26/5 14/29/5
f 9/17/5 12/31/5 13/32/5 16/25/5
f 17/33/7 18/34/7 19/35/7 20/36/7
f 21/37/8 22/38/8 23/39/8 24/40/8
f 18/34/5 17/33/5 24/41/5 23/42/5
f 20/43/5 19/44/5 22/45/5 21/46/5
f 19/44/5 18/34/5 23/42/5 22/45/5
f 17/33/5 20/47/5 21/48/5 24/41/5
f 25/49/9 26/50/9 27/51/9 28/52/9
f 29/53/10 30/54/10 31/55/10 32/56/10
f 26/50/5 25/49/5 32/57/5 31/58/5
f 28/59/5 27/60/5 30/61/5 29/62/5
f 27/60/5 26/50/5 31/58/5 30/61/5
f 25/49/5 28/63/5 29/64/5 32/57/5
f 33/65/11 34/66/11 35/67/11 36/68/11
f 37/69/12 38/70/12 39/71/12 40/72/12
f 34/66/5 33/65/5 40/73/5 39/74/5
f 36/75/5 35/76/5 38/77/5 37/78/5
f 35/76/5 34/66/5 39/74/5 38/77/5
f 33/65/5 36/79/5 37/80/5 40/73/5
f 41/81/13 42/82/13 43/83/13 44/84/13
f 45/85/14 46/86/14 47/87/14 48/88/14
f 42/82/5 41/81/5 48/89/5 47/90/5
f 44/91/5 43/92/5 46/93/5 45/94/5
f 43/92/5 42/82/5 47/90/5 46/93/5
f 41/81/5 44/95/5 45/96/5 48/89/5
f 49/97/11 50/98/11 51/99/11 52/100/11
f 53/101/12 54/102/12 55/103/12 56/104/12
f 50/98/5 49/97/5 56/105/5 55/106/5
f 52/107/5 51/108/5 54/109/5 53/110/5
f 51/108/5 50/98/5 55/106/5 54/109/5
f 49/97/5 52/111/5 53/112/5 56/105/5
f 57/113/1 58/114/1 59/115/1 60/116/1
f 61/117/2 62/118/2 63/119/2 64/120/2
f 58/114/3 57/113/3 64/121/3 63/122/3
f 60/123/4 59/124/4 62/125/4 61/126/4
f 59/124/5 58/114/5 63/122/5 62/125/5
f 57/113/6 60/127/6 61/128/6 64/121/6
o core
v -1.500000 0.124999 5.500000
v -1.500000 0.124999 5.593750
v 0.500000 0.124999 5.593750
v 0.500000 0.124999 5.500000
v 0.500000 -0.000001 5.500000
v 0.500000 -0.000001 5.625000
v -1.500000 -0.000001 5.625000
v -1.500000 -0.000001 5.500000
v -1.500001 3.187499 5.500000
v -1.500001 3.124999 5.593750
v -1.437501 3.124999 5.593750
v -1.437501 3.187499 5.500000
v -1.437500 0.124999 5.500000
v -1.437500 0.124999 5.593750
v -1.500000 0.124999 5.593750
v -1.500000 0.124999 5.500000
v 0.437499 3.187499 5.500000
v 0.437499 3.124999 5.593750
v 0.499999 3.124999 5.593750
v 0.499999 3.187499 5.500000
v 0.500000 0.124999 5.500000
v 0.500000 0.124999 5.593750
v 0.437500 0.124999 5.593750
v 0.437500 0.124999 5.500000
v -1.437501 3.187499 5.500000
v -1.437501 3.124999 5.593750
v 0.437499 3.124999 5.593750
v 0.437499 3.187499 5.500000
v 0.437499 3.062499 5.500000
v 0.437499 3.062499 5.593750
v -1.437501 3.062499 5.593750
v -1.437501 3.062499 5.500000
v -1.500001 4.187500 3.062501
v -1.500001 3.187499 5.500000
v -1.437501 3.187499 5.500000
v -1.437501 4.187500 3.062501
v -1.437501 4.125000 3.062501
v -1.437501 3.124999 5.500000
v -1.500001 3.124999 5.500000
v -1.500001 4.125000 3.062501
v -1.500001 4.187500 2.937501
v -1.500001 4.218750 3.000001
v 0.499999 4.218750 3.000001
v 0.499999 4.187500 2.937501
v 0.499999 4.125000 2.937501
v 0.499999 4.125000 3.000001
v -1.500001 4.125000 3.000001
v -1.500001 4.125000 2.937501
v -1.500001 4.218750 3.000001
v -1.500001 4.187500 3.062501
v 0.499999 4.187500 3.062501
v 0.499999 4.218750 3.000001
v 0.499999 4.125000 3.000001
v 0.499999 4.125000 3.062501
v -1.500001 4.125000 3.062501
v -1.500001 4.125000 3.000001
v 0.437499 4.187500 3.062501
v 0.437499 3.187499 5.500000
v 0.499999 3.187499 5.500000
v 0.499999 4.187500 3.062501
v 0.499999 4.125000 3.062501
v 0.499999 3.124999 5.500000
v 0.437499 3.124999 5.500000
v 0.437499 4.125000 3.062501
v -1.437501 3.865624 3.843751
v -1.437501 3.840624 3.906251
v 0.437499 3.840624 3.906251
v 0.437499 3.865624 3.843751
v 0.437499 3.803124 3.843751
v 0.437499 3.778124 3.906251
v -1.437501 3.778124 3.906251
v -1.437501 3.803124 3.843751
v -1.437501 3.534374 4.656250
v -1.437501 3.509374 4.718750
v 0.437499 3.509374 4.718750
v 0.437499 3.534374 4.656250
v 0.437499 3.471874 4.656250
v 0.437499 3.446874 4.718750
v -1.437501 3.446874 4.718750
v -1.437501 3.471874 4.656250
v 0.437499 3.187500 0.500001
v 0.437499 4.187500 2.937501
v 0.499999 4.187500 2.937501
v 0.499999 3.187500 0.500001
v 0.499999 3.125000 0.500001
v 0.499999 4.125000 2.937501
v 0.437499 4.125000 2.937501
v 0.437499 3.125000 0.500001
v -1.500001 3.187500 0.500001
v -1.500001 4.187500 2.937501
v -1.437501 4.187500 2.937501
v -1.437501 3.187500 0.500001
v -1.437500 3.125000 0.500001
v -1.437501 4.125000 2.937501
v -1.500001 4.125000 2.937501
v -1.500000 3.125000 0.500001
v -1.437501 3.840625 2.093751
v -1.437501 3.865625 2.156251
v 0.437499 3.865625 2.156251
v 0.437499 3.840625 2.093751
v 0.437499 3.778125 2.093751
v 0.437499 3.803125 2.156251
v -1.437501 3.803125 2.156251
v -1.437501 3.778125 2.093751
v -1.437501 3.509375 1.281251
v -1.437501 3.534375 1.343751
v 0.437499 3.534375 1.343751
v 0.437499 3.509375 1.281251
v 0.437499 3.446875 1.281251
v 0.437499 3.471875 1.343751
v -1.437501 3.471875 1.343751
v -1.437501 3.446875 1.281251
v -1.437500 3.125000 0.406251
v -1.437501 3.187500 0.500001
v 0.437499 3.187500 0.500001
v 0.437499 3.125000 0.406251
v 0.437499 3.062500 0.406251
v 0.437499 3.062500 0.500000
v -1.437500 3.062500 0.500000
v -1.437500 3.062500 0.406251
v 0.437499 3.125000 0.406251
v 0.437499 3.187500 0.500001
v 0.499999 3.187500 0.500001
v 0.499999 3.125000 0.406251
v 0.500000 0.125000 0.406250
v 0.500000 0.125000 0.500000
v 0.437500 0.125000 0.500000
v 0.437500 0.125000 0.406250
v -1.500000 3.125000 0.406251
v -1.500001 3.187500 0.500001
v -1.437501 3.187500 0.500001
v -1.437500 3.125000 0.406251
v -1.437500 0.125000 0.406250
v -1.437500 0.125000 0.500000
v -1.500000 0.125000 0.500000
v -1.500000 0.125000 0.406250
v -1.500000 0.125000 0.406250
v -1.500000 0.125000 0.500000
v 0.500000 0.125000 0.500000
v 0.500000 0.125000 0.406250
v 0.500000 -0.000000 0.375000
v 0.500000 -0.000000 0.500000
v -1.500000 -0.000000 0.500000
v -1.500000 -0.000000 0.375000
vt 1.189453 0.742188
vt 1.193359 0.742188
vt 1.193359 0.992188
vt 1.189453 0.992188
vt 1.193359 0.742188
vt 1.197266 0.742188
vt 1.197266 0.992188
vt 1.193359 0.992188
vt 1.189453 0.726562
vt 1.193359 0.726562
vt 1.259766 0.742188
vt 1.255859 0.742188
vt 1.255859 0.726562
vt 1.259766 0.726562
vt 1.126953 0.742188
vt 1.126953 0.726562
vt 1.269531 0.984375
vt 1.273438 0.984375
vt 1.273438 0.992188
vt 1.269531 0.992188
vt 1.273438 0.984375
vt 1.277344 0.984375
vt 1.277344 0.992188
vt 1.273438 0.992188
vt 1.269531 0.609375
vt 1.273438 0.609375
vt 1.279297 0.984375
vt 1.275391 0.984375
vt 1.275391 0.609375
vt 1.279297 0.609375
vt 1.267578 0.984375
vt 1.267578 0.609375
vt 1.285156 0.984375
vt 1.289062 0.984375
vt 1.289062 0.992188
vt 1.285156 0.992188
vt 1.289062 0.984375
vt 1.292969 0.984375
vt 1.292969 0.992188
vt 1.289062 0.992188
vt 1.285156 0.609375
vt 1.289062 0.609375
vt 1.294922 0.984375
vt 1.291016 0.984375
vt 1.291016 0.609375
vt 1.294922 0.609375
vt 1.283203 0.984375
vt 1.283203 0.609375
vt 1.357422 0.757812
vt 1.361328 0.757812
vt 1.361328 0.992188
vt 1.357422 0.992188
vt 1.361328 0.757812
vt 1.365234 0.757812
vt 1.365234 0.992188
vt 1.361328 0.992188
vt 1.357422 0.750000
vt 1.361328 0.750000
vt 1.423828 0.757812
vt 1.419922 0.757812
vt 1.419922 0.750000
vt 1.423828 0.750000
vt 1.298828 0.757812
vt 1.298828 0.750000
vt 1.378906 0.984375
vt 1.455078 0.984375
vt 1.455078 0.992188
vt 1.378906 0.992188
vt 1.455078 0.984375
vt 1.531250 0.984375
vt 1.531250 0.992188
vt 1.455078 0.992188
vt 1.378906 0.976562
vt 1.455078 0.976562
vt 1.533203 0.984375
vt 1.457031 0.984375
vt 1.457031 0.976562
vt 1.533203 0.976562
vt 1.376953 0.984375
vt 1.376953 0.976562
vt 1.548828 0.742188
vt 1.550781 0.742188
vt 1.550781 0.992188
vt 1.548828 0.992188
vt 1.550781 0.742188
vt 1.552734 0.742188
vt 1.552734 0.992188
vt 1.550781 0.992188
vt 1.548828 0.734375
vt 1.550781 0.734375
vt 1.615234 0.742188
vt 1.613281 0.742188
vt 1.613281 0.734375
vt 1.615234 0.734375
vt 1.486328 0.742188
vt 1.486328 0.734375
vt 1.689453 0.742188
vt 1.691406 0.742188
vt 1.691406 0.992188
vt 1.689453 0.992188
vt 1.691406 0.742188
vt 1.693359 0.742188
vt 1.693359 0.992188
vt 1.691406 0.992188
vt 1.689453 0.734375
vt 1.691406 0.734375
vt 1.755859 0.742188
vt 1.753906 0.742188
vt 1.753906 0.734375
vt 1.755859 0.734375
vt 1.626953 0.742188
vt 1.626953 0.734375
vt 1.707031 0.984375
vt 1.783203 0.984375
vt 1.783203 0.992188
vt 1.707031 0.992188
vt 1.783203 0.984375
vt 1.859375 0.984375
vt 1.859375 0.992188
vt 1.783203 0.992188
vt 1.707031 0.976562
vt 1.783203 0.976562
vt 1.861328 0.984375
vt 1.785156 0.984375
vt 1.785156 0.976562
vt 1.861328 0.976562
vt 1.705078 0.984375
vt 1.705078 0.976562
vt 1.623047 0.757812
vt 1.625000 0.757812
vt 1.625000 0.992188
vt 1.623047 0.992188
vt 1.625000 0.757812
vt 1.626953 0.757812
vt 1.626953 0.992188
vt 1.625000 0.992188
vt 1.623047 0.750000
vt 1.625000 0.750000
vt 1.685547 0.757812
vt 1.683594 0.757812
vt 1.683594 0.750000
vt 1.685547 0.750000
vt 1.564453 0.757812
vt 1.564453 0.750000
vt 1.435547 0.695312
vt 1.437500 0.695312
vt 1.437500 0.929688
vt 1.435547 0.929688
vt 1.437500 0.695312
vt 1.439453 0.695312
vt 1.439453 0.929688
vt 1.437500 0.929688
vt 1.435547 0.687500
vt 1.437500 0.687500
vt 1.498047 0.695312
vt 1.496094 0.695312
vt 1.496094 0.687500
vt 1.498047 0.687500
vt 1.376953 0.695312
vt 1.376953 0.687500
vt 1.832031 0.734375
vt 1.908203 0.734375
vt 1.908203 0.742188
vt 1.832031 0.742188
vt 1.908203 0.734375
vt 1.984375 0.734375
vt 1.984375 0.742188
vt 1.908203 0.742188
vt 1.832031 0.726562
vt 1.908203 0.726562
vt 1.986328 0.734375
vt 1.910156 0.734375
vt 1.910156 0.726562
vt 1.986328 0.726562
vt 1.830078 0.734375
vt 1.830078 0.726562
vt 1.363281 0.671875
vt 1.439453 0.671875
vt 1.439453 0.679688
vt 1.363281 0.679688
vt 1.439453 0.671875
vt 1.515625 0.671875
vt 1.515625 0.679688
vt 1.439453 0.679688
vt 1.363281 0.664062
vt 1.439453 0.664062
vt 1.517578 0.671875
vt 1.441406 0.671875
vt 1.441406 0.664062
vt 1.517578 0.664062
vt 1.361328 0.671875
vt 1.361328 0.664062
vt 1.529297 0.445312
vt 1.531250 0.445312
vt 1.531250 0.679688
vt 1.529297 0.679688
vt 1.531250 0.445312
vt 1.533203 0.445312
vt 1.533203 0.679688
vt 1.531250 0.679688
vt 1.529297 0.437500
vt 1.531250 0.437500
vt 1.591797 0.445312
vt 1.589844 0.445312
vt 1.589844 0.437500
vt 1.591797 0.437500
vt 1.470703 0.445312
vt 1.470703 0.437500
vt 1.763672 0.445312
vt 1.765625 0.445312
vt 1.765625 0.679688
vt 1.763672 0.679688
vt 1.765625 0.445312
vt 1.767578 0.445312
vt 1.767578 0.679688
vt 1.765625 0.679688
vt 1.763672 0.437500
vt 1.765625 0.437500
vt 1.826172 0.445312
vt 1.824219 0.445312
vt 1.824219 0.437500
vt 1.826172 0.437500
vt 1.705078 0.445312
vt 1.705078 0.437500
vt 1.138672 0.382812
vt 1.142578 0.382812
vt 1.142578 0.617188
vt 1.138672 0.617188
vt 1.142578 0.382812
vt 1.146484 0.382812
vt 1.146484 0.617188
vt 1.142578 0.617188
vt 1.138672 0.375000
vt 1.142578 0.375000
vt 1.205078 0.382812
vt 1.201172 0.382812
vt 1.201172 0.375000
vt 1.205078 0.375000
vt 1.080078 0.382812
vt 1.080078 0.375000
vt 1.253906 0.671875
vt 1.257812 0.671875
vt 1.257812 0.679688
vt 1.253906 0.679688
vt 1.257812 0.671875
vt 1.261719 0.671875
vt 1.261719 0.679688
vt 1.257812 0.679688
vt 1.253906 0.296875
vt 1.257812 0.296875
vt 1.263672 0.671875
vt 1.259766 0.671875
vt 1.259766 0.296875
vt 1.263672 0.296875
vt 1.251953 0.671875
vt 1.251953 0.296875
vt 1.597656 0.671875
vt 1.601562 0.671875
vt 1.601562 0.679688
vt 1.597656 0.679688
vt 1.601562 0.671875
vt 1.605469 0.671875
vt 1.605469 0.679688
vt 1.601562 0.679688
vt 1.597656 0.296875
vt 1.601562 0.296875
vt 1.607422 0.671875
vt 1.603516 0.671875
vt 1.603516 0.296875
vt 1.607422 0.296875
vt 1.595703 0.671875
vt 1.595703 0.296875
vt 1.830078 0.429688
vt 1.833984 0.429688
vt 1.833984 0.679688
vt 1.830078 0.679688
vt 1.833984 0.429688
vt 1.837891 0.429688
vt 1.837891 0.679688
vt 1.833984 0.679688
vt 1.830078 0.414062
vt 1.833984 0.414062
vt 1.900391 0.429688
vt 1.896484 0.429688
vt 1.896484 0.414062
vt 1.900391 0.414062
vt 1.767578 0.429688
vt 1.767578 0.414062
vn 0.0000 1.0000 0.0000
vn 0.0000 -1.0000 -0.0000
vn -1.0000 0.0000 0.0000
vn 1.0000 0.0000 0.0000
vn 0.0000 0.2425 0.9701
vn 0.0000 0.0000 -1.0000
vn 0.0000 0.8321 0.5547
vn 0.0000 -0.0000 1.0000
vn 0.0000 0.9252 0.3796
vn 0.0000 -0.9252 -0.3796
vn 0.0000 0.8944 -0.4472
vn 0.0000 0.8944 0.4472
vn 0.0000 0.9285 0.3714
vn 0.0000 -0.9285 -0.3714
vn 0.0000 0.9252 -0.3796
vn 0.0000 -0.9252 0.3796
vn 0.0000 0.9285 -0.3714
vn 0.0000 -0.9285 0.3714
vn 0.0000 0.8321 -0.5547
vn 0.0000 0.2425 -0.9701
usemtl ModelMaterial
s 1
f 65/129/15 66/130/15 67/131/15 68/132/15
f 69/133/16 70/134/16 71/135/16 72/136/16
f 66/130/17 65/129/17 72/137/17 71/138/17
f 68/139/18 67/140/18 70/141/18 69/142/18
f 67/140/19 66/130/19 71/138/19 70/141/19
f 65/129/20 68/143/20 69/144/20 72/137/20
f 73/145/21 74/146/21 75/147/21 76/148/21
f 77/149/16 78/150/16 79/151/16 80/152/16
f 74/146/17 73/145/17 80/153/17 79/154/17
f 76/155/18 75/156/18 78/157/18 77/158/18
f 75/156/22 74/146/22 79/154/22 78/157/22
f 73/145/20 76/159/20 77/160/20 80/153/20
f 81/161/21 82/162/21 83/163/21 84/164/21
f 85/165/16 86/166/16 87/167/16 88/168/16
f 82/162/17 81/161/17 88/169/17 87/170/17
f 84/171/18 83/172/18 86/173/18 85/174/18
f 83/172/22 82/162/22 87/170/22 86/173/22
f 81/161/20 84/175/20 85/176/20 88/169/20
f 89/177/21 90/178/21 91/179/21 92/180/21
f 93/181/16 94/182/16 95/183/16 96/184/16
f 90/178/17 89/177/17 96/185/17 95/186/17
f 92/187/18 91/188/18 94/189/18 93/190/18
f 91/188/22 90/178/22 95/186/22 94/189/22
f 89/177/20 92/191/20 93/192/20 96/185/20
f 97/193/23 98/194/23 99/195/23 100/196/23
f 101/197/24 102/198/24 103/199/24 104/200/24
f 98/194/17 97/193/17 104/201/17 103/202/17
f 100/203/18 99/204/18 102/205/18 101/206/18
f 99/204/22 98/194/22 103/202/22 102/205/22
f 97/193/20 100/207/20 101/208/20 104/201/20
f 105/209/25 106/210/25 107/211/25 108/212/25
f 109/213/16 110/214/16 111/215/16 112/216/16
f 106/210/17 105/209/17 112/217/17 111/218/17
f 108/219/18 107/220/18 110/221/18 109/222/18
f 107/220/22 106/210/22 111/218/22 110/221/22
f 105/209/20 108/223/20 109/224/20 112/217/20
f 113/225/26 114/226/26 115/227/26 116/228/26
f 117/229/16 118/230/16 119/231/16 120/232/16
f 114/226/17 113/225/17 120/233/17 119/234/17
f 116/235/18 115/236/18 118/237/18 117/238/18
f 115/236/22 114/226/22 119/234/22 118/237/22
f 113/225/20 116/239/20 117/240/20 120/233/20
f 121/241/23 122/242/23 123/243/23 124/244/23
f 125/245/24 126/246/24 127/247/24 128/248/24
f 122/242/17 121/241/17 128/249/17 127/250/17
f 124/251/18 123/252/18 126/253/18 125/254/18
f 123/252/22 122/242/22 127/250/22 126/253/22
f 121/241/20 124/255/20 125/256/20 128/249/20
f 129/257/27 130/258/27 131/259/27 132/260/27
f 133/261/28 134/262/28 135/263/28 136/264/28
f 130/258/17 129/257/17 136/265/17 135/266/17
f 132/267/18 131/268/18 134/269/18 133/270/18
f 131/268/22 130/258/22 135/266/22 134/269/22
f 129/257/20 132/271/20 133/272/20 136/265/20
f 137/273/27 138/274/27 139/275/27 140/276/27
f 141/277/28 142/278/28 143/279/28 144/280/28
f 138/274/17 137/273/17 144/281/17 143/282/17
f 140/283/18 139/284/18 142/285/18 141/286/18
f 139/284/22 138/274/22 143/282/22 142/285/22
f 137/273/20 140/287/20 141/288/20 144/281/20
f 145/289/29 146/290/29 147/291/29 148/292/29
f 149/293/30 150/294/30 151/295/30 152/296/30
f 146/290/17 145/289/17 152/297/17 151/298/17
f 148/299/18 147/300/18 150/301/18 149/302/18
f 147/300/22 146/290/22 151/298/22 150/301/22
f 145/289/20 148/303/20 149/304/20 152/297/20
f 153/305/29 154/306/29 155/307/29 156/308/29
f 157/309/30 158/310/30 159/311/30 160/312/30
f 154/306/17 153/305/17 160/313/17 159/314/17
f 156/315/18 155/316/18 158/317/18 157/318/18
f 155/316/22 154/306/22 159/314/22 158/317/22
f 153/305/20 156/319/20 157/320/20 160/313/20
f 161/321/31 162/322/31 163/323/31 164/324/31
f 165/325/32 166/326/32 167/327/32 168/328/32
f 162/322/17 161/321/17 168/329/17 167/330/17
f 164/331/18 163/332/18 166/333/18 165/334/18
f 163/332/22 162/322/22 167/330/22 166/333/22
f 161/321/20 164/335/20 165/336/20 168/329/20
f 169/337/31 170/338/31 171/339/31 172/340/31
f 173/341/32 174/342/32 175/343/32 176/344/32
f 170/338/17 169/337/17 176/345/17 175/346/17
f 172/347/18 171/348/18 174/349/18 173/350/18
f 171/348/22 170/338/22 175/346/22 174/349/22
f 169/337/20 172/351/20 173/352/20 176/345/20
f 177/353/33 178/354/33 179/355/33 180/356/33
f 181/357/16 182/358/16 183/359/16 184/360/16
f 178/354/17 177/353/17 184/361/17 183/362/17
f 180/363/18 179/364/18 182/365/18 181/366/18
f 179/364/22 178/354/22 183/362/22 182/365/22
f 177/353/20 180/367/20 181/368/20 184/361/20
f 185/369/33 186/370/33 187/371/33 188/372/33
f 189/373/16 190/374/16 191/375/16 192/376/16
f 186/370/17 185/369/17 192/377/17 191/378/17
f 188/379/18 187/380/18 190/381/18 189/382/18
f 187/380/22 186/370/22 191/378/22 190/381/22
f 185/369/20 188/383/20 189/384/20 192/377/20
f 193/385/33 194/386/33 195/387/33 196/388/33
f 197/389/16 198/390/16 199/391/16 200/392/16
f 194/386/17 193/385/17 200/393/17 199/394/17
f 196/395/18 195/396/18 198/397/18 197/398/18
f 195/396/22 194/386/22 199/394/22 198/397/22
f 193/385/20 196/399/20 197/400/20 200/393/20
f 201/401/15 202/402/15 203/403/15 204/404/15
f 205/405/16 206/406/16 207/407/16 208/408/16
f 202/402/17 201/401/17 208/409/17 207/410/17
f 204/411/18 203/412/18 206/413/18 205/414/18
f 203/412/22 202/402/22 207/410/22 206/413/22
f 201/401/34 204/415/34 205/416/34 208/409/34
