# Blender v2.79 (sub 0) OBJ File: ''
# www.blender.org
mtllib greenhouse_section_side_5.mtl
o greenhouseglass_translucent
v -0.500001 4.125000 0.500001
v -0.500001 4.124999 5.500000
v -0.468751 4.124999 5.500000
v -0.468751 4.125000 0.500001
v -0.468750 0.125000 0.500000
v -0.468750 0.124999 5.500000
v -0.500000 0.124999 5.500000
v -0.500000 0.125000 0.500000
vt 1.441406 0.921875
vt 1.597656 0.921875
vt 1.597656 0.929688
vt 1.441406 0.929688
vt 1.597656 0.921875
vt 1.753906 0.921875
vt 1.753906 0.929688
vt 1.597656 0.929688
vt 1.441406 0.421875
vt 1.597656 0.421875
vt 1.755859 0.921875
vt 1.599609 0.921875
vt 1.599609 0.421875
vt 1.755859 0.421875
vt 1.439453 0.921875
vt 1.439453 0.421875
vn 0.0000 1.0000 0.0000
vn 0.0000 -1.0000 -0.0000
vn -1.0000 -0.0000 -0.0000
vn 1.0000 0.0000 0.0000
vn 0.0000 -0.0000 1.0000
vn 0.0000 0.0000 -1.0000
usemtl ModelMaterial
s 1
f 1/1/1 2/2/1 3/3/1 4/4/1
f 5/5/2 6/6/2 7/7/2 8/8/2
f 2/2/3 1/1/3 8/9/3 7/10/3
f 4/11/4 3/12/4 6/13/4 5/14/4
f 3/12/5 2/2/5 7/10/5 6/13/5
f 1/1/6 4/15/6 5/16/6 8/9/6
o greenhouse_section_side_5
v -0.500001 4.187500 2.937501
v -0.500001 4.218750 3.000001
v -0.406251 4.218750 3.000001
v -0.406251 4.187500 2.937501
v -0.406251 4.125000 2.937501
v -0.406251 4.125000 3.000001
v -0.500001 4.125000 3.000001
v -0.500001 4.125000 2.937501
v -0.500001 3.187500 0.500001
v -0.500001 4.187500 2.937501
v -0.406251 4.187500 2.937501
v -0.406251 3.187500 0.500001
v -0.406251 3.125000 0.500001
v -0.406251 4.125000 2.937501
v -0.500001 4.125000 2.937501
v -0.500001 3.125000 0.500001
v -0.500001 3.125000 0.406251
v -0.500001 3.187500 0.500001
v -0.406251 3.187500 0.500001
v -0.406251 3.125000 0.406251
v -0.406250 0.125000 0.406250
v -0.406250 0.125000 0.500000
v -0.500000 0.125000 0.500000
v -0.500000 0.125000 0.406250
v -0.500000 0.125000 0.406250
v -0.500000 0.125000 0.500000
v -0.406250 0.125000 0.500000
v -0.406250 0.125000 0.406250
v -0.375000 -0.000000 0.375000
v -0.375000 -0.000000 0.500000
v -0.500000 -0.000000 0.500000
v -0.500000 -0.000000 0.375000
v -0.500001 4.218750 3.000001
v -0.500001 4.187500 3.062501
v -0.406251 4.187500 3.062501
v -0.406251 4.218750 3.000001
v -0.406251 4.125000 3.000001
v -0.406251 4.125000 3.062501
v -0.500001 4.125000 3.062501
v -0.500001 4.125000 3.000001
v -0.500001 4.187500 3.062501
v -0.500001 3.187499 5.500000
v -0.406251 3.187499 5.500000
v -0.406251 4.187500 3.062501
v -0.406251 4.125000 3.062501
v -0.406251 3.124999 5.500000
v -0.500001 3.124999 5.500000
v -0.500001 4.125000 3.062501
v -0.500001 3.187499 5.500000
v -0.500001 3.124999 5.593750
v -0.406251 3.124999 5.593750
v -0.406251 3.187499 5.500000
v -0.406250 0.124999 5.500000
v -0.406250 0.124999 5.593750
v -0.500000 0.124999 5.593750
v -0.500000 0.124999 5.500000
v -0.500000 0.124999 5.500000
v -0.500000 0.124999 5.593750
v -0.406250 0.124999 5.593750
v -0.406250 0.124999 5.500000
v -0.375000 -0.000001 5.500000
v -0.375000 -0.000001 5.625000
v -0.500000 -0.000001 5.625000
v -0.500000 -0.000001 5.500000
v -0.500000 0.125000 0.500000
v -0.500000 0.124999 5.500000
v -0.406250 0.124999 5.500000
v -0.406250 0.125000 0.500000
v -0.375000 -0.000000 0.500000
v -0.375000 -0.000001 5.500000
v -0.500000 -0.000001 5.500000
v -0.500000 -0.000000 0.500000
v -0.500001 3.868750 2.312501
v -0.500001 3.893749 2.375001
v -0.406251 3.893749 2.375001
v -0.406251 3.868750 2.312501
v -0.406250 0.125000 2.312500
v -0.406250 0.125000 2.375000
v -0.500000 0.125000 2.375000
v -0.500000 0.125000 2.312500
v -0.500001 3.893749 3.625001
v -0.500001 3.868749 3.687501
v -0.406251 3.868749 3.687501
v -0.406251 3.893749 3.625001
v -0.406250 0.124999 3.625000
v -0.406250 0.124999 3.687500
v -0.500000 0.124999 3.687500
v -0.500000 0.124999 3.625000
v -0.500000 2.437500 2.375000
v -0.500001 2.437500 3.625000
v -0.406251 2.437500 3.625000
v -0.406250 2.437500 2.375000
v -0.406250 2.375000 2.375000
v -0.406251 2.375000 3.625000
v -0.500001 2.375000 3.625000
v -0.500000 2.375000 2.375000
v -0.500001 3.125000 0.500001
v -0.500001 3.125000 2.312500
v -0.406251 3.125000 2.312500
v -0.406251 3.125000 0.500001
v -0.406251 3.062500 0.500000
v -0.406251 3.062500 2.312500
v -0.500001 3.062500 2.312500
v -0.500000 3.062500 0.500000
v -0.500001 3.124999 3.687500
v -0.500001 3.124999 5.500000
v -0.406251 3.124999 5.500000
v -0.406251 3.124999 3.687500
v -0.406251 3.062499 3.687500
v -0.406251 3.062499 5.500000
v -0.500001 3.062499 5.500000
v -0.500001 3.062499 3.687500
v -0.500001 3.750000 2.375001
v -0.500001 3.750000 3.625001
v -0.406251 3.750000 3.625001
v -0.406251 3.750000 2.375001
v -0.406251 3.687500 2.375001
v -0.406251 3.687500 3.625001
v -0.500001 3.687500 3.625001
v -0.500001 3.687500 2.375001
vt 1.003906 0.984375
vt 1.005859 0.984375
vt 1.005859 0.992188
vt 1.003906 0.992188
vt 1.005859 0.984375
vt 1.007812 0.984375
vt 1.007812 0.992188
vt 1.005859 0.992188
vt 1.003906 0.976562
vt 1.005859 0.976562
vt 1.009766 0.984375
vt 1.007812 0.984375
vt 1.007812 0.976562
vt 1.009766 0.976562
vt 1.001953 0.984375
vt 1.001953 0.976562
vt 1.019531 0.984375
vt 1.095703 0.984375
vt 1.095703 0.992188
vt 1.019531 0.992188
vt 1.095703 0.984375
vt 1.171875 0.984375
vt 1.171875 0.992188
vt 1.095703 0.992188
vt 1.019531 0.976562
vt 1.095703 0.976562
vt 1.173828 0.984375
vt 1.097656 0.984375
vt 1.097656 0.976562
vt 1.173828 0.976562
vt 1.017578 0.984375
vt 1.017578 0.976562
vt 1.191406 0.984375
vt 1.195312 0.984375
vt 1.195312 0.992188
vt 1.191406 0.992188
vt 1.195312 0.984375
vt 1.199219 0.984375
vt 1.199219 0.992188
vt 1.195312 0.992188
vt 1.191406 0.609375
vt 1.195312 0.609375
vt 1.201172 0.984375
vt 1.197266 0.984375
vt 1.197266 0.609375
vt 1.201172 0.609375
vt 1.189453 0.984375
vt 1.189453 0.609375
vt 1.208984 0.976562
vt 1.212891 0.976562
vt 1.212891 0.992188
vt 1.208984 0.992188
vt 1.212891 0.976562
vt 1.216797 0.976562
vt 1.216797 0.992188
vt 1.212891 0.992188
vt 1.208984 0.960938
vt 1.212891 0.960938
vt 1.220703 0.976562
vt 1.216797 0.976562
vt 1.216797 0.960938
vt 1.220703 0.960938
vt 1.205078 0.976562
vt 1.205078 0.960938
vt 1.238281 0.984375
vt 1.240234 0.984375
vt 1.240234 0.992188
vt 1.238281 0.992188
vt 1.240234 0.984375
vt 1.242188 0.984375
vt 1.242188 0.992188
vt 1.240234 0.992188
vt 1.238281 0.976562
vt 1.240234 0.976562
vt 1.244141 0.984375
vt 1.242188 0.984375
vt 1.242188 0.976562
vt 1.244141 0.976562
vt 1.236328 0.984375
vt 1.236328 0.976562
vt 1.253906 0.984375
vt 1.330078 0.984375
vt 1.330078 0.992188
vt 1.253906 0.992188
vt 1.330078 0.984375
vt 1.406250 0.984375
vt 1.406250 0.992188
vt 1.330078 0.992188
vt 1.253906 0.976562
vt 1.330078 0.976562
vt 1.408203 0.984375
vt 1.332031 0.984375
vt 1.332031 0.976562
vt 1.408203 0.976562
vt 1.251953 0.984375
vt 1.251953 0.976562
vt 1.425781 0.984375
vt 1.429688 0.984375
vt 1.429688 0.992188
vt 1.425781 0.992188
vt 1.429688 0.984375
vt 1.433594 0.984375
vt 1.433594 0.992188
vt 1.429688 0.992188
vt 1.425781 0.609375
vt 1.429688 0.609375
vt 1.435547 0.984375
vt 1.431641 0.984375
vt 1.431641 0.609375
vt 1.435547 0.609375
vt 1.423828 0.984375
vt 1.423828 0.609375
vt 1.443359 0.976562
vt 1.447266 0.976562
vt 1.447266 0.992188
vt 1.443359 0.992188
vt 1.447266 0.976562
vt 1.451172 0.976562
vt 1.451172 0.992188
vt 1.447266 0.992188
vt 1.443359 0.960938
vt 1.447266 0.960938
vt 1.455078 0.976562
vt 1.451172 0.976562
vt 1.451172 0.960938
vt 1.455078 0.960938
vt 1.439453 0.976562
vt 1.439453 0.960938
vt 1.474609 0.976562
vt 1.630859 0.976562
vt 1.630859 0.992188
vt 1.474609 0.992188
vt 1.630859 0.976562
vt 1.787109 0.976562
vt 1.787109 0.992188
vt 1.630859 0.992188
vt 1.474609 0.960938
vt 1.630859 0.960938
vt 1.791016 0.976562
vt 1.634766 0.976562
vt 1.634766 0.960938
vt 1.791016 0.960938
vt 1.470703 0.976562
vt 1.470703 0.960938
vt 1.802734 0.976562
vt 1.804688 0.976562
vt 1.804688 0.992188
vt 1.802734 0.992188
vt 1.804688 0.976562
vt 1.806641 0.976562
vt 1.806641 0.992188
vt 1.804688 0.992188
vt 1.802734 0.507812
vt 1.804688 0.507812
vt 1.810547 0.976562
vt 1.808594 0.976562
vt 1.808594 0.507812
vt 1.810547 0.507812
vt 1.798828 0.976562
vt 1.798828 0.507812
vt 1.818359 0.976562
vt 1.820312 0.976562
vt 1.820312 0.992188
vt 1.818359 0.992188
vt 1.820312 0.976562
vt 1.822266 0.976562
vt 1.822266 0.992188
vt 1.820312 0.992188
vt 1.818359 0.507812
vt 1.820312 0.507812
vt 1.826172 0.976562
vt 1.824219 0.976562
vt 1.824219 0.507812
vt 1.826172 0.507812
vt 1.814453 0.976562
vt 1.814453 0.507812
vt 1.833984 0.976562
vt 1.873047 0.976562
vt 1.873047 0.992188
vt 1.833984 0.992188
vt 1.873047 0.976562
vt 1.912109 0.976562
vt 1.912109 0.992188
vt 1.873047 0.992188
vt 1.833984 0.968750
vt 1.873047 0.968750
vt 1.916016 0.976562
vt 1.876953 0.976562
vt 1.876953 0.968750
vt 1.916016 0.968750
vt 1.830078 0.976562
vt 1.830078 0.968750
vt 1.005859 0.914062
vt 1.062500 0.914062
vt 1.062500 0.929688
vt 1.005859 0.929688
vt 1.062500 0.914062
vt 1.119141 0.914062
vt 1.119141 0.929688
vt 1.062500 0.929688
vt 1.005859 0.906250
vt 1.062500 0.906250
vt 1.123047 0.914062
vt 1.066406 0.914062
vt 1.066406 0.906250
vt 1.123047 0.906250
vt 1.001953 0.914062
vt 1.001953 0.906250
vt 1.208984 0.914062
vt 1.265625 0.914062
vt 1.265625 0.929688
vt 1.208984 0.929688
vt 1.265625 0.914062
vt 1.322266 0.914062
vt 1.322266 0.929688
vt 1.265625 0.929688
vt 1.208984 0.906250
vt 1.265625 0.906250
vt 1.326172 0.914062
vt 1.269531 0.914062
vt 1.269531 0.906250
vt 1.326172 0.906250
vt 1.205078 0.914062
vt 1.205078 0.906250
vt 1.333984 0.914062
vt 1.373047 0.914062
vt 1.373047 0.929688
vt 1.333984 0.929688
vt 1.373047 0.914062
vt 1.412109 0.914062
vt 1.412109 0.929688
vt 1.373047 0.929688
vt 1.333984 0.906250
vt 1.373047 0.906250
vt 1.416016 0.914062
vt 1.376953 0.914062
vt 1.376953 0.906250
vt 1.416016 0.906250
vt 1.330078 0.914062
vt 1.330078 0.906250
vn 0.0000 0.8944 -0.4472
vn 0.0000 -1.0000 0.0000
vn -1.0000 0.0000 0.0000
vn 1.0000 0.0000 0.0000
vn 0.0000 0.0000 1.0000
vn 0.0000 0.0000 -1.0000
vn 0.0000 0.9252 -0.3796
vn 0.0000 -0.9252 0.3796
vn 0.0000 0.8321 -0.5547
vn 0.0000 1.0000 0.0000
vn 0.9701 0.2425 0.0000
vn 0.0000 0.2425 -0.9701
vn 0.0000 0.8944 0.4472
vn 0.0000 0.9252 0.3796
vn 0.0000 -0.9252 -0.3796
vn 0.0000 0.8321 0.5547
vn 0.0000 0.2425 0.9701
vn 0.0000 0.9285 -0.3714
vn 0.0000 0.9285 0.3714
usemtl ModelMaterial
s 1
f 9/17/7 10/18/7 11/19/7 12/20/7
f 13/21/8 14/22/8 15/23/8 16/24/8
f 10/18/9 9/17/9 16/25/9 15/26/9
f 12/27/10 11/28/10 14/29/10 13/30/10
f 11/28/11 10/18/11 15/26/11 14/29/11
f 9/17/12 12/31/12 13/32/12 16/25/12
f 17/33/13 18/34/13 19/35/13 20/36/13
f 21/37/14 22/38/14 23/39/14 24/40/14
f 18/34/9 17/33/9 24/41/9 23/42/9
f 20/43/10 19/44/10 22/45/10 21/46/10
f 19/44/11 18/34/11 23/42/11 22/45/11
f 17/33/12 20/47/12 21/48/12 24/41/12
f 25/49/15 26/50/15 27/51/15 28/52/15
f 29/53/8 30/54/8 31/55/8 32/56/8
f 26/50/9 25/49/9 32/57/9 31/58/9
f 28/59/10 27/60/10 30/61/10 29/62/10
f 27/60/11 26/50/11 31/58/11 30/61/11
f 25/49/12 28/63/12 29/64/12 32/57/12
f 33/65/16 34/66/16 35/67/16 36/68/16
f 37/69/8 38/70/8 39/71/8 40/72/8
f 34/66/9 33/65/9 40/73/9 39/74/9
f 36/75/17 35/76/17 38/77/17 37/78/17
f 35/76/11 34/66/11 39/74/11 38/77/11
f 33/65/18 36/79/18 37/80/18 40/73/18
f 41/81/19 42/82/19 43/83/19 44/84/19
f 45/85/8 46/86/8 47/87/8 48/88/8
f 42/82/9 41/81/9 48/89/9 47/90/9
f 44/91/10 43/92/10 46/93/10 45/94/10
f 43/92/11 42/82/11 47/90/11 46/93/11
f 41/81/12 44/95/12 45/96/12 48/89/12
f 49/97/20 50/98/20 51/99/20 52/100/20
f 53/101/21 54/102/21 55/103/21 56/104/21
f 50/98/9 49/97/9 56/105/9 55/106/9
f 52/107/10 51/108/10 54/109/10 53/110/10
f 51/108/11 50/98/11 55/106/11 54/109/11
f 49/97/12 52/111/12 53/112/12 56/105/12
f 57/113/22 58/114/22 59/115/22 60/116/22
f 61/117/8 62/118/8 63/119/8 64/120/8
f 58/114/9 57/113/9 64/121/9 63/122/9
f 60/123/10 59/124/10 62/125/10 61/126/10
f 59/124/11 58/114/11 63/122/11 62/125/11
f 57/113/12 60/127/12 61/128/12 64/121/12
f 65/129/16 66/130/16 67/131/16 68/132/16
f 69/133/8 70/134/8 71/135/8 72/136/8
f 66/130/9 65/129/9 72/137/9 71/138/9
f 68/139/17 67/140/17 70/141/17 69/142/17
f 67/140/23 66/130/23 71/138/23 70/141/23
f 65/129/12 68/143/12 69/144/12 72/137/12
f 73/145/16 74/146/16 75/147/16 76/148/16
f 77/149/8 78/150/8 79/151/8 80/152/8
f 74/146/9 73/145/9 80/153/9 79/154/9
f 76/155/17 75/156/17 78/157/17 77/158/17
f 75/156/11 74/146/11 79/154/11 78/157/11
f 73/145/12 76/159/12 77/160/12 80/153/12
f 81/161/24 82/162/24 83/163/24 84/164/24
f 85/165/8 86/166/8 87/167/8 88/168/8
f 82/162/9 81/161/9 88/169/9 87/170/9
f 84/171/10 83/172/10 86/173/10 85/174/10
f 83/172/11 82/162/11 87/170/11 86/173/11
f 81/161/12 84/175/12 85/176/12 88/169/12
f 89/177/25 90/178/25 91/179/25 92/180/25
f 93/181/8 94/182/8 95/183/8 96/184/8
f 90/178/9 89/177/9 96/185/9 95/186/9
f 92/187/10 91/188/10 94/189/10 93/190/10
f 91/188/11 90/178/11 95/186/11 94/189/11
f 89/177/12 92/191/12 93/192/12 96/185/12
f 97/193/16 98/194/16 99/195/16 100/196/16
f 101/197/8 102/198/8 103/199/8 104/200/8
f 98/194/9 97/193/9 104/201/9 103/202/9
f 100/203/10 99/204/10 102/205/10 101/206/10
f 99/204/11 98/194/11 103/202/11 102/205/11
f 97/193/12 100/207/12 101/208/12 104/201/12
f 105/209/16 106/210/16 107/211/16 108/212/16
f 109/213/8 110/214/8 111/215/8 112/216/8
f 106/210/9 105/209/9 112/217/9 111/218/9
f 108/219/10 107/220/10 110/221/10 109/222/10
f 107/220/11 106/210/11 111/218/11 110/221/11
f 105/209/12 108/223/12 109/224/12 112/217/12
f 113/225/16 114/226/16 115/227/16 116/228/16
f 117/229/8 118/230/8 119/231/8 120/232/8
f 114/226/9 113/225/9 120/233/9 119/234/9
f 116/235/10 115/236/10 118/237/10 117/238/10
f 115/236/11 114/226/11 119/234/11 118/237/11
f 113/225/12 116/239/12 117/240/12 120/233/12
f 121/241/16 122/242/16 123/243/16 124/244/16
f 125/245/8 126/246/8 127/247/8 128/248/8
f 122/242/9 121/241/9 128/249/9 127/250/9
f 124/251/10 123/252/10 126/253/10 125/254/10
f 123/252/11 122/242/11 127/250/11 126/253/11
f 121/241/12 124/255/12 125/256/12 128/249/12
