# Blender v2.79 (sub 0) OBJ File: ''
# www.blender.org
mtllib greenhouse_section_center_2x5_rust_3.obj.mtl
o greenhouseglass_translucent
v -1.437501 3.062500 5.500000
v -1.437501 3.062500 5.562500
v 0.437499 3.062500 5.562500
v 0.437499 3.062500 5.500000
v 0.437500 0.125000 5.500000
v 0.437500 0.125000 5.562500
v -1.437500 0.125000 5.562500
v -1.437500 0.125000 5.500000
v -1.437501 3.478125 4.718750
v -1.437501 3.156250 5.500000
v 0.437499 3.156250 5.500000
v 0.437499 3.478125 4.718750
v 0.437499 3.478125 4.718750
v 0.437499 3.156250 5.500000
v -1.437501 3.156250 5.500000
v -1.437501 3.478125 4.718750
v -1.437501 4.156250 3.062500
v -1.437501 3.834375 3.843750
v 0.437499 3.834375 3.843750
v 0.437499 4.156250 3.062500
v 0.437499 4.156250 3.062500
v 0.437499 3.834375 3.843750
v -1.437501 3.834375 3.843750
v -1.437501 4.156250 3.062500
v -1.437501 3.812500 3.906250
v -1.437501 3.503125 4.656250
v 0.437499 3.503125 4.656250
v 0.437499 3.812500 3.906250
v 0.437499 3.812500 3.906250
v 0.437499 3.503125 4.656250
v -1.437501 3.503125 4.656250
v -1.437501 3.812500 3.906250
v -1.437501 3.834375 2.156250
v -1.437501 4.156250 2.937500
v 0.437499 4.156250 2.937500
v 0.437499 3.834375 2.156250
v 0.437499 3.834375 2.156250
v 0.437499 4.156250 2.937500
v -1.437501 4.156250 2.937500
v -1.437501 3.834375 2.156250
v -1.437500 3.062500 0.437500
v -1.437500 3.062500 0.500000
v 0.437499 3.062500 0.500000
v 0.437499 3.062500 0.437500
v 0.437500 0.125000 0.437500
v 0.437500 0.125000 0.500000
v -1.437500 0.125000 0.500000
v -1.437500 0.125000 0.437500
vt 1.060547 0.757812
vt 1.062500 0.757812
vt 1.062500 0.992188
vt 1.060547 0.992188
vt 1.062500 0.757812
vt 1.064453 0.757812
vt 1.064453 0.992188
vt 1.062500 0.992188
vt 1.060547 0.390625
vt 1.062500 0.390625
vt 1.123047 0.757812
vt 1.121094 0.757812
vt 1.121094 0.390625
vt 1.123047 0.390625
vt 1.001953 0.757812
vt 1.001953 0.390625
vt 1.873047 0.757812
vt 1.898438 0.757812
vt 1.898438 0.992188
vt 1.873047 0.992188
vt 1.898438 0.757812
vt 1.923828 0.757812
vt 1.923828 0.992188
vt 1.898438 0.992188
vt 1.873047 0.757812
vt 1.898438 0.757812
vt 1.982422 0.757812
vt 1.957031 0.757812
vt 1.957031 0.757812
vt 1.982422 0.757812
vt 1.814453 0.757812
vt 1.814453 0.757812
vt 1.763672 0.695312
vt 1.789062 0.695312
vt 1.789062 0.929688
vt 1.763672 0.929688
vt 1.789062 0.695312
vt 1.814453 0.695312
vt 1.814453 0.929688
vt 1.789062 0.929688
vt 1.763672 0.695312
vt 1.789062 0.695312
vt 1.873047 0.695312
vt 1.847656 0.695312
vt 1.847656 0.695312
vt 1.873047 0.695312
vt 1.705078 0.695312
vt 1.705078 0.695312
vt 1.310547 0.507812
vt 1.333984 0.507812
vt 1.333984 0.742188
vt 1.310547 0.742188
vt 1.333984 0.507812
vt 1.357422 0.507812
vt 1.357422 0.742188
vt 1.333984 0.742188
vt 1.310547 0.507812
vt 1.333984 0.507812
vt 1.416016 0.507812
vt 1.392578 0.507812
vt 1.392578 0.507812
vt 1.416016 0.507812
vt 1.251953 0.507812
vt 1.251953 0.507812
vt 1.185547 0.445312
vt 1.210938 0.445312
vt 1.210938 0.679688
vt 1.185547 0.679688
vt 1.210938 0.445312
vt 1.236328 0.445312
vt 1.236328 0.679688
vt 1.210938 0.679688
vt 1.185547 0.445312
vt 1.210938 0.445312
vt 1.294922 0.445312
vt 1.269531 0.445312
vt 1.269531 0.445312
vt 1.294922 0.445312
vt 1.126953 0.445312
vt 1.126953 0.445312
vt 1.373047 0.382812
vt 1.375000 0.382812
vt 1.375000 0.617188
vt 1.373047 0.617188
vt 1.375000 0.382812
vt 1.376953 0.382812
vt 1.376953 0.617188
vt 1.375000 0.617188
vt 1.373047 0.015625
vt 1.375000 0.015625
vt 1.435547 0.382812
vt 1.433594 0.382812
vt 1.433594 0.015625
vt 1.435547 0.015625
vt 1.314453 0.382812
vt 1.314453 0.015625
vn -0.0000 1.0000 0.0000
vn 0.0000 -1.0000 0.0000
vn -1.0000 -0.0000 0.0000
vn 1.0000 0.0000 0.0000
vn 0.0000 0.0000 1.0000
vn -0.0000 0.0000 -1.0000
vn -0.0000 0.9246 0.3809
vn 0.0000 -0.9246 -0.3809
vn -0.0000 0.9244 0.3813
vn 0.0000 -0.9244 -0.3813
vn -0.0000 0.9246 -0.3809
vn 0.0000 -0.9246 0.3809
usemtl ModelMaterial
s off
f 1/1/1 2/2/1 3/3/1 4/4/1
f 5/5/2 6/6/2 7/7/2 8/8/2
f 2/2/3 1/1/3 8/9/3 7/10/3
f 4/11/4 3/12/4 6/13/4 5/14/4
f 3/12/5 2/2/5 7/10/5 6/13/5
f 1/1/6 4/15/6 5/16/6 8/9/6
f 9/17/7 10/18/7 11/19/7 12/20/7
f 13/21/8 14/22/8 15/23/8 16/24/8
f 10/18/5 9/17/5 16/25/5 15/26/5
f 12/27/5 11/28/5 14/29/5 13/30/5
f 11/28/5 10/18/5 15/26/5 14/29/5
f 9/17/5 12/31/5 13/32/5 16/25/5
f 17/33/7 18/34/7 19/35/7 20/36/7
f 21/37/8 22/38/8 23/39/8 24/40/8
f 18/34/5 17/33/5 24/41/5 23/42/5
f 20/43/5 19/44/5 22/45/5 21/46/5
f 19/44/5 18/34/5 23/42/5 22/45/5
f 17/33/5 20/47/5 21/48/5 24/41/5
f 25/49/9 26/50/9 27/51/9 28/52/9
f 29/53/10 30/54/10 31/55/10 32/56/10
f 26/50/5 25/49/5 32/57/5 31/58/5
f 28/59/5 27/60/5 30/61/5 29/62/5
f 27/60/5 26/50/5 31/58/5 30/61/5
f 25/49/5 28/63/5 29/64/5 32/57/5
f 33/65/11 34/66/11 35/67/11 36/68/11
f 37/69/12 38/70/12 39/71/12 40/72/12
f 34/66/5 33/65/5 40/73/5 39/74/5
f 36/75/5 35/76/5 38/77/5 37/78/5
f 35/76/5 34/66/5 39/74/5 38/77/5
f 33/65/5 36/79/5 37/80/5 40/73/5
f 41/81/1 42/82/1 43/83/1 44/84/1
f 45/85/2 46/86/2 47/87/2 48/88/2
f 42/82/3 41/81/3 48/89/3 47/90/3
f 44/91/4 43/92/4 46/93/4 45/94/4
f 43/92/5 42/82/5 47/90/5 46/93/5
f 41/81/6 44/95/6 45/96/6 48/89/6
o greenhouse_section_center_2x5_rust_3
v -1.500000 0.125000 5.500000
v -1.500000 0.125000 5.593750
v 0.500000 0.125000 5.593750
v 0.500000 0.125000 5.500000
v 0.500000 0.000000 5.500000
v 0.500000 0.000000 5.625000
v -1.500000 -0.000000 5.625000
v -1.500000 -0.000000 5.500000
v -1.500001 3.187500 5.500000
v -1.500001 3.125000 5.593750
v -1.437501 3.125000 5.593750
v -1.437501 3.187500 5.500000
v -1.437500 0.125000 5.500000
v -1.437500 0.125000 5.593750
v -1.500000 0.125000 5.593750
v -1.500000 0.125000 5.500000
v 0.437499 3.187500 5.500000
v 0.437499 3.125000 5.593750
v 0.499999 3.125000 5.593750
v 0.499999 3.187500 5.500000
v 0.500000 0.125000 5.500000
v 0.500000 0.125000 5.593750
v 0.437500 0.125000 5.593750
v 0.437500 0.125000 5.500000
v -1.437501 3.187500 5.500000
v -1.437501 3.125000 5.593750
v 0.437499 3.125000 5.593750
v 0.437499 3.187500 5.500000
v 0.437499 3.062500 5.500000
v 0.437499 3.062500 5.593750
v -1.437501 3.062500 5.593750
v -1.437501 3.062500 5.500000
v -1.500001 4.187500 3.062500
v -1.500001 3.187500 5.500000
v -1.437501 3.187500 5.500000
v -1.437501 4.187500 3.062500
v -1.437501 4.125000 3.062500
v -1.437501 3.125000 5.500000
v -1.500001 3.125000 5.500000
v -1.500001 4.125000 3.062500
v -1.500001 4.187500 2.937500
v -1.500001 4.218750 3.000000
v 0.499999 4.218750 3.000000
v 0.499999 4.187500 2.937500
v 0.499999 4.125000 2.937500
v 0.499999 4.125000 3.000000
v -1.500001 4.125000 3.000000
v -1.500001 4.125000 2.937500
v -1.500001 4.218750 3.000000
v -1.500001 4.187500 3.062500
v 0.499999 4.187500 3.062500
v 0.499999 4.218750 3.000000
v 0.499999 4.125000 3.000000
v 0.499999 4.125000 3.062500
v -1.500001 4.125000 3.062500
v -1.500001 4.125000 3.000000
v 0.437499 4.187500 3.062500
v 0.437499 3.187500 5.500000
v 0.499999 3.187500 5.500000
v 0.499999 4.187500 3.062500
v 0.499999 4.125000 3.062500
v 0.499999 3.125000 5.500000
v 0.437499 3.125000 5.500000
v 0.437499 4.125000 3.062500
v -1.437501 3.865625 3.843750
v -1.437501 3.840625 3.906250
v 0.437499 3.840625 3.906250
v 0.437499 3.865625 3.843750
v 0.437499 3.803125 3.843750
v 0.437499 3.778125 3.906250
v -1.437501 3.778125 3.906250
v -1.437501 3.803125 3.843750
v -1.437501 3.534375 4.656250
v -1.437501 3.509375 4.718750
v 0.437499 3.509375 4.718750
v 0.437499 3.534375 4.656250
v 0.437499 3.471875 4.656250
v 0.437499 3.446875 4.718750
v -1.437501 3.446875 4.718750
v -1.437501 3.471875 4.656250
v 0.437499 3.187500 0.500000
v 0.437499 4.187500 2.937500
v 0.499999 4.187500 2.937500
v 0.499999 3.187500 0.500000
v 0.499999 3.125000 0.500000
v 0.499999 4.125000 2.937500
v 0.437499 4.125000 2.937500
v 0.437499 3.125000 0.500000
v -1.500001 3.187500 0.500000
v -1.500001 4.187500 2.937500
v -1.437501 4.187500 2.937500
v -1.437501 3.187500 0.500000
v -1.437500 3.125000 0.500000
v -1.437501 4.125000 2.937500
v -1.500001 4.125000 2.937500
v -1.500000 3.125000 0.500000
v -1.437501 3.840625 2.093750
v -1.437501 3.865625 2.156250
v 0.437499 3.865625 2.156250
v 0.437499 3.840625 2.093750
v 0.437499 3.778125 2.093750
v 0.437499 3.803125 2.156250
v -1.437501 3.803125 2.156250
v -1.437501 3.778125 2.093750
v -1.446411 3.511035 1.282186
v -1.430968 3.534375 1.343408
v -0.618560 3.220803 1.258020
v -0.634003 3.197464 1.196799
v -0.656278 3.139115 1.199140
v -0.640835 3.162454 1.260361
v -1.453243 3.476026 1.345749
v -1.468686 3.452687 1.284528
v -1.437500 3.125000 0.406250
v -1.437501 3.187500 0.500000
v 0.437499 3.187500 0.500000
v 0.437499 3.125000 0.406250
v 0.437499 3.062500 0.406250
v 0.437499 3.062500 0.500000
v -1.437500 3.062500 0.500000
v -1.437500 3.062500 0.406250
v 0.437499 3.125000 0.406250
v 0.437499 3.187500 0.500000
v 0.499999 3.187500 0.500000
v 0.499999 3.125000 0.406250
v 0.500000 0.125000 0.406250
v 0.500000 0.125000 0.500000
v 0.437500 0.125000 0.500000
v 0.437500 0.125000 0.406250
v -1.500000 3.125000 0.406250
v -1.500001 3.187500 0.500000
v -1.437501 3.187500 0.500000
v -1.437500 3.125000 0.406250
v -1.437500 0.125000 0.406250
v -1.437500 0.125000 0.500000
v -1.500000 0.125000 0.500000
v -1.500000 0.125000 0.406250
v -1.500000 0.125000 0.406250
v -1.500000 0.125000 0.500000
v 0.500000 0.125000 0.500000
v 0.500000 0.125000 0.406250
v 0.500000 0.000000 0.375000
v 0.500000 0.000000 0.500000
v -1.500000 -0.000000 0.500000
v -1.500000 -0.000000 0.375000
v 0.038017 3.354249 1.281250
v 0.029058 3.377589 1.343750
v 0.437499 3.534375 1.343750
v 0.446459 3.511035 1.281250
v 0.468857 3.452687 1.281250
v 0.459897 3.476026 1.343750
v 0.051456 3.319240 1.343750
v 0.060415 3.295901 1.281250
v -1.437501 3.218750 0.468750
v -1.409183 3.874311 2.091075
v 0.465460 3.843971 2.070613
v 0.437142 3.188410 0.448288
v 0.436460 3.130469 0.471713
v 0.464778 3.786031 2.094038
v -1.409865 3.816371 2.114499
v -1.438183 3.160810 0.492175
vt 1.189453 0.742188
vt 1.193359 0.742188
vt 1.193359 0.992188
vt 1.189453 0.992188
vt 1.193359 0.742188
vt 1.197266 0.742188
vt 1.197266 0.992188
vt 1.193359 0.992188
vt 1.189453 0.726562
vt 1.193359 0.726562
vt 1.259766 0.742188
vt 1.255859 0.742188
vt 1.255859 0.726562
vt 1.259766 0.726562
vt 1.126953 0.742188
vt 1.126953 0.726562
vt 1.269531 0.984375
vt 1.273438 0.984375
vt 1.273438 0.992188
vt 1.269531 0.992188
vt 1.273438 0.984375
vt 1.277344 0.984375
vt 1.277344 0.992188
vt 1.273438 0.992188
vt 1.269531 0.609375
vt 1.273438 0.609375
vt 1.279297 0.984375
vt 1.275391 0.984375
vt 1.275391 0.609375
vt 1.279297 0.609375
vt 1.267578 0.984375
vt 1.267578 0.609375
vt 1.285156 0.984375
vt 1.289062 0.984375
vt 1.289062 0.992188
vt 1.285156 0.992188
vt 1.289062 0.984375
vt 1.292969 0.984375
vt 1.292969 0.992188
vt 1.289062 0.992188
vt 1.285156 0.609375
vt 1.289062 0.609375
vt 1.294922 0.984375
vt 1.291016 0.984375
vt 1.291016 0.609375
vt 1.294922 0.609375
vt 1.283203 0.984375
vt 1.283203 0.609375
vt 1.357422 0.757812
vt 1.361328 0.757812
vt 1.361328 0.992188
vt 1.357422 0.992188
vt 1.361328 0.757812
vt 1.365234 0.757812
vt 1.365234 0.992188
vt 1.361328 0.992188
vt 1.357422 0.750000
vt 1.361328 0.750000
vt 1.423828 0.757812
vt 1.419922 0.757812
vt 1.419922 0.750000
vt 1.423828 0.750000
vt 1.298828 0.757812
vt 1.298828 0.750000
vt 1.378906 0.984375
vt 1.455078 0.984375
vt 1.455078 0.992188
vt 1.378906 0.992188
vt 1.455078 0.984375
vt 1.531250 0.984375
vt 1.531250 0.992188
vt 1.455078 0.992188
vt 1.378906 0.976562
vt 1.455078 0.976562
vt 1.533203 0.984375
vt 1.457031 0.984375
vt 1.457031 0.976562
vt 1.533203 0.976562
vt 1.376953 0.984375
vt 1.376953 0.976562
vt 1.548828 0.742188
vt 1.550781 0.742188
vt 1.550781 0.992188
vt 1.548828 0.992188
vt 1.550781 0.742188
vt 1.552734 0.742188
vt 1.552734 0.992188
vt 1.550781 0.992188
vt 1.548828 0.734375
vt 1.550781 0.734375
vt 1.615234 0.742188
vt 1.613281 0.742188
vt 1.613281 0.734375
vt 1.615234 0.734375
vt 1.486328 0.742188
vt 1.486328 0.734375
vt 1.689453 0.742188
vt 1.691406 0.742188
vt 1.691406 0.992188
vt 1.689453 0.992188
vt 1.691406 0.742188
vt 1.693359 0.742188
vt 1.693359 0.992188
vt 1.691406 0.992188
vt 1.689453 0.734375
vt 1.691406 0.734375
vt 1.755859 0.742188
vt 1.753906 0.742188
vt 1.753906 0.734375
vt 1.755859 0.734375
vt 1.626953 0.742188
vt 1.626953 0.734375
vt 1.707031 0.984375
vt 1.783203 0.984375
vt 1.783203 0.992188
vt 1.707031 0.992188
vt 1.783203 0.984375
vt 1.859375 0.984375
vt 1.859375 0.992188
vt 1.783203 0.992188
vt 1.707031 0.976562
vt 1.783203 0.976562
vt 1.861328 0.984375
vt 1.785156 0.984375
vt 1.785156 0.976562
vt 1.861328 0.976562
vt 1.705078 0.984375
vt 1.705078 0.976562
vt 1.623047 0.757812
vt 1.625000 0.757812
vt 1.625000 0.992188
vt 1.623047 0.992188
vt 1.625000 0.757812
vt 1.626953 0.757812
vt 1.626953 0.992188
vt 1.625000 0.992188
vt 1.623047 0.750000
vt 1.625000 0.750000
vt 1.685547 0.757812
vt 1.683594 0.757812
vt 1.683594 0.750000
vt 1.685547 0.750000
vt 1.564453 0.757812
vt 1.564453 0.750000
vt 1.435547 0.695312
vt 1.437500 0.695312
vt 1.437500 0.929688
vt 1.435547 0.929688
vt 1.437500 0.695312
vt 1.439453 0.695312
vt 1.439453 0.929688
vt 1.437500 0.929688
vt 1.435547 0.687500
vt 1.437500 0.687500
vt 1.498047 0.695312
vt 1.496094 0.695312
vt 1.496094 0.687500
vt 1.498047 0.687500
vt 1.376953 0.695312
vt 1.376953 0.687500
vt 1.832031 0.734375
vt 1.908203 0.734375
vt 1.908203 0.742188
vt 1.832031 0.742188
vt 1.908203 0.734375
vt 1.984375 0.734375
vt 1.984375 0.742188
vt 1.908203 0.742188
vt 1.832031 0.726562
vt 1.908203 0.726562
vt 1.986328 0.734375
vt 1.910156 0.734375
vt 1.910156 0.726562
vt 1.986328 0.726562
vt 1.830078 0.734375
vt 1.830078 0.726562
vt 1.363281 0.671875
vt 1.439453 0.671875
vt 1.439453 0.679688
vt 1.363281 0.679688
vt 1.439453 0.671875
vt 1.515625 0.671875
vt 1.515625 0.679688
vt 1.439453 0.679688
vt 1.363281 0.664062
vt 1.439453 0.664062
vt 1.517578 0.671875
vt 1.441406 0.671875
vt 1.441406 0.664062
vt 1.517578 0.664062
vt 1.361328 0.671875
vt 1.361328 0.664062
vt 1.529297 0.445312
vt 1.531250 0.445312
vt 1.531250 0.679688
vt 1.529297 0.679688
vt 1.531250 0.445312
vt 1.533203 0.445312
vt 1.533203 0.679688
vt 1.531250 0.679688
vt 1.529297 0.437500
vt 1.531250 0.437500
vt 1.591797 0.445312
vt 1.589844 0.445312
vt 1.589844 0.437500
vt 1.591797 0.437500
vt 1.470703 0.445312
vt 1.470703 0.437500
vt 1.832031 0.421875
vt 1.833984 0.421875
vt 1.833984 0.531250
vt 1.832031 0.531250
vt 1.833984 0.421875
vt 1.835938 0.421875
vt 1.835938 0.531250
vt 1.833984 0.531250
vt 1.832031 0.414062
vt 1.833984 0.414062
vt 1.863281 0.421875
vt 1.861328 0.421875
vt 1.861328 0.414062
vt 1.863281 0.414062
vt 1.804688 0.421875
vt 1.804688 0.414062
vt 1.138672 0.382812
vt 1.142578 0.382812
vt 1.142578 0.617188
vt 1.138672 0.617188
vt 1.142578 0.382812
vt 1.146484 0.382812
vt 1.146484 0.617188
vt 1.142578 0.617188
vt 1.138672 0.375000
vt 1.142578 0.375000
vt 1.205078 0.382812
vt 1.201172 0.382812
vt 1.201172 0.375000
vt 1.205078 0.375000
vt 1.080078 0.382812
vt 1.080078 0.375000
vt 1.253906 0.671875
vt 1.257812 0.671875
vt 1.257812 0.679688
vt 1.253906 0.679688
vt 1.257812 0.671875
vt 1.261719 0.671875
vt 1.261719 0.679688
vt 1.257812 0.679688
vt 1.253906 0.296875
vt 1.257812 0.296875
vt 1.263672 0.671875
vt 1.259766 0.671875
vt 1.259766 0.296875
vt 1.263672 0.296875
vt 1.251953 0.671875
vt 1.251953 0.296875
vt 1.597656 0.671875
vt 1.601562 0.671875
vt 1.601562 0.679688
vt 1.597656 0.679688
vt 1.601562 0.671875
vt 1.605469 0.671875
vt 1.605469 0.679688
vt 1.601562 0.679688
vt 1.597656 0.296875
vt 1.601562 0.296875
vt 1.607422 0.671875
vt 1.603516 0.671875
vt 1.603516 0.296875
vt 1.607422 0.296875
vt 1.595703 0.671875
vt 1.595703 0.296875
vt 1.830078 0.429688
vt 1.833984 0.429688
vt 1.833984 0.679688
vt 1.830078 0.679688
vt 1.833984 0.429688
vt 1.837891 0.429688
vt 1.837891 0.679688
vt 1.833984 0.679688
vt 1.830078 0.414062
vt 1.833984 0.414062
vt 1.900391 0.429688
vt 1.896484 0.429688
vt 1.896484 0.414062
vt 1.900391 0.414062
vt 1.767578 0.429688
vt 1.767578 0.414062
vt 1.359375 0.757812
vt 1.361328 0.757812
vt 1.361328 0.812500
vt 1.359375 0.812500
vt 1.361328 0.757812
vt 1.363281 0.757812
vt 1.363281 0.812500
vt 1.361328 0.812500
vt 1.359375 0.750000
vt 1.361328 0.750000
vt 1.376953 0.757812
vt 1.375000 0.757812
vt 1.375000 0.750000
vt 1.376953 0.750000
vt 1.345703 0.757812
vt 1.345703 0.750000
vt 1.654297 0.125000
vt 1.708984 0.125000
vt 1.708984 0.359375
vt 1.654297 0.359375
vt 1.708984 0.125000
vt 1.763672 0.125000
vt 1.763672 0.359375
vt 1.708984 0.359375
vt 1.654297 0.117188
vt 1.708984 0.117188
vt 1.822266 0.125000
vt 1.767578 0.125000
vt 1.767578 0.117188
vt 1.822266 0.117188
vt 1.595703 0.125000
vt 1.595703 0.117188
vn -0.0000 1.0000 0.0000
vn 0.0000 -1.0000 0.0000
vn -1.0000 0.0000 0.0000
vn 1.0000 0.0000 0.0000
vn 0.0000 0.2425 0.9701
vn -0.0000 0.0000 -1.0000
vn 0.0000 0.8321 0.5547
vn -0.0000 0.0000 1.0000
vn -0.0000 0.9252 0.3796
vn 0.0000 -0.9252 -0.3796
vn -0.0000 0.8944 -0.4472
vn -0.0000 0.8944 0.4472
vn -0.0000 0.9285 0.3714
vn 0.0000 -0.9285 -0.3714
vn 0.0000 0.9252 -0.3796
vn 0.0000 -0.9252 0.3796
vn -0.0000 0.9285 -0.3714
vn 0.0000 -0.9285 0.3714
vn 0.2921 0.8668 -0.4041
vn -0.2921 -0.8668 0.4041
vn -0.9285 0.3584 0.0976
vn 0.9285 -0.3584 -0.0976
vn 0.1045 -0.0000 0.9945
vn -0.1045 -0.0000 -0.9945
vn -0.0000 0.8321 -0.5547
vn -0.0000 0.2425 -0.9701
vn -0.3327 0.8668 -0.3714
vn 0.3327 -0.8668 0.3714
vn -0.9336 -0.3584 0.0000
vn 0.9336 0.3584 0.0000
vn 0.0109 0.9270 -0.3748
vn -0.0109 -0.9270 0.3748
vn -0.9998 0.0162 0.0109
vn 0.9998 -0.0162 -0.0109
vn 0.0162 0.3746 0.9270
vn -0.0162 -0.3746 -0.9270
usemtl ModelMaterial
s off
f 49/97/13 50/98/13 51/99/13 52/100/13
f 53/101/14 54/102/14 55/103/14 56/104/14
f 50/98/15 49/97/15 56/105/15 55/106/15
f 52/107/16 51/108/16 54/109/16 53/110/16
f 51/108/17 50/98/17 55/106/17 54/109/17
f 49/97/18 52/111/18 53/112/18 56/105/18
f 57/113/19 58/114/19 59/115/19 60/116/19
f 61/117/14 62/118/14 63/119/14 64/120/14
f 58/114/15 57/113/15 64/121/15 63/122/15
f 60/123/16 59/124/16 62/125/16 61/126/16
f 59/124/20 58/114/20 63/122/20 62/125/20
f 57/113/18 60/127/18 61/128/18 64/121/18
f 65/129/19 66/130/19 67/131/19 68/132/19
f 69/133/14 70/134/14 71/135/14 72/136/14
f 66/130/15 65/129/15 72/137/15 71/138/15
f 68/139/16 67/140/16 70/141/16 69/142/16
f 67/140/20 66/130/20 71/138/20 70/141/20
f 65/129/18 68/143/18 69/144/18 72/137/18
f 73/145/19 74/146/19 75/147/19 76/148/19
f 77/149/14 78/150/14 79/151/14 80/152/14
f 74/146/15 73/145/15 80/153/15 79/154/15
f 76/155/16 75/156/16 78/157/16 77/158/16
f 75/156/20 74/146/20 79/154/20 78/157/20
f 73/145/18 76/159/18 77/160/18 80/153/18
f 81/161/21 82/162/21 83/163/21 84/164/21
f 85/165/22 86/166/22 87/167/22 88/168/22
f 82/162/15 81/161/15 88/169/15 87/170/15
f 84/171/16 83/172/16 86/173/16 85/174/16
f 83/172/20 82/162/20 87/170/20 86/173/20
f 81/161/18 84/175/18 85/176/18 88/169/18
f 89/177/23 90/178/23 91/179/23 92/180/23
f 93/181/14 94/182/14 95/183/14 96/184/14
f 90/178/15 89/177/15 96/185/15 95/186/15
f 92/187/16 91/188/16 94/189/16 93/190/16
f 91/188/20 90/178/20 95/186/20 94/189/20
f 89/177/18 92/191/18 93/192/18 96/185/18
f 97/193/24 98/194/24 99/195/24 100/196/24
f 101/197/14 102/198/14 103/199/14 104/200/14
f 98/194/15 97/193/15 104/201/15 103/202/15
f 100/203/16 99/204/16 102/205/16 101/206/16
f 99/204/20 98/194/20 103/202/20 102/205/20
f 97/193/18 100/207/18 101/208/18 104/201/18
f 105/209/21 106/210/21 107/211/21 108/212/21
f 109/213/22 110/214/22 111/215/22 112/216/22
f 106/210/15 105/209/15 112/217/15 111/218/15
f 108/219/16 107/220/16 110/221/16 109/222/16
f 107/220/20 106/210/20 111/218/20 110/221/20
f 105/209/18 108/223/18 109/224/18 112/217/18
f 113/225/25 114/226/25 115/227/25 116/228/25
f 117/229/26 118/230/26 119/231/26 120/232/26
f 114/226/15 113/225/15 120/233/15 119/234/15
f 116/235/16 115/236/16 118/237/16 117/238/16
f 115/236/20 114/226/20 119/234/20 118/237/20
f 113/225/18 116/239/18 117/240/18 120/233/18
f 121/241/25 122/242/25 123/243/25 124/244/25
f 125/245/26 126/246/26 127/247/26 128/248/26
f 122/242/15 121/241/15 128/249/15 127/250/15
f 124/251/16 123/252/16 126/253/16 125/254/16
f 123/252/20 122/242/20 127/250/20 126/253/20
f 121/241/18 124/255/18 125/256/18 128/249/18
f 129/257/27 130/258/27 131/259/27 132/260/27
f 133/261/28 134/262/28 135/263/28 136/264/28
f 130/258/15 129/257/15 136/265/15 135/266/15
f 132/267/16 131/268/16 134/269/16 133/270/16
f 131/268/20 130/258/20 135/266/20 134/269/20
f 129/257/18 132/271/18 133/272/18 136/265/18
f 137/273/27 138/274/27 139/275/27 140/276/27
f 141/277/28 142/278/28 143/279/28 144/280/28
f 138/274/15 137/273/15 144/281/15 143/282/15
f 140/283/16 139/284/16 142/285/16 141/286/16
f 139/284/20 138/274/20 143/282/20 142/285/20
f 137/273/18 140/287/18 141/288/18 144/281/18
f 145/289/29 146/290/29 147/291/29 148/292/29
f 149/293/30 150/294/30 151/295/30 152/296/30
f 146/290/15 145/289/15 152/297/15 151/298/15
f 148/299/16 147/300/16 150/301/16 149/302/16
f 147/300/20 146/290/20 151/298/20 150/301/20
f 145/289/18 148/303/18 149/304/18 152/297/18
f 153/305/31 154/306/31 155/307/31 156/308/31
f 157/309/32 158/310/32 159/311/32 160/312/32
f 154/306/33 153/305/33 160/313/33 159/314/33
f 156/315/34 155/316/34 158/317/34 157/318/34
f 155/316/35 154/306/35 159/314/35 158/317/35
f 153/305/36 156/319/36 157/320/36 160/313/36
f 161/321/37 162/322/37 163/323/37 164/324/37
f 165/325/14 166/326/14 167/327/14 168/328/14
f 162/322/15 161/321/15 168/329/15 167/330/15
f 164/331/16 163/332/16 166/333/16 165/334/16
f 163/332/20 162/322/20 167/330/20 166/333/20
f 161/321/18 164/335/18 165/336/18 168/329/18
f 169/337/37 170/338/37 171/339/37 172/340/37
f 173/341/14 174/342/14 175/343/14 176/344/14
f 170/338/15 169/337/15 176/345/15 175/346/15
f 172/347/16 171/348/16 174/349/16 173/350/16
f 171/348/20 170/338/20 175/346/20 174/349/20
f 169/337/18 172/351/18 173/352/18 176/345/18
f 177/353/37 178/354/37 179/355/37 180/356/37
f 181/357/14 182/358/14 183/359/14 184/360/14
f 178/354/15 177/353/15 184/361/15 183/362/15
f 180/363/16 179/364/16 182/365/16 181/366/16
f 179/364/20 178/354/20 183/362/20 182/365/20
f 177/353/18 180/367/18 181/368/18 184/361/18
f 185/369/13 186/370/13 187/371/13 188/372/13
f 189/373/14 190/374/14 191/375/14 192/376/14
f 186/370/15 185/369/15 192/377/15 191/378/15
f 188/379/16 187/380/16 190/381/16 189/382/16
f 187/380/20 186/370/20 191/378/20 190/381/20
f 185/369/38 188/383/38 189/384/38 192/377/38
f 193/385/39 194/386/39 195/387/39 196/388/39
f 197/389/40 198/390/40 199/391/40 200/392/40
f 194/386/41 193/385/41 200/393/41 199/394/41
f 196/395/42 195/396/42 198/397/42 197/398/42
f 195/396/20 194/386/20 199/394/20 198/397/20
f 193/385/18 196/399/18 197/400/18 200/393/18
f 201/401/43 202/402/43 203/403/43 204/404/43
f 205/405/44 206/406/44 207/407/44 208/408/44
f 202/402/45 201/401/45 208/409/45 207/410/45
f 204/411/46 203/412/46 206/413/46 205/414/46
f 203/412/47 202/402/47 207/410/47 206/413/47
f 201/401/48 204/415/48 205/416/48 208/409/48
