# Blender v2.79 (sub 0) OBJ File: ''
# www.blender.org
mtllib rim_showcase_shelf_backwall.mtl
o rim_showcase_shelf_backwall
v -0.500000 1.000000 0.312500
v -0.500000 1.000000 0.500000
v 0.500000 1.000000 0.500000
v 0.500000 1.000000 0.312500
v 0.500000 0.000000 0.312500
v 0.500000 0.000000 0.500000
v -0.500000 -0.000000 0.500000
v -0.500000 -0.000000 0.312500
v -0.062500 1.000000 0.187500
v -0.062500 1.000000 0.312500
v 0.062500 1.000000 0.312500
v 0.062500 1.000000 0.187500
v 0.062500 0.000000 0.187500
v 0.062500 0.000000 0.312500
v -0.062500 -0.000000 0.312500
v -0.062500 -0.000000 0.187500
v 0.062500 1.000000 0.250000
v 0.062500 1.000000 0.312500
v 0.500000 1.000000 0.312500
v 0.500000 1.000000 0.312500
v 0.500000 0.937500 0.312500
v 0.500000 0.937500 0.312500
v 0.062500 0.937500 0.312500
v 0.062500 0.937500 0.250000
v -0.500000 1.000000 0.312500
v -0.500000 1.000000 0.312500
v -0.062500 1.000000 0.312500
v -0.062500 1.000000 0.250000
v -0.062500 0.937500 0.250000
v -0.062500 0.937500 0.312500
v -0.500000 0.937500 0.312500
v -0.500000 0.937500 0.312500
vt 1.132812 0.867188
vt 1.156250 0.867188
vt 1.156250 0.992188
vt 1.132812 0.992188
vt 1.156250 0.867188
vt 1.179688 0.867188
vt 1.179688 0.992188
vt 1.156250 0.992188
vt 1.132812 0.742188
vt 1.156250 0.742188
vt 1.304688 0.867188
vt 1.281250 0.867188
vt 1.281250 0.742188
vt 1.304688 0.742188
vt 1.007812 0.867188
vt 1.007812 0.742188
vt 1.335938 0.789062
vt 1.351562 0.789062
vt 1.351562 0.804688
vt 1.335938 0.804688
vt 1.351562 0.789062
vt 1.367188 0.789062
vt 1.367188 0.804688
vt 1.351562 0.804688
vt 1.335938 0.664062
vt 1.351562 0.664062
vt 1.382812 0.789062
vt 1.367188 0.789062
vt 1.367188 0.664062
vt 1.382812 0.664062
vt 1.320312 0.789062
vt 1.320312 0.664062
vt 1.875000 0.875000
vt 1.882812 0.875000
vt 1.882812 0.929688
vt 1.875000 0.929688
vt 1.882812 0.875000
vt 1.890625 0.875000
vt 1.890625 0.929688
vt 1.882812 0.929688
vt 1.875000 0.867188
vt 1.882812 0.867188
vt 1.945312 0.875000
vt 1.937500 0.875000
vt 1.937500 0.867188
vt 1.945312 0.867188
vt 1.820312 0.875000
vt 1.820312 0.867188
vt 1.500000 0.750000
vt 1.507812 0.750000
vt 1.507812 0.804688
vt 1.500000 0.804688
vt 1.507812 0.750000
vt 1.515625 0.750000
vt 1.515625 0.804688
vt 1.507812 0.804688
vt 1.500000 0.742188
vt 1.507812 0.742188
vt 1.570312 0.750000
vt 1.562500 0.750000
vt 1.562500 0.742188
vt 1.570312 0.742188
vt 1.445312 0.750000
vt 1.445312 0.742188
vn -0.0000 1.0000 0.0000
vn 0.0000 -1.0000 0.0000
vn -1.0000 -0.0000 0.0000
vn 1.0000 0.0000 0.0000
vn -0.0000 -0.0000 1.0000
vn 0.0000 0.0000 -1.0000
vn 0.1414 0.0000 -0.9899
vn -0.1414 0.0000 -0.9899
usemtl ModelMaterial
s off
f 1/1/1 2/2/1 3/3/1 4/4/1
f 5/5/2 6/6/2 7/7/2 8/8/2
f 2/2/3 1/1/3 8/9/3 7/10/3
f 4/11/4 3/12/4 6/13/4 5/14/4
f 3/12/5 2/2/5 7/10/5 6/13/5
f 1/1/6 4/15/6 5/16/6 8/9/6
f 9/17/1 10/18/1 11/19/1 12/20/1
f 13/21/2 14/22/2 15/23/2 16/24/2
f 10/18/3 9/17/3 16/25/3 15/26/3
f 12/27/4 11/28/4 14/29/4 13/30/4
f 11/28/5 10/18/5 15/26/5 14/29/5
f 9/17/6 12/31/6 13/32/6 16/25/6
f 17/33/1 18/34/1 19/35/1 20/36/1
f 21/37/2 22/38/2 23/39/2 24/40/2
f 18/34/3 17/33/3 24/41/3 23/42/3
f 20/43/5 19/44/5 22/45/5 21/46/5
f 19/44/5 18/34/5 23/42/5 22/45/5
f 17/33/7 20/47/7 21/48/7 24/41/7
f 25/49/1 26/50/1 27/51/1 28/52/1
f 29/53/2 30/54/2 31/55/2 32/56/2
f 26/50/5 25/49/5 32/57/5 31/58/5
f 28/59/4 27/60/4 30/61/4 29/62/4
f 27/60/5 26/50/5 31/58/5 30/61/5
f 25/49/8 28/63/8 29/64/8 32/57/8
