# Blender v2.79 (sub 0) OBJ File: ''
# www.blender.org
mtllib vegetation_pottable_palm_fan_small_1.mtl
o vegetation_pottable_palm_fan_small_1
v -0.011297 0.722856 -0.624228
v 0.401176 0.722856 -0.478378
v 0.407615 0.663415 -0.496587
v -0.004858 0.663415 -0.642437
v -0.203017 0.470279 -0.082029
v 0.209456 0.470279 0.063821
v 0.203017 0.529721 0.082029
v -0.209456 0.529721 -0.063820
v -0.609625 0.743128 -0.093269
v -0.394366 0.743128 -0.474149
v -0.412976 0.684397 -0.484667
v -0.628235 0.684397 -0.103786
v -0.116935 0.470635 0.185181
v 0.098325 0.470635 -0.195699
v 0.116935 0.529365 -0.185181
v -0.098325 0.529365 0.195699
v -0.278709 0.702313 0.566431
v -0.580011 0.702313 0.249219
v -0.592502 0.642234 0.261083
v -0.291200 0.642234 0.578295
v 0.144405 0.469961 0.164538
v -0.156896 0.469961 -0.152674
v -0.144406 0.530039 -0.164538
v 0.156896 0.530039 0.152674
v 0.233798 0.763104 0.561755
v -0.203547 0.763103 0.573409
v -0.202923 0.705154 0.596814
v 0.234421 0.705155 0.585159
v 0.218984 0.471025 0.005875
v -0.218361 0.471025 0.017530
v -0.218984 0.528974 -0.005875
v 0.218360 0.528974 -0.017530
v 0.544958 0.875403 -0.039326
v 0.399108 0.875403 0.373147
v 0.432058 0.823588 0.384798
v 0.577908 0.823588 -0.027675
v 0.089400 0.474093 -0.200411
v -0.056450 0.474093 0.212062
v -0.089400 0.525907 0.200411
v 0.056450 0.525907 -0.212062
v -0.377789 0.925681 -0.339888
v 0.026331 0.925681 -0.507499
v 0.010939 0.877803 -0.544608
v -0.393180 0.877803 -0.376997
v -0.209756 0.476061 0.065251
v 0.194364 0.476061 -0.102360
v 0.209755 0.523939 -0.065251
v -0.194364 0.523939 0.102360
v 0.131000 0.875403 -0.530438
v 0.478215 0.875403 -0.264266
v 0.499478 0.823588 -0.292003
v 0.152263 0.823588 -0.558175
v -0.162976 0.474093 -0.146955
v 0.184239 0.474093 0.119218
v 0.162976 0.525907 0.146955
v -0.184239 0.525907 -0.119218
v -0.379599 0.901092 0.366719
v -0.525830 0.901092 -0.045619
v -0.561280 0.851177 -0.033047
v -0.415049 0.851177 0.379291
v 0.055390 0.475043 0.212455
v -0.090841 0.475043 -0.199883
v -0.055391 0.524957 -0.212455
v 0.090841 0.524957 0.199883
v 0.060861 1.061788 0.346618
v -0.323718 1.061788 0.138039
v -0.349779 1.031487 0.186090
v 0.034800 1.031487 0.394669
v 0.179259 0.484850 0.128315
v -0.205320 0.484850 -0.080264
v -0.179259 0.515150 -0.128315
v 0.205320 0.515150 0.080264
v 0.387862 1.029894 0.090711
v 0.070650 1.029894 0.392013
v 0.105909 0.994046 0.429133
v 0.423121 0.994046 0.127832
v 0.176235 0.482076 -0.132090
v -0.140977 0.482076 0.169211
v -0.176235 0.517924 0.132091
v 0.140977 0.517924 -0.169211
v -0.104659 1.046590 -0.360193
v 0.307814 1.046590 -0.214343
v 0.325484 1.013470 -0.264314
v -0.086989 1.013470 -0.410164
v -0.197402 0.483440 -0.097910
v 0.215071 0.483440 0.047939
v 0.197402 0.516560 0.097910
v -0.215071 0.516560 -0.047939
v -0.316073 1.075445 0.091726
v -0.127907 1.075445 -0.303242
v -0.178620 1.048047 -0.327402
v -0.366786 1.048047 0.067566
v -0.119440 0.486301 0.185404
v 0.068726 0.486301 -0.209564
v 0.119440 0.513699 -0.185404
v -0.068726 0.513699 0.209564
v -0.039880 0.500000 0.019045
v 0.019044 0.500000 0.039880
v 0.039880 0.500000 -0.019044
v -0.019045 0.500000 -0.039880
v -0.038089 0.000000 -0.079760
v 0.079760 0.000000 -0.038089
v 0.038089 -0.000000 0.079760
v -0.079760 -0.000000 0.038089
v -0.079760 -0.000000 0.038089
v 0.038089 -0.000000 0.079760
v 0.079760 0.000000 -0.038089
v -0.038089 0.000000 -0.079760
v -0.038089 -0.500000 -0.079760
v 0.079760 -0.500000 -0.038089
v 0.038089 -0.500000 0.079760
v -0.079760 -0.500000 0.038089
vt 1.015625 0.968750
vt 1.070312 0.968750
vt 1.070312 0.984375
vt 1.015625 0.984375
vt 1.070312 0.968750
vt 1.125000 0.968750
vt 1.125000 0.984375
vt 1.070312 0.984375
vt 1.015625 0.812500
vt 1.070312 0.812500
vt 1.132812 0.968750
vt 1.078125 0.968750
vt 1.078125 0.812500
vt 1.132812 0.812500
vt 1.007812 0.968750
vt 1.007812 0.812500
vt 1.203125 0.968750
vt 1.257812 0.968750
vt 1.257812 0.984375
vt 1.203125 0.984375
vt 1.257812 0.968750
vt 1.312500 0.968750
vt 1.312500 0.984375
vt 1.257812 0.984375
vt 1.203125 0.812500
vt 1.257812 0.812500
vt 1.320312 0.968750
vt 1.265625 0.968750
vt 1.265625 0.812500
vt 1.320312 0.812500
vt 1.195312 0.968750
vt 1.195312 0.812500
vt 1.390625 0.968750
vt 1.445312 0.968750
vt 1.445312 0.984375
vt 1.390625 0.984375
vt 1.445312 0.968750
vt 1.500000 0.968750
vt 1.500000 0.984375
vt 1.445312 0.984375
vt 1.390625 0.812500
vt 1.445312 0.812500
vt 1.507812 0.968750
vt 1.453125 0.968750
vt 1.453125 0.812500
vt 1.507812 0.812500
vt 1.382812 0.968750
vt 1.382812 0.812500
vt 1.578125 0.968750
vt 1.632812 0.968750
vt 1.632812 0.984375
vt 1.578125 0.984375
vt 1.632812 0.968750
vt 1.687500 0.968750
vt 1.687500 0.984375
vt 1.632812 0.984375
vt 1.578125 0.812500
vt 1.632812 0.812500
vt 1.695312 0.968750
vt 1.640625 0.968750
vt 1.640625 0.812500
vt 1.695312 0.812500
vt 1.570312 0.968750
vt 1.570312 0.812500
vt 1.765625 0.968750
vt 1.820312 0.968750
vt 1.820312 0.984375
vt 1.765625 0.984375
vt 1.820312 0.968750
vt 1.875000 0.968750
vt 1.875000 0.984375
vt 1.820312 0.984375
vt 1.765625 0.812500
vt 1.820312 0.812500
vt 1.882812 0.968750
vt 1.828125 0.968750
vt 1.828125 0.812500
vt 1.882812 0.812500
vt 1.757812 0.968750
vt 1.757812 0.812500
vt 1.015625 0.718750
vt 1.070312 0.718750
vt 1.070312 0.734375
vt 1.015625 0.734375
vt 1.070312 0.718750
vt 1.125000 0.718750
vt 1.125000 0.734375
vt 1.070312 0.734375
vt 1.015625 0.562500
vt 1.070312 0.562500
vt 1.132812 0.718750
vt 1.078125 0.718750
vt 1.078125 0.562500
vt 1.132812 0.562500
vt 1.007812 0.718750
vt 1.007812 0.562500
vt 1.203125 0.718750
vt 1.257812 0.718750
vt 1.257812 0.734375
vt 1.203125 0.734375
vt 1.257812 0.718750
vt 1.312500 0.718750
vt 1.312500 0.734375
vt 1.257812 0.734375
vt 1.203125 0.562500
vt 1.257812 0.562500
vt 1.320312 0.718750
vt 1.265625 0.718750
vt 1.265625 0.562500
vt 1.320312 0.562500
vt 1.195312 0.718750
vt 1.195312 0.562500
vt 1.390625 0.718750
vt 1.445312 0.718750
vt 1.445312 0.734375
vt 1.390625 0.734375
vt 1.445312 0.718750
vt 1.500000 0.718750
vt 1.500000 0.734375
vt 1.445312 0.734375
vt 1.390625 0.562500
vt 1.445312 0.562500
vt 1.507812 0.718750
vt 1.453125 0.718750
vt 1.453125 0.562500
vt 1.507812 0.562500
vt 1.382812 0.718750
vt 1.382812 0.562500
vt 1.578125 0.718750
vt 1.632812 0.718750
vt 1.632812 0.734375
vt 1.578125 0.734375
vt 1.632812 0.718750
vt 1.687500 0.718750
vt 1.687500 0.734375
vt 1.632812 0.734375
vt 1.578125 0.562500
vt 1.632812 0.562500
vt 1.695312 0.718750
vt 1.640625 0.718750
vt 1.640625 0.562500
vt 1.695312 0.562500
vt 1.570312 0.718750
vt 1.570312 0.562500
vt 1.765625 0.718750
vt 1.820312 0.718750
vt 1.820312 0.734375
vt 1.765625 0.734375
vt 1.820312 0.718750
vt 1.875000 0.718750
vt 1.875000 0.734375
vt 1.820312 0.734375
vt 1.765625 0.562500
vt 1.820312 0.562500
vt 1.882812 0.718750
vt 1.828125 0.718750
vt 1.828125 0.562500
vt 1.882812 0.562500
vt 1.757812 0.718750
vt 1.757812 0.562500
vt 1.015625 0.468750
vt 1.070312 0.468750
vt 1.070312 0.484375
vt 1.015625 0.484375
vt 1.070312 0.468750
vt 1.125000 0.468750
vt 1.125000 0.484375
vt 1.070312 0.484375
vt 1.015625 0.312500
vt 1.070312 0.312500
vt 1.132812 0.468750
vt 1.078125 0.468750
vt 1.078125 0.312500
vt 1.132812 0.312500
vt 1.007812 0.468750
vt 1.007812 0.312500
vt 1.203125 0.468750
vt 1.257812 0.468750
vt 1.257812 0.484375
vt 1.203125 0.484375
vt 1.257812 0.468750
vt 1.312500 0.468750
vt 1.312500 0.484375
vt 1.257812 0.484375
vt 1.203125 0.312500
vt 1.257812 0.312500
vt 1.320312 0.468750
vt 1.265625 0.468750
vt 1.265625 0.312500
vt 1.320312 0.312500
vt 1.195312 0.468750
vt 1.195312 0.312500
vt 1.398438 0.453125
vt 1.414062 0.453125
vt 1.414062 0.484375
vt 1.398438 0.484375
vt 1.414062 0.453125
vt 1.429688 0.453125
vt 1.429688 0.484375
vt 1.414062 0.484375
vt 1.398438 0.328125
vt 1.414062 0.328125
vt 1.445312 0.453125
vt 1.429688 0.453125
vt 1.429688 0.328125
vt 1.445312 0.328125
vt 1.382812 0.453125
vt 1.382812 0.328125
vt 1.398438 0.453125
vt 1.414062 0.453125
vt 1.414062 0.484375
vt 1.398438 0.484375
vt 1.414062 0.453125
vt 1.429688 0.453125
vt 1.429688 0.484375
vt 1.414062 0.484375
vt 1.398438 0.328125
vt 1.414062 0.328125
vt 1.445312 0.453125
vt 1.429688 0.453125
vt 1.429688 0.328125
vt 1.445312 0.328125
vt 1.382812 0.453125
vt 1.382812 0.328125
vn 0.3171 0.3090 -0.8967
vn -0.3171 -0.3090 0.8967
vn -0.1030 0.9511 0.2913
vn 0.1030 -0.9511 -0.2913
vn 0.9428 -0.0000 0.3334
vn -0.9428 -0.0000 -0.3334
vn -0.8181 0.3420 -0.4623
vn 0.8181 -0.3420 0.4623
vn 0.2978 0.9397 0.1683
vn -0.2978 -0.9397 -0.1683
vn 0.4920 -0.0000 -0.8706
vn -0.4920 -0.0000 0.8706
vn -0.6970 0.2756 0.6620
vn 0.6970 -0.2756 -0.6620
vn 0.1999 0.9613 -0.1898
vn -0.1999 -0.9613 0.1898
vn -0.6887 0.0000 -0.7251
vn 0.6887 0.0000 0.7251
vn 0.0247 0.3746 0.9269
vn -0.0247 -0.3746 -0.9269
vn -0.0100 0.9272 -0.3745
vn 0.0100 -0.9272 0.3745
vn -0.9996 -0.0000 0.0266
vn 0.9996 0.0000 -0.0266
vn 0.7816 0.5592 0.2764
vn -0.7816 -0.5592 -0.2764
vn -0.5272 0.8290 -0.1864
vn 0.5272 -0.8290 0.1864
vn -0.3334 -0.0000 0.9428
vn 0.3334 0.0000 -0.9428
vn -0.2935 0.6428 -0.7076
vn 0.2935 -0.6428 0.7076
vn 0.2463 0.7660 0.5937
vn -0.2463 -0.7660 -0.5937
vn 0.9237 0.0000 -0.3831
vn -0.9237 0.0000 0.3831
vn 0.5044 0.5592 -0.6580
vn -0.5044 -0.5592 0.6580
vn -0.3402 0.8290 0.4438
vn 0.3402 -0.8290 -0.4438
vn 0.7936 0.0000 0.6084
vn -0.7936 -0.0000 -0.6084
vn -0.7527 0.6018 0.2669
vn 0.7527 -0.6018 -0.2669
vn 0.5672 0.7986 -0.2012
vn -0.5672 -0.7986 0.2012
vn -0.3342 0.0000 -0.9425
vn 0.3342 -0.0000 0.9425
vn -0.2311 0.8746 0.4262
vn 0.2311 -0.8746 -0.4262
vn 0.4170 0.4848 -0.7688
vn -0.4170 -0.4848 0.7688
vn -0.8790 0.0000 -0.4768
vn 0.8790 -0.0000 0.4768
vn 0.3950 0.8192 0.4159
vn -0.3950 -0.8192 -0.4159
vn -0.5641 0.5736 -0.5939
vn 0.5641 -0.5736 0.5939
vn -0.7251 -0.0000 0.6887
vn 0.7251 0.0000 -0.6887
vn 0.1767 0.8480 -0.4996
vn -0.1767 -0.8480 0.4996
vn -0.2827 0.5299 0.7995
vn 0.2827 -0.5299 -0.7995
vn -0.3958 0.8988 -0.1885
vn 0.3958 -0.8988 0.1885
vn 0.8114 0.4384 0.3866
vn -0.8114 -0.4384 -0.3866
vn 0.4301 0.0000 -0.9028
vn -0.4301 -0.0000 0.9028
vn 0.0000 1.0000 0.0000
vn 0.0000 -1.0000 -0.0000
vn -0.3327 0.0624 0.9410
vn 0.3327 0.0624 -0.9410
vn 0.9410 0.0624 0.3327
vn -0.9410 0.0624 -0.3327
usemtl ModelMaterial
s off
f 1/1/1 2/2/1 3/3/1 4/4/1
f 5/5/2 6/6/2 7/7/2 8/8/2
f 2/2/3 1/1/3 8/9/3 7/10/3
f 4/11/4 3/12/4 6/13/4 5/14/4
f 3/12/5 2/2/5 7/10/5 6/13/5
f 1/1/6 4/15/6 5/16/6 8/9/6
f 9/17/7 10/18/7 11/19/7 12/20/7
f 13/21/8 14/22/8 15/23/8 16/24/8
f 10/18/9 9/17/9 16/25/9 15/26/9
f 12/27/10 11/28/10 14/29/10 13/30/10
f 11/28/11 10/18/11 15/26/11 14/29/11
f 9/17/12 12/31/12 13/32/12 16/25/12
f 17/33/13 18/34/13 19/35/13 20/36/13
f 21/37/14 22/38/14 23/39/14 24/40/14
f 18/34/15 17/33/15 24/41/15 23/42/15
f 20/43/16 19/44/16 22/45/16 21/46/16
f 19/44/17 18/34/17 23/42/17 22/45/17
f 17/33/18 20/47/18 21/48/18 24/41/18
f 25/49/19 26/50/19 27/51/19 28/52/19
f 29/53/20 30/54/20 31/55/20 32/56/20
f 26/50/21 25/49/21 32/57/21 31/58/21
f 28/59/22 27/60/22 30/61/22 29/62/22
f 27/60/23 26/50/23 31/58/23 30/61/23
f 25/49/24 28/63/24 29/64/24 32/57/24
f 33/65/25 34/66/25 35/67/25 36/68/25
f 37/69/26 38/70/26 39/71/26 40/72/26
f 34/66/27 33/65/27 40/73/27 39/74/27
f 36/75/28 35/76/28 38/77/28 37/78/28
f 35/76/29 34/66/29 39/74/29 38/77/29
f 33/65/30 36/79/30 37/80/30 40/73/30
f 41/81/31 42/82/31 43/83/31 44/84/31
f 45/85/32 46/86/32 47/87/32 48/88/32
f 42/82/33 41/81/33 48/89/33 47/90/33
f 44/91/34 43/92/34 46/93/34 45/94/34
f 43/92/35 42/82/35 47/90/35 46/93/35
f 41/81/36 44/95/36 45/96/36 48/89/36
f 49/97/37 50/98/37 51/99/37 52/100/37
f 53/101/38 54/102/38 55/103/38 56/104/38
f 50/98/39 49/97/39 56/105/39 55/106/39
f 52/107/40 51/108/40 54/109/40 53/110/40
f 51/108/41 50/98/41 55/106/41 54/109/41
f 49/97/42 52/111/42 53/112/42 56/105/42
f 57/113/43 58/114/43 59/115/43 60/116/43
f 61/117/44 62/118/44 63/119/44 64/120/44
f 58/114/45 57/113/45 64/121/45 63/122/45
f 60/123/46 59/124/46 62/125/46 61/126/46
f 59/124/47 58/114/47 63/122/47 62/125/47
f 57/113/48 60/127/48 61/128/48 64/121/48
f 65/129/49 66/130/49 67/131/49 68/132/49
f 69/133/50 70/134/50 71/135/50 72/136/50
f 66/130/51 65/129/51 72/137/51 71/138/51
f 68/139/52 67/140/52 70/141/52 69/142/52
f 67/140/53 66/130/53 71/138/53 70/141/53
f 65/129/54 68/143/54 69/144/54 72/137/54
f 73/145/55 74/146/55 75/147/55 76/148/55
f 77/149/56 78/150/56 79/151/56 80/152/56
f 74/146/57 73/145/57 80/153/57 79/154/57
f 76/155/58 75/156/58 78/157/58 77/158/58
f 75/156/59 74/146/59 79/154/59 78/157/59
f 73/145/60 76/159/60 77/160/60 80/153/60
f 81/161/61 82/162/61 83/163/61 84/164/61
f 85/165/62 86/166/62 87/167/62 88/168/62
f 82/162/63 81/161/63 88/169/63 87/170/63
f 84/171/64 83/172/64 86/173/64 85/174/64
f 83/172/5 82/162/5 87/170/5 86/173/5
f 81/161/6 84/175/6 85/176/6 88/169/6
f 89/177/65 90/178/65 91/179/65 92/180/65
f 93/181/66 94/182/66 95/183/66 96/184/66
f 90/178/67 89/177/67 96/185/67 95/186/67
f 92/187/68 91/188/68 94/189/68 93/190/68
f 91/188/69 90/178/69 95/186/69 94/189/69
f 89/177/70 92/191/70 93/192/70 96/185/70
f 97/193/71 98/194/71 99/195/71 100/196/71
f 101/197/72 102/198/72 103/199/72 104/200/72
f 98/194/73 97/193/73 104/201/73 103/202/73
f 100/203/74 99/204/74 102/205/74 101/206/74
f 99/204/75 98/194/75 103/202/75 102/205/75
f 97/193/76 100/207/76 101/208/76 104/201/76
f 105/209/71 106/210/71 107/211/71 108/212/71
f 109/213/72 110/214/72 111/215/72 112/216/72
f 106/210/29 105/209/29 112/217/29 111/218/29
f 108/219/30 107/220/30 110/221/30 109/222/30
f 107/220/5 106/210/5 111/218/5 110/221/5
f 105/209/6 108/223/6 109/224/6 112/217/6
