# Blender v2.79 (sub 0) OBJ File: ''
# www.blender.org
mtllib vegetation_pottable_tree_small_1.mtl
o vegetation_pottable_tree_small_1
v -0.062500 1.125000 0.062500
v 0.062500 1.125000 0.062500
v 0.062500 1.125000 -0.062500
v -0.062500 1.125000 -0.062500
v -0.062500 -0.500000 -0.062500
v 0.062500 -0.500000 -0.062500
v 0.062500 -0.500000 0.062500
v -0.062500 -0.500000 0.062500
v -0.135532 0.926629 0.355335
v 0.236903 0.907003 0.316190
v 0.232872 0.938210 0.262189
v -0.139563 0.957836 0.301333
v -0.188233 0.525417 0.055072
v 0.184202 0.505791 0.015927
v 0.188233 0.474583 0.069928
v -0.184202 0.494209 0.109073
v 0.077609 1.225046 0.307930
v 0.342411 1.205420 0.043128
v 0.301095 1.224707 0.000383
v 0.036293 1.244333 0.265184
v -0.090559 0.769457 0.173528
v 0.174243 0.749831 -0.091274
v 0.215559 0.730543 -0.048528
v -0.049243 0.750169 0.216274
v -0.001768 1.385320 0.285411
v 0.147425 1.463287 -0.049682
v 0.090130 1.466487 -0.074447
v -0.059063 1.388520 0.260646
v -0.040744 0.900116 0.155164
v 0.108449 0.978083 -0.179929
v 0.165744 0.974884 -0.155164
v 0.016551 0.896917 0.179929
v -0.396194 0.854888 -0.023848
v -0.208694 0.854888 0.300912
v -0.161819 0.886138 0.273848
v -0.349319 0.886138 -0.050911
v -0.132812 0.453125 -0.175911
v 0.054688 0.453125 0.148848
v 0.007812 0.421875 0.175911
v -0.179688 0.421875 -0.148848
v 0.211372 1.045077 -0.155100
v -0.155434 1.045077 -0.233067
v -0.168144 1.058071 -0.173268
v 0.198661 1.058071 -0.095301
v 0.177047 0.568997 0.006383
v -0.189758 0.568997 -0.071584
v -0.177047 0.556003 -0.131382
v 0.189758 0.556003 -0.053416
v 0.309860 0.806316 -0.126420
v 0.031181 0.806316 -0.377344
v -0.006081 0.834691 -0.335960
v 0.272598 0.834690 -0.085036
v 0.120708 0.389187 0.083654
v -0.157971 0.389187 -0.167270
v -0.120708 0.360813 -0.208654
v 0.157971 0.360813 0.042270
v -0.166035 1.107577 -0.206235
v -0.224698 1.107577 0.164148
v -0.164317 1.120571 0.173711
v -0.105654 1.120571 -0.196672
v -0.002978 0.631497 -0.180410
v -0.061641 0.631497 0.189973
v -0.122022 0.618503 0.180410
v -0.063359 0.618503 -0.189973
v -0.230373 1.170077 0.111547
v 0.061057 1.170077 0.347542
v 0.099530 1.183071 0.300032
v -0.191900 1.183071 0.064036
v -0.126478 0.693997 -0.016753
v 0.164951 0.693997 0.219243
v 0.126478 0.681003 0.266753
v -0.164951 0.681003 0.030758
v 0.343533 0.931316 0.082826
v 0.284870 0.931316 -0.287557
v 0.229868 0.959691 -0.278846
v 0.288531 0.959690 0.091538
v 0.064330 0.514187 0.127047
v 0.005667 0.514187 -0.243336
v 0.060670 0.485813 -0.252047
v 0.119333 0.485813 0.118336
v 0.071192 1.247679 -0.205938
v -0.253567 1.247679 -0.018438
v -0.222360 1.250950 0.035614
v 0.102399 1.250950 -0.151886
v 0.115483 0.751635 -0.129224
v -0.209276 0.751635 0.058276
v -0.240483 0.748365 0.004224
v 0.084276 0.748365 -0.183276
v 0.041065 1.498733 -0.099099
v -0.224100 1.498733 0.166066
v -0.180450 1.488956 0.209716
v 0.084715 1.488956 -0.055449
v 0.029408 0.995111 -0.110757
v -0.235757 0.995111 0.154408
v -0.279408 1.004889 0.110758
v -0.014243 1.004889 -0.154407
v -0.015842 1.235185 -0.336165
v 0.287539 1.235185 -0.115746
v 0.322478 1.215871 -0.163834
v 0.019096 1.215872 -0.384254
v -0.071721 0.740343 -0.259254
v 0.231660 0.740343 -0.038835
v 0.196721 0.759657 0.009254
v -0.106660 0.759657 -0.211165
v -0.094041 1.545077 -0.135120
v 0.126378 1.545077 0.168262
v 0.175837 1.558071 0.132328
v -0.044582 1.558071 -0.171054
v 0.039520 1.068997 -0.232157
v 0.259939 1.068997 0.071224
v 0.210480 1.056003 0.107158
v -0.009939 1.056003 -0.196224
v -0.229954 1.438028 0.038028
v 0.120139 1.438028 0.172416
v 0.142414 1.431494 0.114387
v -0.207679 1.431494 -0.020001
v -0.226409 0.934233 0.028792
v 0.123684 0.934233 0.163180
v 0.101409 0.940766 0.221209
v -0.248684 0.940767 0.086821
vt 1.046875 0.953125
vt 1.078125 0.953125
vt 1.078125 0.984375
vt 1.046875 0.984375
vt 1.078125 0.953125
vt 1.109375 0.953125
vt 1.109375 0.984375
vt 1.078125 0.984375
vt 1.046875 0.546875
vt 1.078125 0.546875
vt 1.140625 0.953125
vt 1.109375 0.953125
vt 1.109375 0.546875
vt 1.140625 0.546875
vt 1.015625 0.953125
vt 1.015625 0.546875
vt 1.281250 0.968750
vt 1.375000 0.968750
vt 1.375000 0.984375
vt 1.281250 0.984375
vt 1.375000 0.968750
vt 1.468750 0.968750
vt 1.468750 0.984375
vt 1.375000 0.984375
vt 1.281250 0.843750
vt 1.375000 0.843750
vt 1.484375 0.968750
vt 1.390625 0.968750
vt 1.390625 0.843750
vt 1.484375 0.843750
vt 1.265625 0.968750
vt 1.265625 0.843750
vt 1.531250 0.968750
vt 1.625000 0.968750
vt 1.625000 0.984375
vt 1.531250 0.984375
vt 1.625000 0.968750
vt 1.718750 0.968750
vt 1.718750 0.984375
vt 1.625000 0.984375
vt 1.531250 0.843750
vt 1.625000 0.843750
vt 1.734375 0.968750
vt 1.640625 0.968750
vt 1.640625 0.843750
vt 1.734375 0.843750
vt 1.515625 0.968750
vt 1.515625 0.843750
vt 1.781250 0.968750
vt 1.875000 0.968750
vt 1.875000 0.984375
vt 1.781250 0.984375
vt 1.875000 0.968750
vt 1.968750 0.968750
vt 1.968750 0.984375
vt 1.875000 0.984375
vt 1.781250 0.843750
vt 1.875000 0.843750
vt 1.984375 0.968750
vt 1.890625 0.968750
vt 1.890625 0.843750
vt 1.984375 0.843750
vt 1.765625 0.968750
vt 1.765625 0.843750
vt 1.281250 0.718750
vt 1.375000 0.718750
vt 1.375000 0.734375
vt 1.281250 0.734375
vt 1.375000 0.718750
vt 1.468750 0.718750
vt 1.468750 0.734375
vt 1.375000 0.734375
vt 1.281250 0.593750
vt 1.375000 0.593750
vt 1.484375 0.718750
vt 1.390625 0.718750
vt 1.390625 0.593750
vt 1.484375 0.593750
vt 1.265625 0.718750
vt 1.265625 0.593750
vt 1.531250 0.718750
vt 1.625000 0.718750
vt 1.625000 0.734375
vt 1.531250 0.734375
vt 1.625000 0.718750
vt 1.718750 0.718750
vt 1.718750 0.734375
vt 1.625000 0.734375
vt 1.531250 0.593750
vt 1.625000 0.593750
vt 1.734375 0.718750
vt 1.640625 0.718750
vt 1.640625 0.593750
vt 1.734375 0.593750
vt 1.515625 0.718750
vt 1.515625 0.593750
vt 1.781250 0.718750
vt 1.875000 0.718750
vt 1.875000 0.734375
vt 1.781250 0.734375
vt 1.875000 0.718750
vt 1.968750 0.718750
vt 1.968750 0.734375
vt 1.875000 0.734375
vt 1.781250 0.593750
vt 1.875000 0.593750
vt 1.984375 0.718750
vt 1.890625 0.718750
vt 1.890625 0.593750
vt 1.984375 0.593750
vt 1.765625 0.718750
vt 1.765625 0.593750
vt 1.031250 0.468750
vt 1.125000 0.468750
vt 1.125000 0.484375
vt 1.031250 0.484375
vt 1.125000 0.468750
vt 1.218750 0.468750
vt 1.218750 0.484375
vt 1.125000 0.484375
vt 1.031250 0.343750
vt 1.125000 0.343750
vt 1.234375 0.468750
vt 1.140625 0.468750
vt 1.140625 0.343750
vt 1.234375 0.343750
vt 1.015625 0.468750
vt 1.015625 0.343750
vt 1.281250 0.468750
vt 1.375000 0.468750
vt 1.375000 0.484375
vt 1.281250 0.484375
vt 1.375000 0.468750
vt 1.468750 0.468750
vt 1.468750 0.484375
vt 1.375000 0.484375
vt 1.281250 0.343750
vt 1.375000 0.343750
vt 1.484375 0.468750
vt 1.390625 0.468750
vt 1.390625 0.343750
vt 1.484375 0.343750
vt 1.265625 0.468750
vt 1.265625 0.343750
vt 1.531250 0.468750
vt 1.625000 0.468750
vt 1.625000 0.484375
vt 1.531250 0.484375
vt 1.625000 0.468750
vt 1.718750 0.468750
vt 1.718750 0.484375
vt 1.625000 0.484375
vt 1.531250 0.343750
vt 1.625000 0.343750
vt 1.734375 0.468750
vt 1.640625 0.468750
vt 1.640625 0.343750
vt 1.734375 0.343750
vt 1.515625 0.468750
vt 1.515625 0.343750
vt 1.781250 0.468750
vt 1.875000 0.468750
vt 1.875000 0.484375
vt 1.781250 0.484375
vt 1.875000 0.468750
vt 1.968750 0.468750
vt 1.968750 0.484375
vt 1.875000 0.484375
vt 1.781250 0.343750
vt 1.875000 0.343750
vt 1.984375 0.468750
vt 1.890625 0.468750
vt 1.890625 0.343750
vt 1.984375 0.343750
vt 1.765625 0.468750
vt 1.765625 0.343750
vt 1.031250 0.218750
vt 1.125000 0.218750
vt 1.125000 0.234375
vt 1.031250 0.234375
vt 1.125000 0.218750
vt 1.218750 0.218750
vt 1.218750 0.234375
vt 1.125000 0.234375
vt 1.031250 0.093750
vt 1.125000 0.093750
vt 1.234375 0.218750
vt 1.140625 0.218750
vt 1.140625 0.093750
vt 1.234375 0.093750
vt 1.015625 0.218750
vt 1.015625 0.093750
vt 1.281250 0.218750
vt 1.375000 0.218750
vt 1.375000 0.234375
vt 1.281250 0.234375
vt 1.375000 0.218750
vt 1.468750 0.218750
vt 1.468750 0.234375
vt 1.375000 0.234375
vt 1.281250 0.093750
vt 1.375000 0.093750
vt 1.484375 0.218750
vt 1.390625 0.218750
vt 1.390625 0.093750
vt 1.484375 0.093750
vt 1.265625 0.218750
vt 1.265625 0.093750
vt 1.531250 0.218750
vt 1.625000 0.218750
vt 1.625000 0.234375
vt 1.531250 0.234375
vt 1.625000 0.218750
vt 1.718750 0.218750
vt 1.718750 0.234375
vt 1.625000 0.234375
vt 1.531250 0.093750
vt 1.625000 0.093750
vt 1.734375 0.218750
vt 1.640625 0.218750
vt 1.640625 0.093750
vt 1.734375 0.093750
vt 1.515625 0.218750
vt 1.515625 0.093750
vt 1.781250 0.218750
vt 1.875000 0.218750
vt 1.875000 0.234375
vt 1.781250 0.234375
vt 1.875000 0.218750
vt 1.968750 0.218750
vt 1.968750 0.234375
vt 1.875000 0.234375
vt 1.781250 0.093750
vt 1.875000 0.093750
vt 1.984375 0.218750
vt 1.890625 0.218750
vt 1.890625 0.093750
vt 1.984375 0.093750
vt 1.765625 0.218750
vt 1.765625 0.093750
vn 0.0000 1.0000 0.0000
vn 0.0000 -1.0000 0.0000
vn 0.0000 -0.0000 1.0000
vn 0.0000 0.0000 -1.0000
vn 1.0000 0.0000 0.0000
vn -1.0000 0.0000 0.0000
vn 0.0973 0.8648 0.4925
vn -0.0973 -0.8648 -0.4925
vn 0.0645 -0.4993 0.8640
vn -0.0645 0.4993 -0.8640
vn 0.9932 -0.0523 -0.1044
vn -0.9932 0.0523 0.1044
vn 0.2537 0.9498 0.1833
vn -0.2537 -0.9498 -0.1833
vn 0.6611 -0.3086 0.6839
vn -0.6611 0.3086 -0.6839
vn 0.7061 -0.0523 -0.7061
vn -0.7061 0.0523 0.7061
vn -0.0366 0.9768 0.2110
vn 0.0366 -0.9768 -0.2110
vn 0.9167 -0.0512 0.3962
vn -0.9167 0.0512 -0.3962
vn 0.3978 0.2079 -0.8936
vn -0.3978 -0.2079 0.8936
vn -0.4330 0.8660 0.2500
vn 0.4330 -0.8660 -0.2500
vn -0.7500 -0.5000 0.4330
vn 0.7500 0.5000 -0.4330
vn 0.5000 -0.0000 0.8660
vn -0.5000 0.0000 -0.8660
vn 0.0432 0.9781 -0.2034
vn -0.0432 -0.9781 0.2034
vn 0.2034 -0.2079 -0.9568
vn -0.2034 0.2079 0.9568
vn -0.9781 0.0000 -0.2079
vn 0.9781 -0.0000 0.2079
vn 0.3038 0.8910 -0.3374
vn -0.3038 -0.8910 0.3374
vn 0.5962 -0.4540 -0.6621
vn -0.5962 0.4540 0.6621
vn -0.7431 0.0000 -0.6691
vn 0.7431 -0.0000 0.6691
vn -0.2054 0.9781 -0.0325
vn 0.2054 -0.9781 0.0325
vn -0.9661 -0.2079 -0.1530
vn 0.9661 0.2079 0.1530
vn -0.1564 -0.0000 0.9877
vn 0.1564 0.0000 -0.9877
vn -0.1308 0.9781 0.1616
vn 0.1308 -0.9781 -0.1616
vn -0.6156 -0.2079 0.7602
vn 0.6156 0.2079 -0.7602
vn 0.7771 -0.0000 0.6293
vn -0.7771 0.0000 -0.6293
vn 0.4484 0.8910 -0.0710
vn -0.4484 -0.8910 0.0710
vn 0.8800 -0.4540 -0.1394
vn -0.8800 0.4540 0.1394
vn -0.1564 0.0000 -0.9877
vn 0.1564 -0.0000 0.9877
vn -0.0262 0.9986 -0.0453
vn 0.0262 -0.9986 0.0453
vn -0.4993 -0.0523 -0.8648
vn 0.4993 0.0523 0.8648
vn -0.8660 -0.0000 0.5000
vn 0.8660 0.0000 -0.5000
vn 0.1106 0.9877 0.1106
vn -0.1106 -0.9877 -0.1106
vn -0.6984 0.1564 -0.6984
vn 0.6984 -0.1564 0.6984
vn -0.7071 -0.0000 0.7071
vn 0.7071 0.0000 -0.7071
vn 0.1816 0.9511 -0.2500
vn -0.1816 -0.9511 0.2500
vn -0.5590 0.3090 0.7694
vn 0.5590 -0.3090 -0.7694
vn 0.8090 0.0000 0.5878
vn -0.8090 0.0000 -0.5878
vn -0.1682 0.9781 0.1222
vn 0.1682 -0.9781 -0.1222
vn -0.7913 -0.2079 0.5749
vn 0.7913 0.2079 -0.5749
vn 0.5878 -0.0000 0.8090
vn -0.5878 0.0000 -0.8090
vn 0.0375 0.9945 -0.0976
vn -0.0375 -0.9945 0.0976
vn -0.3564 0.1045 0.9285
vn 0.3564 -0.1045 -0.9285
vn 0.9336 -0.0000 0.3584
vn -0.9336 0.0000 -0.3584
usemtl ModelMaterial
s off
f 1/1/1 2/2/1 3/3/1 4/4/1
f 5/5/2 6/6/2 7/7/2 8/8/2
f 2/2/3 1/1/3 8/9/3 7/10/3
f 4/11/4 3/12/4 6/13/4 5/14/4
f 3/12/5 2/2/5 7/10/5 6/13/5
f 1/1/6 4/15/6 5/16/6 8/9/6
f 9/17/7 10/18/7 11/19/7 12/20/7
f 13/21/8 14/22/8 15/23/8 16/24/8
f 10/18/9 9/17/9 16/25/9 15/26/9
f 12/27/10 11/28/10 14/29/10 13/30/10
f 11/28/11 10/18/11 15/26/11 14/29/11
f 9/17/12 12/31/12 13/32/12 16/25/12
f 17/33/13 18/34/13 19/35/13 20/36/13
f 21/37/14 22/38/14 23/39/14 24/40/14
f 18/34/15 17/33/15 24/41/15 23/42/15
f 20/43/16 19/44/16 22/45/16 21/46/16
f 19/44/17 18/34/17 23/42/17 22/45/17
f 17/33/18 20/47/18 21/48/18 24/41/18
f 25/49/19 26/50/19 27/51/19 28/52/19
f 29/53/20 30/54/20 31/55/20 32/56/20
f 26/50/21 25/49/21 32/57/21 31/58/21
f 28/59/22 27/60/22 30/61/22 29/62/22
f 27/60/23 26/50/23 31/58/23 30/61/23
f 25/49/24 28/63/24 29/64/24 32/57/24
f 33/65/25 34/66/25 35/67/25 36/68/25
f 37/69/26 38/70/26 39/71/26 40/72/26
f 34/66/27 33/65/27 40/73/27 39/74/27
f 36/75/28 35/76/28 38/77/28 37/78/28
f 35/76/29 34/66/29 39/74/29 38/77/29
f 33/65/30 36/79/30 37/80/30 40/73/30
f 41/81/31 42/82/31 43/83/31 44/84/31
f 45/85/32 46/86/32 47/87/32 48/88/32
f 42/82/33 41/81/33 48/89/33 47/90/33
f 44/91/34 43/92/34 46/93/34 45/94/34
f 43/92/35 42/82/35 47/90/35 46/93/35
f 41/81/36 44/95/36 45/96/36 48/89/36
f 49/97/37 50/98/37 51/99/37 52/100/37
f 53/101/38 54/102/38 55/103/38 56/104/38
f 50/98/39 49/97/39 56/105/39 55/106/39
f 52/107/40 51/108/40 54/109/40 53/110/40
f 51/108/41 50/98/41 55/106/41 54/109/41
f 49/97/42 52/111/42 53/112/42 56/105/42
f 57/113/43 58/114/43 59/115/43 60/116/43
f 61/117/44 62/118/44 63/119/44 64/120/44
f 58/114/45 57/113/45 64/121/45 63/122/45
f 60/123/46 59/124/46 62/125/46 61/126/46
f 59/124/47 58/114/47 63/122/47 62/125/47
f 57/113/48 60/127/48 61/128/48 64/121/48
f 65/129/49 66/130/49 67/131/49 68/132/49
f 69/133/50 70/134/50 71/135/50 72/136/50
f 66/130/51 65/129/51 72/137/51 71/138/51
f 68/139/52 67/140/52 70/141/52 69/142/52
f 67/140/53 66/130/53 71/138/53 70/141/53
f 65/129/54 68/143/54 69/144/54 72/137/54
f 73/145/55 74/146/55 75/147/55 76/148/55
f 77/149/56 78/150/56 79/151/56 80/152/56
f 74/146/57 73/145/57 80/153/57 79/154/57
f 76/155/58 75/156/58 78/157/58 77/158/58
f 75/156/59 74/146/59 79/154/59 78/157/59
f 73/145/60 76/159/60 77/160/60 80/153/60
f 81/161/61 82/162/61 83/163/61 84/164/61
f 85/165/62 86/166/62 87/167/62 88/168/62
f 82/162/63 81/161/63 88/169/63 87/170/63
f 84/171/64 83/172/64 86/173/64 85/174/64
f 83/172/65 82/162/65 87/170/65 86/173/65
f 81/161/66 84/175/66 85/176/66 88/169/66
f 89/177/67 90/178/67 91/179/67 92/180/67
f 93/181/68 94/182/68 95/183/68 96/184/68
f 90/178/69 89/177/69 96/185/69 95/186/69
f 92/187/70 91/188/70 94/189/70 93/190/70
f 91/188/71 90/178/71 95/186/71 94/189/71
f 89/177/72 92/191/72 93/192/72 96/185/72
f 97/193/73 98/194/73 99/195/73 100/196/73
f 101/197/74 102/198/74 103/199/74 104/200/74
f 98/194/75 97/193/75 104/201/75 103/202/75
f 100/203/76 99/204/76 102/205/76 101/206/76
f 99/204/77 98/194/77 103/202/77 102/205/77
f 97/193/78 100/207/78 101/208/78 104/201/78
f 105/209/79 106/210/79 107/211/79 108/212/79
f 109/213/80 110/214/80 111/215/80 112/216/80
f 106/210/81 105/209/81 112/217/81 111/218/81
f 108/219/82 107/220/82 110/221/82 109/222/82
f 107/220/83 106/210/83 111/218/83 110/221/83
f 105/209/84 108/223/84 109/224/84 112/217/84
f 113/225/85 114/226/85 115/227/85 116/228/85
f 117/229/86 118/230/86 119/231/86 120/232/86
f 114/226/87 113/225/87 120/233/87 119/234/87
f 116/235/88 115/236/88 118/237/88 117/238/88
f 115/236/89 114/226/89 119/234/89 118/237/89
f 113/225/90 116/239/90 117/240/90 120/233/90
